<?xml version="1.0"?>

<!-- Created with Inkscape (http://www.inkscape.org/) --> <svg xmlns:dc="http://purl.org/dc/elements/1.1/" xmlns:cc="http://creativecommons.org/ns#" xmlns:rdf="http://www.w3.org/1999/02/22-rdf-syntax-ns#" xmlns:svg="http://www.w3.org/2000/svg" xmlns="http://www.w3.org/2000/svg" xmlns:xlink="http://www.w3.org/1999/xlink" xmlns:sodipodi="http://sodipodi.sourceforge.net/DTD/sodipodi-0.dtd" xmlns:inkscape="http://www.inkscape.org/namespaces/inkscape" width="80.660118" height="80.660118" viewBox="0 0 80.660118 80.660118" version="1.1" id="svg8" inkscape:version="0.92.4 5da689c313, 2019-01-14" sodipodi:docname="circular_buffer.svg"> <defs id="defs2"> <marker inkscape:stockid="TriangleOutL" orient="auto" refY="0.0" refX="0.0" id="marker18462" style="overflow:visible" inkscape:isstock="true"> <path id="path18460" d="M 5.77,0.0 L -2.88,5.0 L -2.88,-5.0 L 5.77,0.0 z " style="fill-rule:evenodd;stroke:#ea6b66;stroke-width:1pt;stroke-opacity:1;fill:#ea6b66;fill-opacity:1" transform="scale(0.8)"></path> </marker> <marker inkscape:isstock="true" style="overflow:visible" id="marker18299" refX="0.0" refY="0.0" orient="auto" inkscape:stockid="TriangleOutL" inkscape:collect="always"> <path transform="scale(0.8)" style="fill-rule:evenodd;stroke:#ffb570;stroke-width:1pt;stroke-opacity:1;fill:#ffb570;fill-opacity:1" d="M 5.77,0.0 L -2.88,5.0 L -2.88,-5.0 L 5.77,0.0 z " id="path18297"></path> </marker> <marker inkscape:stockid="TriangleOutL" orient="auto" refY="0.0" refX="0.0" id="TriangleOutL" style="overflow:visible" inkscape:isstock="true" inkscape:collect="always"> <path id="path5229" d="M 5.77,0.0 L -2.88,5.0 L -2.88,-5.0 L 5.77,0.0 z " style="fill-rule:evenodd;stroke:#808080;stroke-width:1pt;stroke-opacity:1;fill:#808080;fill-opacity:1" transform="scale(0.8)"></path> </marker> <marker inkscape:stockid="TriangleOutM" orient="auto" refY="0.0" refX="0.0" id="TriangleOutM" style="overflow:visible" inkscape:isstock="true"> <path id="path5232" d="M 5.77,0.0 L -2.88,5.0 L -2.88,-5.0 L 5.77,0.0 z " style="fill-rule:evenodd;stroke:#808080;stroke-width:1pt;stroke-opacity:1;fill:#808080;fill-opacity:1" transform="scale(0.4)"></path> </marker> <marker inkscape:stockid="Arrow2Mend" orient="auto" refY="0.0" refX="0.0" id="Arrow2Mend" style="overflow:visible;" inkscape:isstock="true"> <path id="path5114" style="fill-rule:evenodd;stroke-width:0.625;stroke-linejoin:round;stroke:#808080;stroke-opacity:1;fill:#808080;fill-opacity:1" d="M 8.7185878,4.0337352 L -2.2072895,0.016013256 L 8.7185884,-4.0017078 C 6.9730900,-1.6296469 6.9831476,1.6157441 8.7185878,4.0337352 z " transform="scale(0.6) rotate(180) translate(0,0)"></path> </marker> <marker inkscape:stockid="ExperimentalArrow" orient="auto-start-reverse" refY="3.0" refX="5.0" id="marker17206" inkscape:isstock="true"> <path id="path17204" d="m 10,3 -10,3 0,-6 z" style="fill:#ea6b66;stroke:#ea6b66;stroke-opacity:1;fill-opacity:1"></path> </marker> <marker inkscape:stockid="ExperimentalArrow" orient="auto-start-reverse" refY="3.0" refX="5.0" id="marker17073" inkscape:isstock="true"> <path id="path17071" d="m 10,3 -10,3 0,-6 z" style="fill:#ffb570;stroke:#ffb570;stroke-opacity:1;fill-opacity:1"></path> </marker> <marker inkscape:stockid="ExperimentalArrow" orient="auto-start-reverse" refY="3.0" refX="5.0" id="ExperimentalArrow" inkscape:isstock="true"> <path id="path5340" d="m 10,3 -10,3 0,-6 z" style="fill:context-stroke;stroke:#808080;stroke-opacity:1"></path> </marker> <marker inkscape:stockid="Scissors" orient="auto" refY="0.0" refX="0.0" id="Scissors" style="overflow:visible" inkscape:isstock="true"> <path id="schere" d="M 9.0898857,-3.6061018 C 8.1198849,-4.7769976 6.3697607,-4.7358294 5.0623558,-4.2327734 L -3.1500488,-1.1548705 C -5.5383421,-2.4615840 -7.8983361,-2.0874077 -7.8983361,-2.7236578 C -7.8983361,-3.2209742 -7.4416699,-3.1119800 -7.5100293,-4.4068519 C -7.5756648,-5.6501286 -8.8736064,-6.5699315 -10.100428,-6.4884954 C -11.327699,-6.4958500 -12.599867,-5.5553341 -12.610769,-4.2584343 C -12.702194,-2.9520479 -11.603560,-1.7387447 -10.304005,-1.6532027 C -8.7816644,-1.4265411 -6.0857470,-2.3487593 -4.8210600,-0.082342643 C -5.7633447,1.6559151 -7.4350844,1.6607341 -8.9465707,1.5737277 C -10.201445,1.5014928 -11.708664,1.8611256 -12.307219,3.0945882 C -12.885586,4.2766744 -12.318421,5.9591904 -10.990470,6.3210002 C -9.6502788,6.8128279 -7.8098011,6.1912892 -7.4910978,4.6502760 C -7.2454393,3.4624530 -8.0864637,2.9043186 -7.7636052,2.4731223 C -7.5199917,2.1477623 -5.9728246,2.3362771 -3.2164999,1.0982979 L 5.6763468,4.2330688 C 6.8000164,4.5467672 8.1730685,4.5362646 9.1684433,3.4313614 L -0.051640930,-0.053722219 L 9.0898857,-3.6061018 z M -9.2179159,-5.5066058 C -7.9233569,-4.7838060 -8.0290767,-2.8230356 -9.3743431,-2.4433169 C -10.590861,-2.0196559 -12.145370,-3.2022863 -11.757521,-4.5207817 C -11.530373,-5.6026336 -10.104134,-6.0014137 -9.2179159,-5.5066058 z M -9.1616516,2.5107591 C -7.8108215,3.0096239 -8.0402087,5.2951947 -9.4138723,5.6023681 C -10.324932,5.9187072 -11.627422,5.4635705 -11.719569,4.3902287 C -11.897178,3.0851737 -10.363484,1.9060805 -9.1616516,2.5107591 z " style="fill:#808080;stroke:#808080;stroke-opacity:1;fill-opacity:1"></path> </marker> <marker inkscape:stockid="Torso" orient="auto" refY="0.0" refX="0.0" id="Torso" style="overflow:visible" inkscape:isstock="true"> <g id="g5313" transform="scale(0.7)" style="stroke:#808080;stroke-opacity:1;fill:#808080;fill-opacity:1"> <path id="path5299" d="M -4.7792281,-3.2395420 C -2.4288541,-2.8736027 0.52103922,-1.3019943 0.25792722,0.38794346 C -0.0051877922,2.0778819 -2.2126741,2.6176539 -4.5630471,2.2517169 C -6.9134221,1.8857769 -8.5210350,0.75201414 -8.2579220,-0.93792336 C -7.9948090,-2.6278615 -7.1296041,-3.6054813 -4.7792281,-3.2395420 z " style="fill:#808080;fill-opacity:1;fill-rule:evenodd;stroke:#808080;stroke-width:1.25;stroke-opacity:1"></path> <path id="path5301" d="M 4.4598789,0.088665736 C -2.5564571,-4.3783320 5.2248769,-3.9061806 -0.84829578,-8.7197331" style="fill:#808080;fill-opacity:1;fill-rule:evenodd;stroke:#808080;stroke-width:1pt;stroke-opacity:1"></path> <path id="path5303" d="M 4.9298719,0.057520736 C -1.3872731,1.7494689 1.8027579,5.4782079 -4.9448731,7.5462725" style="fill:#808080;fill-opacity:1;fill-rule:evenodd;stroke:#808080;stroke-width:1pt;stroke-opacity:1"></path> <rect id="rect5305" transform="matrix(0.527536,-0.849533,0.887668,0.460484,0,0)" y="-1.7408575" x="-10.391706" height="2.7608147" width="2.6366582" style="fill-rule:evenodd;stroke-width:1pt;stroke:#808080;stroke-opacity:1;fill:#808080;fill-opacity:1"></rect> <rect id="rect5307" transform="matrix(0.671205,-0.741272,0.790802,0.612072,0,0)" y="-7.9629307" x="4.9587269" height="2.8614161" width="2.7327356" style="fill-rule:evenodd;stroke-width:1pt;stroke:#808080;stroke-opacity:1;fill:#808080;fill-opacity:1"></rect> <path id="path5309" transform="matrix(0,-1.109517,1.109517,0,25.96648,19.71619)" d="M 16.779951 -28.685045 A 0.60731727 0.60731727 0 1 0 15.565317,-28.685045 A 0.60731727 0.60731727 0 1 0 16.779951 -28.685045 z" style="fill:#808080;fill-opacity:1;fill-rule:evenodd;stroke:#808080;stroke-width:1pt;stroke-opacity:1"></path> <path id="path5311" transform="matrix(0,-1.109517,1.109517,0,26.82450,16.99126)" d="M 16.779951 -28.685045 A 0.60731727 0.60731727 0 1 0 15.565317,-28.685045 A 0.60731727 0.60731727 0 1 0 16.779951 -28.685045 z" style="fill:#808080;fill-opacity:1;fill-rule:evenodd;stroke:#808080;stroke-width:1pt;stroke-opacity:1"></path> </g> </marker> <marker inkscape:stockid="Tail" orient="auto" refY="0.0" refX="0.0" id="Tail" style="overflow:visible" inkscape:isstock="true"> <g id="g5135" transform="scale(-1.2)" style="stroke:#808080;stroke-opacity:1;fill:#808080;fill-opacity:1"> <path id="path5123" d="M -3.8048674,-3.9585227 L 0.54352094,0" style="fill:#808080;fill-rule:evenodd;stroke:#808080;stroke-width:0.8;stroke-linecap:round;stroke-opacity:1;fill-opacity:1"></path> <path id="path5125" d="M -1.2866832,-3.9585227 L 3.0617053,0" style="fill:#808080;fill-rule:evenodd;stroke:#808080;stroke-width:0.8;stroke-linecap:round;stroke-opacity:1;fill-opacity:1"></path> <path id="path5127" d="M 1.3053582,-3.9585227 L 5.6537466,0" style="fill:#808080;fill-rule:evenodd;stroke:#808080;stroke-width:0.8;stroke-linecap:round;stroke-opacity:1;fill-opacity:1"></path> <path id="path5129" d="M -3.8048674,4.1775838 L 0.54352094,0.21974226" style="fill:#808080;fill-rule:evenodd;stroke:#808080;stroke-width:0.8;stroke-linecap:round;stroke-opacity:1;fill-opacity:1"></path> <path id="path5131" d="M -1.2866832,4.1775838 L 3.0617053,0.21974226" style="fill:#808080;fill-rule:evenodd;stroke:#808080;stroke-width:0.8;stroke-linecap:round;stroke-opacity:1;fill-opacity:1"></path> <path id="path5133" d="M 1.3053582,4.1775838 L 5.6537466,0.21974226" style="fill:#808080;fill-rule:evenodd;stroke:#808080;stroke-width:0.8;stroke-linecap:round;stroke-opacity:1;fill-opacity:1"></path> </g> </marker> <marker inkscape:stockid="StopL" orient="auto" refY="0.0" refX="0.0" id="StopL" style="overflow:visible" inkscape:isstock="true"> <path id="path5256" d="M 0.0,5.65 L 0.0,-5.65" style="fill:none;fill-opacity:0.75;fill-rule:evenodd;stroke:#808080;stroke-width:1pt;stroke-opacity:1" transform="scale(0.8)"></path> </marker> <marker inkscape:isstock="true" style="overflow:visible" id="marker15149" refX="0" refY="0" orient="auto" inkscape:stockid="Arrow2Lend"> <path inkscape:connector-curvature="0" transform="matrix(-1.1,0,0,-1.1,-1.1,0)" d="M 8.7185878,4.0337352 -2.2072895,0.01601326 8.7185884,-4.0017078 c -1.7454984,2.3720609 -1.7354408,5.6174519 -6e-7,8.035443 z" style="fill:#808080;fill-opacity:1;fill-rule:evenodd;stroke:#808080;stroke-width:0.625;stroke-linejoin:round;stroke-opacity:1" id="path15147"></path> </marker> <marker inkscape:stockid="Arrow1Mend" orient="auto" refY="0" refX="0" id="Arrow1Mend" style="overflow:visible" inkscape:isstock="true"> <path id="path5096" d="M 0,0 5,-5 -12.5,0 5,5 Z" style="fill:#808080;fill-opacity:1;fill-rule:evenodd;stroke:#808080;stroke-width:1.00000003pt;stroke-opacity:1" transform="matrix(-0.4,0,0,-0.4,-4,0)" inkscape:connector-curvature="0"></path> </marker> <marker inkscape:stockid="Arrow1Send" orient="auto" refY="0" refX="0" id="Arrow1Send" style="overflow:visible" inkscape:isstock="true"> <path id="path5102" d="M 0,0 5,-5 -12.5,0 5,5 Z" style="fill:#000000;fill-opacity:1;fill-rule:evenodd;stroke:#000000;stroke-width:1.00000003pt;stroke-opacity:1" transform="matrix(-0.2,0,0,-0.2,-1.2,0)" inkscape:connector-curvature="0"></path> </marker> <marker inkscape:stockid="Arrow1Lend" orient="auto" refY="0" refX="0" id="Arrow1Lend" style="overflow:visible" inkscape:isstock="true"> <path id="path5090" d="M 0,0 5,-5 -12.5,0 5,5 Z" style="fill:#ffb570;fill-opacity:1;fill-rule:evenodd;stroke:#ffb570;stroke-width:1.00000003pt;stroke-opacity:1" transform="matrix(-0.8,0,0,-0.8,-10,0)" inkscape:connector-curvature="0"></path> </marker> <marker inkscape:stockid="Arrow2Lend" orient="auto" refY="0" refX="0" id="Arrow2Lend-5" style="overflow:visible" inkscape:isstock="true"> <path inkscape:connector-curvature="0" id="path5108-1" style="fill:#ffb570;fill-opacity:1;fill-rule:evenodd;stroke:#ffb570;stroke-width:0.625;stroke-linejoin:round;stroke-opacity:1" d="M 8.7185878,4.0337352 -2.2072895,0.01601326 8.7185884,-4.0017078 c -1.7454984,2.3720609 -1.7354408,5.6174519 -6e-7,8.035443 z" transform="matrix(-1.1,0,0,-1.1,-1.1,0)"></path> </marker> </defs> <sodipodi:namedview id="base" pagecolor="#ffffff" bordercolor="#666666" borderopacity="1.0" inkscape:pageopacity="0.0" inkscape:pageshadow="2" inkscape:zoom="3.959798" inkscape:cx="135.01384" inkscape:cy="173.5529" inkscape:document-units="mm" inkscape:current-layer="layer1" showgrid="false" inkscape:object-paths="false" inkscape:snap-bbox="true" inkscape:snap-midpoints="true" inkscape:snap-object-midpoints="true" inkscape:snap-intersection-paths="true" inkscape:snap-bbox-edge-midpoints="false" inkscape:snap-smooth-nodes="true" inkscape:snap-bbox-midpoints="true" inkscape:snap-center="true" inkscape:window-width="2540" inkscape:window-height="1038" inkscape:window-x="10" inkscape:window-y="592" inkscape:window-maximized="0" inkscape:bbox-nodes="false" fit-margin-top="0" fit-margin-left="0" fit-margin-right="0" fit-margin-bottom="0"></sodipodi:namedview> <metadata id="metadata5"> <rdf:rdf> <cc:work rdf:about=""> <dc:format>image/svg+xml</dc:format> <dc:type rdf:resource="http://purl.org/dc/dcmitype/StillImage"></dc:type> <dc:title></dc:title> </cc:work> </rdf:rdf> </metadata> <g inkscape:label="Layer 1" inkscape:groupmode="layer" id="layer1" transform="translate(-34.698216,-54.736165)"> <g id="g5083"> <path d="M 104.92198,95.066223 A 29.893702,29.893702 0 0 1 75.028275,124.95992 29.893702,29.893702 0 0 1 45.134573,95.066223 29.893702,29.893702 0 0 1 75.028275,65.172522 29.893702,29.893702 0 0 1 104.92198,95.066223 Z m 10.17177,0 A 40.065475,40.065475 0 0 1 75.028275,135.1317 40.065475,40.065475 0 0 1 34.962799,95.066223 40.065475,40.065475 0 0 1 75.028275,55.000748 40.065475,40.065475 0 0 1 115.09375,95.066223 Z" style="fill:none;stroke:#000000;stroke-width:0.5291667;stroke-miterlimit:4;stroke-dasharray:none" id="path4004-3" inkscape:connector-curvature="0"></path> <path inkscape:tile-y0="55.000746" inkscape:tile-x0="74.763688" inkscape:tile-h="10.171773" inkscape:tile-w="0.52916669" inkscape:tile-cy="95.066221" inkscape:tile-cx="75.028273" inkscape:transform-center-y="-34.97959" inkscape:transform-center-x="1.5e-06" inkscape:connector-curvature="0" id="path4831" d="m 75.028273,55.000747 c 0,10.171773 0,10.171773 0,10.171773" style="fill:none;stroke:#000000;stroke-width:0.5291667;stroke-linecap:butt;stroke-linejoin:miter;stroke-miterlimit:4;stroke-dasharray:none;stroke-opacity:1"></path> <use height="100%" width="100%" inkscape:transform-center-y="34.933696" inkscape:transform-center-x="-55.177042" id="use5033" xlink:href="#path4831" inkscape:tiled-clone-of="#path4831" y="0" x="0"></use> <use height="100%" width="100%" inkscape:transform-center-y="37.596358" inkscape:transform-center-x="-68.563151" id="use5035" transform="rotate(22.5,75.028273,95.066221)" xlink:href="#path4831" inkscape:tiled-clone-of="#path4831" y="0" x="0"></use> <use height="100%" width="100%" inkscape:transform-center-y="45.17898" inkscape:transform-center-x="-79.911346" id="use5037" transform="rotate(45,75.028273,95.066221)" xlink:href="#path4831" inkscape:tiled-clone-of="#path4831" y="0" x="0"></use> <use height="100%" width="100%" inkscape:transform-center-y="56.527175" inkscape:transform-center-x="-87.493967" id="use5039" transform="rotate(67.5,75.028273,95.066221)" xlink:href="#path4831" inkscape:tiled-clone-of="#path4831" y="0" x="0"></use> <use height="100%" width="100%" inkscape:transform-center-y="69.913283" inkscape:transform-center-x="-90.15663" id="use5041" transform="rotate(90,75.028273,95.066221)" xlink:href="#path4831" inkscape:tiled-clone-of="#path4831" y="0" x="0"></use> <use height="100%" width="100%" inkscape:transform-center-y="83.299392" inkscape:transform-center-x="-87.493967" id="use5043" transform="rotate(112.5,75.028273,95.066221)" xlink:href="#path4831" inkscape:tiled-clone-of="#path4831" y="0" x="0"></use> <use height="100%" width="100%" inkscape:transform-center-y="94.647587" inkscape:transform-center-x="-79.911346" id="use5045" transform="rotate(135,75.028273,95.066221)" xlink:href="#path4831" inkscape:tiled-clone-of="#path4831" y="0" x="0"></use> <use height="100%" width="100%" inkscape:transform-center-y="102.23021" inkscape:transform-center-x="-68.563151" id="use5047" transform="rotate(157.5,75.028273,95.066221)" xlink:href="#path4831" inkscape:tiled-clone-of="#path4831" y="0" x="0"></use> <use height="100%" width="100%" inkscape:transform-center-y="104.89287" inkscape:transform-center-x="-55.177042" id="use5049" transform="rotate(180,75.028273,95.066221)" xlink:href="#path4831" inkscape:tiled-clone-of="#path4831" y="0" x="0"></use> <use height="100%" width="100%" inkscape:transform-center-y="102.23021" inkscape:transform-center-x="-41.790934" id="use5051" transform="rotate(-157.5,75.028273,95.066221)" xlink:href="#path4831" inkscape:tiled-clone-of="#path4831" y="0" x="0"></use> <use height="100%" width="100%" inkscape:transform-center-y="94.647587" inkscape:transform-center-x="-30.442739" id="use5053" transform="rotate(-135,75.028273,95.066221)" xlink:href="#path4831" inkscape:tiled-clone-of="#path4831" y="0" x="0"></use> <use height="100%" width="100%" inkscape:transform-center-y="83.299392" inkscape:transform-center-x="-22.860118" id="use5055" transform="rotate(-112.5,75.028273,95.066221)" xlink:href="#path4831" inkscape:tiled-clone-of="#path4831" y="0" x="0"></use> <use height="100%" width="100%" inkscape:transform-center-y="69.913283" inkscape:transform-center-x="-20.197455" id="use5057" transform="rotate(-90,75.028273,95.066221)" xlink:href="#path4831" inkscape:tiled-clone-of="#path4831" y="0" x="0"></use> <use height="100%" width="100%" inkscape:transform-center-y="56.527175" inkscape:transform-center-x="-22.860118" id="use5059" transform="rotate(-67.5,75.028273,95.066221)" xlink:href="#path4831" inkscape:tiled-clone-of="#path4831" y="0" x="0"></use> <use height="100%" width="100%" inkscape:transform-center-y="45.17898" inkscape:transform-center-x="-30.442739" id="use5061" transform="rotate(-45,75.028273,95.066221)" xlink:href="#path4831" inkscape:tiled-clone-of="#path4831" y="0" x="0"></use> <use height="100%" width="100%" inkscape:transform-center-y="37.596358" inkscape:transform-center-x="-41.790934" id="use5063" transform="rotate(-22.5,75.028273,95.066221)" xlink:href="#path4831" inkscape:tiled-clone-of="#path4831" y="0" x="0"></use> </g> <path style="fill:#ea6b66;stroke:#ea6b66;stroke-width:0.52916676;stroke-linecap:butt;stroke-linejoin:miter;stroke-miterlimit:1;stroke-dasharray:none;stroke-opacity:1;marker-end:url(#marker18462)" d="M 65.335248,88.629721 52.91868,80.165834" id="path6762" inkscape:connector-curvature="0" inkscape:transform-center-x="16.834379" inkscape:transform-center-y="-11.228288" sodipodi:nodetypes="cc"></path> <path style="fill:#ffb570;stroke:#ffb570;stroke-width:0.52916676;stroke-linecap:butt;stroke-linejoin:miter;stroke-miterlimit:4;stroke-dasharray:none;stroke-opacity:1;marker-end:url(#marker18299)" d="m 68.591771,104.75925 -8.166155,12.44007" id="path6762-3" inkscape:connector-curvature="0" inkscape:transform-center-x="11.228284" inkscape:transform-center-y="16.834381" sodipodi:nodetypes="cc"></path> <text xml:space="preserve" style="font-style:normal;font-weight:normal;font-size:10.58333302px;line-height:1.25;font-family:sans-serif;letter-spacing:0px;word-spacing:0px;fill:#ea6b66;fill-opacity:1;stroke:none;stroke-width:0.26458332" x="61.613934" y="93.216209" id="text14889"><tspan sodipodi:role="line" id="tspan14887" x="61.613934" y="93.216209" style="font-style:normal;font-variant:normal;font-weight:normal;font-stretch:normal;font-size:4.93888903px;font-family:'Liberation Sans';-inkscape-font-specification:'Liberation Sans';fill:#ea6b66;fill-opacity:1;stroke-width:0.26458332">write pointer</tspan></text> <text xml:space="preserve" style="font-style:normal;font-weight:normal;font-size:10.58333302px;line-height:1.25;font-family:sans-serif;letter-spacing:0px;word-spacing:0px;fill:#ffb570;fill-opacity:1;stroke:none;stroke-width:0.26458332" x="61.716427" y="103.06575" id="text14889-3"><tspan sodipodi:role="line" id="tspan14887-0" x="61.716427" y="103.06575" style="font-style:normal;font-variant:normal;font-weight:normal;font-stretch:normal;font-size:4.93888903px;font-family:'liberation sans';-inkscape-font-specification:'liberation sans';fill:#ffb570;fill-opacity:1;stroke-width:0.26458332">read pointer</tspan></text> <text xml:space="preserve" style="font-style:normal;font-weight:normal;font-size:10.58333302px;line-height:1.25;font-family:sans-serif;letter-spacing:0px;word-spacing:0px;fill:#808080;fill-opacity:1;stroke:none;stroke-width:0.26458332;" x="66.220024" y="77.377213" id="text14911"><tspan sodipodi:role="line" id="tspan14909" x="66.220024" y="77.377213" style="font-style:normal;font-variant:normal;font-weight:normal;font-stretch:normal;font-size:4.93888903px;font-family:'liberation sans';-inkscape-font-specification:'liberation sans';fill:#808080;stroke-width:0.26458332;stroke:none;">address</tspan></text> <path style="fill:none;fill-opacity:1;stroke:#808080;stroke-width:0.52916667;stroke-miterlimit:4;stroke-dasharray:none;stroke-opacity:1;marker-end:url(#TriangleOutL);paint-order:normal;marker-start:url(#StopL)" id="path14921" sodipodi:type="arc" sodipodi:cx="75.028275" sodipodi:cy="95.066223" sodipodi:rx="24.578146" sodipodi:ry="24.578146" sodipodi:start="4.712389" sodipodi:end="0" d="M 75.028275,70.488077 A 24.578146,24.578146 0 0 1 99.606421,95.066223" sodipodi:open="true"></path> </g>
</svg>
