<?xml version="1.0"?>
 <svg xmlns:xlink="http://www.w3.org/1999/xlink" style="fill-opacity:1; color-rendering:auto; color-interpolation:auto; text-rendering:auto; stroke:black; stroke-linecap:square; stroke-miterlimit:10; shape-rendering:auto; stroke-opacity:1; fill:black; stroke-dasharray:none; font-weight:normal; stroke-width:1; font-family:'Dialog'; font-style:normal; stroke-linejoin:miter; font-size:12px; stroke-dashoffset:0; image-rendering:auto;" width="550" height="408" xmlns="http://www.w3.org/2000/svg" viewBox="0 0 550 408"><defs id="genericDefs"></defs><g><defs id="defs1"><clipPath clipPathUnits="userSpaceOnUse" id="clipPath1"><path d="M0 0 L550 0 L550 408 L0 408 L0 0 Z"></path></clipPath></defs><g style="fill:white; stroke:white;"><rect x="0" y="0" width="550" style="clip-path:url(#clipPath1); stroke:none;" height="408"></rect></g><g style="fill:white; text-rendering:optimizeSpeed; color-rendering:optimizeSpeed; image-rendering:optimizeSpeed; shape-rendering:crispEdges; stroke:white; color-interpolation:sRGB;"><rect x="0" width="550" height="408" y="0" style="stroke:none;"></rect><path style="stroke:none;" d="M72 355 L498 355 L498 31 L72 31 Z"></path></g><g style="fill:rgb(38,38,38); text-rendering:geometricPrecision; image-rendering:optimizeQuality; color-rendering:optimizeQuality; stroke-linejoin:round; stroke:rgb(38,38,38); color-interpolation:linearRGB; stroke-width:0.6528;"><line y2="355" style="fill:none;" x1="72" x2="498" y1="355"></line><line y2="31" style="fill:none;" x1="72" x2="498" y1="31"></line><line y2="350.74" style="fill:none;" x1="72" x2="72" y1="355"></line><line y2="350.74" style="fill:none;" x1="157.2" x2="157.2" y1="355"></line><line y2="350.74" style="fill:none;" x1="242.4" x2="242.4" y1="355"></line><line y2="350.74" style="fill:none;" x1="327.6" x2="327.6" y1="355"></line><line y2="350.74" style="fill:none;" x1="412.8" x2="412.8" y1="355"></line><line y2="350.74" style="fill:none;" x1="498" x2="498" y1="355"></line><line y2="35.26" style="fill:none;" x1="72" x2="72" y1="31"></line><line y2="35.26" style="fill:none;" x1="157.2" x2="157.2" y1="31"></line><line y2="35.26" style="fill:none;" x1="242.4" x2="242.4" y1="31"></line><line y2="35.26" style="fill:none;" x1="327.6" x2="327.6" y1="31"></line><line y2="35.26" style="fill:none;" x1="412.8" x2="412.8" y1="31"></line><line y2="35.26" style="fill:none;" x1="498" x2="498" y1="31"></line></g><g transform="translate(72,361.2667)" style="font-size:18.2778px; fill:rgb(38,38,38); text-rendering:geometricPrecision; image-rendering:optimizeQuality; color-rendering:optimizeQuality; font-family:'SansSerif'; stroke:rgb(38,38,38); color-interpolation:linearRGB;"><path style="stroke:none;" d="M-0.2812 5.0469 Q-1.6562 5.0469 -2.3438 6.3984 Q-3.0312 7.75 -3.0312 10.4531 Q-3.0312 13.1562 -2.3438 14.5 Q-1.6562 15.8438 -0.2812 15.8438 Q1.1094 15.8438 1.7969 14.5 Q2.4844 13.1562 2.4844 10.4531 Q2.4844 7.75 1.7969 6.3984 Q1.1094 5.0469 -0.2812 5.0469 ZM-0.2812 3.6406 Q1.9219 3.6406 3.0859 5.3828 Q4.25 7.125 4.25 10.4531 Q4.25 13.7656 3.0859 15.5078 Q1.9219 17.25 -0.2812 17.25 Q-2.4844 17.25 -3.6484 15.5078 Q-4.8125 13.7656 -4.8125 10.4531 Q-4.8125 7.125 -3.6484 5.3828 Q-2.4844 3.6406 -0.2812 3.6406 Z"></path></g><g transform="translate(157.2,361.2667)" style="font-size:18.2778px; fill:rgb(38,38,38); text-rendering:geometricPrecision; image-rendering:optimizeQuality; color-rendering:optimizeQuality; font-family:'SansSerif'; stroke:rgb(38,38,38); color-interpolation:linearRGB;"><path style="stroke:none;" d="M-9.2812 5.0469 Q-10.6562 5.0469 -11.3438 6.3984 Q-12.0312 7.75 -12.0312 10.4531 Q-12.0312 13.1562 -11.3438 14.5 Q-10.6562 15.8438 -9.2812 15.8438 Q-7.8906 15.8438 -7.2031 14.5 Q-6.5156 13.1562 -6.5156 10.4531 Q-6.5156 7.75 -7.2031 6.3984 Q-7.8906 5.0469 -9.2812 5.0469 ZM-9.2812 3.6406 Q-7.0781 3.6406 -5.9141 5.3828 Q-4.75 7.125 -4.75 10.4531 Q-4.75 13.7656 -5.9141 15.5078 Q-7.0781 17.25 -9.2812 17.25 Q-11.4844 17.25 -12.6484 15.5078 Q-13.8125 13.7656 -13.8125 10.4531 Q-13.8125 7.125 -12.6484 5.3828 Q-11.4844 3.6406 -9.2812 3.6406 ZM-1.4669 14.7656 L0.3925 14.7656 L0.3925 17 L-1.4669 17 L-1.4669 14.7656 ZM5.8655 15.5 L12.0686 15.5 L12.0686 17 L3.7249 17 L3.7249 15.5 Q4.7405 14.4531 6.4827 12.6953 Q8.2249 10.9375 8.678 10.4219 Q9.5374 9.4688 9.8733 8.8047 Q10.2092 8.1406 10.2092 7.5 Q10.2092 6.4531 9.4749 5.7969 Q8.7405 5.1406 7.5686 5.1406 Q6.7249 5.1406 5.803 5.4297 Q4.8811 5.7188 3.8186 6.2969 L3.8186 4.5156 Q4.8967 4.0781 5.8264 3.8594 Q6.7561 3.6406 7.5217 3.6406 Q9.5686 3.6406 10.7795 4.6562 Q11.9905 5.6719 11.9905 7.3906 Q11.9905 8.1875 11.6858 8.9141 Q11.3811 9.6406 10.5842 10.625 Q10.3655 10.875 9.1858 12.0938 Q8.0061 13.3125 5.8655 15.5 Z"></path></g><g transform="translate(242.4,361.2667)" style="font-size:18.2778px; fill:rgb(38,38,38); text-rendering:geometricPrecision; image-rendering:optimizeQuality; color-rendering:optimizeQuality; font-family:'SansSerif'; stroke:rgb(38,38,38); color-interpolation:linearRGB;"><path style="stroke:none;" d="M-9.2812 5.0469 Q-10.6562 5.0469 -11.3438 6.3984 Q-12.0312 7.75 -12.0312 10.4531 Q-12.0312 13.1562 -11.3438 14.5 Q-10.6562 15.8438 -9.2812 15.8438 Q-7.8906 15.8438 -7.2031 14.5 Q-6.5156 13.1562 -6.5156 10.4531 Q-6.5156 7.75 -7.2031 6.3984 Q-7.8906 5.0469 -9.2812 5.0469 ZM-9.2812 3.6406 Q-7.0781 3.6406 -5.9141 5.3828 Q-4.75 7.125 -4.75 10.4531 Q-4.75 13.7656 -5.9141 15.5078 Q-7.0781 17.25 -9.2812 17.25 Q-11.4844 17.25 -12.6484 15.5078 Q-13.8125 13.7656 -13.8125 10.4531 Q-13.8125 7.125 -12.6484 5.3828 Q-11.4844 3.6406 -9.2812 3.6406 ZM-1.4669 14.7656 L0.3925 14.7656 L0.3925 17 L-1.4669 17 L-1.4669 14.7656 ZM9.2092 5.4219 L4.7405 12.4219 L9.2092 12.4219 L9.2092 5.4219 ZM8.7561 3.875 L10.9749 3.875 L10.9749 12.4219 L12.8499 12.4219 L12.8499 13.9062 L10.9749 13.9062 L10.9749 17 L9.2092 17 L9.2092 13.9062 L3.2874 13.9062 L3.2874 12.1875 L8.7561 3.875 Z"></path></g><g transform="translate(327.6,361.2667)" style="font-size:18.2778px; fill:rgb(38,38,38); text-rendering:geometricPrecision; image-rendering:optimizeQuality; color-rendering:optimizeQuality; font-family:'SansSerif'; stroke:rgb(38,38,38); color-interpolation:linearRGB;"><path style="stroke:none;" d="M-9.2812 5.0469 Q-10.6562 5.0469 -11.3438 6.3984 Q-12.0312 7.75 -12.0312 10.4531 Q-12.0312 13.1562 -11.3438 14.5 Q-10.6562 15.8438 -9.2812 15.8438 Q-7.8906 15.8438 -7.2031 14.5 Q-6.5156 13.1562 -6.5156 10.4531 Q-6.5156 7.75 -7.2031 6.3984 Q-7.8906 5.0469 -9.2812 5.0469 ZM-9.2812 3.6406 Q-7.0781 3.6406 -5.9141 5.3828 Q-4.75 7.125 -4.75 10.4531 Q-4.75 13.7656 -5.9141 15.5078 Q-7.0781 17.25 -9.2812 17.25 Q-11.4844 17.25 -12.6484 15.5078 Q-13.8125 13.7656 -13.8125 10.4531 Q-13.8125 7.125 -12.6484 5.3828 Q-11.4844 3.6406 -9.2812 3.6406 ZM-1.4669 14.7656 L0.3925 14.7656 L0.3925 17 L-1.4669 17 L-1.4669 14.7656 ZM8.3499 9.7344 Q7.1624 9.7344 6.4592 10.5469 Q5.7561 11.3594 5.7561 12.7969 Q5.7561 14.2031 6.4592 15.0234 Q7.1624 15.8438 8.3499 15.8438 Q9.553 15.8438 10.2483 15.0234 Q10.9436 14.2031 10.9436 12.7969 Q10.9436 11.3594 10.2483 10.5469 Q9.553 9.7344 8.3499 9.7344 ZM11.8811 4.1719 L11.8811 5.7812 Q11.2092 5.4688 10.5295 5.3047 Q9.8499 5.1406 9.178 5.1406 Q7.428 5.1406 6.4983 6.3203 Q5.5686 7.5 5.4436 9.9062 Q5.9592 9.1406 6.7405 8.7344 Q7.5217 8.3281 8.4592 8.3281 Q10.4436 8.3281 11.5842 9.5234 Q12.7249 10.7188 12.7249 12.7969 Q12.7249 14.8125 11.5295 16.0312 Q10.3342 17.25 8.3499 17.25 Q6.0842 17.25 4.8733 15.5078 Q3.6624 13.7656 3.6624 10.4531 Q3.6624 7.3438 5.1389 5.4922 Q6.6155 3.6406 9.1155 3.6406 Q9.7717 3.6406 10.4592 3.7734 Q11.1467 3.9062 11.8811 4.1719 Z"></path></g><g transform="translate(412.8,361.2667)" style="font-size:18.2778px; fill:rgb(38,38,38); text-rendering:geometricPrecision; image-rendering:optimizeQuality; color-rendering:optimizeQuality; font-family:'SansSerif'; stroke:rgb(38,38,38); color-interpolation:linearRGB;"><path style="stroke:none;" d="M-9.2812 5.0469 Q-10.6562 5.0469 -11.3438 6.3984 Q-12.0312 7.75 -12.0312 10.4531 Q-12.0312 13.1562 -11.3438 14.5 Q-10.6562 15.8438 -9.2812 15.8438 Q-7.8906 15.8438 -7.2031 14.5 Q-6.5156 13.1562 -6.5156 10.4531 Q-6.5156 7.75 -7.2031 6.3984 Q-7.8906 5.0469 -9.2812 5.0469 ZM-9.2812 3.6406 Q-7.0781 3.6406 -5.9141 5.3828 Q-4.75 7.125 -4.75 10.4531 Q-4.75 13.7656 -5.9141 15.5078 Q-7.0781 17.25 -9.2812 17.25 Q-11.4844 17.25 -12.6484 15.5078 Q-13.8125 13.7656 -13.8125 10.4531 Q-13.8125 7.125 -12.6484 5.3828 Q-11.4844 3.6406 -9.2812 3.6406 ZM-1.4669 14.7656 L0.3925 14.7656 L0.3925 17 L-1.4669 17 L-1.4669 14.7656 ZM8.1311 10.7656 Q6.8655 10.7656 6.1389 11.4453 Q5.4124 12.125 5.4124 13.3125 Q5.4124 14.5 6.1389 15.1719 Q6.8655 15.8438 8.1311 15.8438 Q9.3967 15.8438 10.1311 15.1641 Q10.8655 14.4844 10.8655 13.3125 Q10.8655 12.125 10.1389 11.4453 Q9.4124 10.7656 8.1311 10.7656 ZM6.3655 10.0156 Q5.2092 9.7344 4.5764 8.9531 Q3.9436 8.1719 3.9436 7.0469 Q3.9436 5.4688 5.0608 4.5547 Q6.178 3.6406 8.1311 3.6406 Q10.0999 3.6406 11.217 4.5547 Q12.3342 5.4688 12.3342 7.0469 Q12.3342 8.1719 11.6936 8.9531 Q11.053 9.7344 9.9124 10.0156 Q11.2092 10.3125 11.9202 11.1797 Q12.6311 12.0469 12.6311 13.3125 Q12.6311 15.2188 11.467 16.2344 Q10.303 17.25 8.1311 17.25 Q5.9592 17.25 4.7952 16.2344 Q3.6311 15.2188 3.6311 13.3125 Q3.6311 12.0469 4.3499 11.1797 Q5.0686 10.3125 6.3655 10.0156 ZM5.7092 7.2031 Q5.7092 8.2344 6.3499 8.8047 Q6.9905 9.375 8.1311 9.375 Q9.2717 9.375 9.9202 8.8047 Q10.5686 8.2344 10.5686 7.2031 Q10.5686 6.1875 9.9202 5.6172 Q9.2717 5.0469 8.1311 5.0469 Q6.9905 5.0469 6.3499 5.6172 Q5.7092 6.1875 5.7092 7.2031 Z"></path></g><g transform="translate(498,361.2667)" style="font-size:18.2778px; fill:rgb(38,38,38); text-rendering:geometricPrecision; image-rendering:optimizeQuality; color-rendering:optimizeQuality; font-family:'SansSerif'; stroke:rgb(38,38,38); color-interpolation:linearRGB;"><path style="stroke:none;" d="M-3.7656 15.5 L-0.8594 15.5 L-0.8594 5.5 L-4.0156 6.125 L-4.0156 4.5156 L-0.8906 3.875 L0.8906 3.875 L0.8906 15.5 L3.7969 15.5 L3.7969 17 L-3.7656 17 L-3.7656 15.5 Z"></path></g><g transform="translate(285.0002,384)" style="font-size:20.1056px; fill:rgb(38,38,38); text-rendering:geometricPrecision; image-rendering:optimizeQuality; color-rendering:optimizeQuality; font-family:'SansSerif'; stroke:rgb(38,38,38); color-interpolation:linearRGB;"><path style="stroke:none;" d="M-59.0312 4.4219 L-56.0938 4.4219 L-52.375 14.3438 L-48.6406 4.4219 L-45.7031 4.4219 L-45.7031 19 L-47.625 19 L-47.625 6.2031 L-51.375 16.2031 L-53.3594 16.2031 L-57.125 6.2031 L-57.125 19 L-59.0312 19 L-59.0312 4.4219 ZM-41.7726 8.0625 L-39.9758 8.0625 L-39.9758 19 L-41.7726 19 L-41.7726 8.0625 ZM-41.7726 3.7969 L-39.9758 3.7969 L-39.9758 6.0781 L-41.7726 6.0781 L-41.7726 3.7969 ZM-36.1899 3.7969 L-34.3931 3.7969 L-34.3931 19 L-36.1899 19 L-36.1899 3.7969 ZM-30.6073 3.7969 L-28.8104 3.7969 L-28.8104 19 L-30.6073 19 L-30.6073 3.7969 ZM-25.0246 8.0625 L-23.2277 8.0625 L-23.2277 19 L-25.0246 19 L-25.0246 8.0625 ZM-25.0246 3.7969 L-23.2277 3.7969 L-23.2277 6.0781 L-25.0246 6.0781 L-25.0246 3.7969 ZM-12.4731 8.3906 L-12.4731 10.0781 Q-13.2388 9.6875 -14.0591 9.4922 Q-14.8794 9.2969 -15.7544 9.2969 Q-17.0981 9.2969 -17.7622 9.7109 Q-18.4263 10.125 -18.4263 10.9375 Q-18.4263 11.5625 -17.9497 11.9219 Q-17.4731 12.2812 -16.0356 12.6094 L-15.4106 12.7344 Q-13.5044 13.1562 -12.6997 13.8984 Q-11.895 14.6406 -11.895 15.9844 Q-11.895 17.5 -13.0981 18.3906 Q-14.3013 19.2812 -16.4106 19.2812 Q-17.2856 19.2812 -18.2388 19.1094 Q-19.1919 18.9375 -20.2544 18.5938 L-20.2544 16.75 Q-19.2544 17.2656 -18.2856 17.5234 Q-17.3169 17.7812 -16.3638 17.7812 Q-15.0981 17.7812 -14.4184 17.3438 Q-13.7388 16.9062 -13.7388 16.125 Q-13.7388 15.3906 -14.2309 15 Q-14.7231 14.6094 -16.395 14.25 L-17.02 14.0938 Q-18.6919 13.75 -19.4341 13.0234 Q-20.1763 12.2969 -20.1763 11.0156 Q-20.1763 9.4844 -19.0825 8.6406 Q-17.9888 7.7969 -15.9731 7.7969 Q-14.9731 7.7969 -14.0981 7.9453 Q-13.2231 8.0938 -12.4731 8.3906 ZM0.3706 13.0781 L0.3706 13.9531 L-7.8794 13.9531 Q-7.77 15.8125 -6.77 16.7891 Q-5.77 17.7656 -3.9731 17.7656 Q-2.9419 17.7656 -1.9731 17.5078 Q-1.0044 17.25 -0.0356 16.75 L-0.0356 18.4375 Q-1.0044 18.8594 -2.02 19.0703 Q-3.0356 19.2812 -4.0825 19.2812 Q-6.7075 19.2812 -8.2309 17.7578 Q-9.7544 16.2344 -9.7544 13.6406 Q-9.7544 10.9531 -8.3091 9.375 Q-6.8637 7.7969 -4.395 7.7969 Q-2.1919 7.7969 -0.9106 9.2188 Q0.3706 10.6406 0.3706 13.0781 ZM-1.4262 12.5469 Q-1.4419 11.0781 -2.2466 10.2031 Q-3.0512 9.3281 -4.3794 9.3281 Q-5.8794 9.3281 -6.7856 10.1719 Q-7.6919 11.0156 -7.8325 12.5625 L-1.4262 12.5469 ZM11.2486 8.4844 L11.2486 10.1562 Q10.4986 9.7344 9.733 9.5312 Q8.9674 9.3281 8.1861 9.3281 Q6.4361 9.3281 5.4674 10.4297 Q4.4986 11.5312 4.4986 13.5469 Q4.4986 15.5469 5.4674 16.6562 Q6.4361 17.7656 8.1861 17.7656 Q8.9674 17.7656 9.733 17.5547 Q10.4986 17.3438 11.2486 16.9219 L11.2486 18.5781 Q10.4986 18.9375 9.6939 19.1094 Q8.8893 19.2812 7.983 19.2812 Q5.5143 19.2812 4.0611 17.7266 Q2.608 16.1719 2.608 13.5469 Q2.608 10.8594 4.0768 9.3281 Q5.5455 7.7969 8.108 7.7969 Q8.9361 7.7969 9.7252 7.9688 Q10.5143 8.1406 11.2486 8.4844 ZM18.6713 9.3281 Q17.2181 9.3281 16.3822 10.4531 Q15.5463 11.5781 15.5463 13.5469 Q15.5463 15.5 16.3822 16.6328 Q17.2181 17.7656 18.6713 17.7656 Q20.1088 17.7656 20.9447 16.6328 Q21.7806 15.5 21.7806 13.5469 Q21.7806 11.5938 20.9447 10.4609 Q20.1088 9.3281 18.6713 9.3281 ZM18.6713 7.7969 Q21.015 7.7969 22.351 9.3203 Q23.6869 10.8438 23.6869 13.5469 Q23.6869 16.2188 22.351 17.75 Q21.015 19.2812 18.6713 19.2812 Q16.3119 19.2812 14.9838 17.75 Q13.6556 16.2188 13.6556 13.5469 Q13.6556 10.8438 14.9838 9.3203 Q16.3119 7.7969 18.6713 7.7969 ZM35.8243 12.3906 L35.8243 19 L34.0275 19 L34.0275 12.4531 Q34.0275 10.9062 33.4181 10.1328 Q32.8087 9.3594 31.6056 9.3594 Q30.1368 9.3594 29.3009 10.2891 Q28.465 11.2188 28.465 12.8125 L28.465 19 L26.6525 19 L26.6525 8.0625 L28.465 8.0625 L28.465 9.7656 Q29.1056 8.7812 29.9806 8.2891 Q30.8556 7.7969 31.9962 7.7969 Q33.8868 7.7969 34.8556 8.9609 Q35.8243 10.125 35.8243 12.3906 ZM46.6533 9.7188 L46.6533 3.7969 L48.4501 3.7969 L48.4501 19 L46.6533 19 L46.6533 17.3594 Q46.0908 18.3281 45.2236 18.8047 Q44.3564 19.2812 43.1533 19.2812 Q41.1689 19.2812 39.9267 17.7031 Q38.6845 16.125 38.6845 13.5469 Q38.6845 10.9688 39.9267 9.3828 Q41.1689 7.7969 43.1533 7.7969 Q44.3564 7.7969 45.2236 8.2734 Q46.0908 8.75 46.6533 9.7188 ZM40.5283 13.5469 Q40.5283 15.5156 41.3486 16.6484 Q42.1689 17.7812 43.5908 17.7812 Q45.0126 17.7812 45.833 16.6484 Q46.6533 15.5156 46.6533 13.5469 Q46.6533 11.5625 45.833 10.4297 Q45.0126 9.2969 43.5908 9.2969 Q42.1689 9.2969 41.3486 10.4297 Q40.5283 11.5625 40.5283 13.5469 ZM59.1893 8.3906 L59.1893 10.0781 Q58.4237 9.6875 57.6034 9.4922 Q56.7831 9.2969 55.9081 9.2969 Q54.5643 9.2969 53.9003 9.7109 Q53.2362 10.125 53.2362 10.9375 Q53.2362 11.5625 53.7128 11.9219 Q54.1893 12.2812 55.6268 12.6094 L56.2518 12.7344 Q58.1581 13.1562 58.9628 13.8984 Q59.7675 14.6406 59.7675 15.9844 Q59.7675 17.5 58.5643 18.3906 Q57.3612 19.2812 55.2518 19.2812 Q54.3768 19.2812 53.4237 19.1094 Q52.4706 18.9375 51.4081 18.5938 L51.4081 16.75 Q52.4081 17.2656 53.3768 17.5234 Q54.3456 17.7812 55.2987 17.7812 Q56.5643 17.7812 57.244 17.3438 Q57.9237 16.9062 57.9237 16.125 Q57.9237 15.3906 57.4315 15 Q56.9393 14.6094 55.2675 14.25 L54.6425 14.0938 Q52.9706 13.75 52.2284 13.0234 Q51.4862 12.2969 51.4862 11.0156 Q51.4862 9.4844 52.58 8.6406 Q53.6737 7.7969 55.6893 7.7969 Q56.6893 7.7969 57.5643 7.9453 Q58.4393 8.0938 59.1893 8.3906 Z"></path></g><g style="fill:rgb(38,38,38); text-rendering:geometricPrecision; image-rendering:optimizeQuality; color-rendering:optimizeQuality; stroke-linejoin:round; stroke:rgb(38,38,38); color-interpolation:linearRGB; stroke-width:0.6528;"><line y2="31" style="fill:none;" x1="72" x2="72" y1="355"></line><line y2="31" style="fill:none;" x1="498" x2="498" y1="355"></line><line y2="355" style="fill:none;" x1="72" x2="76.26" y1="355"></line><line y2="308.7143" style="fill:none;" x1="72" x2="76.26" y1="308.7143"></line><line y2="262.4286" style="fill:none;" x1="72" x2="76.26" y1="262.4286"></line><line y2="216.1429" style="fill:none;" x1="72" x2="76.26" y1="216.1429"></line><line y2="169.8571" style="fill:none;" x1="72" x2="76.26" y1="169.8571"></line><line y2="123.5714" style="fill:none;" x1="72" x2="76.26" y1="123.5714"></line><line y2="77.2857" style="fill:none;" x1="72" x2="76.26" y1="77.2857"></line><line y2="31" style="fill:none;" x1="72" x2="76.26" y1="31"></line><line y2="355" style="fill:none;" x1="498" x2="493.74" y1="355"></line><line y2="308.7143" style="fill:none;" x1="498" x2="493.74" y1="308.7143"></line><line y2="262.4286" style="fill:none;" x1="498" x2="493.74" y1="262.4286"></line><line y2="216.1429" style="fill:none;" x1="498" x2="493.74" y1="216.1429"></line><line y2="169.8571" style="fill:none;" x1="498" x2="493.74" y1="169.8571"></line><line y2="123.5714" style="fill:none;" x1="498" x2="493.74" y1="123.5714"></line><line y2="77.2857" style="fill:none;" x1="498" x2="493.74" y1="77.2857"></line><line y2="31" style="fill:none;" x1="498" x2="493.74" y1="31"></line></g><g transform="translate(65.7333,355)" style="font-size:18.2778px; fill:rgb(38,38,38); text-rendering:geometricPrecision; image-rendering:optimizeQuality; color-rendering:optimizeQuality; font-family:'SansSerif'; stroke:rgb(38,38,38); color-interpolation:linearRGB;"><path style="stroke:none;" d="M-35.125 0.3438 L-30.3906 0.3438 L-30.3906 1.7969 L-35.125 1.7969 L-35.125 0.3438 ZM-23.6959 -5.9531 Q-25.0709 -5.9531 -25.7584 -4.6016 Q-26.4459 -3.25 -26.4459 -0.5469 Q-26.4459 2.1562 -25.7584 3.5 Q-25.0709 4.8438 -23.6959 4.8438 Q-22.3053 4.8438 -21.6178 3.5 Q-20.9303 2.1562 -20.9303 -0.5469 Q-20.9303 -3.25 -21.6178 -4.6016 Q-22.3053 -5.9531 -23.6959 -5.9531 ZM-23.6959 -7.3594 Q-21.4928 -7.3594 -20.3287 -5.6172 Q-19.1647 -3.875 -19.1647 -0.5469 Q-19.1647 2.7656 -20.3287 4.5078 Q-21.4928 6.25 -23.6959 6.25 Q-25.899 6.25 -27.0631 4.5078 Q-28.2272 2.7656 -28.2272 -0.5469 Q-28.2272 -3.875 -27.0631 -5.6172 Q-25.899 -7.3594 -23.6959 -7.3594 ZM-15.8816 3.7656 L-14.0222 3.7656 L-14.0222 6 L-15.8816 6 L-15.8816 3.7656 ZM-6.2836 -0.2344 Q-7.5492 -0.2344 -8.2758 0.4453 Q-9.0023 1.125 -9.0023 2.3125 Q-9.0023 3.5 -8.2758 4.1719 Q-7.5492 4.8438 -6.2836 4.8438 Q-5.0179 4.8438 -4.2836 4.1641 Q-3.5492 3.4844 -3.5492 2.3125 Q-3.5492 1.125 -4.2758 0.4453 Q-5.0023 -0.2344 -6.2836 -0.2344 ZM-8.0492 -0.9844 Q-9.2054 -1.2656 -9.8383 -2.0469 Q-10.4711 -2.8281 -10.4711 -3.9531 Q-10.4711 -5.5312 -9.3539 -6.4453 Q-8.2367 -7.3594 -6.2836 -7.3594 Q-4.3148 -7.3594 -3.1976 -6.4453 Q-2.0804 -5.5312 -2.0804 -3.9531 Q-2.0804 -2.8281 -2.7211 -2.0469 Q-3.3617 -1.2656 -4.5023 -0.9844 Q-3.2054 -0.6875 -2.4945 0.1797 Q-1.7836 1.0469 -1.7836 2.3125 Q-1.7836 4.2188 -2.9476 5.2344 Q-4.1117 6.25 -6.2836 6.25 Q-8.4554 6.25 -9.6195 5.2344 Q-10.7836 4.2188 -10.7836 2.3125 Q-10.7836 1.0469 -10.0648 0.1797 Q-9.3461 -0.6875 -8.0492 -0.9844 ZM-8.7054 -3.7969 Q-8.7054 -2.7656 -8.0648 -2.1953 Q-7.4242 -1.625 -6.2836 -1.625 Q-5.1429 -1.625 -4.4945 -2.1953 Q-3.8461 -2.7656 -3.8461 -3.7969 Q-3.8461 -4.8125 -4.4945 -5.3828 Q-5.1429 -5.9531 -6.2836 -5.9531 Q-7.4242 -5.9531 -8.0648 -5.3828 Q-8.7054 -4.8125 -8.7054 -3.7969 Z"></path></g><g transform="translate(65.7333,308.7143)" style="font-size:18.2778px; fill:rgb(38,38,38); text-rendering:geometricPrecision; image-rendering:optimizeQuality; color-rendering:optimizeQuality; font-family:'SansSerif'; stroke:rgb(38,38,38); color-interpolation:linearRGB;"><path style="stroke:none;" d="M-35.125 0.3438 L-30.3906 0.3438 L-30.3906 1.7969 L-35.125 1.7969 L-35.125 0.3438 ZM-23.6959 -5.9531 Q-25.0709 -5.9531 -25.7584 -4.6016 Q-26.4459 -3.25 -26.4459 -0.5469 Q-26.4459 2.1562 -25.7584 3.5 Q-25.0709 4.8438 -23.6959 4.8438 Q-22.3053 4.8438 -21.6178 3.5 Q-20.9303 2.1562 -20.9303 -0.5469 Q-20.9303 -3.25 -21.6178 -4.6016 Q-22.3053 -5.9531 -23.6959 -5.9531 ZM-23.6959 -7.3594 Q-21.4928 -7.3594 -20.3287 -5.6172 Q-19.1647 -3.875 -19.1647 -0.5469 Q-19.1647 2.7656 -20.3287 4.5078 Q-21.4928 6.25 -23.6959 6.25 Q-25.899 6.25 -27.0631 4.5078 Q-28.2272 2.7656 -28.2272 -0.5469 Q-28.2272 -3.875 -27.0631 -5.6172 Q-25.899 -7.3594 -23.6959 -7.3594 ZM-15.8816 3.7656 L-14.0222 3.7656 L-14.0222 6 L-15.8816 6 L-15.8816 3.7656 ZM-6.0648 -1.2656 Q-7.2523 -1.2656 -7.9554 -0.4531 Q-8.6586 0.3594 -8.6586 1.7969 Q-8.6586 3.2031 -7.9554 4.0234 Q-7.2523 4.8438 -6.0648 4.8438 Q-4.8617 4.8438 -4.1664 4.0234 Q-3.4711 3.2031 -3.4711 1.7969 Q-3.4711 0.3594 -4.1664 -0.4531 Q-4.8617 -1.2656 -6.0648 -1.2656 ZM-2.5336 -6.8281 L-2.5336 -5.2188 Q-3.2054 -5.5312 -3.8851 -5.6953 Q-4.5648 -5.8594 -5.2367 -5.8594 Q-6.9867 -5.8594 -7.9164 -4.6797 Q-8.8461 -3.5 -8.9711 -1.0938 Q-8.4554 -1.8594 -7.6742 -2.2656 Q-6.8929 -2.6719 -5.9554 -2.6719 Q-3.9711 -2.6719 -2.8304 -1.4766 Q-1.6898 -0.2812 -1.6898 1.7969 Q-1.6898 3.8125 -2.8851 5.0312 Q-4.0804 6.25 -6.0648 6.25 Q-8.3304 6.25 -9.5414 4.5078 Q-10.7523 2.7656 -10.7523 -0.5469 Q-10.7523 -3.6562 -9.2758 -5.5078 Q-7.7992 -7.3594 -5.2992 -7.3594 Q-4.6429 -7.3594 -3.9554 -7.2266 Q-3.2679 -7.0938 -2.5336 -6.8281 Z"></path></g><g transform="translate(65.7333,262.4286)" style="font-size:18.2778px; fill:rgb(38,38,38); text-rendering:geometricPrecision; image-rendering:optimizeQuality; color-rendering:optimizeQuality; font-family:'SansSerif'; stroke:rgb(38,38,38); color-interpolation:linearRGB;"><path style="stroke:none;" d="M-35.125 0.3438 L-30.3906 0.3438 L-30.3906 1.7969 L-35.125 1.7969 L-35.125 0.3438 ZM-23.6959 -5.9531 Q-25.0709 -5.9531 -25.7584 -4.6016 Q-26.4459 -3.25 -26.4459 -0.5469 Q-26.4459 2.1562 -25.7584 3.5 Q-25.0709 4.8438 -23.6959 4.8438 Q-22.3053 4.8438 -21.6178 3.5 Q-20.9303 2.1562 -20.9303 -0.5469 Q-20.9303 -3.25 -21.6178 -4.6016 Q-22.3053 -5.9531 -23.6959 -5.9531 ZM-23.6959 -7.3594 Q-21.4928 -7.3594 -20.3287 -5.6172 Q-19.1647 -3.875 -19.1647 -0.5469 Q-19.1647 2.7656 -20.3287 4.5078 Q-21.4928 6.25 -23.6959 6.25 Q-25.899 6.25 -27.0631 4.5078 Q-28.2272 2.7656 -28.2272 -0.5469 Q-28.2272 -3.875 -27.0631 -5.6172 Q-25.899 -7.3594 -23.6959 -7.3594 ZM-15.8816 3.7656 L-14.0222 3.7656 L-14.0222 6 L-15.8816 6 L-15.8816 3.7656 ZM-5.2054 -5.5781 L-9.6742 1.4219 L-5.2054 1.4219 L-5.2054 -5.5781 ZM-5.6586 -7.125 L-3.4398 -7.125 L-3.4398 1.4219 L-1.5648 1.4219 L-1.5648 2.9062 L-3.4398 2.9062 L-3.4398 6 L-5.2054 6 L-5.2054 2.9062 L-11.1273 2.9062 L-11.1273 1.1875 L-5.6586 -7.125 Z"></path></g><g transform="translate(65.7333,216.1429)" style="font-size:18.2778px; fill:rgb(38,38,38); text-rendering:geometricPrecision; image-rendering:optimizeQuality; color-rendering:optimizeQuality; font-family:'SansSerif'; stroke:rgb(38,38,38); color-interpolation:linearRGB;"><path style="stroke:none;" d="M-35.125 0.3438 L-30.3906 0.3438 L-30.3906 1.7969 L-35.125 1.7969 L-35.125 0.3438 ZM-23.6959 -5.9531 Q-25.0709 -5.9531 -25.7584 -4.6016 Q-26.4459 -3.25 -26.4459 -0.5469 Q-26.4459 2.1562 -25.7584 3.5 Q-25.0709 4.8438 -23.6959 4.8438 Q-22.3053 4.8438 -21.6178 3.5 Q-20.9303 2.1562 -20.9303 -0.5469 Q-20.9303 -3.25 -21.6178 -4.6016 Q-22.3053 -5.9531 -23.6959 -5.9531 ZM-23.6959 -7.3594 Q-21.4928 -7.3594 -20.3287 -5.6172 Q-19.1647 -3.875 -19.1647 -0.5469 Q-19.1647 2.7656 -20.3287 4.5078 Q-21.4928 6.25 -23.6959 6.25 Q-25.899 6.25 -27.0631 4.5078 Q-28.2272 2.7656 -28.2272 -0.5469 Q-28.2272 -3.875 -27.0631 -5.6172 Q-25.899 -7.3594 -23.6959 -7.3594 ZM-15.8816 3.7656 L-14.0222 3.7656 L-14.0222 6 L-15.8816 6 L-15.8816 3.7656 ZM-8.5492 4.5 L-2.3461 4.5 L-2.3461 6 L-10.6898 6 L-10.6898 4.5 Q-9.6742 3.4531 -7.932 1.6953 Q-6.1898 -0.0625 -5.7367 -0.5781 Q-4.8773 -1.5312 -4.5414 -2.1953 Q-4.2054 -2.8594 -4.2054 -3.5 Q-4.2054 -4.5469 -4.9398 -5.2031 Q-5.6742 -5.8594 -6.8461 -5.8594 Q-7.6898 -5.8594 -8.6117 -5.5703 Q-9.5336 -5.2812 -10.5961 -4.7031 L-10.5961 -6.4844 Q-9.5179 -6.9219 -8.5883 -7.1406 Q-7.6586 -7.3594 -6.8929 -7.3594 Q-4.8461 -7.3594 -3.6351 -6.3438 Q-2.4242 -5.3281 -2.4242 -3.6094 Q-2.4242 -2.8125 -2.7289 -2.0859 Q-3.0336 -1.3594 -3.8304 -0.375 Q-4.0492 -0.125 -5.2289 1.0938 Q-6.4086 2.3125 -8.5492 4.5 Z"></path></g><g transform="translate(65.7333,169.8571)" style="font-size:18.2778px; fill:rgb(38,38,38); text-rendering:geometricPrecision; image-rendering:optimizeQuality; color-rendering:optimizeQuality; font-family:'SansSerif'; stroke:rgb(38,38,38); color-interpolation:linearRGB;"><path style="stroke:none;" d="M-6.2812 -5.9531 Q-7.6562 -5.9531 -8.3438 -4.6016 Q-9.0312 -3.25 -9.0312 -0.5469 Q-9.0312 2.1562 -8.3438 3.5 Q-7.6562 4.8438 -6.2812 4.8438 Q-4.8906 4.8438 -4.2031 3.5 Q-3.5156 2.1562 -3.5156 -0.5469 Q-3.5156 -3.25 -4.2031 -4.6016 Q-4.8906 -5.9531 -6.2812 -5.9531 ZM-6.2812 -7.3594 Q-4.0781 -7.3594 -2.9141 -5.6172 Q-1.75 -3.875 -1.75 -0.5469 Q-1.75 2.7656 -2.9141 4.5078 Q-4.0781 6.25 -6.2812 6.25 Q-8.4844 6.25 -9.6484 4.5078 Q-10.8125 2.7656 -10.8125 -0.5469 Q-10.8125 -3.875 -9.6484 -5.6172 Q-8.4844 -7.3594 -6.2812 -7.3594 Z"></path></g><g transform="translate(65.7333,123.5714)" style="font-size:18.2778px; fill:rgb(38,38,38); text-rendering:geometricPrecision; image-rendering:optimizeQuality; color-rendering:optimizeQuality; font-family:'SansSerif'; stroke:rgb(38,38,38); color-interpolation:linearRGB;"><path style="stroke:none;" d="M-24.2812 -5.9531 Q-25.6562 -5.9531 -26.3438 -4.6016 Q-27.0312 -3.25 -27.0312 -0.5469 Q-27.0312 2.1562 -26.3438 3.5 Q-25.6562 4.8438 -24.2812 4.8438 Q-22.8906 4.8438 -22.2031 3.5 Q-21.5156 2.1562 -21.5156 -0.5469 Q-21.5156 -3.25 -22.2031 -4.6016 Q-22.8906 -5.9531 -24.2812 -5.9531 ZM-24.2812 -7.3594 Q-22.0781 -7.3594 -20.9141 -5.6172 Q-19.75 -3.875 -19.75 -0.5469 Q-19.75 2.7656 -20.9141 4.5078 Q-22.0781 6.25 -24.2812 6.25 Q-26.4844 6.25 -27.6484 4.5078 Q-28.8125 2.7656 -28.8125 -0.5469 Q-28.8125 -3.875 -27.6484 -5.6172 Q-26.4844 -7.3594 -24.2812 -7.3594 ZM-16.4669 3.7656 L-14.6075 3.7656 L-14.6075 6 L-16.4669 6 L-16.4669 3.7656 ZM-9.1345 4.5 L-2.9314 4.5 L-2.9314 6 L-11.2751 6 L-11.2751 4.5 Q-10.2595 3.4531 -8.5173 1.6953 Q-6.7751 -0.0625 -6.322 -0.5781 Q-5.4626 -1.5312 -5.1267 -2.1953 Q-4.7908 -2.8594 -4.7908 -3.5 Q-4.7908 -4.5469 -5.5251 -5.2031 Q-6.2595 -5.8594 -7.4314 -5.8594 Q-8.2751 -5.8594 -9.197 -5.5703 Q-10.1189 -5.2812 -11.1814 -4.7031 L-11.1814 -6.4844 Q-10.1033 -6.9219 -9.1736 -7.1406 Q-8.2439 -7.3594 -7.4783 -7.3594 Q-5.4314 -7.3594 -4.2205 -6.3438 Q-3.0095 -5.3281 -3.0095 -3.6094 Q-3.0095 -2.8125 -3.3142 -2.0859 Q-3.6189 -1.3594 -4.4158 -0.375 Q-4.6345 -0.125 -5.8142 1.0938 Q-6.9939 2.3125 -9.1345 4.5 Z"></path></g><g transform="translate(65.7333,77.2857)" style="font-size:18.2778px; fill:rgb(38,38,38); text-rendering:geometricPrecision; image-rendering:optimizeQuality; color-rendering:optimizeQuality; font-family:'SansSerif'; stroke:rgb(38,38,38); color-interpolation:linearRGB;"><path style="stroke:none;" d="M-24.2812 -5.9531 Q-25.6562 -5.9531 -26.3438 -4.6016 Q-27.0312 -3.25 -27.0312 -0.5469 Q-27.0312 2.1562 -26.3438 3.5 Q-25.6562 4.8438 -24.2812 4.8438 Q-22.8906 4.8438 -22.2031 3.5 Q-21.5156 2.1562 -21.5156 -0.5469 Q-21.5156 -3.25 -22.2031 -4.6016 Q-22.8906 -5.9531 -24.2812 -5.9531 ZM-24.2812 -7.3594 Q-22.0781 -7.3594 -20.9141 -5.6172 Q-19.75 -3.875 -19.75 -0.5469 Q-19.75 2.7656 -20.9141 4.5078 Q-22.0781 6.25 -24.2812 6.25 Q-26.4844 6.25 -27.6484 4.5078 Q-28.8125 2.7656 -28.8125 -0.5469 Q-28.8125 -3.875 -27.6484 -5.6172 Q-26.4844 -7.3594 -24.2812 -7.3594 ZM-16.4669 3.7656 L-14.6075 3.7656 L-14.6075 6 L-16.4669 6 L-16.4669 3.7656 ZM-5.7908 -5.5781 L-10.2595 1.4219 L-5.7908 1.4219 L-5.7908 -5.5781 ZM-6.2439 -7.125 L-4.0251 -7.125 L-4.0251 1.4219 L-2.1501 1.4219 L-2.1501 2.9062 L-4.0251 2.9062 L-4.0251 6 L-5.7908 6 L-5.7908 2.9062 L-11.7126 2.9062 L-11.7126 1.1875 L-6.2439 -7.125 Z"></path></g><g transform="translate(65.7333,31)" style="font-size:18.2778px; fill:rgb(38,38,38); text-rendering:geometricPrecision; image-rendering:optimizeQuality; color-rendering:optimizeQuality; font-family:'SansSerif'; stroke:rgb(38,38,38); color-interpolation:linearRGB;"><path style="stroke:none;" d="M-24.2812 -5.9531 Q-25.6562 -5.9531 -26.3438 -4.6016 Q-27.0312 -3.25 -27.0312 -0.5469 Q-27.0312 2.1562 -26.3438 3.5 Q-25.6562 4.8438 -24.2812 4.8438 Q-22.8906 4.8438 -22.2031 3.5 Q-21.5156 2.1562 -21.5156 -0.5469 Q-21.5156 -3.25 -22.2031 -4.6016 Q-22.8906 -5.9531 -24.2812 -5.9531 ZM-24.2812 -7.3594 Q-22.0781 -7.3594 -20.9141 -5.6172 Q-19.75 -3.875 -19.75 -0.5469 Q-19.75 2.7656 -20.9141 4.5078 Q-22.0781 6.25 -24.2812 6.25 Q-26.4844 6.25 -27.6484 4.5078 Q-28.8125 2.7656 -28.8125 -0.5469 Q-28.8125 -3.875 -27.6484 -5.6172 Q-26.4844 -7.3594 -24.2812 -7.3594 ZM-16.4669 3.7656 L-14.6075 3.7656 L-14.6075 6 L-16.4669 6 L-16.4669 3.7656 ZM-6.6501 -1.2656 Q-7.8376 -1.2656 -8.5408 -0.4531 Q-9.2439 0.3594 -9.2439 1.7969 Q-9.2439 3.2031 -8.5408 4.0234 Q-7.8376 4.8438 -6.6501 4.8438 Q-5.447 4.8438 -4.7517 4.0234 Q-4.0564 3.2031 -4.0564 1.7969 Q-4.0564 0.3594 -4.7517 -0.4531 Q-5.447 -1.2656 -6.6501 -1.2656 ZM-3.1189 -6.8281 L-3.1189 -5.2188 Q-3.7908 -5.5312 -4.4705 -5.6953 Q-5.1501 -5.8594 -5.822 -5.8594 Q-7.572 -5.8594 -8.5017 -4.6797 Q-9.4314 -3.5 -9.5564 -1.0938 Q-9.0408 -1.8594 -8.2595 -2.2656 Q-7.4783 -2.6719 -6.5408 -2.6719 Q-4.5564 -2.6719 -3.4158 -1.4766 Q-2.2751 -0.2812 -2.2751 1.7969 Q-2.2751 3.8125 -3.4705 5.0312 Q-4.6658 6.25 -6.6501 6.25 Q-8.9158 6.25 -10.1267 4.5078 Q-11.3376 2.7656 -11.3376 -0.5469 Q-11.3376 -3.6562 -9.8611 -5.5078 Q-8.3845 -7.3594 -5.8845 -7.3594 Q-5.2283 -7.3594 -4.5408 -7.2266 Q-3.8533 -7.0938 -3.1189 -6.8281 Z"></path></g><g transform="translate(25.8167,192.9998) rotate(-90)" style="font-size:20.1056px; fill:rgb(38,38,38); text-rendering:geometricPrecision; image-rendering:optimizeQuality; color-rendering:optimizeQuality; font-family:'SansSerif'; stroke:rgb(38,38,38); color-interpolation:linearRGB;"><path style="stroke:none;" d="M-44.6562 -17.6406 L-47.3438 -10.375 L-41.9844 -10.375 L-44.6562 -17.6406 ZM-45.7812 -19.5781 L-43.5469 -19.5781 L-37.9844 -5 L-40.0312 -5 L-41.3594 -8.7344 L-47.9375 -8.7344 L-49.2656 -5 L-51.3438 -5 L-45.7812 -19.5781 ZM-27.348 -13.8438 Q-26.6761 -15.0469 -25.7386 -15.625 Q-24.8011 -16.2031 -23.5355 -16.2031 Q-21.8324 -16.2031 -20.9027 -15.0078 Q-19.973 -13.8125 -19.973 -11.6094 L-19.973 -5 L-21.7699 -5 L-21.7699 -11.5469 Q-21.7699 -13.1094 -22.3324 -13.875 Q-22.8949 -14.6406 -24.0355 -14.6406 Q-25.4261 -14.6406 -26.2386 -13.7109 Q-27.0511 -12.7812 -27.0511 -11.1875 L-27.0511 -5 L-28.8636 -5 L-28.8636 -11.5469 Q-28.8636 -13.125 -29.4183 -13.8828 Q-29.973 -14.6406 -31.1292 -14.6406 Q-32.5042 -14.6406 -33.3167 -13.7109 Q-34.1292 -12.7812 -34.1292 -11.1875 L-34.1292 -5 L-35.9417 -5 L-35.9417 -15.9375 L-34.1292 -15.9375 L-34.1292 -14.2344 Q-33.5199 -15.25 -32.6605 -15.7266 Q-31.8011 -16.2031 -30.6136 -16.2031 Q-29.4261 -16.2031 -28.5902 -15.5938 Q-27.7542 -14.9844 -27.348 -13.8438 ZM-14.5555 -6.6406 L-14.5555 -0.8438 L-16.368 -0.8438 L-16.368 -15.9375 L-14.5555 -15.9375 L-14.5555 -14.2812 Q-13.993 -15.25 -13.1258 -15.7266 Q-12.2586 -16.2031 -11.0555 -16.2031 Q-9.0711 -16.2031 -7.8211 -14.6172 Q-6.5711 -13.0312 -6.5711 -10.4531 Q-6.5711 -7.875 -7.8211 -6.2969 Q-9.0711 -4.7188 -11.0555 -4.7188 Q-12.2586 -4.7188 -13.1258 -5.1953 Q-13.993 -5.6719 -14.5555 -6.6406 ZM-8.4461 -10.4531 Q-8.4461 -12.4375 -9.2586 -13.5703 Q-10.0711 -14.7031 -11.493 -14.7031 Q-12.9305 -14.7031 -13.743 -13.5703 Q-14.5555 -12.4375 -14.5555 -10.4531 Q-14.5555 -8.4844 -13.743 -7.3516 Q-12.9305 -6.2188 -11.493 -6.2188 Q-10.0711 -6.2188 -9.2586 -7.3516 Q-8.4461 -8.4844 -8.4461 -10.4531 ZM-3.535 -20.2031 L-1.7382 -20.2031 L-1.7382 -5 L-3.535 -5 L-3.535 -20.2031 ZM2.0477 -15.9375 L3.8445 -15.9375 L3.8445 -5 L2.0477 -5 L2.0477 -15.9375 ZM2.0477 -20.2031 L3.8445 -20.2031 L3.8445 -17.9219 L2.0477 -17.9219 L2.0477 -20.2031 ZM9.396 -19.0469 L9.396 -15.9375 L13.0991 -15.9375 L13.0991 -14.5469 L9.396 -14.5469 L9.396 -8.6094 Q9.396 -7.2656 9.7632 -6.8828 Q10.1303 -6.5 11.2553 -6.5 L13.0991 -6.5 L13.0991 -5 L11.2553 -5 Q9.1772 -5 8.3882 -5.7734 Q7.5991 -6.5469 7.5991 -8.6094 L7.5991 -14.5469 L6.271 -14.5469 L6.271 -15.9375 L7.5991 -15.9375 L7.5991 -19.0469 L9.396 -19.0469 ZM15.3214 -9.3125 L15.3214 -15.9375 L17.1183 -15.9375 L17.1183 -9.3906 Q17.1183 -7.8281 17.7198 -7.0547 Q18.3214 -6.2812 19.5401 -6.2812 Q20.9933 -6.2812 21.837 -7.2109 Q22.6808 -8.1406 22.6808 -9.7344 L22.6808 -15.9375 L24.4776 -15.9375 L24.4776 -5 L22.6808 -5 L22.6808 -6.6875 Q22.0245 -5.6875 21.1651 -5.2031 Q20.3058 -4.7188 19.1495 -4.7188 Q17.2745 -4.7188 16.298 -5.8906 Q15.3214 -7.0625 15.3214 -9.3125 ZM35.4316 -14.2812 L35.4316 -20.2031 L37.2285 -20.2031 L37.2285 -5 L35.4316 -5 L35.4316 -6.6406 Q34.8691 -5.6719 34.0019 -5.1953 Q33.1347 -4.7188 31.9316 -4.7188 Q29.9472 -4.7188 28.705 -6.2969 Q27.4628 -7.875 27.4628 -10.4531 Q27.4628 -13.0312 28.705 -14.6172 Q29.9472 -16.2031 31.9316 -16.2031 Q33.1347 -16.2031 34.0019 -15.7266 Q34.8691 -15.25 35.4316 -14.2812 ZM29.3066 -10.4531 Q29.3066 -8.4844 30.1269 -7.3516 Q30.9472 -6.2188 32.3691 -6.2188 Q33.791 -6.2188 34.6113 -7.3516 Q35.4316 -8.4844 35.4316 -10.4531 Q35.4316 -12.4375 34.6113 -13.5703 Q33.791 -14.7031 32.3691 -14.7031 Q30.9472 -14.7031 30.1269 -13.5703 Q29.3066 -12.4375 29.3066 -10.4531 ZM50.3427 -10.9219 L50.3427 -10.0469 L42.0927 -10.0469 Q42.202 -8.1875 43.202 -7.2109 Q44.202 -6.2344 45.9989 -6.2344 Q47.0302 -6.2344 47.9989 -6.4922 Q48.9677 -6.75 49.9364 -7.25 L49.9364 -5.5625 Q48.9677 -5.1406 47.952 -4.9297 Q46.9364 -4.7188 45.8895 -4.7188 Q43.2645 -4.7188 41.7411 -6.2422 Q40.2177 -7.7656 40.2177 -10.3594 Q40.2177 -13.0469 41.663 -14.625 Q43.1083 -16.2031 45.577 -16.2031 Q47.7802 -16.2031 49.0614 -14.7812 Q50.3427 -13.3594 50.3427 -10.9219 ZM48.5458 -11.4531 Q48.5302 -12.9219 47.7255 -13.7969 Q46.9208 -14.6719 45.5927 -14.6719 Q44.0927 -14.6719 43.1864 -13.8281 Q42.2802 -12.9844 42.1395 -11.4375 L48.5458 -11.4531 Z"></path></g><g style="stroke-linecap:butt; fill:rgb(0,114,189); text-rendering:geometricPrecision; image-rendering:optimizeQuality; color-rendering:optimizeQuality; stroke-linejoin:round; stroke:rgb(0,114,189); color-interpolation:linearRGB; stroke-width:3.2639;"><path d="M72 324.5007 L81.6599 197.797 L91.3197 43.8314 L100.9796 83.5446 L110.6395 274.8292 L120.2993 281.8212 L129.9592 85.1337 L139.619 43.4995 L149.2789 195.5157 L158.9388 323.9286 L168.5986 164.7579 L178.2585 35.335 L187.9184 113.3278 L197.5782 303.5035 L207.2381 247.1295 L216.898 61.0642 L226.5578 57.7872 L236.2177 233.8588 L245.8776 311.0817 L255.5374 126.7539 L265.1973 36.0978 L274.8571 149.4391 L284.517 322.0217 L294.1769 211.8022 L303.8367 53.034 L313.4966 81.5247 L323.1565 272.8869 L332.8163 293.7641 L342.4762 99.2943 L352.136 44.8767 L361.7959 191.4618 L371.4558 325.4189 L381.1157 170.9095 L390.7755 43.3441 L400.4354 108.285 L410.0952 303.1856 L419.7551 263.6137 L429.4149 80.2393 L439.0748 67.8726 L448.7347 233.8023 L458.3945 319.7193 L468.0544 141.7196 L477.7143 42.2917 L487.3741 143.4005 L497.034 320.1642" style="fill:none; fill-rule:evenodd;"></path></g><g style="stroke-linecap:butt; fill:rgb(217,83,25); text-rendering:geometricPrecision; image-rendering:optimizeQuality; color-rendering:optimizeQuality; stroke-linejoin:bevel; stroke-dasharray:12,3,6,3; stroke:rgb(217,83,25); color-interpolation:linearRGB; stroke-width:3.2639; stroke-miterlimit:1;"><path d="M72 177.9651 L81.6599 171.9971 L91.3197 176.0793 L100.9796 180.5994 L110.6395 179.4623 L120.2993 177.393 L129.9592 175.7756 L139.619 174.3702 L149.2789 181.002 L158.9388 178.6925 L168.5986 171.5169 L178.2585 173.0918 L187.9184 173.1342 L197.5782 173.2613 L207.2381 173.1342 L216.898 174.3349 L226.5578 177.061 L236.2177 181.1574 L245.8776 177.3153 L255.5374 174.8504 L265.1973 178.9609 L274.8571 178.7349 L284.517 177.9792 L294.1769 175.9098 L303.8367 170.3445 L313.4966 177.2305 L323.1565 175.9946 L332.8163 172.9718 L342.4762 174.4267 L352.136 173.0141 L361.7959 176.9057 L371.4558 177.5978 L381.1157 174.2501 L390.7755 172.6469 L400.4354 178.8691 L410.0952 179.879 L419.7551 170.0266 L429.4149 175.6344 L439.0748 178.41 L448.7347 177.0963 L458.3945 173.6498 L468.0544 171.7641 L477.7143 170.4575 L487.3741 176.8562 L497.034 176.3195" style="fill:none; fill-rule:evenodd;"></path></g><g style="fill:white; text-rendering:optimizeSpeed; color-rendering:optimizeSpeed; image-rendering:optimizeSpeed; shape-rendering:crispEdges; stroke:white; color-interpolation:sRGB;"><path style="stroke:none;" d="M488 344 L488 294 L268 294 L268 344 Z"></path></g><g transform="translate(314.3422,306.1212)" style="font-size:16.45px; text-rendering:geometricPrecision; color-rendering:optimizeQuality; image-rendering:optimizeQuality; font-family:'SansSerif'; color-interpolation:linearRGB;"><path style="stroke:none;" d="M1.9844 4.6719 L4.5625 4.6719 L4.5625 -4.2344 L1.7656 -3.6719 L1.7656 -5.1094 L4.5469 -5.6719 L6.125 -5.6719 L6.125 4.6719 L8.7031 4.6719 L8.7031 6 L1.9844 6 L1.9844 4.6719 ZM15.5518 -4.625 Q14.333 -4.625 13.7159 -3.4297 Q13.0987 -2.2344 13.0987 0.1719 Q13.0987 2.5781 13.7159 3.7734 Q14.333 4.9688 15.5518 4.9688 Q16.7705 4.9688 17.3877 3.7734 Q18.0049 2.5781 18.0049 0.1719 Q18.0049 -2.2344 17.3877 -3.4297 Q16.7705 -4.625 15.5518 -4.625 ZM15.5518 -5.875 Q17.5049 -5.875 18.544 -4.3281 Q19.583 -2.7812 19.583 0.1719 Q19.583 3.125 18.544 4.6797 Q17.5049 6.2344 15.5518 6.2344 Q13.583 6.2344 12.5518 4.6797 Q11.5205 3.125 11.5205 0.1719 Q11.5205 -2.7812 12.5518 -4.3281 Q13.583 -5.875 15.5518 -5.875 ZM27.5942 -6.1562 L29.0473 -6.1562 L29.0473 1.0156 L33.3286 -2.75 L35.1723 -2.75 L30.5317 1.3438 L35.3598 6 L33.4848 6 L29.0473 1.7188 L29.0473 6 L27.5942 6 L27.5942 -6.1562 ZM37.2382 -5.6719 L38.8163 -5.6719 L38.8163 -0.8906 L44.5507 -0.8906 L44.5507 -5.6719 L46.1288 -5.6719 L46.1288 6 L44.5507 6 L44.5507 0.4375 L38.8163 0.4375 L38.8163 6 L37.2382 6 L37.2382 -5.6719 ZM48.9109 -2.75 L55.739 -2.75 L55.739 -1.4375 L50.3328 4.8438 L55.739 4.8438 L55.739 6 L48.7078 6 L48.7078 4.6875 L54.114 -1.6094 L48.9109 -1.6094 L48.9109 -2.75 ZM58.5234 4.0156 L60.1796 4.0156 L60.1796 5.3594 L58.8984 7.8594 L57.8828 7.8594 L58.5234 5.3594 L58.5234 4.0156 ZM75.8796 0.7188 L75.8796 6 L74.4421 6 L74.4421 0.7656 Q74.4421 -0.4844 73.9578 -1.1016 Q73.4734 -1.7188 72.5046 -1.7188 Q71.3484 -1.7188 70.6765 -0.9766 Q70.0046 -0.2344 70.0046 1.0469 L70.0046 6 L68.5515 6 L68.5515 -2.75 L70.0046 -2.75 L70.0046 -1.3906 Q70.5203 -2.1875 71.2156 -2.5781 Q71.9109 -2.9688 72.8328 -2.9688 Q74.3328 -2.9688 75.1062 -2.0312 Q75.8796 -1.0938 75.8796 0.7188 ZM82.4225 -1.75 Q81.2663 -1.75 80.5944 -0.8438 Q79.9225 0.0625 79.9225 1.625 Q79.9225 3.2031 80.5866 4.1016 Q81.2507 5 82.4225 5 Q83.5632 5 84.235 4.0938 Q84.9069 3.1875 84.9069 1.625 Q84.9069 0.0781 84.235 -0.8359 Q83.5632 -1.75 82.4225 -1.75 ZM82.4225 -2.9688 Q84.2975 -2.9688 85.3679 -1.75 Q86.4382 -0.5312 86.4382 1.625 Q86.4382 3.7812 85.3679 5.0078 Q84.2975 6.2344 82.4225 6.2344 Q80.5319 6.2344 79.4694 5.0078 Q78.4069 3.7812 78.4069 1.625 Q78.4069 -0.5312 79.4694 -1.75 Q80.5319 -2.9688 82.4225 -2.9688 ZM99.8918 -2.5 L99.8918 -1.1406 Q99.2824 -1.4531 98.6262 -1.6094 Q97.9699 -1.7656 97.2668 -1.7656 Q96.1887 -1.7656 95.6574 -1.4375 Q95.1262 -1.1094 95.1262 -0.4531 Q95.1262 0.0469 95.509 0.3359 Q95.8918 0.625 97.048 0.875 L97.5324 0.9844 Q99.0637 1.3125 99.7121 1.9141 Q100.3605 2.5156 100.3605 3.5781 Q100.3605 4.7969 99.3918 5.5156 Q98.423 6.2344 96.7355 6.2344 Q96.0324 6.2344 95.2746 6.0938 Q94.5168 5.9531 93.673 5.6719 L93.673 4.1875 Q94.4699 4.6094 95.2433 4.8125 Q96.0168 5.0156 96.7668 5.0156 Q97.7824 5.0156 98.3293 4.6719 Q98.8762 4.3281 98.8762 3.6875 Q98.8762 3.1094 98.4855 2.7969 Q98.0949 2.4844 96.7512 2.1875 L96.2512 2.0781 Q94.923 1.7969 94.3293 1.2109 Q93.7355 0.625 93.7355 -0.3906 Q93.7355 -1.625 94.6105 -2.2969 Q95.4855 -2.9688 97.0949 -2.9688 Q97.8918 -2.9688 98.5949 -2.8516 Q99.298 -2.7344 99.8918 -2.5 ZM104.2994 -5.2344 L104.2994 -2.75 L107.2525 -2.75 L107.2525 -1.6406 L104.2994 -1.6406 L104.2994 3.1094 Q104.2994 4.1875 104.5885 4.4922 Q104.8775 4.7969 105.7838 4.7969 L107.2525 4.7969 L107.2525 6 L105.7838 6 Q104.1119 6 103.4791 5.375 Q102.8463 4.75 102.8463 3.1094 L102.8463 -1.6406 L101.7994 -1.6406 L101.7994 -2.75 L102.8463 -2.75 L102.8463 -5.2344 L104.2994 -5.2344 ZM116.8069 1.2656 L116.8069 1.9688 L110.1975 1.9688 Q110.2913 3.4531 111.0881 4.2266 Q111.885 5 113.3225 5 Q114.1506 5 114.9241 4.7969 Q115.6975 4.5938 116.4631 4.1875 L116.4631 5.5469 Q115.6975 5.875 114.885 6.0547 Q114.0725 6.2344 113.2288 6.2344 Q111.135 6.2344 109.9163 5.0078 Q108.6975 3.7812 108.6975 1.7031 Q108.6975 -0.4375 109.8538 -1.7031 Q111.01 -2.9688 112.9788 -2.9688 Q114.7444 -2.9688 115.7756 -1.8281 Q116.8069 -0.6875 116.8069 1.2656 ZM115.3694 0.8438 Q115.3538 -0.3438 114.7053 -1.0469 Q114.0569 -1.75 112.9944 -1.75 Q111.7913 -1.75 111.0725 -1.0703 Q110.3538 -0.3906 110.2444 0.8438 L115.3694 0.8438 ZM126.9198 1.2656 L126.9198 1.9688 L120.3104 1.9688 Q120.4042 3.4531 121.201 4.2266 Q121.9979 5 123.4354 5 Q124.2635 5 125.037 4.7969 Q125.8104 4.5938 126.576 4.1875 L126.576 5.5469 Q125.8104 5.875 124.9979 6.0547 Q124.1854 6.2344 123.3417 6.2344 Q121.2479 6.2344 120.0292 5.0078 Q118.8104 3.7812 118.8104 1.7031 Q118.8104 -0.4375 119.9667 -1.7031 Q121.1229 -2.9688 123.0917 -2.9688 Q124.8573 -2.9688 125.8885 -1.8281 Q126.9198 -0.6875 126.9198 1.2656 ZM125.4823 0.8438 Q125.4667 -0.3438 124.8182 -1.0469 Q124.1698 -1.75 123.1073 -1.75 Q121.9042 -1.75 121.1854 -1.0703 Q120.4667 -0.3906 120.3573 0.8438 L125.4823 0.8438 ZM134.6108 -1.4062 Q134.3765 -1.5469 134.0874 -1.6172 Q133.7983 -1.6875 133.4546 -1.6875 Q132.2358 -1.6875 131.5874 -0.8906 Q130.939 -0.0938 130.939 1.3906 L130.939 6 L129.4858 6 L129.4858 -2.75 L130.939 -2.75 L130.939 -1.3906 Q131.3921 -2.1875 132.1187 -2.5781 Q132.8452 -2.9688 133.8765 -2.9688 Q134.0327 -2.9688 134.2124 -2.9453 Q134.3921 -2.9219 134.6108 -2.8906 L134.6108 -1.4062 ZM136.3063 -2.75 L137.7438 -2.75 L137.7438 6 L136.3063 6 L136.3063 -2.75 ZM136.3063 -6.1562 L137.7438 -6.1562 L137.7438 -4.3438 L136.3063 -4.3438 L136.3063 -6.1562 ZM148.1388 0.7188 L148.1388 6 L146.7013 6 L146.7013 0.7656 Q146.7013 -0.4844 146.2169 -1.1016 Q145.7326 -1.7188 144.7638 -1.7188 Q143.6076 -1.7188 142.9357 -0.9766 Q142.2638 -0.2344 142.2638 1.0469 L142.2638 6 L140.8107 6 L140.8107 -2.75 L142.2638 -2.75 L142.2638 -1.3906 Q142.7794 -2.1875 143.4748 -2.5781 Q144.1701 -2.9688 145.0919 -2.9688 Q146.5919 -2.9688 147.3654 -2.0312 Q148.1388 -1.0938 148.1388 0.7188 ZM157.0411 1.5156 Q157.0411 -0.0469 156.4005 -0.9062 Q155.7599 -1.7656 154.588 -1.7656 Q153.4317 -1.7656 152.7911 -0.9062 Q152.1505 -0.0469 152.1505 1.5156 Q152.1505 3.0781 152.7911 3.9375 Q153.4317 4.7969 154.588 4.7969 Q155.7599 4.7969 156.4005 3.9375 Q157.0411 3.0781 157.0411 1.5156 ZM158.4786 4.9062 Q158.4786 7.1562 157.4864 8.2422 Q156.4942 9.3281 154.4474 9.3281 Q153.6974 9.3281 153.0255 9.2188 Q152.3536 9.1094 151.713 8.875 L151.713 7.4688 Q152.3536 7.8125 152.9708 7.9766 Q153.588 8.1406 154.2286 8.1406 Q155.6349 8.1406 156.338 7.4062 Q157.0411 6.6719 157.0411 5.1719 L157.0411 4.4531 Q156.6036 5.2344 155.9083 5.6172 Q155.213 6 154.2442 6 Q152.6349 6 151.6505 4.7734 Q150.6661 3.5469 150.6661 1.5156 Q150.6661 -0.5156 151.6505 -1.7422 Q152.6349 -2.9688 154.2442 -2.9688 Q155.213 -2.9688 155.9083 -2.5859 Q156.6036 -2.2031 157.0411 -1.4219 L157.0411 -2.75 L158.4786 -2.75 L158.4786 4.9062 Z"></path></g><g style="stroke-linecap:butt; fill:rgb(0,114,189); text-rendering:geometricPrecision; image-rendering:optimizeQuality; color-rendering:optimizeQuality; stroke-linejoin:round; stroke:rgb(0,114,189); color-interpolation:linearRGB; stroke-width:3.2639;"><line y2="306.1212" style="fill:none;" x1="272.0152" x2="311.3308" y1="306.1212"></line></g><g transform="translate(314,338)" style="font-size:16.45px; text-rendering:geometricPrecision; color-rendering:optimizeQuality; image-rendering:optimizeQuality; font-family:'SansSerif'; color-interpolation:linearRGB;"><path style="stroke:none;" d="M1.9844 -1.3281 L4.5625 -1.3281 L4.5625 -10.2344 L1.7656 -9.6719 L1.7656 -11.1094 L4.5469 -11.6719 L6.125 -11.6719 L6.125 -1.3281 L8.7031 -1.3281 L8.7031 0 L1.9844 0 L1.9844 -1.3281 ZM15.5518 -10.625 Q14.333 -10.625 13.7159 -9.4297 Q13.0987 -8.2344 13.0987 -5.8281 Q13.0987 -3.4219 13.7159 -2.2266 Q14.333 -1.0312 15.5518 -1.0312 Q16.7705 -1.0312 17.3877 -2.2266 Q18.0049 -3.4219 18.0049 -5.8281 Q18.0049 -8.2344 17.3877 -9.4297 Q16.7705 -10.625 15.5518 -10.625 ZM15.5518 -11.875 Q17.5049 -11.875 18.544 -10.3281 Q19.583 -8.7812 19.583 -5.8281 Q19.583 -2.875 18.544 -1.3203 Q17.5049 0.2344 15.5518 0.2344 Q13.583 0.2344 12.5518 -1.3203 Q11.5205 -2.875 11.5205 -5.8281 Q11.5205 -8.7812 12.5518 -10.3281 Q13.583 -11.875 15.5518 -11.875 ZM27.5942 -12.1562 L29.0473 -12.1562 L29.0473 -4.9844 L33.3286 -8.75 L35.1723 -8.75 L30.5317 -4.6562 L35.3598 0 L33.4848 0 L29.0473 -4.2812 L29.0473 0 L27.5942 0 L27.5942 -12.1562 ZM37.2382 -11.6719 L38.8163 -11.6719 L38.8163 -6.8906 L44.5507 -6.8906 L44.5507 -11.6719 L46.1288 -11.6719 L46.1288 0 L44.5507 0 L44.5507 -5.5625 L38.8163 -5.5625 L38.8163 0 L37.2382 0 L37.2382 -11.6719 ZM48.9109 -8.75 L55.739 -8.75 L55.739 -7.4375 L50.3328 -1.1562 L55.739 -1.1562 L55.739 0 L48.7078 0 L48.7078 -1.3125 L54.114 -7.6094 L48.9109 -7.6094 L48.9109 -8.75 ZM58.5234 -1.9844 L60.1796 -1.9844 L60.1796 -0.6406 L58.8984 1.8594 L57.8828 1.8594 L58.5234 -0.6406 L58.5234 -1.9844 ZM73.1453 -10.2969 L69.1609 -4.0625 L73.1453 -4.0625 L73.1453 -10.2969 ZM72.739 -11.6719 L74.7234 -11.6719 L74.7234 -4.0625 L76.3796 -4.0625 L76.3796 -2.75 L74.7234 -2.75 L74.7234 0 L73.1453 0 L73.1453 -2.75 L67.8796 -2.75 L67.8796 -4.2812 L72.739 -11.6719 ZM79.2908 -11.6719 L85.4783 -11.6719 L85.4783 -10.3438 L80.7283 -10.3438 L80.7283 -7.4844 Q81.0721 -7.5938 81.4158 -7.6562 Q81.7596 -7.7188 82.1033 -7.7188 Q84.0564 -7.7188 85.1971 -6.6484 Q86.3377 -5.5781 86.3377 -3.75 Q86.3377 -1.8594 85.1658 -0.8125 Q83.9939 0.2344 81.8689 0.2344 Q81.1346 0.2344 80.3689 0.1016 Q79.6033 -0.0312 78.7908 -0.2812 L78.7908 -1.8594 Q79.4939 -1.4844 80.2439 -1.2969 Q80.9939 -1.1094 81.8377 -1.1094 Q83.1814 -1.1094 83.9705 -1.8203 Q84.7596 -2.5312 84.7596 -3.75 Q84.7596 -4.9688 83.9705 -5.6797 Q83.1814 -6.3906 81.8377 -6.3906 Q81.1971 -6.3906 80.5721 -6.25 Q79.9471 -6.1094 79.2908 -5.8125 L79.2908 -11.6719 Z"></path></g><g transform="translate(403,330)" style="font-size:13.16px; text-rendering:geometricPrecision; color-rendering:optimizeQuality; image-rendering:optimizeQuality; font-family:serif; color-interpolation:linearRGB;"><path style="stroke:none;" d="M3.25 -8.7656 Q2.7656 -8.7656 2.4375 -8.4375 Q2.1094 -8.1094 2.1094 -7.625 Q2.1094 -7.1406 2.4375 -6.8125 Q2.7656 -6.4844 3.25 -6.4844 Q3.7344 -6.4844 4.0625 -6.8125 Q4.3906 -7.1406 4.3906 -7.625 Q4.3906 -8.0938 4.0547 -8.4297 Q3.7188 -8.7656 3.25 -8.7656 ZM3.25 -9.6562 Q3.6562 -9.6562 4.0312 -9.5 Q4.4062 -9.3438 4.6719 -9.0469 Q4.9688 -8.7656 5.1172 -8.3984 Q5.2656 -8.0312 5.2656 -7.625 Q5.2656 -6.7812 4.6797 -6.2031 Q4.0938 -5.625 3.2344 -5.625 Q2.375 -5.625 1.8047 -6.1953 Q1.2344 -6.7656 1.2344 -7.625 Q1.2344 -8.4688 1.8203 -9.0625 Q2.4062 -9.6562 3.25 -9.6562 Z"></path></g><g transform="translate(410,338)" style="font-size:16.45px; text-rendering:geometricPrecision; color-rendering:optimizeQuality; image-rendering:optimizeQuality; font-family:'SansSerif'; color-interpolation:linearRGB;"><path style="stroke:none;" d="M12.3188 -8.5 L12.3188 -7.1406 Q11.7094 -7.4531 11.0531 -7.6094 Q10.3969 -7.7656 9.6938 -7.7656 Q8.6156 -7.7656 8.0844 -7.4375 Q7.5531 -7.1094 7.5531 -6.4531 Q7.5531 -5.9531 7.9359 -5.6641 Q8.3188 -5.375 9.475 -5.125 L9.9594 -5.0156 Q11.4906 -4.6875 12.1391 -4.0859 Q12.7875 -3.4844 12.7875 -2.4219 Q12.7875 -1.2031 11.8188 -0.4844 Q10.85 0.2344 9.1625 0.2344 Q8.4594 0.2344 7.7016 0.0938 Q6.9438 -0.0469 6.1 -0.3281 L6.1 -1.8125 Q6.8969 -1.3906 7.6703 -1.1875 Q8.4438 -0.9844 9.1938 -0.9844 Q10.2094 -0.9844 10.7563 -1.3281 Q11.3031 -1.6719 11.3031 -2.3125 Q11.3031 -2.8906 10.9125 -3.2031 Q10.5219 -3.5156 9.1781 -3.8125 L8.6781 -3.9219 Q7.35 -4.2031 6.7563 -4.7891 Q6.1625 -5.375 6.1625 -6.3906 Q6.1625 -7.625 7.0375 -8.2969 Q7.9125 -8.9688 9.5219 -8.9688 Q10.3188 -8.9688 11.0219 -8.8516 Q11.725 -8.7344 12.3188 -8.5 ZM16.7264 -11.2344 L16.7264 -8.75 L19.6795 -8.75 L19.6795 -7.6406 L16.7264 -7.6406 L16.7264 -2.8906 Q16.7264 -1.8125 17.0154 -1.5078 Q17.3045 -1.2031 18.2108 -1.2031 L19.6795 -1.2031 L19.6795 0 L18.2108 0 Q16.5389 0 15.9061 -0.625 Q15.2733 -1.25 15.2733 -2.8906 L15.2733 -7.6406 L14.2264 -7.6406 L14.2264 -8.75 L15.2733 -8.75 L15.2733 -11.2344 L16.7264 -11.2344 ZM29.2339 -4.7344 L29.2339 -4.0312 L22.6245 -4.0312 Q22.7182 -2.5469 23.5151 -1.7734 Q24.312 -1 25.7495 -1 Q26.5776 -1 27.351 -1.2031 Q28.1245 -1.4062 28.8901 -1.8125 L28.8901 -0.4531 Q28.1245 -0.125 27.312 0.0547 Q26.4995 0.2344 25.6557 0.2344 Q23.562 0.2344 22.3432 -0.9922 Q21.1245 -2.2188 21.1245 -4.2969 Q21.1245 -6.4375 22.2807 -7.7031 Q23.437 -8.9688 25.4057 -8.9688 Q27.1714 -8.9688 28.2026 -7.8281 Q29.2339 -6.6875 29.2339 -4.7344 ZM27.7964 -5.1562 Q27.7807 -6.3438 27.1323 -7.0469 Q26.4839 -7.75 25.4214 -7.75 Q24.2182 -7.75 23.4995 -7.0703 Q22.7807 -6.3906 22.6714 -5.1562 L27.7964 -5.1562 ZM39.3468 -4.7344 L39.3468 -4.0312 L32.7374 -4.0312 Q32.8311 -2.5469 33.628 -1.7734 Q34.4249 -1 35.8624 -1 Q36.6905 -1 37.464 -1.2031 Q38.2374 -1.4062 39.003 -1.8125 L39.003 -0.4531 Q38.2374 -0.125 37.4249 0.0547 Q36.6124 0.2344 35.7686 0.2344 Q33.6749 0.2344 32.4561 -0.9922 Q31.2374 -2.2188 31.2374 -4.2969 Q31.2374 -6.4375 32.3936 -7.7031 Q33.5499 -8.9688 35.5186 -8.9688 Q37.2843 -8.9688 38.3155 -7.8281 Q39.3468 -6.6875 39.3468 -4.7344 ZM37.9093 -5.1562 Q37.8936 -6.3438 37.2452 -7.0469 Q36.5968 -7.75 35.5343 -7.75 Q34.3311 -7.75 33.6124 -7.0703 Q32.8936 -6.3906 32.7843 -5.1562 L37.9093 -5.1562 ZM47.0378 -7.4062 Q46.8034 -7.5469 46.5144 -7.6172 Q46.2253 -7.6875 45.8816 -7.6875 Q44.6628 -7.6875 44.0144 -6.8906 Q43.3659 -6.0938 43.3659 -4.6094 L43.3659 0 L41.9128 0 L41.9128 -8.75 L43.3659 -8.75 L43.3659 -7.3906 Q43.8191 -8.1875 44.5456 -8.5781 Q45.2722 -8.9688 46.3034 -8.9688 Q46.4597 -8.9688 46.6394 -8.9453 Q46.8191 -8.9219 47.0378 -8.8906 L47.0378 -7.4062 ZM48.7333 -8.75 L50.1708 -8.75 L50.1708 0 L48.7333 0 L48.7333 -8.75 ZM48.7333 -12.1562 L50.1708 -12.1562 L50.1708 -10.3438 L48.7333 -10.3438 L48.7333 -12.1562 ZM60.5658 -5.2812 L60.5658 0 L59.1283 0 L59.1283 -5.2344 Q59.1283 -6.4844 58.6439 -7.1016 Q58.1595 -7.7188 57.1908 -7.7188 Q56.0345 -7.7188 55.3627 -6.9766 Q54.6908 -6.2344 54.6908 -4.9531 L54.6908 0 L53.2377 0 L53.2377 -8.75 L54.6908 -8.75 L54.6908 -7.3906 Q55.2064 -8.1875 55.9017 -8.5781 Q56.597 -8.9688 57.5189 -8.9688 Q59.0189 -8.9688 59.7924 -8.0312 Q60.5658 -7.0938 60.5658 -5.2812 ZM69.4681 -4.4844 Q69.4681 -6.0469 68.8275 -6.9062 Q68.1868 -7.7656 67.015 -7.7656 Q65.8587 -7.7656 65.2181 -6.9062 Q64.5775 -6.0469 64.5775 -4.4844 Q64.5775 -2.9219 65.2181 -2.0625 Q65.8587 -1.2031 67.015 -1.2031 Q68.1868 -1.2031 68.8275 -2.0625 Q69.4681 -2.9219 69.4681 -4.4844 ZM70.9056 -1.0938 Q70.9056 1.1562 69.9134 2.2422 Q68.9212 3.3281 66.8743 3.3281 Q66.1243 3.3281 65.4525 3.2188 Q64.7806 3.1094 64.14 2.875 L64.14 1.4688 Q64.7806 1.8125 65.3978 1.9766 Q66.015 2.1406 66.6556 2.1406 Q68.0618 2.1406 68.765 1.4062 Q69.4681 0.6719 69.4681 -0.8281 L69.4681 -1.5469 Q69.0306 -0.7656 68.3353 -0.3828 Q67.64 0 66.6712 0 Q65.0618 0 64.0775 -1.2266 Q63.0931 -2.4531 63.0931 -4.4844 Q63.0931 -6.5156 64.0775 -7.7422 Q65.0618 -8.9688 66.6712 -8.9688 Q67.64 -8.9688 68.3353 -8.5859 Q69.0306 -8.2031 69.4681 -7.4219 L69.4681 -8.75 L70.9056 -8.75 L70.9056 -1.0938 Z"></path></g><g style="stroke-linecap:butt; fill:rgb(217,83,25); text-rendering:geometricPrecision; image-rendering:optimizeQuality; color-rendering:optimizeQuality; stroke-linejoin:bevel; stroke-dasharray:12,3,6,3; stroke:rgb(217,83,25); color-interpolation:linearRGB; stroke-width:3.2639; stroke-miterlimit:1;"><line y2="329.3535" style="fill:none;" x1="272.0152" x2="311.3308" y1="329.3535"></line></g><g style="stroke-linecap:butt; fill:rgb(38,38,38); text-rendering:geometricPrecision; color-rendering:optimizeQuality; image-rendering:optimizeQuality; stroke:rgb(38,38,38); color-interpolation:linearRGB; stroke-width:0.6528;"><path d="M268 344 L268 294 L488 294 L488 344 Z" style="fill:none; fill-rule:evenodd;"></path></g></g></svg> 