<?xml version="1.0"?>
 <svg xmlns:xlink="http://www.w3.org/1999/xlink" style="fill-opacity:1; color-rendering:auto; color-interpolation:auto; text-rendering:auto; stroke:black; stroke-linecap:square; stroke-miterlimit:10; shape-rendering:auto; stroke-opacity:1; fill:black; stroke-dasharray:none; font-weight:normal; stroke-width:1; font-family:'Dialog'; font-style:normal; stroke-linejoin:miter; font-size:12px; stroke-dashoffset:0; image-rendering:auto;" width="550" height="408" xmlns="http://www.w3.org/2000/svg" viewBox="0 0 550 408"><defs id="genericDefs"></defs><g><defs id="defs1"><clipPath clipPathUnits="userSpaceOnUse" id="clipPath1"><path d="M0 0 L550 0 L550 408 L0 408 L0 0 Z"></path></clipPath></defs><g style="fill:white; stroke:white;"><rect x="0" y="0" width="550" style="clip-path:url(#clipPath1); stroke:none;" height="408"></rect></g><g style="fill:white; text-rendering:optimizeSpeed; color-rendering:optimizeSpeed; image-rendering:optimizeSpeed; shape-rendering:crispEdges; stroke:white; color-interpolation:sRGB;"><rect x="0" width="550" height="408" y="0" style="stroke:none;"></rect><path style="stroke:none;" d="M72 355 L498 355 L498 31 L72 31 Z"></path></g><g style="fill:rgb(38,38,38); text-rendering:geometricPrecision; image-rendering:optimizeQuality; color-rendering:optimizeQuality; stroke-linejoin:round; stroke:rgb(38,38,38); color-interpolation:linearRGB; stroke-width:0.6528;"><line y2="355" style="fill:none;" x1="72" x2="498" y1="355"></line><line y2="31" style="fill:none;" x1="72" x2="498" y1="31"></line><line y2="350.74" style="fill:none;" x1="72" x2="72" y1="355"></line><line y2="350.74" style="fill:none;" x1="157.2" x2="157.2" y1="355"></line><line y2="350.74" style="fill:none;" x1="242.4" x2="242.4" y1="355"></line><line y2="350.74" style="fill:none;" x1="327.6" x2="327.6" y1="355"></line><line y2="350.74" style="fill:none;" x1="412.8" x2="412.8" y1="355"></line><line y2="350.74" style="fill:none;" x1="498" x2="498" y1="355"></line><line y2="35.26" style="fill:none;" x1="72" x2="72" y1="31"></line><line y2="35.26" style="fill:none;" x1="157.2" x2="157.2" y1="31"></line><line y2="35.26" style="fill:none;" x1="242.4" x2="242.4" y1="31"></line><line y2="35.26" style="fill:none;" x1="327.6" x2="327.6" y1="31"></line><line y2="35.26" style="fill:none;" x1="412.8" x2="412.8" y1="31"></line><line y2="35.26" style="fill:none;" x1="498" x2="498" y1="31"></line></g><g transform="translate(72,361.2667)" style="font-size:18.2778px; fill:rgb(38,38,38); text-rendering:geometricPrecision; image-rendering:optimizeQuality; color-rendering:optimizeQuality; font-family:'SansSerif'; stroke:rgb(38,38,38); color-interpolation:linearRGB;"><path style="stroke:none;" d="M-0.2812 5.0469 Q-1.6562 5.0469 -2.3438 6.3984 Q-3.0312 7.75 -3.0312 10.4531 Q-3.0312 13.1562 -2.3438 14.5 Q-1.6562 15.8438 -0.2812 15.8438 Q1.1094 15.8438 1.7969 14.5 Q2.4844 13.1562 2.4844 10.4531 Q2.4844 7.75 1.7969 6.3984 Q1.1094 5.0469 -0.2812 5.0469 ZM-0.2812 3.6406 Q1.9219 3.6406 3.0859 5.3828 Q4.25 7.125 4.25 10.4531 Q4.25 13.7656 3.0859 15.5078 Q1.9219 17.25 -0.2812 17.25 Q-2.4844 17.25 -3.6484 15.5078 Q-4.8125 13.7656 -4.8125 10.4531 Q-4.8125 7.125 -3.6484 5.3828 Q-2.4844 3.6406 -0.2812 3.6406 Z"></path></g><g transform="translate(157.2,361.2667)" style="font-size:18.2778px; fill:rgb(38,38,38); text-rendering:geometricPrecision; image-rendering:optimizeQuality; color-rendering:optimizeQuality; font-family:'SansSerif'; stroke:rgb(38,38,38); color-interpolation:linearRGB;"><path style="stroke:none;" d="M-3.7656 15.5 L-0.8594 15.5 L-0.8594 5.5 L-4.0156 6.125 L-4.0156 4.5156 L-0.8906 3.875 L0.8906 3.875 L0.8906 15.5 L3.7969 15.5 L3.7969 17 L-3.7656 17 L-3.7656 15.5 Z"></path></g><g transform="translate(242.4,361.2667)" style="font-size:18.2778px; fill:rgb(38,38,38); text-rendering:geometricPrecision; image-rendering:optimizeQuality; color-rendering:optimizeQuality; font-family:'SansSerif'; stroke:rgb(38,38,38); color-interpolation:linearRGB;"><path style="stroke:none;" d="M-2.5469 15.5 L3.6562 15.5 L3.6562 17 L-4.6875 17 L-4.6875 15.5 Q-3.6719 14.4531 -1.9297 12.6953 Q-0.1875 10.9375 0.2656 10.4219 Q1.125 9.4688 1.4609 8.8047 Q1.7969 8.1406 1.7969 7.5 Q1.7969 6.4531 1.0625 5.7969 Q0.3281 5.1406 -0.8438 5.1406 Q-1.6875 5.1406 -2.6094 5.4297 Q-3.5312 5.7188 -4.5938 6.2969 L-4.5938 4.5156 Q-3.5156 4.0781 -2.5859 3.8594 Q-1.6562 3.6406 -0.8906 3.6406 Q1.1562 3.6406 2.3672 4.6562 Q3.5781 5.6719 3.5781 7.3906 Q3.5781 8.1875 3.2734 8.9141 Q2.9688 9.6406 2.1719 10.625 Q1.9531 10.875 0.7734 12.0938 Q-0.4062 13.3125 -2.5469 15.5 Z"></path></g><g transform="translate(327.6,361.2667)" style="font-size:18.2778px; fill:rgb(38,38,38); text-rendering:geometricPrecision; image-rendering:optimizeQuality; color-rendering:optimizeQuality; font-family:'SansSerif'; stroke:rgb(38,38,38); color-interpolation:linearRGB;"><path style="stroke:none;" d="M1.2969 9.9219 Q2.5781 10.2031 3.2969 11.0625 Q4.0156 11.9219 4.0156 13.1875 Q4.0156 15.125 2.6797 16.1875 Q1.3438 17.25 -1.125 17.25 Q-1.9531 17.25 -2.8281 17.0859 Q-3.7031 16.9219 -4.625 16.6094 L-4.625 14.8906 Q-3.8906 15.3281 -3.0078 15.5469 Q-2.125 15.7656 -1.1719 15.7656 Q0.5 15.7656 1.375 15.1016 Q2.25 14.4375 2.25 13.1875 Q2.25 12.0312 1.4375 11.375 Q0.625 10.7188 -0.8281 10.7188 L-2.3594 10.7188 L-2.3594 9.25 L-0.7656 9.25 Q0.5469 9.25 1.2422 8.7266 Q1.9375 8.2031 1.9375 7.2188 Q1.9375 6.2188 1.2188 5.6797 Q0.5 5.1406 -0.8281 5.1406 Q-1.5625 5.1406 -2.3984 5.2969 Q-3.2344 5.4531 -4.2344 5.7812 L-4.2344 4.2031 Q-3.2188 3.9219 -2.3359 3.7812 Q-1.4531 3.6406 -0.6719 3.6406 Q1.3438 3.6406 2.5234 4.5625 Q3.7031 5.4844 3.7031 7.0469 Q3.7031 8.125 3.0781 8.8828 Q2.4531 9.6406 1.2969 9.9219 Z"></path></g><g transform="translate(412.8,361.2667)" style="font-size:18.2778px; fill:rgb(38,38,38); text-rendering:geometricPrecision; image-rendering:optimizeQuality; color-rendering:optimizeQuality; font-family:'SansSerif'; stroke:rgb(38,38,38); color-interpolation:linearRGB;"><path style="stroke:none;" d="M0.7969 5.4219 L-3.6719 12.4219 L0.7969 12.4219 L0.7969 5.4219 ZM0.3438 3.875 L2.5625 3.875 L2.5625 12.4219 L4.4375 12.4219 L4.4375 13.9062 L2.5625 13.9062 L2.5625 17 L0.7969 17 L0.7969 13.9062 L-5.125 13.9062 L-5.125 12.1875 L0.3438 3.875 Z"></path></g><g transform="translate(498,361.2667)" style="font-size:18.2778px; fill:rgb(38,38,38); text-rendering:geometricPrecision; image-rendering:optimizeQuality; color-rendering:optimizeQuality; font-family:'SansSerif'; stroke:rgb(38,38,38); color-interpolation:linearRGB;"><path style="stroke:none;" d="M-4.0625 3.875 L2.9062 3.875 L2.9062 5.375 L-2.4375 5.375 L-2.4375 8.5938 Q-2.0469 8.4531 -1.6562 8.3906 Q-1.2656 8.3281 -0.8906 8.3281 Q1.3125 8.3281 2.5938 9.5312 Q3.875 10.7344 3.875 12.7969 Q3.875 14.9062 2.5625 16.0781 Q1.25 17.25 -1.1562 17.25 Q-1.9844 17.25 -2.8438 17.1094 Q-3.7031 16.9688 -4.6094 16.6875 L-4.6094 14.9062 Q-3.8125 15.3438 -2.9688 15.5547 Q-2.125 15.7656 -1.1875 15.7656 Q0.3281 15.7656 1.2188 14.9609 Q2.1094 14.1562 2.1094 12.7969 Q2.1094 11.4219 1.2188 10.6172 Q0.3281 9.8125 -1.1875 9.8125 Q-1.9062 9.8125 -2.6094 9.9766 Q-3.3125 10.1406 -4.0625 10.4688 L-4.0625 3.875 Z"></path></g><g transform="translate(285.0002,384)" style="font-size:20.1056px; fill:rgb(38,38,38); text-rendering:geometricPrecision; image-rendering:optimizeQuality; color-rendering:optimizeQuality; font-family:'SansSerif'; stroke:rgb(38,38,38); color-interpolation:linearRGB;"><path style="stroke:none;" d="M-59.0312 4.4219 L-56.0938 4.4219 L-52.375 14.3438 L-48.6406 4.4219 L-45.7031 4.4219 L-45.7031 19 L-47.625 19 L-47.625 6.2031 L-51.375 16.2031 L-53.3594 16.2031 L-57.125 6.2031 L-57.125 19 L-59.0312 19 L-59.0312 4.4219 ZM-41.7726 8.0625 L-39.9758 8.0625 L-39.9758 19 L-41.7726 19 L-41.7726 8.0625 ZM-41.7726 3.7969 L-39.9758 3.7969 L-39.9758 6.0781 L-41.7726 6.0781 L-41.7726 3.7969 ZM-36.1899 3.7969 L-34.3931 3.7969 L-34.3931 19 L-36.1899 19 L-36.1899 3.7969 ZM-30.6073 3.7969 L-28.8104 3.7969 L-28.8104 19 L-30.6073 19 L-30.6073 3.7969 ZM-25.0246 8.0625 L-23.2277 8.0625 L-23.2277 19 L-25.0246 19 L-25.0246 8.0625 ZM-25.0246 3.7969 L-23.2277 3.7969 L-23.2277 6.0781 L-25.0246 6.0781 L-25.0246 3.7969 ZM-12.4731 8.3906 L-12.4731 10.0781 Q-13.2388 9.6875 -14.0591 9.4922 Q-14.8794 9.2969 -15.7544 9.2969 Q-17.0981 9.2969 -17.7622 9.7109 Q-18.4263 10.125 -18.4263 10.9375 Q-18.4263 11.5625 -17.9497 11.9219 Q-17.4731 12.2812 -16.0356 12.6094 L-15.4106 12.7344 Q-13.5044 13.1562 -12.6997 13.8984 Q-11.895 14.6406 -11.895 15.9844 Q-11.895 17.5 -13.0981 18.3906 Q-14.3013 19.2812 -16.4106 19.2812 Q-17.2856 19.2812 -18.2388 19.1094 Q-19.1919 18.9375 -20.2544 18.5938 L-20.2544 16.75 Q-19.2544 17.2656 -18.2856 17.5234 Q-17.3169 17.7812 -16.3638 17.7812 Q-15.0981 17.7812 -14.4184 17.3438 Q-13.7388 16.9062 -13.7388 16.125 Q-13.7388 15.3906 -14.2309 15 Q-14.7231 14.6094 -16.395 14.25 L-17.02 14.0938 Q-18.6919 13.75 -19.4341 13.0234 Q-20.1763 12.2969 -20.1763 11.0156 Q-20.1763 9.4844 -19.0825 8.6406 Q-17.9888 7.7969 -15.9731 7.7969 Q-14.9731 7.7969 -14.0981 7.9453 Q-13.2231 8.0938 -12.4731 8.3906 ZM0.3706 13.0781 L0.3706 13.9531 L-7.8794 13.9531 Q-7.77 15.8125 -6.77 16.7891 Q-5.77 17.7656 -3.9731 17.7656 Q-2.9419 17.7656 -1.9731 17.5078 Q-1.0044 17.25 -0.0356 16.75 L-0.0356 18.4375 Q-1.0044 18.8594 -2.02 19.0703 Q-3.0356 19.2812 -4.0825 19.2812 Q-6.7075 19.2812 -8.2309 17.7578 Q-9.7544 16.2344 -9.7544 13.6406 Q-9.7544 10.9531 -8.3091 9.375 Q-6.8637 7.7969 -4.395 7.7969 Q-2.1919 7.7969 -0.9106 9.2188 Q0.3706 10.6406 0.3706 13.0781 ZM-1.4262 12.5469 Q-1.4419 11.0781 -2.2466 10.2031 Q-3.0512 9.3281 -4.3794 9.3281 Q-5.8794 9.3281 -6.7856 10.1719 Q-7.6919 11.0156 -7.8325 12.5625 L-1.4262 12.5469 ZM11.2486 8.4844 L11.2486 10.1562 Q10.4986 9.7344 9.733 9.5312 Q8.9674 9.3281 8.1861 9.3281 Q6.4361 9.3281 5.4674 10.4297 Q4.4986 11.5312 4.4986 13.5469 Q4.4986 15.5469 5.4674 16.6562 Q6.4361 17.7656 8.1861 17.7656 Q8.9674 17.7656 9.733 17.5547 Q10.4986 17.3438 11.2486 16.9219 L11.2486 18.5781 Q10.4986 18.9375 9.6939 19.1094 Q8.8893 19.2812 7.983 19.2812 Q5.5143 19.2812 4.0611 17.7266 Q2.608 16.1719 2.608 13.5469 Q2.608 10.8594 4.0768 9.3281 Q5.5455 7.7969 8.108 7.7969 Q8.9361 7.7969 9.7252 7.9688 Q10.5143 8.1406 11.2486 8.4844 ZM18.6713 9.3281 Q17.2181 9.3281 16.3822 10.4531 Q15.5463 11.5781 15.5463 13.5469 Q15.5463 15.5 16.3822 16.6328 Q17.2181 17.7656 18.6713 17.7656 Q20.1088 17.7656 20.9447 16.6328 Q21.7806 15.5 21.7806 13.5469 Q21.7806 11.5938 20.9447 10.4609 Q20.1088 9.3281 18.6713 9.3281 ZM18.6713 7.7969 Q21.015 7.7969 22.351 9.3203 Q23.6869 10.8438 23.6869 13.5469 Q23.6869 16.2188 22.351 17.75 Q21.015 19.2812 18.6713 19.2812 Q16.3119 19.2812 14.9838 17.75 Q13.6556 16.2188 13.6556 13.5469 Q13.6556 10.8438 14.9838 9.3203 Q16.3119 7.7969 18.6713 7.7969 ZM35.8243 12.3906 L35.8243 19 L34.0275 19 L34.0275 12.4531 Q34.0275 10.9062 33.4181 10.1328 Q32.8087 9.3594 31.6056 9.3594 Q30.1368 9.3594 29.3009 10.2891 Q28.465 11.2188 28.465 12.8125 L28.465 19 L26.6525 19 L26.6525 8.0625 L28.465 8.0625 L28.465 9.7656 Q29.1056 8.7812 29.9806 8.2891 Q30.8556 7.7969 31.9962 7.7969 Q33.8868 7.7969 34.8556 8.9609 Q35.8243 10.125 35.8243 12.3906 ZM46.6533 9.7188 L46.6533 3.7969 L48.4501 3.7969 L48.4501 19 L46.6533 19 L46.6533 17.3594 Q46.0908 18.3281 45.2236 18.8047 Q44.3564 19.2812 43.1533 19.2812 Q41.1689 19.2812 39.9267 17.7031 Q38.6845 16.125 38.6845 13.5469 Q38.6845 10.9688 39.9267 9.3828 Q41.1689 7.7969 43.1533 7.7969 Q44.3564 7.7969 45.2236 8.2734 Q46.0908 8.75 46.6533 9.7188 ZM40.5283 13.5469 Q40.5283 15.5156 41.3486 16.6484 Q42.1689 17.7812 43.5908 17.7812 Q45.0126 17.7812 45.833 16.6484 Q46.6533 15.5156 46.6533 13.5469 Q46.6533 11.5625 45.833 10.4297 Q45.0126 9.2969 43.5908 9.2969 Q42.1689 9.2969 41.3486 10.4297 Q40.5283 11.5625 40.5283 13.5469 ZM59.1893 8.3906 L59.1893 10.0781 Q58.4237 9.6875 57.6034 9.4922 Q56.7831 9.2969 55.9081 9.2969 Q54.5643 9.2969 53.9003 9.7109 Q53.2362 10.125 53.2362 10.9375 Q53.2362 11.5625 53.7128 11.9219 Q54.1893 12.2812 55.6268 12.6094 L56.2518 12.7344 Q58.1581 13.1562 58.9628 13.8984 Q59.7675 14.6406 59.7675 15.9844 Q59.7675 17.5 58.5643 18.3906 Q57.3612 19.2812 55.2518 19.2812 Q54.3768 19.2812 53.4237 19.1094 Q52.4706 18.9375 51.4081 18.5938 L51.4081 16.75 Q52.4081 17.2656 53.3768 17.5234 Q54.3456 17.7812 55.2987 17.7812 Q56.5643 17.7812 57.244 17.3438 Q57.9237 16.9062 57.9237 16.125 Q57.9237 15.3906 57.4315 15 Q56.9393 14.6094 55.2675 14.25 L54.6425 14.0938 Q52.9706 13.75 52.2284 13.0234 Q51.4862 12.2969 51.4862 11.0156 Q51.4862 9.4844 52.58 8.6406 Q53.6737 7.7969 55.6893 7.7969 Q56.6893 7.7969 57.5643 7.9453 Q58.4393 8.0938 59.1893 8.3906 Z"></path></g><g style="fill:rgb(38,38,38); text-rendering:geometricPrecision; image-rendering:optimizeQuality; color-rendering:optimizeQuality; stroke-linejoin:round; stroke:rgb(38,38,38); color-interpolation:linearRGB; stroke-width:0.6528;"><line y2="31" style="fill:none;" x1="72" x2="72" y1="355"></line><line y2="31" style="fill:none;" x1="498" x2="498" y1="355"></line><line y2="355" style="fill:none;" x1="72" x2="76.26" y1="355"></line><line y2="301" style="fill:none;" x1="72" x2="76.26" y1="301"></line><line y2="247" style="fill:none;" x1="72" x2="76.26" y1="247"></line><line y2="193" style="fill:none;" x1="72" x2="76.26" y1="193"></line><line y2="139" style="fill:none;" x1="72" x2="76.26" y1="139"></line><line y2="85" style="fill:none;" x1="72" x2="76.26" y1="85"></line><line y2="31" style="fill:none;" x1="72" x2="76.26" y1="31"></line><line y2="355" style="fill:none;" x1="498" x2="493.74" y1="355"></line><line y2="301" style="fill:none;" x1="498" x2="493.74" y1="301"></line><line y2="247" style="fill:none;" x1="498" x2="493.74" y1="247"></line><line y2="193" style="fill:none;" x1="498" x2="493.74" y1="193"></line><line y2="139" style="fill:none;" x1="498" x2="493.74" y1="139"></line><line y2="85" style="fill:none;" x1="498" x2="493.74" y1="85"></line><line y2="31" style="fill:none;" x1="498" x2="493.74" y1="31"></line></g><g transform="translate(65.7333,355)" style="font-size:18.2778px; fill:rgb(38,38,38); text-rendering:geometricPrecision; image-rendering:optimizeQuality; color-rendering:optimizeQuality; font-family:'SansSerif'; stroke:rgb(38,38,38); color-interpolation:linearRGB;"><path style="stroke:none;" d="M-35.125 0.3438 L-30.3906 0.3438 L-30.3906 1.7969 L-35.125 1.7969 L-35.125 0.3438 ZM-23.6959 -5.9531 Q-25.0709 -5.9531 -25.7584 -4.6016 Q-26.4459 -3.25 -26.4459 -0.5469 Q-26.4459 2.1562 -25.7584 3.5 Q-25.0709 4.8438 -23.6959 4.8438 Q-22.3053 4.8438 -21.6178 3.5 Q-20.9303 2.1562 -20.9303 -0.5469 Q-20.9303 -3.25 -21.6178 -4.6016 Q-22.3053 -5.9531 -23.6959 -5.9531 ZM-23.6959 -7.3594 Q-21.4928 -7.3594 -20.3287 -5.6172 Q-19.1647 -3.875 -19.1647 -0.5469 Q-19.1647 2.7656 -20.3287 4.5078 Q-21.4928 6.25 -23.6959 6.25 Q-25.899 6.25 -27.0631 4.5078 Q-28.2272 2.7656 -28.2272 -0.5469 Q-28.2272 -3.875 -27.0631 -5.6172 Q-25.899 -7.3594 -23.6959 -7.3594 ZM-15.8816 3.7656 L-14.0222 3.7656 L-14.0222 6 L-15.8816 6 L-15.8816 3.7656 ZM-4.7054 -1.0781 Q-3.4242 -0.7969 -2.7054 0.0625 Q-1.9867 0.9219 -1.9867 2.1875 Q-1.9867 4.125 -3.3226 5.1875 Q-4.6586 6.25 -7.1273 6.25 Q-7.9554 6.25 -8.8304 6.0859 Q-9.7054 5.9219 -10.6273 5.6094 L-10.6273 3.8906 Q-9.8929 4.3281 -9.0101 4.5469 Q-8.1273 4.7656 -7.1742 4.7656 Q-5.5023 4.7656 -4.6273 4.1016 Q-3.7523 3.4375 -3.7523 2.1875 Q-3.7523 1.0312 -4.5648 0.375 Q-5.3773 -0.2812 -6.8304 -0.2812 L-8.3617 -0.2812 L-8.3617 -1.75 L-6.7679 -1.75 Q-5.4554 -1.75 -4.7601 -2.2734 Q-4.0648 -2.7969 -4.0648 -3.7812 Q-4.0648 -4.7812 -4.7836 -5.3203 Q-5.5023 -5.8594 -6.8304 -5.8594 Q-7.5648 -5.8594 -8.4008 -5.7031 Q-9.2367 -5.5469 -10.2367 -5.2188 L-10.2367 -6.7969 Q-9.2211 -7.0781 -8.3383 -7.2188 Q-7.4554 -7.3594 -6.6742 -7.3594 Q-4.6586 -7.3594 -3.4789 -6.4375 Q-2.2992 -5.5156 -2.2992 -3.9531 Q-2.2992 -2.875 -2.9242 -2.1172 Q-3.5492 -1.3594 -4.7054 -1.0781 Z"></path></g><g transform="translate(65.7333,301)" style="font-size:18.2778px; fill:rgb(38,38,38); text-rendering:geometricPrecision; image-rendering:optimizeQuality; color-rendering:optimizeQuality; font-family:'SansSerif'; stroke:rgb(38,38,38); color-interpolation:linearRGB;"><path style="stroke:none;" d="M-35.125 0.3438 L-30.3906 0.3438 L-30.3906 1.7969 L-35.125 1.7969 L-35.125 0.3438 ZM-23.6959 -5.9531 Q-25.0709 -5.9531 -25.7584 -4.6016 Q-26.4459 -3.25 -26.4459 -0.5469 Q-26.4459 2.1562 -25.7584 3.5 Q-25.0709 4.8438 -23.6959 4.8438 Q-22.3053 4.8438 -21.6178 3.5 Q-20.9303 2.1562 -20.9303 -0.5469 Q-20.9303 -3.25 -21.6178 -4.6016 Q-22.3053 -5.9531 -23.6959 -5.9531 ZM-23.6959 -7.3594 Q-21.4928 -7.3594 -20.3287 -5.6172 Q-19.1647 -3.875 -19.1647 -0.5469 Q-19.1647 2.7656 -20.3287 4.5078 Q-21.4928 6.25 -23.6959 6.25 Q-25.899 6.25 -27.0631 4.5078 Q-28.2272 2.7656 -28.2272 -0.5469 Q-28.2272 -3.875 -27.0631 -5.6172 Q-25.899 -7.3594 -23.6959 -7.3594 ZM-15.8816 3.7656 L-14.0222 3.7656 L-14.0222 6 L-15.8816 6 L-15.8816 3.7656 ZM-8.5492 4.5 L-2.3461 4.5 L-2.3461 6 L-10.6898 6 L-10.6898 4.5 Q-9.6742 3.4531 -7.932 1.6953 Q-6.1898 -0.0625 -5.7367 -0.5781 Q-4.8773 -1.5312 -4.5414 -2.1953 Q-4.2054 -2.8594 -4.2054 -3.5 Q-4.2054 -4.5469 -4.9398 -5.2031 Q-5.6742 -5.8594 -6.8461 -5.8594 Q-7.6898 -5.8594 -8.6117 -5.5703 Q-9.5336 -5.2812 -10.5961 -4.7031 L-10.5961 -6.4844 Q-9.5179 -6.9219 -8.5883 -7.1406 Q-7.6586 -7.3594 -6.8929 -7.3594 Q-4.8461 -7.3594 -3.6351 -6.3438 Q-2.4242 -5.3281 -2.4242 -3.6094 Q-2.4242 -2.8125 -2.7289 -2.0859 Q-3.0336 -1.3594 -3.8304 -0.375 Q-4.0492 -0.125 -5.2289 1.0938 Q-6.4086 2.3125 -8.5492 4.5 Z"></path></g><g transform="translate(65.7333,247)" style="font-size:18.2778px; fill:rgb(38,38,38); text-rendering:geometricPrecision; image-rendering:optimizeQuality; color-rendering:optimizeQuality; font-family:'SansSerif'; stroke:rgb(38,38,38); color-interpolation:linearRGB;"><path style="stroke:none;" d="M-35.125 0.3438 L-30.3906 0.3438 L-30.3906 1.7969 L-35.125 1.7969 L-35.125 0.3438 ZM-23.6959 -5.9531 Q-25.0709 -5.9531 -25.7584 -4.6016 Q-26.4459 -3.25 -26.4459 -0.5469 Q-26.4459 2.1562 -25.7584 3.5 Q-25.0709 4.8438 -23.6959 4.8438 Q-22.3053 4.8438 -21.6178 3.5 Q-20.9303 2.1562 -20.9303 -0.5469 Q-20.9303 -3.25 -21.6178 -4.6016 Q-22.3053 -5.9531 -23.6959 -5.9531 ZM-23.6959 -7.3594 Q-21.4928 -7.3594 -20.3287 -5.6172 Q-19.1647 -3.875 -19.1647 -0.5469 Q-19.1647 2.7656 -20.3287 4.5078 Q-21.4928 6.25 -23.6959 6.25 Q-25.899 6.25 -27.0631 4.5078 Q-28.2272 2.7656 -28.2272 -0.5469 Q-28.2272 -3.875 -27.0631 -5.6172 Q-25.899 -7.3594 -23.6959 -7.3594 ZM-15.8816 3.7656 L-14.0222 3.7656 L-14.0222 6 L-15.8816 6 L-15.8816 3.7656 ZM-9.7679 4.5 L-6.8617 4.5 L-6.8617 -5.5 L-10.0179 -4.875 L-10.0179 -6.4844 L-6.8929 -7.125 L-5.1117 -7.125 L-5.1117 4.5 L-2.2054 4.5 L-2.2054 6 L-9.7679 6 L-9.7679 4.5 Z"></path></g><g transform="translate(65.7333,193)" style="font-size:18.2778px; fill:rgb(38,38,38); text-rendering:geometricPrecision; image-rendering:optimizeQuality; color-rendering:optimizeQuality; font-family:'SansSerif'; stroke:rgb(38,38,38); color-interpolation:linearRGB;"><path style="stroke:none;" d="M-6.2812 -5.9531 Q-7.6562 -5.9531 -8.3438 -4.6016 Q-9.0312 -3.25 -9.0312 -0.5469 Q-9.0312 2.1562 -8.3438 3.5 Q-7.6562 4.8438 -6.2812 4.8438 Q-4.8906 4.8438 -4.2031 3.5 Q-3.5156 2.1562 -3.5156 -0.5469 Q-3.5156 -3.25 -4.2031 -4.6016 Q-4.8906 -5.9531 -6.2812 -5.9531 ZM-6.2812 -7.3594 Q-4.0781 -7.3594 -2.9141 -5.6172 Q-1.75 -3.875 -1.75 -0.5469 Q-1.75 2.7656 -2.9141 4.5078 Q-4.0781 6.25 -6.2812 6.25 Q-8.4844 6.25 -9.6484 4.5078 Q-10.8125 2.7656 -10.8125 -0.5469 Q-10.8125 -3.875 -9.6484 -5.6172 Q-8.4844 -7.3594 -6.2812 -7.3594 Z"></path></g><g transform="translate(65.7333,139)" style="font-size:18.2778px; fill:rgb(38,38,38); text-rendering:geometricPrecision; image-rendering:optimizeQuality; color-rendering:optimizeQuality; font-family:'SansSerif'; stroke:rgb(38,38,38); color-interpolation:linearRGB;"><path style="stroke:none;" d="M-24.2812 -5.9531 Q-25.6562 -5.9531 -26.3438 -4.6016 Q-27.0312 -3.25 -27.0312 -0.5469 Q-27.0312 2.1562 -26.3438 3.5 Q-25.6562 4.8438 -24.2812 4.8438 Q-22.8906 4.8438 -22.2031 3.5 Q-21.5156 2.1562 -21.5156 -0.5469 Q-21.5156 -3.25 -22.2031 -4.6016 Q-22.8906 -5.9531 -24.2812 -5.9531 ZM-24.2812 -7.3594 Q-22.0781 -7.3594 -20.9141 -5.6172 Q-19.75 -3.875 -19.75 -0.5469 Q-19.75 2.7656 -20.9141 4.5078 Q-22.0781 6.25 -24.2812 6.25 Q-26.4844 6.25 -27.6484 4.5078 Q-28.8125 2.7656 -28.8125 -0.5469 Q-28.8125 -3.875 -27.6484 -5.6172 Q-26.4844 -7.3594 -24.2812 -7.3594 ZM-16.4669 3.7656 L-14.6075 3.7656 L-14.6075 6 L-16.4669 6 L-16.4669 3.7656 ZM-10.3533 4.5 L-7.447 4.5 L-7.447 -5.5 L-10.6033 -4.875 L-10.6033 -6.4844 L-7.4783 -7.125 L-5.697 -7.125 L-5.697 4.5 L-2.7908 4.5 L-2.7908 6 L-10.3533 6 L-10.3533 4.5 Z"></path></g><g transform="translate(65.7333,85)" style="font-size:18.2778px; fill:rgb(38,38,38); text-rendering:geometricPrecision; image-rendering:optimizeQuality; color-rendering:optimizeQuality; font-family:'SansSerif'; stroke:rgb(38,38,38); color-interpolation:linearRGB;"><path style="stroke:none;" d="M-24.2812 -5.9531 Q-25.6562 -5.9531 -26.3438 -4.6016 Q-27.0312 -3.25 -27.0312 -0.5469 Q-27.0312 2.1562 -26.3438 3.5 Q-25.6562 4.8438 -24.2812 4.8438 Q-22.8906 4.8438 -22.2031 3.5 Q-21.5156 2.1562 -21.5156 -0.5469 Q-21.5156 -3.25 -22.2031 -4.6016 Q-22.8906 -5.9531 -24.2812 -5.9531 ZM-24.2812 -7.3594 Q-22.0781 -7.3594 -20.9141 -5.6172 Q-19.75 -3.875 -19.75 -0.5469 Q-19.75 2.7656 -20.9141 4.5078 Q-22.0781 6.25 -24.2812 6.25 Q-26.4844 6.25 -27.6484 4.5078 Q-28.8125 2.7656 -28.8125 -0.5469 Q-28.8125 -3.875 -27.6484 -5.6172 Q-26.4844 -7.3594 -24.2812 -7.3594 ZM-16.4669 3.7656 L-14.6075 3.7656 L-14.6075 6 L-16.4669 6 L-16.4669 3.7656 ZM-9.1345 4.5 L-2.9314 4.5 L-2.9314 6 L-11.2751 6 L-11.2751 4.5 Q-10.2595 3.4531 -8.5173 1.6953 Q-6.7751 -0.0625 -6.322 -0.5781 Q-5.4626 -1.5312 -5.1267 -2.1953 Q-4.7908 -2.8594 -4.7908 -3.5 Q-4.7908 -4.5469 -5.5251 -5.2031 Q-6.2595 -5.8594 -7.4314 -5.8594 Q-8.2751 -5.8594 -9.197 -5.5703 Q-10.1189 -5.2812 -11.1814 -4.7031 L-11.1814 -6.4844 Q-10.1033 -6.9219 -9.1736 -7.1406 Q-8.2439 -7.3594 -7.4783 -7.3594 Q-5.4314 -7.3594 -4.2205 -6.3438 Q-3.0095 -5.3281 -3.0095 -3.6094 Q-3.0095 -2.8125 -3.3142 -2.0859 Q-3.6189 -1.3594 -4.4158 -0.375 Q-4.6345 -0.125 -5.8142 1.0938 Q-6.9939 2.3125 -9.1345 4.5 Z"></path></g><g transform="translate(65.7333,31)" style="font-size:18.2778px; fill:rgb(38,38,38); text-rendering:geometricPrecision; image-rendering:optimizeQuality; color-rendering:optimizeQuality; font-family:'SansSerif'; stroke:rgb(38,38,38); color-interpolation:linearRGB;"><path style="stroke:none;" d="M-24.2812 -5.9531 Q-25.6562 -5.9531 -26.3438 -4.6016 Q-27.0312 -3.25 -27.0312 -0.5469 Q-27.0312 2.1562 -26.3438 3.5 Q-25.6562 4.8438 -24.2812 4.8438 Q-22.8906 4.8438 -22.2031 3.5 Q-21.5156 2.1562 -21.5156 -0.5469 Q-21.5156 -3.25 -22.2031 -4.6016 Q-22.8906 -5.9531 -24.2812 -5.9531 ZM-24.2812 -7.3594 Q-22.0781 -7.3594 -20.9141 -5.6172 Q-19.75 -3.875 -19.75 -0.5469 Q-19.75 2.7656 -20.9141 4.5078 Q-22.0781 6.25 -24.2812 6.25 Q-26.4844 6.25 -27.6484 4.5078 Q-28.8125 2.7656 -28.8125 -0.5469 Q-28.8125 -3.875 -27.6484 -5.6172 Q-26.4844 -7.3594 -24.2812 -7.3594 ZM-16.4669 3.7656 L-14.6075 3.7656 L-14.6075 6 L-16.4669 6 L-16.4669 3.7656 ZM-5.2908 -1.0781 Q-4.0095 -0.7969 -3.2908 0.0625 Q-2.572 0.9219 -2.572 2.1875 Q-2.572 4.125 -3.908 5.1875 Q-5.2439 6.25 -7.7126 6.25 Q-8.5408 6.25 -9.4158 6.0859 Q-10.2908 5.9219 -11.2126 5.6094 L-11.2126 3.8906 Q-10.4783 4.3281 -9.5955 4.5469 Q-8.7126 4.7656 -7.7595 4.7656 Q-6.0876 4.7656 -5.2126 4.1016 Q-4.3376 3.4375 -4.3376 2.1875 Q-4.3376 1.0312 -5.1501 0.375 Q-5.9626 -0.2812 -7.4158 -0.2812 L-8.947 -0.2812 L-8.947 -1.75 L-7.3533 -1.75 Q-6.0408 -1.75 -5.3455 -2.2734 Q-4.6501 -2.7969 -4.6501 -3.7812 Q-4.6501 -4.7812 -5.3689 -5.3203 Q-6.0876 -5.8594 -7.4158 -5.8594 Q-8.1501 -5.8594 -8.9861 -5.7031 Q-9.822 -5.5469 -10.822 -5.2188 L-10.822 -6.7969 Q-9.8064 -7.0781 -8.9236 -7.2188 Q-8.0408 -7.3594 -7.2595 -7.3594 Q-5.2439 -7.3594 -4.0642 -6.4375 Q-2.8845 -5.5156 -2.8845 -3.9531 Q-2.8845 -2.875 -3.5095 -2.1172 Q-4.1345 -1.3594 -5.2908 -1.0781 Z"></path></g><g transform="translate(25.8167,192.9998) rotate(-90)" style="font-size:20.1056px; fill:rgb(38,38,38); text-rendering:geometricPrecision; image-rendering:optimizeQuality; color-rendering:optimizeQuality; font-family:'SansSerif'; stroke:rgb(38,38,38); color-interpolation:linearRGB;"><path style="stroke:none;" d="M-44.6562 -17.6406 L-47.3438 -10.375 L-41.9844 -10.375 L-44.6562 -17.6406 ZM-45.7812 -19.5781 L-43.5469 -19.5781 L-37.9844 -5 L-40.0312 -5 L-41.3594 -8.7344 L-47.9375 -8.7344 L-49.2656 -5 L-51.3438 -5 L-45.7812 -19.5781 ZM-27.348 -13.8438 Q-26.6761 -15.0469 -25.7386 -15.625 Q-24.8011 -16.2031 -23.5355 -16.2031 Q-21.8324 -16.2031 -20.9027 -15.0078 Q-19.973 -13.8125 -19.973 -11.6094 L-19.973 -5 L-21.7699 -5 L-21.7699 -11.5469 Q-21.7699 -13.1094 -22.3324 -13.875 Q-22.8949 -14.6406 -24.0355 -14.6406 Q-25.4261 -14.6406 -26.2386 -13.7109 Q-27.0511 -12.7812 -27.0511 -11.1875 L-27.0511 -5 L-28.8636 -5 L-28.8636 -11.5469 Q-28.8636 -13.125 -29.4183 -13.8828 Q-29.973 -14.6406 -31.1292 -14.6406 Q-32.5042 -14.6406 -33.3167 -13.7109 Q-34.1292 -12.7812 -34.1292 -11.1875 L-34.1292 -5 L-35.9417 -5 L-35.9417 -15.9375 L-34.1292 -15.9375 L-34.1292 -14.2344 Q-33.5199 -15.25 -32.6605 -15.7266 Q-31.8011 -16.2031 -30.6136 -16.2031 Q-29.4261 -16.2031 -28.5902 -15.5938 Q-27.7542 -14.9844 -27.348 -13.8438 ZM-14.5555 -6.6406 L-14.5555 -0.8438 L-16.368 -0.8438 L-16.368 -15.9375 L-14.5555 -15.9375 L-14.5555 -14.2812 Q-13.993 -15.25 -13.1258 -15.7266 Q-12.2586 -16.2031 -11.0555 -16.2031 Q-9.0711 -16.2031 -7.8211 -14.6172 Q-6.5711 -13.0312 -6.5711 -10.4531 Q-6.5711 -7.875 -7.8211 -6.2969 Q-9.0711 -4.7188 -11.0555 -4.7188 Q-12.2586 -4.7188 -13.1258 -5.1953 Q-13.993 -5.6719 -14.5555 -6.6406 ZM-8.4461 -10.4531 Q-8.4461 -12.4375 -9.2586 -13.5703 Q-10.0711 -14.7031 -11.493 -14.7031 Q-12.9305 -14.7031 -13.743 -13.5703 Q-14.5555 -12.4375 -14.5555 -10.4531 Q-14.5555 -8.4844 -13.743 -7.3516 Q-12.9305 -6.2188 -11.493 -6.2188 Q-10.0711 -6.2188 -9.2586 -7.3516 Q-8.4461 -8.4844 -8.4461 -10.4531 ZM-3.535 -20.2031 L-1.7382 -20.2031 L-1.7382 -5 L-3.535 -5 L-3.535 -20.2031 ZM2.0477 -15.9375 L3.8445 -15.9375 L3.8445 -5 L2.0477 -5 L2.0477 -15.9375 ZM2.0477 -20.2031 L3.8445 -20.2031 L3.8445 -17.9219 L2.0477 -17.9219 L2.0477 -20.2031 ZM9.396 -19.0469 L9.396 -15.9375 L13.0991 -15.9375 L13.0991 -14.5469 L9.396 -14.5469 L9.396 -8.6094 Q9.396 -7.2656 9.7632 -6.8828 Q10.1303 -6.5 11.2553 -6.5 L13.0991 -6.5 L13.0991 -5 L11.2553 -5 Q9.1772 -5 8.3882 -5.7734 Q7.5991 -6.5469 7.5991 -8.6094 L7.5991 -14.5469 L6.271 -14.5469 L6.271 -15.9375 L7.5991 -15.9375 L7.5991 -19.0469 L9.396 -19.0469 ZM15.3214 -9.3125 L15.3214 -15.9375 L17.1183 -15.9375 L17.1183 -9.3906 Q17.1183 -7.8281 17.7198 -7.0547 Q18.3214 -6.2812 19.5401 -6.2812 Q20.9933 -6.2812 21.837 -7.2109 Q22.6808 -8.1406 22.6808 -9.7344 L22.6808 -15.9375 L24.4776 -15.9375 L24.4776 -5 L22.6808 -5 L22.6808 -6.6875 Q22.0245 -5.6875 21.1651 -5.2031 Q20.3058 -4.7188 19.1495 -4.7188 Q17.2745 -4.7188 16.298 -5.8906 Q15.3214 -7.0625 15.3214 -9.3125 ZM35.4316 -14.2812 L35.4316 -20.2031 L37.2285 -20.2031 L37.2285 -5 L35.4316 -5 L35.4316 -6.6406 Q34.8691 -5.6719 34.0019 -5.1953 Q33.1347 -4.7188 31.9316 -4.7188 Q29.9472 -4.7188 28.705 -6.2969 Q27.4628 -7.875 27.4628 -10.4531 Q27.4628 -13.0312 28.705 -14.6172 Q29.9472 -16.2031 31.9316 -16.2031 Q33.1347 -16.2031 34.0019 -15.7266 Q34.8691 -15.25 35.4316 -14.2812 ZM29.3066 -10.4531 Q29.3066 -8.4844 30.1269 -7.3516 Q30.9472 -6.2188 32.3691 -6.2188 Q33.791 -6.2188 34.6113 -7.3516 Q35.4316 -8.4844 35.4316 -10.4531 Q35.4316 -12.4375 34.6113 -13.5703 Q33.791 -14.7031 32.3691 -14.7031 Q30.9472 -14.7031 30.1269 -13.5703 Q29.3066 -12.4375 29.3066 -10.4531 ZM50.3427 -10.9219 L50.3427 -10.0469 L42.0927 -10.0469 Q42.202 -8.1875 43.202 -7.2109 Q44.202 -6.2344 45.9989 -6.2344 Q47.0302 -6.2344 47.9989 -6.4922 Q48.9677 -6.75 49.9364 -7.25 L49.9364 -5.5625 Q48.9677 -5.1406 47.952 -4.9297 Q46.9364 -4.7188 45.8895 -4.7188 Q43.2645 -4.7188 41.7411 -6.2422 Q40.2177 -7.7656 40.2177 -10.3594 Q40.2177 -13.0469 41.663 -14.625 Q43.1083 -16.2031 45.577 -16.2031 Q47.7802 -16.2031 49.0614 -14.7812 Q50.3427 -13.3594 50.3427 -10.9219 ZM48.5458 -11.4531 Q48.5302 -12.9219 47.7255 -13.7969 Q46.9208 -14.6719 45.5927 -14.6719 Q44.0927 -14.6719 43.1864 -13.8281 Q42.2802 -12.9844 42.1395 -11.4375 L48.5458 -11.4531 Z"></path></g><g style="stroke-linecap:butt; fill:rgb(0,114,189); text-rendering:geometricPrecision; image-rendering:optimizeQuality; color-rendering:optimizeQuality; stroke-linejoin:round; stroke:rgb(0,114,189); color-interpolation:linearRGB; stroke-width:3.2639;"><path d="M72 294.6125 L73.932 315.7557 L75.8639 306.5107 L77.7959 261.3899 L79.7279 241.3508 L81.6599 225.9755 L83.5918 228.5133 L85.5238 203.5469 L87.4558 169.4178 L89.3878 156.5638 L91.3197 144.2866 L93.2517 140.6941 L95.1837 118.1337 L97.1156 103.1538 L99.0476 95.3755 L100.9796 88.2563 L102.9116 95.7545 L104.8435 79.3574 L106.7755 82.3567 L108.7075 81.5822 L110.6395 81.1207 L112.5714 71.4802 L114.5034 81.5657 L116.4354 86.7897 L118.3673 116.667 L120.2993 115.7112 L122.2313 124.2311 L124.1633 144.5833 L126.0952 160.7002 L128.0272 186.7378 L129.9592 206.6285 L131.8912 250.1509 L133.8231 258.7532 L135.7551 264.7682 L137.6871 281.8739 L139.619 291.6957 L141.551 303.7916 L143.483 315.146 L145.415 321.6884 L147.3469 330.0764 L149.2789 333.3064 L151.2109 335.6135 L153.1429 326.0389 L155.0748 314.7834 L157.0068 314.8988 L158.9388 307.5654 L160.8707 302.1602 L162.8027 287.2297 L164.7347 267.4708 L166.6667 251.7164 L168.5986 225.926 L170.5306 209.4136 L172.4626 190.7258 L174.3946 168.0006 L176.3265 176.1415 L178.2585 152.3451 L180.1905 132.9158 L182.1225 122.0063 L184.0544 98.6879 L185.9864 94.2878 L187.9184 96.4302 L189.8503 82.8676 L191.7823 79.1761 L193.7143 71.3319 L195.6463 97.765 L197.5782 105.7905 L199.5102 91.0084 L201.4422 114.6235 L203.3741 122.4019 L205.3061 132.4214 L207.2381 148.835 L209.1701 149.4941 L211.1021 169.7474 L213.034 187.6771 L214.966 197.7461 L216.898 228.8759 L218.8299 237.198 L220.7619 250.5958 L222.6939 268.1465 L224.6259 279.7316 L226.5578 295.2717 L228.4898 307.3018 L230.4218 319.9415 L232.3537 323.6659 L234.2857 318.2441 L236.2177 331.0817 L238.1497 335.3004 L240.0816 318.2441 L242.0136 314.2561 L243.9456 292.8163 L245.8775 295.5189 L247.8095 282.5825 L249.7415 253.5951 L251.6735 244.037 L253.6054 212.2645 L255.5374 208.1447 L257.4694 189.4899 L259.4014 162.6283 L261.3333 162.7107 L263.2653 132.2072 L265.1973 128.7959 L267.1292 117.6887 L269.0612 95.6392 L270.9932 88.7343 L272.9252 84.12 L274.8571 78.9454 L276.7891 77.8248 L278.7211 70.1783 L280.6531 73.2271 L282.5851 77.7589 L284.517 80.1979 L286.449 92.3433 L288.381 101.7201 L290.3129 118.3314 L292.2449 123.6213 L294.1768 142.0784 L296.1088 166.3856 L298.0408 171.28 L299.9728 185.337 L301.9048 208.0623 L303.8367 224.2122 L305.7687 253.2325 L307.7007 256.4625 L309.6327 268.13 L311.5646 291.5638 L313.4966 300.6605 L315.4286 312.328 L317.3606 322.5618 L319.2925 318.1782 L321.2245 333.2734 L323.1565 327.0607 L325.0884 314.6022 L327.0204 313.5145 L328.9524 296.8373 L330.8843 306.3789 L332.8163 284.3953 L334.7483 251.8483 L336.6803 253.5292 L338.6122 226.5028 L340.5442 210.8802 L342.4762 192.588 L344.4082 166.2043 L346.3401 151.0597 L348.2721 136.6731 L350.2041 127.8401 L352.136 117.5074 L354.068 98.9845 L356 97.2212 L357.932 93.2826 L359.864 80.6099 L361.7959 85.1252 L363.7279 73.8862 L365.6599 83.3455 L367.5918 87.0039 L369.5238 86.4601 L371.4558 98.0781 L373.3878 103.8624 L375.3197 118.8752 L377.2517 135.5854 L379.1837 137.9915 L381.1156 158.5414 L383.0476 176.0426 L384.9796 184.6449 L386.9116 215.6923 L388.8435 224.6406 L390.7755 246.0804 L392.7075 259.8573 L394.6395 273.7166 L396.5714 289.5369 L398.5034 295.5848 L400.4354 309.0815 L402.3673 319.6614 L404.2993 314.2561 L406.2313 325.6764 L408.1633 322.2487 L410.0952 317.3707 L412.0272 312.7729 L413.9592 303.1489 L415.8911 301.3362 L417.8232 283.3406 L419.7551 254.2378 L421.6871 255.2101 L423.619 228.4474 L425.551 227.6893 L427.483 198.0098 L429.4149 174.0815 L431.347 161.8867 L433.2789 139.2769 L435.2109 134.7944 L437.1429 119.3202 L439.0748 99.8414 L441.0068 100.2699 L442.9388 88.0256 L444.8707 75.4847 L446.8027 84.087 L448.7347 68.9589 L450.6667 77.0173 L452.5986 79.7859 L454.5306 87.5477 L456.4626 101.5718 L458.3945 104.3733 L460.3265 119.6663 L462.2585 126.1757 L464.1905 140.8094 L466.1224 152.2627 L468.0544 169.3519 L469.9864 189.9019 L471.9184 225.135 L473.8503 232.5508 L475.7823 230.2766 L477.7143 257.7974 L479.6463 275.2656 L481.5782 288.7458 L483.5102 295.3706 L485.4422 309.098 L487.3741 315.179 L489.3061 323.5011 L491.2381 331.1805 L493.1701 320.2052 L495.102 325.2314 L497.034 323.1221" style="fill:none; fill-rule:evenodd;"></path></g><g style="stroke-linecap:butt; fill:rgb(217,83,25); text-rendering:geometricPrecision; image-rendering:optimizeQuality; color-rendering:optimizeQuality; stroke-linejoin:bevel; stroke-dasharray:12,3,6,3; stroke:rgb(217,83,25); color-interpolation:linearRGB; stroke-width:3.2639; stroke-miterlimit:1;"><path d="M72 108.9216 L73.932 133.2948 L75.8639 139.178 L77.7959 154.1414 L79.7279 179.5198 L81.6599 186.4906 L83.5918 228.777 L85.5238 252.3262 L87.4558 242.6362 L89.3878 264.1255 L91.3197 275.0514 L93.2517 288.3833 L95.1837 306.5767 L97.1156 319.1176 L99.0476 316.4314 L100.9796 335.7289 L102.9116 333.0427 L104.8435 311.0756 L106.7755 323.5835 L108.7075 315.0966 L110.6395 312.4434 L112.5714 304.7145 L114.5034 280.4567 L116.4354 264.3727 L118.3673 250.3486 L120.2993 221.8556 L122.2313 205.6068 L124.1633 182.8157 L126.0952 162.035 L128.0272 154.1414 L129.9592 139.5076 L131.8912 118.5457 L133.8231 107.2737 L135.7551 96.1335 L137.6871 88.8331 L139.619 90.8766 L141.551 82.0271 L143.483 76.1769 L145.415 76.045 L147.3469 75.9626 L149.2789 89.8878 L151.2109 92.2444 L153.1429 94.3373 L155.0748 100.6324 L157.0068 121.2648 L158.9388 127.8071 L160.8707 142.0784 L162.8027 161.9197 L164.7347 174.7078 L166.6667 197.2352 L168.5986 215.3956 L170.5306 224.8384 L172.4626 256.8251 L174.3946 270.8491 L176.3265 276.6334 L178.2585 295.9803 L180.1905 307.928 L182.1225 316.9423 L184.0544 323.4681 L185.9864 321.6719 L187.9184 317.0741 L189.8503 323.2869 L191.7823 317.7827 L193.7143 303.6433 L195.6463 293.0964 L197.5782 285.1533 L199.5102 272.118 L201.4422 258.7532 L203.3741 234.792 L205.3061 222.4159 L207.2381 199.1304 L209.1701 184.134 L211.1021 177.1962 L213.034 152.856 L214.966 139.6888 L216.898 120.2266 L218.8299 101.6871 L220.7619 95.5403 L222.6939 96.8422 L224.6259 89.7065 L226.5578 75.0892 L228.4898 81.2361 L230.4218 71.233 L232.3537 66.4375 L234.2857 79.4398 L236.2177 84.8451 L238.1497 91.4534 L240.0816 104.3568 L242.0136 122.1547 L243.9456 129.6693 L245.8775 152.2627 L247.8095 160.2552 L249.7415 174.0486 L251.6735 206.8428 L253.6054 218.5267 L255.5374 219.4331 L257.4694 233.3583 L259.4014 247.613 L261.3333 265.5262 L263.2653 292.1241 L265.1973 290.3773 L267.1292 303.3302 L269.0612 319.5955 L270.9932 318.5078 L272.9252 311.5535 L274.8571 309.7407 L276.7891 304.3354 L278.7211 297.9744 L280.6531 291.7451 L282.5851 277.2926 L284.517 260.2858 L286.449 244.2512 L288.381 224.8054 L290.3129 217.6039 L292.2449 189.3745 L294.1768 175.1362 L296.1088 156.7286 L298.0408 139.0132 L299.9728 127.8071 L301.9048 118.6775 L303.8367 91.7335 L305.7687 88.3058 L307.7007 79.8024 L309.6327 73.9851 L311.5646 74.5784 L313.4966 67.245 L315.4286 61.6584 L317.3606 64.9543 L319.2925 71.7109 L321.2245 75.5836 L323.1565 88.932 L325.0884 96.9246 L327.0204 113.7666 L328.9524 118.282 L330.8843 129.4716 L332.8163 156.7616 L334.7483 166.6823 L336.6803 189.4075 L338.6122 203.0031 L340.5442 221.0646 L342.4762 240.2137 L344.4082 255.4738 L346.3401 270.3053 L348.2721 276.7653 L350.2041 293.426 L352.136 308.2081 L354.068 315.7228 L356 311.2074 L357.932 313.4651 L359.864 316.7115 L361.7959 309.9879 L363.7279 303.907 L365.6599 292.8492 L367.5918 279.6656 L369.5238 263.8289 L371.4558 247.234 L373.3878 245.4707 L375.3197 221.4601 L377.2517 199.2787 L379.1837 191.2697 L381.1156 171.7909 L383.0476 151.0597 L384.9796 136.2281 L386.9116 118.0348 L388.8435 108.4108 L390.7755 99.9733 L392.7075 82.7522 L394.6395 85.4054 L396.5714 77.4952 L398.5034 68.6622 L400.4354 72.057 L402.3673 66.2892 L404.2993 66.1079 L406.2313 78.451 L408.1633 81.302 L410.0952 92.5575 L412.0272 109.4655 L413.9592 121.924 L415.8911 137.5795 L417.8232 155.0642 L419.7551 165.3145 L421.6871 185.0734 L423.619 204.9806 L425.551 232.1223 L427.483 237.61 L429.4149 255.8363 L431.347 269.1353 L433.2789 289.8994 L435.2109 304.3849 L437.1429 301.9789 L439.0748 316.1348 L441.0068 318.0134 L442.9388 310.7954 L444.8707 316.5138 L446.8027 311.3722 L448.7347 300.9077 L450.6667 292.6515 L452.5986 278.7922 L454.5306 267.9982 L456.4626 256.6438 L458.3945 242.4385 L460.3265 223.2893 L462.2585 194.203 L464.1905 177.1632 L466.1224 164.6882 L468.0544 147.1376 L469.9864 132.5367 L471.9184 119.897 L473.8503 103.6317 L475.7823 93.9253 L477.7143 85.0264 L479.6463 75.9791 L481.5782 72.4525 L483.5102 71.2001 L485.4422 68.2173 L487.3741 69.3049 L489.3061 70.854 L491.2381 77.4458 L493.1701 85.0264 L495.102 85.1582 L497.034 103.9448" style="fill:none; fill-rule:evenodd;"></path></g><g style="fill:white; text-rendering:optimizeSpeed; color-rendering:optimizeSpeed; image-rendering:optimizeSpeed; shape-rendering:crispEdges; stroke:white; color-interpolation:sRGB;"><path style="stroke:none;" d="M488 344 L488 294 L279 294 L279 344 Z"></path></g><g transform="translate(325.3515,306.1212)" style="font-size:16.45px; text-rendering:geometricPrecision; color-rendering:optimizeQuality; image-rendering:optimizeQuality; font-family:'SansSerif'; color-interpolation:linearRGB;"><path style="stroke:none;" d="M1.9844 4.6719 L4.5625 4.6719 L4.5625 -4.2344 L1.7656 -3.6719 L1.7656 -5.1094 L4.5469 -5.6719 L6.125 -5.6719 L6.125 4.6719 L8.7031 4.6719 L8.7031 6 L1.9844 6 L1.9844 4.6719 ZM17.1362 -6.1562 L18.5893 -6.1562 L18.5893 1.0156 L22.8705 -2.75 L24.7143 -2.75 L20.0737 1.3438 L24.9018 6 L23.0268 6 L18.5893 1.7188 L18.5893 6 L17.1362 6 L17.1362 -6.1562 ZM26.7802 -5.6719 L28.3583 -5.6719 L28.3583 -0.8906 L34.0927 -0.8906 L34.0927 -5.6719 L35.6708 -5.6719 L35.6708 6 L34.0927 6 L34.0927 0.4375 L28.3583 0.4375 L28.3583 6 L26.7802 6 L26.7802 -5.6719 ZM38.4529 -2.75 L45.281 -2.75 L45.281 -1.4375 L39.8748 4.8438 L45.281 4.8438 L45.281 6 L38.2498 6 L38.2498 4.6875 L43.656 -1.6094 L38.4529 -1.6094 L38.4529 -2.75 ZM48.0653 4.0156 L49.7216 4.0156 L49.7216 5.3594 L48.4403 7.8594 L47.4247 7.8594 L48.0653 5.3594 L48.0653 4.0156 ZM65.4216 0.7188 L65.4216 6 L63.9841 6 L63.9841 0.7656 Q63.9841 -0.4844 63.4997 -1.1016 Q63.0154 -1.7188 62.0466 -1.7188 Q60.8904 -1.7188 60.2185 -0.9766 Q59.5466 -0.2344 59.5466 1.0469 L59.5466 6 L58.0935 6 L58.0935 -2.75 L59.5466 -2.75 L59.5466 -1.3906 Q60.0622 -2.1875 60.7575 -2.5781 Q61.4529 -2.9688 62.3747 -2.9688 Q63.8747 -2.9688 64.6482 -2.0312 Q65.4216 -1.0938 65.4216 0.7188 ZM71.9645 -1.75 Q70.8083 -1.75 70.1364 -0.8438 Q69.4645 0.0625 69.4645 1.625 Q69.4645 3.2031 70.1286 4.1016 Q70.7926 5 71.9645 5 Q73.1051 5 73.777 4.0938 Q74.4489 3.1875 74.4489 1.625 Q74.4489 0.0781 73.777 -0.8359 Q73.1051 -1.75 71.9645 -1.75 ZM71.9645 -2.9688 Q73.8395 -2.9688 74.9098 -1.75 Q75.9801 -0.5312 75.9801 1.625 Q75.9801 3.7812 74.9098 5.0078 Q73.8395 6.2344 71.9645 6.2344 Q70.0739 6.2344 69.0114 5.0078 Q67.9489 3.7812 67.9489 1.625 Q67.9489 -0.5312 69.0114 -1.75 Q70.0739 -2.9688 71.9645 -2.9688 ZM89.4337 -2.5 L89.4337 -1.1406 Q88.8244 -1.4531 88.1681 -1.6094 Q87.5119 -1.7656 86.8087 -1.7656 Q85.7306 -1.7656 85.1994 -1.4375 Q84.6681 -1.1094 84.6681 -0.4531 Q84.6681 0.0469 85.0509 0.3359 Q85.4337 0.625 86.59 0.875 L87.0744 0.9844 Q88.6056 1.3125 89.2541 1.9141 Q89.9025 2.5156 89.9025 3.5781 Q89.9025 4.7969 88.9337 5.5156 Q87.965 6.2344 86.2775 6.2344 Q85.5744 6.2344 84.8166 6.0938 Q84.0587 5.9531 83.215 5.6719 L83.215 4.1875 Q84.0119 4.6094 84.7853 4.8125 Q85.5587 5.0156 86.3087 5.0156 Q87.3244 5.0156 87.8712 4.6719 Q88.4181 4.3281 88.4181 3.6875 Q88.4181 3.1094 88.0275 2.7969 Q87.6369 2.4844 86.2931 2.1875 L85.7931 2.0781 Q84.465 1.7969 83.8712 1.2109 Q83.2775 0.625 83.2775 -0.3906 Q83.2775 -1.625 84.1525 -2.2969 Q85.0275 -2.9688 86.6369 -2.9688 Q87.4337 -2.9688 88.1369 -2.8516 Q88.84 -2.7344 89.4337 -2.5 ZM93.8414 -5.2344 L93.8414 -2.75 L96.7945 -2.75 L96.7945 -1.6406 L93.8414 -1.6406 L93.8414 3.1094 Q93.8414 4.1875 94.1304 4.4922 Q94.4195 4.7969 95.3257 4.7969 L96.7945 4.7969 L96.7945 6 L95.3257 6 Q93.6539 6 93.0211 5.375 Q92.3882 4.75 92.3882 3.1094 L92.3882 -1.6406 L91.3414 -1.6406 L91.3414 -2.75 L92.3882 -2.75 L92.3882 -5.2344 L93.8414 -5.2344 ZM106.3488 1.2656 L106.3488 1.9688 L99.7395 1.9688 Q99.8332 3.4531 100.6301 4.2266 Q101.427 5 102.8645 5 Q103.6926 5 104.466 4.7969 Q105.2395 4.5938 106.0051 4.1875 L106.0051 5.5469 Q105.2395 5.875 104.427 6.0547 Q103.6145 6.2344 102.7707 6.2344 Q100.677 6.2344 99.4582 5.0078 Q98.2395 3.7812 98.2395 1.7031 Q98.2395 -0.4375 99.3957 -1.7031 Q100.552 -2.9688 102.5207 -2.9688 Q104.2863 -2.9688 105.3176 -1.8281 Q106.3488 -0.6875 106.3488 1.2656 ZM104.9113 0.8438 Q104.8957 -0.3438 104.2473 -1.0469 Q103.5988 -1.75 102.5363 -1.75 Q101.3332 -1.75 100.6145 -1.0703 Q99.8957 -0.3906 99.7863 0.8438 L104.9113 0.8438 ZM116.4618 1.2656 L116.4618 1.9688 L109.8524 1.9688 Q109.9461 3.4531 110.743 4.2266 Q111.5399 5 112.9774 5 Q113.8055 5 114.5789 4.7969 Q115.3524 4.5938 116.118 4.1875 L116.118 5.5469 Q115.3524 5.875 114.5399 6.0547 Q113.7274 6.2344 112.8836 6.2344 Q110.7899 6.2344 109.5711 5.0078 Q108.3524 3.7812 108.3524 1.7031 Q108.3524 -0.4375 109.5086 -1.7031 Q110.6649 -2.9688 112.6336 -2.9688 Q114.3993 -2.9688 115.4305 -1.8281 Q116.4618 -0.6875 116.4618 1.2656 ZM115.0243 0.8438 Q115.0086 -0.3438 114.3602 -1.0469 Q113.7118 -1.75 112.6493 -1.75 Q111.4461 -1.75 110.7274 -1.0703 Q110.0086 -0.3906 109.8993 0.8438 L115.0243 0.8438 ZM124.1528 -1.4062 Q123.9184 -1.5469 123.6294 -1.6172 Q123.3403 -1.6875 122.9966 -1.6875 Q121.7778 -1.6875 121.1294 -0.8906 Q120.4809 -0.0938 120.4809 1.3906 L120.4809 6 L119.0278 6 L119.0278 -2.75 L120.4809 -2.75 L120.4809 -1.3906 Q120.9341 -2.1875 121.6606 -2.5781 Q122.3872 -2.9688 123.4184 -2.9688 Q123.5747 -2.9688 123.7544 -2.9453 Q123.9341 -2.9219 124.1528 -2.8906 L124.1528 -1.4062 ZM125.8483 -2.75 L127.2858 -2.75 L127.2858 6 L125.8483 6 L125.8483 -2.75 ZM125.8483 -6.1562 L127.2858 -6.1562 L127.2858 -4.3438 L125.8483 -4.3438 L125.8483 -6.1562 ZM137.6808 0.7188 L137.6808 6 L136.2433 6 L136.2433 0.7656 Q136.2433 -0.4844 135.7589 -1.1016 Q135.2745 -1.7188 134.3058 -1.7188 Q133.1495 -1.7188 132.4777 -0.9766 Q131.8058 -0.2344 131.8058 1.0469 L131.8058 6 L130.3527 6 L130.3527 -2.75 L131.8058 -2.75 L131.8058 -1.3906 Q132.3214 -2.1875 133.0167 -2.5781 Q133.712 -2.9688 134.6339 -2.9688 Q136.1339 -2.9688 136.9073 -2.0312 Q137.6808 -1.0938 137.6808 0.7188 ZM146.5831 1.5156 Q146.5831 -0.0469 145.9424 -0.9062 Q145.3018 -1.7656 144.1299 -1.7656 Q142.9737 -1.7656 142.3331 -0.9062 Q141.6924 -0.0469 141.6924 1.5156 Q141.6924 3.0781 142.3331 3.9375 Q142.9737 4.7969 144.1299 4.7969 Q145.3018 4.7969 145.9424 3.9375 Q146.5831 3.0781 146.5831 1.5156 ZM148.0206 4.9062 Q148.0206 7.1562 147.0284 8.2422 Q146.0362 9.3281 143.9893 9.3281 Q143.2393 9.3281 142.5674 9.2188 Q141.8956 9.1094 141.2549 8.875 L141.2549 7.4688 Q141.8956 7.8125 142.5128 7.9766 Q143.1299 8.1406 143.7706 8.1406 Q145.1768 8.1406 145.8799 7.4062 Q146.5831 6.6719 146.5831 5.1719 L146.5831 4.4531 Q146.1456 5.2344 145.4503 5.6172 Q144.7549 6 143.7862 6 Q142.1768 6 141.1924 4.7734 Q140.2081 3.5469 140.2081 1.5156 Q140.2081 -0.5156 141.1924 -1.7422 Q142.1768 -2.9688 143.7862 -2.9688 Q144.7549 -2.9688 145.4503 -2.5859 Q146.1456 -2.2031 146.5831 -1.4219 L146.5831 -2.75 L148.0206 -2.75 L148.0206 4.9062 Z"></path></g><g style="stroke-linecap:butt; fill:rgb(0,114,189); text-rendering:geometricPrecision; image-rendering:optimizeQuality; color-rendering:optimizeQuality; stroke-linejoin:round; stroke:rgb(0,114,189); color-interpolation:linearRGB; stroke-width:3.2639;"><line y2="306.1212" style="fill:none;" x1="283.016" x2="322.3395" y1="306.1212"></line></g><g transform="translate(325,338)" style="font-size:16.45px; text-rendering:geometricPrecision; color-rendering:optimizeQuality; image-rendering:optimizeQuality; font-family:'SansSerif'; color-interpolation:linearRGB;"><path style="stroke:none;" d="M1.9844 -1.3281 L4.5625 -1.3281 L4.5625 -10.2344 L1.7656 -9.6719 L1.7656 -11.1094 L4.5469 -11.6719 L6.125 -11.6719 L6.125 -1.3281 L8.7031 -1.3281 L8.7031 0 L1.9844 0 L1.9844 -1.3281 ZM17.1362 -12.1562 L18.5893 -12.1562 L18.5893 -4.9844 L22.8705 -8.75 L24.7143 -8.75 L20.0737 -4.6562 L24.9018 0 L23.0268 0 L18.5893 -4.2812 L18.5893 0 L17.1362 0 L17.1362 -12.1562 ZM26.7802 -11.6719 L28.3583 -11.6719 L28.3583 -6.8906 L34.0927 -6.8906 L34.0927 -11.6719 L35.6708 -11.6719 L35.6708 0 L34.0927 0 L34.0927 -5.5625 L28.3583 -5.5625 L28.3583 0 L26.7802 0 L26.7802 -11.6719 ZM38.4529 -8.75 L45.281 -8.75 L45.281 -7.4375 L39.8748 -1.1562 L45.281 -1.1562 L45.281 0 L38.2498 0 L38.2498 -1.3125 L43.656 -7.6094 L38.4529 -7.6094 L38.4529 -8.75 ZM48.0653 -1.9844 L49.7216 -1.9844 L49.7216 -0.6406 L48.4403 1.8594 L47.4247 1.8594 L48.0653 -0.6406 L48.0653 -1.9844 ZM62.6872 -10.2969 L58.7029 -4.0625 L62.6872 -4.0625 L62.6872 -10.2969 ZM62.281 -11.6719 L64.2654 -11.6719 L64.2654 -4.0625 L65.9216 -4.0625 L65.9216 -2.75 L64.2654 -2.75 L64.2654 0 L62.6872 0 L62.6872 -2.75 L57.4216 -2.75 L57.4216 -4.2812 L62.281 -11.6719 ZM68.8328 -11.6719 L75.0203 -11.6719 L75.0203 -10.3438 L70.2703 -10.3438 L70.2703 -7.4844 Q70.614 -7.5938 70.9578 -7.6562 Q71.3015 -7.7188 71.6453 -7.7188 Q73.5984 -7.7188 74.739 -6.6484 Q75.8796 -5.5781 75.8796 -3.75 Q75.8796 -1.8594 74.7078 -0.8125 Q73.5359 0.2344 71.4109 0.2344 Q70.6765 0.2344 69.9109 0.1016 Q69.1453 -0.0312 68.3328 -0.2812 L68.3328 -1.8594 Q69.0359 -1.4844 69.7859 -1.2969 Q70.5359 -1.1094 71.3796 -1.1094 Q72.7234 -1.1094 73.5125 -1.8203 Q74.3015 -2.5312 74.3015 -3.75 Q74.3015 -4.9688 73.5125 -5.6797 Q72.7234 -6.3906 71.3796 -6.3906 Q70.739 -6.3906 70.114 -6.25 Q69.489 -6.1094 68.8328 -5.8125 L68.8328 -11.6719 Z"></path></g><g transform="translate(403,330)" style="font-size:13.16px; text-rendering:geometricPrecision; color-rendering:optimizeQuality; image-rendering:optimizeQuality; font-family:serif; color-interpolation:linearRGB;"><path style="stroke:none;" d="M3.25 -8.7656 Q2.7656 -8.7656 2.4375 -8.4375 Q2.1094 -8.1094 2.1094 -7.625 Q2.1094 -7.1406 2.4375 -6.8125 Q2.7656 -6.4844 3.25 -6.4844 Q3.7344 -6.4844 4.0625 -6.8125 Q4.3906 -7.1406 4.3906 -7.625 Q4.3906 -8.0938 4.0547 -8.4297 Q3.7188 -8.7656 3.25 -8.7656 ZM3.25 -9.6562 Q3.6562 -9.6562 4.0312 -9.5 Q4.4062 -9.3438 4.6719 -9.0469 Q4.9688 -8.7656 5.1172 -8.3984 Q5.2656 -8.0312 5.2656 -7.625 Q5.2656 -6.7812 4.6797 -6.2031 Q4.0938 -5.625 3.2344 -5.625 Q2.375 -5.625 1.8047 -6.1953 Q1.2344 -6.7656 1.2344 -7.625 Q1.2344 -8.4688 1.8203 -9.0625 Q2.4062 -9.6562 3.25 -9.6562 Z"></path></g><g transform="translate(410,338)" style="font-size:16.45px; text-rendering:geometricPrecision; color-rendering:optimizeQuality; image-rendering:optimizeQuality; font-family:'SansSerif'; color-interpolation:linearRGB;"><path style="stroke:none;" d="M12.3188 -8.5 L12.3188 -7.1406 Q11.7094 -7.4531 11.0531 -7.6094 Q10.3969 -7.7656 9.6938 -7.7656 Q8.6156 -7.7656 8.0844 -7.4375 Q7.5531 -7.1094 7.5531 -6.4531 Q7.5531 -5.9531 7.9359 -5.6641 Q8.3188 -5.375 9.475 -5.125 L9.9594 -5.0156 Q11.4906 -4.6875 12.1391 -4.0859 Q12.7875 -3.4844 12.7875 -2.4219 Q12.7875 -1.2031 11.8188 -0.4844 Q10.85 0.2344 9.1625 0.2344 Q8.4594 0.2344 7.7016 0.0938 Q6.9438 -0.0469 6.1 -0.3281 L6.1 -1.8125 Q6.8969 -1.3906 7.6703 -1.1875 Q8.4438 -0.9844 9.1938 -0.9844 Q10.2094 -0.9844 10.7563 -1.3281 Q11.3031 -1.6719 11.3031 -2.3125 Q11.3031 -2.8906 10.9125 -3.2031 Q10.5219 -3.5156 9.1781 -3.8125 L8.6781 -3.9219 Q7.35 -4.2031 6.7563 -4.7891 Q6.1625 -5.375 6.1625 -6.3906 Q6.1625 -7.625 7.0375 -8.2969 Q7.9125 -8.9688 9.5219 -8.9688 Q10.3188 -8.9688 11.0219 -8.8516 Q11.725 -8.7344 12.3188 -8.5 ZM16.7264 -11.2344 L16.7264 -8.75 L19.6795 -8.75 L19.6795 -7.6406 L16.7264 -7.6406 L16.7264 -2.8906 Q16.7264 -1.8125 17.0154 -1.5078 Q17.3045 -1.2031 18.2108 -1.2031 L19.6795 -1.2031 L19.6795 0 L18.2108 0 Q16.5389 0 15.9061 -0.625 Q15.2733 -1.25 15.2733 -2.8906 L15.2733 -7.6406 L14.2264 -7.6406 L14.2264 -8.75 L15.2733 -8.75 L15.2733 -11.2344 L16.7264 -11.2344 ZM29.2339 -4.7344 L29.2339 -4.0312 L22.6245 -4.0312 Q22.7182 -2.5469 23.5151 -1.7734 Q24.312 -1 25.7495 -1 Q26.5776 -1 27.351 -1.2031 Q28.1245 -1.4062 28.8901 -1.8125 L28.8901 -0.4531 Q28.1245 -0.125 27.312 0.0547 Q26.4995 0.2344 25.6557 0.2344 Q23.562 0.2344 22.3432 -0.9922 Q21.1245 -2.2188 21.1245 -4.2969 Q21.1245 -6.4375 22.2807 -7.7031 Q23.437 -8.9688 25.4057 -8.9688 Q27.1714 -8.9688 28.2026 -7.8281 Q29.2339 -6.6875 29.2339 -4.7344 ZM27.7964 -5.1562 Q27.7807 -6.3438 27.1323 -7.0469 Q26.4839 -7.75 25.4214 -7.75 Q24.2182 -7.75 23.4995 -7.0703 Q22.7807 -6.3906 22.6714 -5.1562 L27.7964 -5.1562 ZM39.3468 -4.7344 L39.3468 -4.0312 L32.7374 -4.0312 Q32.8311 -2.5469 33.628 -1.7734 Q34.4249 -1 35.8624 -1 Q36.6905 -1 37.464 -1.2031 Q38.2374 -1.4062 39.003 -1.8125 L39.003 -0.4531 Q38.2374 -0.125 37.4249 0.0547 Q36.6124 0.2344 35.7686 0.2344 Q33.6749 0.2344 32.4561 -0.9922 Q31.2374 -2.2188 31.2374 -4.2969 Q31.2374 -6.4375 32.3936 -7.7031 Q33.5499 -8.9688 35.5186 -8.9688 Q37.2843 -8.9688 38.3155 -7.8281 Q39.3468 -6.6875 39.3468 -4.7344 ZM37.9093 -5.1562 Q37.8936 -6.3438 37.2452 -7.0469 Q36.5968 -7.75 35.5343 -7.75 Q34.3311 -7.75 33.6124 -7.0703 Q32.8936 -6.3906 32.7843 -5.1562 L37.9093 -5.1562 ZM47.0378 -7.4062 Q46.8034 -7.5469 46.5144 -7.6172 Q46.2253 -7.6875 45.8816 -7.6875 Q44.6628 -7.6875 44.0144 -6.8906 Q43.3659 -6.0938 43.3659 -4.6094 L43.3659 0 L41.9128 0 L41.9128 -8.75 L43.3659 -8.75 L43.3659 -7.3906 Q43.8191 -8.1875 44.5456 -8.5781 Q45.2722 -8.9688 46.3034 -8.9688 Q46.4597 -8.9688 46.6394 -8.9453 Q46.8191 -8.9219 47.0378 -8.8906 L47.0378 -7.4062 ZM48.7333 -8.75 L50.1708 -8.75 L50.1708 0 L48.7333 0 L48.7333 -8.75 ZM48.7333 -12.1562 L50.1708 -12.1562 L50.1708 -10.3438 L48.7333 -10.3438 L48.7333 -12.1562 ZM60.5658 -5.2812 L60.5658 0 L59.1283 0 L59.1283 -5.2344 Q59.1283 -6.4844 58.6439 -7.1016 Q58.1595 -7.7188 57.1908 -7.7188 Q56.0345 -7.7188 55.3627 -6.9766 Q54.6908 -6.2344 54.6908 -4.9531 L54.6908 0 L53.2377 0 L53.2377 -8.75 L54.6908 -8.75 L54.6908 -7.3906 Q55.2064 -8.1875 55.9017 -8.5781 Q56.597 -8.9688 57.5189 -8.9688 Q59.0189 -8.9688 59.7924 -8.0312 Q60.5658 -7.0938 60.5658 -5.2812 ZM69.4681 -4.4844 Q69.4681 -6.0469 68.8275 -6.9062 Q68.1868 -7.7656 67.015 -7.7656 Q65.8587 -7.7656 65.2181 -6.9062 Q64.5775 -6.0469 64.5775 -4.4844 Q64.5775 -2.9219 65.2181 -2.0625 Q65.8587 -1.2031 67.015 -1.2031 Q68.1868 -1.2031 68.8275 -2.0625 Q69.4681 -2.9219 69.4681 -4.4844 ZM70.9056 -1.0938 Q70.9056 1.1562 69.9134 2.2422 Q68.9212 3.3281 66.8743 3.3281 Q66.1243 3.3281 65.4525 3.2188 Q64.7806 3.1094 64.14 2.875 L64.14 1.4688 Q64.7806 1.8125 65.3978 1.9766 Q66.015 2.1406 66.6556 2.1406 Q68.0618 2.1406 68.765 1.4062 Q69.4681 0.6719 69.4681 -0.8281 L69.4681 -1.5469 Q69.0306 -0.7656 68.3353 -0.3828 Q67.64 0 66.6712 0 Q65.0618 0 64.0775 -1.2266 Q63.0931 -2.4531 63.0931 -4.4844 Q63.0931 -6.5156 64.0775 -7.7422 Q65.0618 -8.9688 66.6712 -8.9688 Q67.64 -8.9688 68.3353 -8.5859 Q69.0306 -8.2031 69.4681 -7.4219 L69.4681 -8.75 L70.9056 -8.75 L70.9056 -1.0938 Z"></path></g><g style="stroke-linecap:butt; fill:rgb(217,83,25); text-rendering:geometricPrecision; image-rendering:optimizeQuality; color-rendering:optimizeQuality; stroke-linejoin:bevel; stroke-dasharray:12,3,6,3; stroke:rgb(217,83,25); color-interpolation:linearRGB; stroke-width:3.2639; stroke-miterlimit:1;"><line y2="329.3535" style="fill:none;" x1="283.016" x2="322.3395" y1="329.3535"></line></g><g style="stroke-linecap:butt; fill:rgb(38,38,38); text-rendering:geometricPrecision; color-rendering:optimizeQuality; image-rendering:optimizeQuality; stroke:rgb(38,38,38); color-interpolation:linearRGB; stroke-width:0.6528;"><path d="M279 344 L279 294 L488 294 L488 344 Z" style="fill:none; fill-rule:evenodd;"></path></g></g></svg> 