<?xml version="1.0"?>

<!-- Created with Inkscape (http://www.inkscape.org/) --> <svg xmlns:dc="http://purl.org/dc/elements/1.1/" xmlns:cc="http://creativecommons.org/ns#" xmlns:rdf="http://www.w3.org/1999/02/22-rdf-syntax-ns#" xmlns:svg="http://www.w3.org/2000/svg" xmlns="http://www.w3.org/2000/svg" xmlns:sodipodi="http://sodipodi.sourceforge.net/DTD/sodipodi-0.dtd" xmlns:inkscape="http://www.inkscape.org/namespaces/inkscape" version="1.1" id="svg2" xml:space="preserve" width="206.66667" height="100" viewBox="0 0 206.66667 100" sodipodi:docname="Student_Member-White.svg" inkscape:version="0.92.4 5da689c313, 2019-01-14"><metadata id="metadata8"><rdf:rdf><cc:work rdf:about=""><dc:format>image/svg+xml</dc:format><dc:type rdf:resource="http://purl.org/dc/dcmitype/StillImage"></dc:type><dc:title></dc:title></cc:work></rdf:rdf></metadata><defs id="defs6"></defs><sodipodi:namedview pagecolor="#ffffff" bordercolor="#666666" borderopacity="1" objecttolerance="10" gridtolerance="10" guidetolerance="10" inkscape:pageopacity="0" inkscape:pageshadow="2" inkscape:window-width="1265" inkscape:window-height="1035" id="namedview4" showgrid="false" inkscape:zoom="1.6645161" inkscape:cx="-26.434109" inkscape:cy="50" inkscape:window-x="1285" inkscape:window-y="595" inkscape:window-maximized="0" inkscape:current-layer="g10"></sodipodi:namedview><g id="g10" inkscape:groupmode="layer" inkscape:label="ink_ext_XXXXXX" transform="matrix(1.3333333,0,0,-1.3333333,0,100)"><g id="g12" transform="scale(0.1)"><path d="M 1382.51,25.3125 H 168.074 c -79.7967,0 -144.4842,64.6914 -144.4842,144.4925 v 411.019 c 0,79.801 64.6875,144.489 144.4842,144.489 H 1382.51 c 79.8,0 144.5,-64.688 144.5,-144.489 V 169.805 c 0,-79.8011 -64.7,-144.4925 -144.5,-144.4925" style="fill:#ffffff;fill-opacity:1;fill-rule:nonzero;stroke:none" id="path14" inkscape:connector-curvature="0"></path><path d="M 1382.51,25.3125 H 168.074 c -79.7967,0 -144.4842,64.6914 -144.4842,144.4925 v 411.019 c 0,79.801 64.6875,144.489 144.4842,144.489 H 1382.51 c 79.8,0 144.5,-64.688 144.5,-144.489 V 169.805 c 0,-79.8011 -64.7,-144.4925 -144.5,-144.4925 z" style="fill:none;stroke:#231f20;stroke-width:10;stroke-linecap:butt;stroke-linejoin:miter;stroke-miterlimit:10;stroke-dasharray:none;stroke-opacity:1" id="path16" inkscape:connector-curvature="0"></path><path d="m 480.805,510.266 -0.02,5.961 H 133.469 l -0.242,-6.215 c -0.043,-1.145 -3.914,-115.793 28.761,-227.051 22.793,-77.606 83.27,-200.4219 148.672,-199.7462 53.141,0.5469 117.324,112.7652 141.375,190.1292 28.84,92.804 28.785,231.074 28.77,236.922 m -12.973,-6.961 C 467.488,475.066 464.563,357.184 439.711,277.191 413.77,193.805 351.715,96.5586 310.523,96.1328 255.953,95.5859 197.02,209.453 174.379,286.57 148.555,374.535 145.98,464.727 145.98,497.066 c 0,2.684 0.028,4.399 0.055,6.262 11.969,0.008 309.492,-0.051 321.797,-0.023" style="fill:#231f20;fill-opacity:1;fill-rule:nonzero;stroke:none" id="path18" inkscape:connector-curvature="0"></path><path d="m 248.473,238.586 v 156.789 c 0,0 4.609,36.328 58.429,36.328 54.243,0 57.508,-35.98 57.508,-35.98 l 0.16,-157.118 h -49.3 l 0.023,30.774 h -38.582 l -0.172,-30.723 z m 28.238,45.141 h 38.332 v 114.711 c 0,0 -1.605,17.074 -19.785,17.074 -17.781,0 -18.797,-16.571 -18.797,-16.571 l 0.25,-115.214" style="fill:#231f20;fill-opacity:1;fill-rule:nonzero;stroke:none" id="path20" inkscape:connector-curvature="0"></path><path d="m 184.352,464.883 -2.614,8.918 c -0.746,2.5 -1.504,5.609 -2.125,8.097 h -0.125 c -0.609,-2.488 -1.242,-5.668 -1.929,-8.097 l -2.493,-8.918 z m -10.661,-7.102 -2.988,-10.773 h -9.844 l 12.832,42 h 12.465 l 13.024,-42 h -10.203 l -3.25,10.773 h -12.036" style="fill:#231f20;fill-opacity:1;fill-rule:nonzero;stroke:none" id="path22" inkscape:connector-curvature="0"></path><path d="m 237.633,489.008 v -24.184 c 0,-7.226 2.742,-10.894 7.601,-10.894 4.985,0 7.727,3.48 7.727,10.894 v 24.184 h 9.473 v -23.559 c 0,-12.961 -6.536,-19.133 -17.512,-19.133 -10.598,0 -16.824,5.868 -16.824,19.254 v 23.438 h 9.535" style="fill:#231f20;fill-opacity:1;fill-rule:nonzero;stroke:none" id="path24" inkscape:connector-curvature="0"></path><path d="m 305.738,454.164 c 0.817,-0.18 2.114,-0.18 3.301,-0.18 8.606,-0.054 14.215,4.668 14.215,14.707 0.062,8.719 -5.047,13.336 -13.219,13.336 -2.113,0 -3.48,-0.191 -4.297,-0.382 z m -9.527,34.289 c 3.492,0.555 8.035,0.867 12.828,0.867 7.981,0 13.156,-1.433 17.207,-4.496 4.363,-3.23 7.098,-8.414 7.098,-15.824 0,-8.039 -2.922,-13.578 -6.973,-17.02 -4.418,-3.664 -11.156,-5.414 -19.391,-5.414 -4.914,0 -8.41,0.313 -10.769,0.625 v 41.262" style="fill:#231f20;fill-opacity:1;fill-rule:nonzero;stroke:none" id="path26" inkscape:connector-curvature="0"></path><path d="m 374.664,489.008 v -42 h -9.543 v 42 h 9.543" style="fill:#231f20;fill-opacity:1;fill-rule:nonzero;stroke:none" id="path28" inkscape:connector-curvature="0"></path><path d="m 416.543,467.875 c 0,-8.227 3.867,-14.02 10.219,-14.02 6.406,0 10.093,6.11 10.093,14.27 0,7.543 -3.617,14.027 -10.167,14.027 -6.415,0 -10.145,-6.101 -10.145,-14.277 z m 30.352,0.566 c 0,-13.769 -8.356,-22.125 -20.629,-22.125 -12.473,0 -19.762,9.411 -19.762,21.379 0,12.582 8.039,21.993 20.437,21.993 12.899,0 19.954,-9.649 19.954,-21.247" style="fill:#231f20;fill-opacity:1;fill-rule:nonzero;stroke:none" id="path30" inkscape:connector-curvature="0"></path><path d="m 331.207,146.645 c -6.449,0 -13.18,1.902 -16.535,3.898 l 2.453,9.27 c 3.629,-2.094 9.086,-3.911 14.809,-3.911 7.175,0 11.168,3.371 11.168,8.368 0,4.632 -3.082,7.351 -10.899,10.171 -10.086,3.629 -16.539,8.993 -16.539,17.805 0,9.996 8.363,17.625 21.633,17.625 6.629,0 11.535,-1.457 14.715,-3.09 l -2.727,-8.984 c -2.18,1.18 -6.453,2.906 -12.176,2.906 -7.089,0 -10.171,-3.816 -10.171,-7.375 0,-4.707 3.535,-6.887 11.718,-10.082 10.629,-3.988 15.809,-9.344 15.809,-18.168 0,-9.808 -7.453,-18.433 -23.258,-18.433 z m -29.09,0.992 h -36.961 v 61.226 h 35.61 v -9.168 h -24.442 v -15.804 h 23.074 v -9.086 H 276.324 V 156.82 h 25.793 z m -93.621,75.879 c 0,0 46.543,-117.243 98.762,-117.243 52.219,0 101.109,117.243 101.109,117.243 H 208.496" style="fill:#231f20;fill-opacity:1;fill-rule:nonzero;stroke:none" id="path32" inkscape:connector-curvature="0"></path><path d="m 551.902,375.203 c 8.645,-4.965 21.606,-9.285 35.215,-9.285 17.071,0 26.574,7.992 26.574,19.879 0,11.019 -7.343,17.5 -25.925,24.199 -23.977,8.641 -39.321,21.391 -39.321,42.348 0,23.765 19.875,41.914 51.418,41.914 15.782,0 27.442,-3.457 35.008,-7.344 l -6.48,-21.391 c -5.188,2.805 -15.344,6.915 -28.957,6.915 -16.856,0 -24.2,-9.079 -24.2,-17.5 0,-11.239 8.426,-16.422 27.871,-23.985 25.286,-9.508 37.598,-22.258 37.598,-43.215 0,-23.336 -17.715,-43.644 -55.312,-43.644 -15.34,0 -31.328,4.324 -39.328,9.074 l 5.839,22.035" style="fill:#231f20;fill-opacity:1;fill-rule:nonzero;stroke:none" id="path34" inkscape:connector-curvature="0"></path><path d="M 693.176,481.516 V 451.48 h 25.281 v -19.878 h -25.281 v -46.457 c 0,-12.747 3.457,-19.442 13.609,-19.442 4.543,0 8,0.645 10.371,1.293 l 0.434,-20.308 c -3.891,-1.512 -10.805,-2.594 -19.231,-2.594 -9.726,0 -17.929,3.242 -22.898,8.64 -5.617,6.055 -8.215,15.559 -8.215,29.383 v 49.485 h -15.129 v 19.878 h 15.129 v 23.762 l 25.93,6.274" style="fill:#231f20;fill-opacity:1;fill-rule:nonzero;stroke:none" id="path36" inkscape:connector-curvature="0"></path><path d="m 832.727,377.805 c 0,-12.535 0.437,-22.907 0.867,-31.551 h -23.34 l -1.289,15.992 h -0.442 c -4.531,-7.562 -14.902,-18.367 -33.699,-18.367 -19.226,0 -36.726,11.453 -36.726,45.805 v 61.796 h 26.57 v -57.261 c 0,-17.5 5.613,-28.735 19.656,-28.735 10.598,0 17.512,7.563 20.317,14.262 0.867,2.371 1.511,5.188 1.511,8.207 v 63.527 h 26.575 v -73.675" style="fill:#231f20;fill-opacity:1;fill-rule:nonzero;stroke:none" id="path38" inkscape:connector-curvature="0"></path><path d="m 931.863,407.617 c 0,2.156 -0.215,4.754 -0.652,6.914 -2.371,10.371 -10.801,18.797 -22.902,18.797 -17.071,0 -26.571,-15.125 -26.571,-34.781 0,-19.234 9.5,-33.277 26.36,-33.277 10.797,0 20.308,7.347 22.898,18.796 0.652,2.379 0.867,4.965 0.867,7.782 z m 26.575,92.039 V 375.855 c 0,-10.8 0.429,-22.472 0.871,-29.601 h -23.774 l -1.082,16.637 h -0.43 c -6.269,-11.664 -19.011,-19.012 -34.355,-19.012 -25.059,0 -44.941,21.391 -44.941,53.797 -0.215,35.219 21.828,56.179 47.097,56.179 14.485,0 24.856,-6.05 29.602,-13.828 h 0.437 v 59.629 h 26.575" style="fill:#231f20;fill-opacity:1;fill-rule:nonzero;stroke:none" id="path40" inkscape:connector-curvature="0"></path><path d="m 1051.95,409.996 c 0.22,9.723 -4.1,25.707 -21.82,25.707 -16.42,0 -23.33,-14.906 -24.42,-25.707 z m -46.24,-18.586 c 0.66,-19.012 15.56,-27.222 32.41,-27.222 12.32,0 21.18,1.73 29.17,4.753 l 3.89,-18.367 c -9.07,-3.672 -21.6,-6.48 -36.73,-6.48 -34.14,0 -54.223,20.961 -54.223,53.152 0,29.172 17.711,56.609 51.413,56.609 34.14,0 45.38,-28.089 45.38,-51.21 0,-4.969 -0.44,-8.856 -0.87,-11.235 h -70.44" style="fill:#231f20;fill-opacity:1;fill-rule:nonzero;stroke:none" id="path42" inkscape:connector-curvature="0"></path><path d="m 1098.37,420.145 c 0,12.101 -0.22,22.257 -0.86,31.335 h 23.33 l 1.3,-15.777 h 0.65 c 4.53,8.211 15.99,18.152 33.49,18.152 18.37,0 37.38,-11.882 37.38,-45.16 v -62.441 h -26.58 v 59.422 c 0,15.121 -5.62,26.57 -20.09,26.57 -10.59,0 -17.94,-7.558 -20.74,-15.558 -0.87,-2.372 -1.08,-5.614 -1.08,-8.641 v -61.793 h -26.8 v 73.891" style="fill:#231f20;fill-opacity:1;fill-rule:nonzero;stroke:none" id="path44" inkscape:connector-curvature="0"></path><path d="M 1251.31,481.516 V 451.48 h 25.28 v -19.878 h -25.28 v -46.457 c 0,-12.747 3.46,-19.442 13.61,-19.442 4.54,0 8,0.645 10.37,1.293 l 0.43,-20.308 c -3.88,-1.512 -10.8,-2.594 -19.23,-2.594 -9.72,0 -17.93,3.242 -22.9,8.64 -5.61,6.055 -8.21,15.559 -8.21,29.383 v 49.485 h -15.13 v 19.878 h 15.13 v 23.762 l 25.93,6.274" style="fill:#231f20;fill-opacity:1;fill-rule:nonzero;stroke:none" id="path46" inkscape:connector-curvature="0"></path><path d="m 675.488,189.672 c -0.859,18.797 -1.941,41.484 -1.726,61.148 h -0.649 c -4.754,-17.718 -10.8,-37.382 -17.285,-55.746 L 634.656,131.98 h -20.523 l -19.453,62.231 c -5.617,18.582 -10.801,38.457 -14.692,56.609 h -0.425 c -0.657,-19.011 -1.516,-42.132 -2.598,-62.011 l -3.242,-58.555 h -24.844 l 9.726,145.625 h 35 l 19.012,-58.551 c 5.188,-17.07 9.719,-34.355 13.399,-50.558 h 0.644 c 3.887,15.769 8.86,33.703 14.473,50.773 l 20.097,58.336 h 34.571 l 8.429,-145.625 h -25.929 l -2.813,59.418" style="fill:#231f20;fill-opacity:1;fill-rule:nonzero;stroke:none" id="path48" inkscape:connector-curvature="0"></path><path d="m 796.223,193.992 c 0.211,9.723 -4.114,25.715 -21.828,25.715 -16.426,0 -23.34,-14.91 -24.415,-25.715 z M 749.98,175.41 c 0.645,-19.015 15.555,-27.222 32.415,-27.222 12.312,0 21.168,1.73 29.16,4.75 l 3.894,-18.364 c -9.082,-3.672 -21.609,-6.476 -36.738,-6.476 -34.133,0 -54.231,20.957 -54.231,53.148 0,29.168 17.715,56.606 51.426,56.606 34.145,0 45.371,-28.086 45.371,-51.207 0,-4.965 -0.425,-8.856 -0.855,-11.235 H 749.98" style="fill:#231f20;fill-opacity:1;fill-rule:nonzero;stroke:none" id="path50" inkscape:connector-curvature="0"></path><path d="m 842.637,204.148 c 0,12.102 -0.215,22.254 -0.867,31.332 h 22.91 l 1.074,-15.558 h 0.652 c 5.188,8.207 14.688,17.93 32.403,17.93 13.828,0 24.636,-7.774 29.168,-19.446 h 0.441 c 3.672,5.836 7.988,10.157 12.961,13.18 5.828,4.105 12.527,6.266 21.172,6.266 17.5,0 35.222,-11.879 35.222,-45.586 v -62.012 h -25.925 v 58.121 c 0,17.504 -6.055,27.875 -18.801,27.875 -9.07,0 -15.774,-6.484 -18.582,-14.047 -0.649,-2.594 -1.301,-5.836 -1.301,-8.859 v -63.09 h -25.93 v 60.93 c 0,14.695 -5.828,25.066 -18.14,25.066 -9.946,0 -16.645,-7.781 -19.016,-15.129 -1.086,-2.59 -1.515,-5.613 -1.515,-8.641 v -62.226 h -25.926 v 73.894" style="fill:#231f20;fill-opacity:1;fill-rule:nonzero;stroke:none" id="path52" inkscape:connector-curvature="0"></path><path d="m 1052.37,173.684 c 0,-2.161 0.22,-4.325 0.66,-6.266 2.8,-10.586 12.1,-18.578 23.54,-18.578 16.64,0 26.8,13.39 26.8,34.566 0,18.582 -8.86,33.703 -26.58,33.703 -10.8,0 -20.52,-7.773 -23.55,-19.441 -0.43,-1.945 -0.87,-4.324 -0.87,-6.914 z m -27.44,-43.43 c 0.44,7.129 0.87,18.801 0.87,29.601 V 283.66 h 26.57 V 221 h 0.44 c 6.48,10.156 17.93,16.852 33.7,16.852 25.72,0 44.09,-21.387 43.86,-53.364 0,-37.812 -23.97,-56.613 -47.74,-56.613 -13.62,0 -25.72,5.188 -33.27,18.148 h -0.44 l -1.29,-15.769 h -22.7" style="fill:#231f20;fill-opacity:1;fill-rule:nonzero;stroke:none" id="path54" inkscape:connector-curvature="0"></path><path d="m 1217.2,193.992 c 0.21,9.723 -4.11,25.715 -21.83,25.715 -16.42,0 -23.34,-14.91 -24.41,-25.715 z m -46.24,-18.582 c 0.64,-19.015 15.55,-27.222 32.41,-27.222 12.31,0 21.17,1.73 29.16,4.75 l 3.9,-18.364 c -9.09,-3.672 -21.62,-6.476 -36.74,-6.476 -34.13,0 -54.23,20.957 -54.23,53.148 0,29.168 17.71,56.606 51.42,56.606 34.15,0 45.38,-28.086 45.38,-51.207 0,-4.965 -0.43,-8.856 -0.86,-11.235 h -70.44" style="fill:#231f20;fill-opacity:1;fill-rule:nonzero;stroke:none" id="path56" inkscape:connector-curvature="0"></path><path d="m 1263.61,201.555 c 0,14.261 -0.21,24.418 -0.87,33.925 h 23.13 l 0.86,-20.097 h 0.87 c 5.18,14.91 17.5,22.469 28.73,22.469 2.6,0 4.11,-0.215 6.27,-0.645 v -25.062 c -2.16,0.429 -4.54,0.863 -7.78,0.863 -12.75,0 -21.39,-8.211 -23.77,-20.098 -0.43,-2.375 -0.86,-5.183 -0.86,-8.207 v -54.449 h -26.58 v 71.301" style="fill:#231f20;fill-opacity:1;fill-rule:nonzero;stroke:none" id="path58" inkscape:connector-curvature="0"></path><path d="m 141.699,609.332 -6.347,19.906 c -1.563,4.918 -2.879,10.434 -4.082,15.114 h -0.247 c -1.187,-4.68 -2.39,-10.313 -3.835,-15.114 l -6.231,-19.906 z M 118.555,598.176 111.602,575.27 H 96.3672 l 25.9058,80.835 h 18.832 l 26.266,-80.835 h -15.828 l -7.324,22.906 h -25.664" style="fill:#231f20;fill-opacity:1;fill-rule:nonzero;stroke:none" id="path60" inkscape:connector-curvature="0"></path><path d="m 228.691,592.777 c 0,-6.953 0.247,-12.714 0.489,-17.507 h -12.957 l -0.727,8.875 h -0.23 c -2.524,-4.2 -8.274,-10.196 -18.711,-10.196 -10.676,0 -20.395,6.36 -20.395,25.426 v 34.301 h 14.758 v -31.781 c 0,-9.715 3.113,-15.954 10.906,-15.954 5.879,0 9.719,4.2 11.281,7.914 0.481,1.321 0.84,2.883 0.84,4.563 v 35.258 h 14.746 v -40.899" style="fill:#231f20;fill-opacity:1;fill-rule:nonzero;stroke:none" id="path62" inkscape:connector-curvature="0"></path><path d="m 283.777,609.332 c 0,1.195 -0.117,2.637 -0.359,3.836 -1.316,5.758 -5.996,10.437 -12.715,10.437 -9.473,0 -14.746,-8.402 -14.746,-19.312 0,-10.676 5.273,-18.469 14.629,-18.469 5.996,0 11.269,4.078 12.715,10.43 0.359,1.324 0.476,2.762 0.476,4.32 z m 14.758,51.09 v -68.723 c 0,-5.996 0.235,-12.469 0.481,-16.429 H 285.82 l -0.605,9.234 h -0.235 c -3.476,-6.477 -10.554,-10.555 -19.074,-10.555 -13.914,0 -24.937,11.875 -24.937,29.864 -0.129,19.55 12.105,31.183 26.14,31.183 8.036,0 13.789,-3.359 16.426,-7.676 h 0.242 v 33.102 h 14.758" style="fill:#231f20;fill-opacity:1;fill-rule:nonzero;stroke:none" id="path64" inkscape:connector-curvature="0"></path><path d="m 314.402,575.27 v 58.406 h 14.875 V 575.27 Z m 15.715,74.714 c 0,-4.433 -3.242,-7.914 -8.398,-7.914 -4.922,0 -8.156,3.481 -8.156,7.914 0,4.563 3.363,8.039 8.273,8.039 5.039,0 8.152,-3.476 8.281,-8.039" style="fill:#231f20;fill-opacity:1;fill-rule:nonzero;stroke:none" id="path66" inkscape:connector-curvature="0"></path><path d="m 356.633,604.414 c 0,-11.273 5.515,-19.789 14.512,-19.789 8.398,0 14.277,8.273 14.277,20.027 0,9.118 -4.082,19.551 -14.152,19.551 -10.442,0 -14.637,-10.078 -14.637,-19.789 z m 44.019,0.602 c 0,-21.469 -15.117,-31.067 -29.988,-31.067 -16.555,0 -29.258,11.395 -29.258,30.106 0,19.187 12.586,30.941 30.215,30.941 17.395,0 29.031,-12.23 29.031,-29.98" style="fill:#231f20;fill-opacity:1;fill-rule:nonzero;stroke:none" id="path68" inkscape:connector-curvature="0"></path><path d="m 483.457,611.129 h -30.469 v -23.746 h 34.063 V 575.27 h -48.809 v 80.835 h 47.012 v -12.117 h -32.266 v -20.867 h 30.469 v -11.992" style="fill:#231f20;fill-opacity:1;fill-rule:nonzero;stroke:none" id="path70" inkscape:connector-curvature="0"></path><path d="m 499.441,616.285 c 0,6.719 -0.117,12.352 -0.476,17.391 h 12.949 l 0.723,-8.754 h 0.359 c 2.512,4.555 8.867,10.074 18.586,10.074 10.195,0 20.754,-6.598 20.754,-25.062 V 575.27 h -14.758 v 32.984 c 0,8.391 -3.113,14.75 -11.152,14.75 -5.879,0 -9.949,-4.199 -11.516,-8.641 -0.476,-1.316 -0.594,-3.113 -0.594,-4.793 v -34.3 h -14.875 v 41.015" style="fill:#231f20;fill-opacity:1;fill-rule:nonzero;stroke:none" id="path72" inkscape:connector-curvature="0"></path><path d="m 606.223,610.289 c 0,1.316 -0.129,2.758 -0.481,3.957 -1.562,5.399 -5.762,9.477 -12.004,9.477 -8.269,0 -14.383,-7.196 -14.383,-19.071 0,-9.957 5.04,-17.992 14.266,-17.992 5.52,0 10.317,3.598 11.992,8.875 0.364,1.559 0.61,3.602 0.61,5.281 z m 15.222,23.387 c -0.234,-3.957 -0.476,-8.754 -0.476,-16.789 v -33.102 c 0,-12.23 -2.524,-20.988 -8.633,-26.504 -6.113,-5.402 -14.516,-7.082 -22.551,-7.082 -7.43,0 -15.351,1.563 -20.39,4.68 l 3.242,11.156 c 3.718,-2.156 9.953,-4.437 17.031,-4.437 9.59,0 16.785,5.039 16.785,17.632 v 5.032 h -0.23 c -3.364,-5.157 -9.36,-8.633 -17.035,-8.633 -14.508,0 -24.825,11.992 -24.825,28.547 0,19.187 12.473,30.82 26.504,30.82 8.879,0 14.153,-4.316 16.906,-9.117 h 0.247 l 0.593,7.797 h 12.832" style="fill:#231f20;fill-opacity:1;fill-rule:nonzero;stroke:none" id="path74" inkscape:connector-curvature="0"></path><path d="m 636.355,575.27 v 58.406 H 651.23 V 575.27 Z m 15.715,74.714 c 0,-4.433 -3.23,-7.914 -8.398,-7.914 -4.91,0 -8.152,3.481 -8.152,7.914 0,4.563 3.359,8.039 8.281,8.039 5.039,0 8.152,-3.476 8.269,-8.039" style="fill:#231f20;fill-opacity:1;fill-rule:nonzero;stroke:none" id="path76" inkscape:connector-curvature="0"></path><path d="m 667.078,616.285 c 0,6.719 -0.113,12.352 -0.476,17.391 h 12.949 l 0.722,-8.754 h 0.364 c 2.508,4.555 8.867,10.074 18.582,10.074 10.195,0 20.754,-6.598 20.754,-25.062 V 575.27 h -14.758 v 32.984 c 0,8.391 -3.113,14.75 -11.152,14.75 -5.879,0 -9.954,-4.199 -11.512,-8.641 -0.481,-1.316 -0.598,-3.113 -0.598,-4.793 v -34.3 h -14.875 v 41.015" style="fill:#231f20;fill-opacity:1;fill-rule:nonzero;stroke:none" id="path78" inkscape:connector-curvature="0"></path><path d="m 771.816,610.648 c 0.118,5.399 -2.273,14.274 -12.109,14.274 -9.121,0 -12.961,-8.277 -13.555,-14.274 z m -25.664,-10.312 c 0.364,-10.555 8.633,-15.109 17.989,-15.109 6.836,0 11.757,0.957 16.191,2.632 l 2.156,-10.191 c -5.039,-2.039 -11.992,-3.602 -20.386,-3.602 -18.95,0 -30.098,11.637 -30.098,29.508 0,16.192 9.832,31.422 28.543,31.422 18.945,0 25.183,-15.594 25.183,-28.426 0,-2.757 -0.242,-4.914 -0.488,-6.234 h -39.09" style="fill:#231f20;fill-opacity:1;fill-rule:nonzero;stroke:none" id="path80" inkscape:connector-curvature="0"></path><path d="m 833.73,610.648 c 0.125,5.399 -2.277,14.274 -12.109,14.274 -9.109,0 -12.949,-8.277 -13.555,-14.274 z m -25.664,-10.312 c 0.364,-10.555 8.645,-15.109 17.989,-15.109 6.836,0 11.758,0.957 16.191,2.632 l 2.156,-10.191 c -5.027,-2.039 -11.992,-3.602 -20.379,-3.602 -18.957,0 -30.105,11.637 -30.105,29.508 0,16.192 9.832,31.422 28.543,31.422 18.945,0 25.184,-15.594 25.184,-28.426 0,-2.757 -0.235,-4.914 -0.477,-6.234 h -39.102" style="fill:#231f20;fill-opacity:1;fill-rule:nonzero;stroke:none" id="path82" inkscape:connector-curvature="0"></path><path d="m 859.551,614.848 c 0,7.918 -0.117,13.55 -0.481,18.828 h 12.832 l 0.481,-11.153 h 0.488 c 2.871,8.274 9.707,12.473 15.945,12.473 1.438,0 2.278,-0.117 3.481,-0.363 v -13.91 c -1.203,0.238 -2.524,0.476 -4.32,0.476 -7.079,0 -11.875,-4.554 -13.192,-11.148 -0.242,-1.321 -0.476,-2.879 -0.476,-4.559 V 575.27 h -14.758 v 39.578" style="fill:#231f20;fill-opacity:1;fill-rule:nonzero;stroke:none" id="path84" inkscape:connector-curvature="0"></path><path d="m 902.273,575.27 v 58.406 h 14.875 V 575.27 Z m 15.715,74.714 c 0,-4.433 -3.242,-7.914 -8.398,-7.914 -4.922,0 -8.156,3.481 -8.156,7.914 0,4.563 3.363,8.039 8.273,8.039 5.039,0 8.152,-3.476 8.281,-8.039" style="fill:#231f20;fill-opacity:1;fill-rule:nonzero;stroke:none" id="path86" inkscape:connector-curvature="0"></path><path d="m 932.988,616.285 c 0,6.719 -0.117,12.352 -0.476,17.391 h 12.957 l 0.715,-8.754 h 0.359 c 2.52,4.555 8.879,10.074 18.594,10.074 10.195,0 20.742,-6.598 20.742,-25.062 V 575.27 h -14.746 v 32.984 c 0,8.391 -3.125,14.75 -11.153,14.75 -5.878,0 -9.96,-4.199 -11.511,-8.641 -0.492,-1.316 -0.61,-3.113 -0.61,-4.793 v -34.3 h -14.871 v 41.015" style="fill:#231f20;fill-opacity:1;fill-rule:nonzero;stroke:none" id="path88" inkscape:connector-curvature="0"></path><path d="m 1039.77,610.289 c 0,1.316 -0.12,2.758 -0.48,3.957 -1.57,5.399 -5.75,9.477 -12,9.477 -8.27,0 -14.39,-7.196 -14.39,-19.071 0,-9.957 5.04,-17.992 14.28,-17.992 5.52,0 10.31,3.598 11.99,8.875 0.36,1.559 0.6,3.602 0.6,5.281 z m 15.23,23.387 c -0.24,-3.957 -0.48,-8.754 -0.48,-16.789 v -33.102 c 0,-12.23 -2.52,-20.988 -8.63,-26.504 -6.12,-5.402 -14.51,-7.082 -22.55,-7.082 -7.44,0 -15.35,1.563 -20.39,4.68 l 3.23,11.156 c 3.72,-2.156 9.96,-4.437 17.03,-4.437 9.6,0 16.8,5.039 16.8,17.632 v 5.032 h -0.24 c -3.36,-5.157 -9.36,-8.633 -17.04,-8.633 -14.51,0 -24.82,11.992 -24.82,28.547 0,19.187 12.47,30.82 26.5,30.82 8.88,0 14.15,-4.316 16.92,-9.117 h 0.23 l 0.61,7.797 H 1055" style="fill:#231f20;fill-opacity:1;fill-rule:nonzero;stroke:none" id="path90" inkscape:connector-curvature="0"></path><path d="m 1095.47,591.34 c 4.79,-2.762 11.99,-5.156 19.55,-5.156 9.47,0 14.75,4.437 14.75,11.035 0,6.117 -4.08,9.711 -14.39,13.429 -13.32,4.797 -21.84,11.875 -21.84,23.508 0,13.192 11.04,23.266 28.55,23.266 8.76,0 15.23,-1.918 19.43,-4.078 l -3.6,-11.875 c -2.87,1.562 -8.52,3.84 -16.06,3.84 -9.36,0 -13.44,-5.036 -13.44,-9.711 0,-6.239 4.68,-9.118 15.48,-13.317 14.02,-5.273 20.86,-12.347 20.86,-23.984 0,-12.953 -9.84,-24.231 -30.71,-24.231 -8.51,0 -17.38,2.403 -21.82,5.039 l 3.24,12.235" style="fill:#231f20;fill-opacity:1;fill-rule:nonzero;stroke:none" id="path92" inkscape:connector-curvature="0"></path><path d="m 1169.74,604.414 c 0,-11.273 5.51,-19.789 14.51,-19.789 8.4,0 14.28,8.273 14.28,20.027 0,9.118 -4.09,19.551 -14.16,19.551 -10.43,0 -14.63,-10.078 -14.63,-19.789 z m 44.02,0.602 c 0,-21.469 -15.12,-31.067 -29.99,-31.067 -16.55,0 -29.26,11.395 -29.26,30.106 0,19.187 12.59,30.941 30.22,30.941 17.39,0 29.03,-12.23 29.03,-29.98" style="fill:#231f20;fill-opacity:1;fill-rule:nonzero;stroke:none" id="path94" inkscape:connector-curvature="0"></path><path d="m 1268.84,577.066 c -3.12,-1.437 -9.23,-3 -16.55,-3 -18.23,0 -30.1,11.637 -30.1,29.747 0,17.511 11.99,31.183 32.5,31.183 5.4,0 10.92,-1.203 14.27,-2.762 l -2.63,-11.035 c -2.4,1.082 -5.88,2.281 -11.16,2.281 -11.27,0 -17.99,-8.277 -17.87,-18.949 0,-11.992 7.8,-18.828 17.87,-18.828 5.16,0 8.76,1.078 11.64,2.281 l 2.03,-10.918" style="fill:#231f20;fill-opacity:1;fill-rule:nonzero;stroke:none" id="path96" inkscape:connector-curvature="0"></path><path d="m 1279.79,575.27 v 58.406 h 14.87 V 575.27 Z m 15.71,74.714 c 0,-4.433 -3.24,-7.914 -8.4,-7.914 -4.92,0 -8.15,3.481 -8.15,7.914 0,4.563 3.35,8.039 8.27,8.039 5.04,0 8.15,-3.476 8.28,-8.039" style="fill:#231f20;fill-opacity:1;fill-rule:nonzero;stroke:none" id="path98" inkscape:connector-curvature="0"></path><path d="m 1346.6,610.648 c 0.12,5.399 -2.27,14.274 -12.11,14.274 -9.12,0 -12.96,-8.277 -13.55,-14.274 z m -25.66,-10.312 c 0.36,-10.555 8.63,-15.109 17.99,-15.109 6.83,0 11.75,0.957 16.19,2.632 l 2.16,-10.191 c -5.04,-2.039 -12,-3.602 -20.4,-3.602 -18.94,0 -30.09,11.637 -30.09,29.508 0,16.192 9.83,31.422 28.54,31.422 18.95,0 25.19,-15.594 25.19,-28.426 0,-2.757 -0.25,-4.914 -0.49,-6.234 h -39.09" style="fill:#231f20;fill-opacity:1;fill-rule:nonzero;stroke:none" id="path100" inkscape:connector-curvature="0"></path><path d="m 1389.33,650.348 v -16.672 h 14.03 v -11.035 h -14.03 v -25.786 c 0,-7.074 1.92,-10.792 7.55,-10.792 2.52,0 4.45,0.359 5.77,0.718 l 0.23,-11.273 c -2.16,-0.84 -6,-1.442 -10.67,-1.442 -5.39,0 -9.95,1.801 -12.72,4.801 -3.11,3.36 -4.55,8.633 -4.55,16.309 v 27.465 h -8.4 v 11.035 h 8.4 v 13.195 l 14.39,3.477" style="fill:#231f20;fill-opacity:1;fill-rule:nonzero;stroke:none" id="path102" inkscape:connector-curvature="0"></path><path d="m 1424.61,633.676 10.56,-31.305 c 1.2,-3.598 2.4,-8.035 3.24,-11.391 h 0.36 c 0.96,3.356 2.03,7.676 3.11,11.516 l 9.12,31.18 h 15.83 l -14.63,-39.821 c -8.04,-21.824 -13.43,-31.542 -20.39,-37.539 -5.76,-5.156 -11.75,-7.074 -15.47,-7.55 l -3.36,12.468 c 2.52,0.602 5.63,1.918 8.63,4.079 2.77,1.8 6,5.277 8.04,9.238 0.6,1.078 0.97,1.918 0.97,2.637 0,0.601 -0.13,1.441 -0.84,2.875 l -21.36,53.613 h 16.19" style="fill:#231f20;fill-opacity:1;fill-rule:nonzero;stroke:none" id="path104" inkscape:connector-curvature="0"></path></g></g></svg>