<?xml version="1.0"?>
 <svg xmlns:xlink="http://www.w3.org/1999/xlink" style="fill-opacity:1; color-rendering:auto; color-interpolation:auto; text-rendering:auto; stroke:black; stroke-linecap:square; stroke-miterlimit:10; shape-rendering:auto; stroke-opacity:1; fill:black; stroke-dasharray:none; font-weight:normal; stroke-width:1; font-family:'Dialog'; font-style:normal; stroke-linejoin:miter; font-size:12px; stroke-dashoffset:0; image-rendering:auto;" width="550" height="408" xmlns="http://www.w3.org/2000/svg" viewBox="0 0 550 408"><defs id="genericDefs"></defs><g><defs id="defs1"><clipPath clipPathUnits="userSpaceOnUse" id="clipPath1"><path d="M0 0 L550 0 L550 408 L0 408 L0 0 Z"></path></clipPath></defs><g style="fill:white; stroke:white;"><rect x="0" y="0" width="550" style="clip-path:url(#clipPath1); stroke:none;" height="408"></rect></g><g style="fill:white; text-rendering:optimizeSpeed; color-rendering:optimizeSpeed; image-rendering:optimizeSpeed; shape-rendering:crispEdges; stroke:white; color-interpolation:sRGB;"><rect x="0" width="550" height="408" y="0" style="stroke:none;"></rect><path style="stroke:none;" d="M72 355 L498 355 L498 31 L72 31 Z"></path></g><g style="stroke-linecap:butt; fill-opacity:0.149; fill:rgb(38,38,38); text-rendering:geometricPrecision; image-rendering:optimizeQuality; color-rendering:optimizeQuality; stroke-linejoin:round; stroke:rgb(38,38,38); color-interpolation:linearRGB; stroke-width:0.6528; stroke-opacity:0.149;"><line y2="31" style="fill:none;" x1="72" x2="72" y1="355"></line><line y2="31" style="fill:none;" x1="143" x2="143" y1="355"></line><line y2="31" style="fill:none;" x1="214" x2="214" y1="355"></line><line y2="31" style="fill:none;" x1="285" x2="285" y1="355"></line><line y2="31" style="fill:none;" x1="356" x2="356" y1="355"></line><line y2="31" style="fill:none;" x1="427" x2="427" y1="355"></line><line y2="31" style="fill:none;" x1="498" x2="498" y1="355"></line><line y2="355" style="fill:none;" x1="498" x2="72" y1="355"></line><line y2="308.7143" style="fill:none;" x1="498" x2="72" y1="308.7143"></line><line y2="262.4286" style="fill:none;" x1="498" x2="72" y1="262.4286"></line><line y2="216.1429" style="fill:none;" x1="498" x2="72" y1="216.1429"></line><line y2="169.8571" style="fill:none;" x1="498" x2="72" y1="169.8571"></line><line y2="123.5714" style="fill:none;" x1="498" x2="72" y1="123.5714"></line><line y2="77.2857" style="fill:none;" x1="498" x2="72" y1="77.2857"></line><line y2="31" style="fill:none;" x1="498" x2="72" y1="31"></line><line x1="72" x2="498" y1="355" style="stroke-linecap:square; fill-opacity:1; fill:none; stroke-opacity:1;" y2="355"></line><line x1="72" x2="498" y1="31" style="stroke-linecap:square; fill-opacity:1; fill:none; stroke-opacity:1;" y2="31"></line><line x1="72" x2="72" y1="355" style="stroke-linecap:square; fill-opacity:1; fill:none; stroke-opacity:1;" y2="350.74"></line><line x1="143" x2="143" y1="355" style="stroke-linecap:square; fill-opacity:1; fill:none; stroke-opacity:1;" y2="350.74"></line><line x1="214" x2="214" y1="355" style="stroke-linecap:square; fill-opacity:1; fill:none; stroke-opacity:1;" y2="350.74"></line><line x1="285" x2="285" y1="355" style="stroke-linecap:square; fill-opacity:1; fill:none; stroke-opacity:1;" y2="350.74"></line><line x1="356" x2="356" y1="355" style="stroke-linecap:square; fill-opacity:1; fill:none; stroke-opacity:1;" y2="350.74"></line><line x1="427" x2="427" y1="355" style="stroke-linecap:square; fill-opacity:1; fill:none; stroke-opacity:1;" y2="350.74"></line><line x1="498" x2="498" y1="355" style="stroke-linecap:square; fill-opacity:1; fill:none; stroke-opacity:1;" y2="350.74"></line><line x1="72" x2="72" y1="31" style="stroke-linecap:square; fill-opacity:1; fill:none; stroke-opacity:1;" y2="35.26"></line><line x1="143" x2="143" y1="31" style="stroke-linecap:square; fill-opacity:1; fill:none; stroke-opacity:1;" y2="35.26"></line><line x1="214" x2="214" y1="31" style="stroke-linecap:square; fill-opacity:1; fill:none; stroke-opacity:1;" y2="35.26"></line><line x1="285" x2="285" y1="31" style="stroke-linecap:square; fill-opacity:1; fill:none; stroke-opacity:1;" y2="35.26"></line><line x1="356" x2="356" y1="31" style="stroke-linecap:square; fill-opacity:1; fill:none; stroke-opacity:1;" y2="35.26"></line><line x1="427" x2="427" y1="31" style="stroke-linecap:square; fill-opacity:1; fill:none; stroke-opacity:1;" y2="35.26"></line><line x1="498" x2="498" y1="31" style="stroke-linecap:square; fill-opacity:1; fill:none; stroke-opacity:1;" y2="35.26"></line></g><g transform="translate(72,361.2667)" style="font-size:18.2778px; fill:rgb(38,38,38); text-rendering:geometricPrecision; image-rendering:optimizeQuality; color-rendering:optimizeQuality; font-family:'SansSerif'; stroke:rgb(38,38,38); color-interpolation:linearRGB;"><path style="stroke:none;" d="M-14.125 11.3438 L-9.3906 11.3438 L-9.3906 12.7969 L-14.125 12.7969 L-14.125 11.3438 ZM-6.4303 16.7344 L-6.4303 15.1094 Q-5.774 15.4219 -5.0865 15.5938 Q-4.399 15.7656 -3.7428 15.7656 Q-1.9772 15.7656 -1.0553 14.5781 Q-0.1334 13.3906 0.0072 10.9844 Q-0.5084 11.75 -1.2897 12.1484 Q-2.0709 12.5469 -3.024 12.5469 Q-4.9928 12.5469 -6.1334 11.3594 Q-7.274 10.1719 -7.274 8.1094 Q-7.274 6.0781 -6.0787 4.8594 Q-4.8834 3.6406 -2.899 3.6406 Q-0.6334 3.6406 0.5697 5.3828 Q1.7728 7.125 1.7728 10.4531 Q1.7728 13.5469 0.3041 15.3984 Q-1.1647 17.25 -3.6647 17.25 Q-4.3209 17.25 -5.0084 17.1172 Q-5.6959 16.9844 -6.4303 16.7344 ZM-2.899 11.1562 Q-1.7115 11.1562 -1.0084 10.3438 Q-0.3053 9.5312 -0.3053 8.1094 Q-0.3053 6.6875 -1.0084 5.8672 Q-1.7115 5.0469 -2.899 5.0469 Q-4.1022 5.0469 -4.7975 5.8672 Q-5.4928 6.6875 -5.4928 8.1094 Q-5.4928 9.5312 -4.7975 10.3438 Q-4.1022 11.1562 -2.899 11.1562 ZM8.9153 5.0469 Q7.5403 5.0469 6.8528 6.3984 Q6.1653 7.75 6.1653 10.4531 Q6.1653 13.1562 6.8528 14.5 Q7.5403 15.8438 8.9153 15.8438 Q10.3059 15.8438 10.9934 14.5 Q11.6809 13.1562 11.6809 10.4531 Q11.6809 7.75 10.9934 6.3984 Q10.3059 5.0469 8.9153 5.0469 ZM8.9153 3.6406 Q11.1184 3.6406 12.2825 5.3828 Q13.4465 7.125 13.4465 10.4531 Q13.4465 13.7656 12.2825 15.5078 Q11.1184 17.25 8.9153 17.25 Q6.7122 17.25 5.5481 15.5078 Q4.384 13.7656 4.384 10.4531 Q4.384 7.125 5.5481 5.3828 Q6.7122 3.6406 8.9153 3.6406 Z"></path></g><g transform="translate(143,361.2667)" style="font-size:18.2778px; fill:rgb(38,38,38); text-rendering:geometricPrecision; image-rendering:optimizeQuality; color-rendering:optimizeQuality; font-family:'SansSerif'; stroke:rgb(38,38,38); color-interpolation:linearRGB;"><path style="stroke:none;" d="M-14.125 11.3438 L-9.3906 11.3438 L-9.3906 12.7969 L-14.125 12.7969 L-14.125 11.3438 ZM-2.4772 9.7344 Q-3.6647 9.7344 -4.3678 10.5469 Q-5.0709 11.3594 -5.0709 12.7969 Q-5.0709 14.2031 -4.3678 15.0234 Q-3.6647 15.8438 -2.4772 15.8438 Q-1.274 15.8438 -0.5787 15.0234 Q0.1166 14.2031 0.1166 12.7969 Q0.1166 11.3594 -0.5787 10.5469 Q-1.274 9.7344 -2.4772 9.7344 ZM1.0541 4.1719 L1.0541 5.7812 Q0.3822 5.4688 -0.2975 5.3047 Q-0.9772 5.1406 -1.649 5.1406 Q-3.399 5.1406 -4.3287 6.3203 Q-5.2584 7.5 -5.3834 9.9062 Q-4.8678 9.1406 -4.0865 8.7344 Q-3.3053 8.3281 -2.3678 8.3281 Q-0.3834 8.3281 0.7572 9.5234 Q1.8978 10.7188 1.8978 12.7969 Q1.8978 14.8125 0.7025 16.0312 Q-0.4928 17.25 -2.4772 17.25 Q-4.7428 17.25 -5.9537 15.5078 Q-7.1647 13.7656 -7.1647 10.4531 Q-7.1647 7.3438 -5.6881 5.4922 Q-4.2115 3.6406 -1.7115 3.6406 Q-1.0553 3.6406 -0.3678 3.7734 Q0.3197 3.9062 1.0541 4.1719 ZM8.9153 5.0469 Q7.5403 5.0469 6.8528 6.3984 Q6.1653 7.75 6.1653 10.4531 Q6.1653 13.1562 6.8528 14.5 Q7.5403 15.8438 8.9153 15.8438 Q10.3059 15.8438 10.9934 14.5 Q11.6809 13.1562 11.6809 10.4531 Q11.6809 7.75 10.9934 6.3984 Q10.3059 5.0469 8.9153 5.0469 ZM8.9153 3.6406 Q11.1184 3.6406 12.2825 5.3828 Q13.4465 7.125 13.4465 10.4531 Q13.4465 13.7656 12.2825 15.5078 Q11.1184 17.25 8.9153 17.25 Q6.7122 17.25 5.5481 15.5078 Q4.384 13.7656 4.384 10.4531 Q4.384 7.125 5.5481 5.3828 Q6.7122 3.6406 8.9153 3.6406 Z"></path></g><g transform="translate(214,361.2667)" style="font-size:18.2778px; fill:rgb(38,38,38); text-rendering:geometricPrecision; image-rendering:optimizeQuality; color-rendering:optimizeQuality; font-family:'SansSerif'; stroke:rgb(38,38,38); color-interpolation:linearRGB;"><path style="stroke:none;" d="M-14.125 11.3438 L-9.3906 11.3438 L-9.3906 12.7969 L-14.125 12.7969 L-14.125 11.3438 ZM-1.1178 9.9219 Q0.1635 10.2031 0.8822 11.0625 Q1.601 11.9219 1.601 13.1875 Q1.601 15.125 0.265 16.1875 Q-1.0709 17.25 -3.5397 17.25 Q-4.3678 17.25 -5.2428 17.0859 Q-6.1178 16.9219 -7.0397 16.6094 L-7.0397 14.8906 Q-6.3053 15.3281 -5.4225 15.5469 Q-4.5397 15.7656 -3.5865 15.7656 Q-1.9147 15.7656 -1.0397 15.1016 Q-0.1647 14.4375 -0.1647 13.1875 Q-0.1647 12.0312 -0.9772 11.375 Q-1.7897 10.7188 -3.2428 10.7188 L-4.774 10.7188 L-4.774 9.25 L-3.1803 9.25 Q-1.8678 9.25 -1.1725 8.7266 Q-0.4772 8.2031 -0.4772 7.2188 Q-0.4772 6.2188 -1.1959 5.6797 Q-1.9147 5.1406 -3.2428 5.1406 Q-3.9772 5.1406 -4.8131 5.2969 Q-5.649 5.4531 -6.649 5.7812 L-6.649 4.2031 Q-5.6334 3.9219 -4.7506 3.7812 Q-3.8678 3.6406 -3.0865 3.6406 Q-1.0709 3.6406 0.1088 4.5625 Q1.2885 5.4844 1.2885 7.0469 Q1.2885 8.125 0.6635 8.8828 Q0.0385 9.6406 -1.1178 9.9219 ZM8.9153 5.0469 Q7.5403 5.0469 6.8528 6.3984 Q6.1653 7.75 6.1653 10.4531 Q6.1653 13.1562 6.8528 14.5 Q7.5403 15.8438 8.9153 15.8438 Q10.3059 15.8438 10.9934 14.5 Q11.6809 13.1562 11.6809 10.4531 Q11.6809 7.75 10.9934 6.3984 Q10.3059 5.0469 8.9153 5.0469 ZM8.9153 3.6406 Q11.1184 3.6406 12.2825 5.3828 Q13.4465 7.125 13.4465 10.4531 Q13.4465 13.7656 12.2825 15.5078 Q11.1184 17.25 8.9153 17.25 Q6.7122 17.25 5.5481 15.5078 Q4.384 13.7656 4.384 10.4531 Q4.384 7.125 5.5481 5.3828 Q6.7122 3.6406 8.9153 3.6406 Z"></path></g><g transform="translate(285,361.2667)" style="font-size:18.2778px; fill:rgb(38,38,38); text-rendering:geometricPrecision; image-rendering:optimizeQuality; color-rendering:optimizeQuality; font-family:'SansSerif'; stroke:rgb(38,38,38); color-interpolation:linearRGB;"><path style="stroke:none;" d="M-0.2812 5.0469 Q-1.6562 5.0469 -2.3438 6.3984 Q-3.0312 7.75 -3.0312 10.4531 Q-3.0312 13.1562 -2.3438 14.5 Q-1.6562 15.8438 -0.2812 15.8438 Q1.1094 15.8438 1.7969 14.5 Q2.4844 13.1562 2.4844 10.4531 Q2.4844 7.75 1.7969 6.3984 Q1.1094 5.0469 -0.2812 5.0469 ZM-0.2812 3.6406 Q1.9219 3.6406 3.0859 5.3828 Q4.25 7.125 4.25 10.4531 Q4.25 13.7656 3.0859 15.5078 Q1.9219 17.25 -0.2812 17.25 Q-2.4844 17.25 -3.6484 15.5078 Q-4.8125 13.7656 -4.8125 10.4531 Q-4.8125 7.125 -3.6484 5.3828 Q-2.4844 3.6406 -0.2812 3.6406 Z"></path></g><g transform="translate(356,361.2667)" style="font-size:18.2778px; fill:rgb(38,38,38); text-rendering:geometricPrecision; image-rendering:optimizeQuality; color-rendering:optimizeQuality; font-family:'SansSerif'; stroke:rgb(38,38,38); color-interpolation:linearRGB;"><path style="stroke:none;" d="M-4.7031 9.9219 Q-3.4219 10.2031 -2.7031 11.0625 Q-1.9844 11.9219 -1.9844 13.1875 Q-1.9844 15.125 -3.3203 16.1875 Q-4.6562 17.25 -7.125 17.25 Q-7.9531 17.25 -8.8281 17.0859 Q-9.7031 16.9219 -10.625 16.6094 L-10.625 14.8906 Q-9.8906 15.3281 -9.0078 15.5469 Q-8.125 15.7656 -7.1719 15.7656 Q-5.5 15.7656 -4.625 15.1016 Q-3.75 14.4375 -3.75 13.1875 Q-3.75 12.0312 -4.5625 11.375 Q-5.375 10.7188 -6.8281 10.7188 L-8.3594 10.7188 L-8.3594 9.25 L-6.7656 9.25 Q-5.4531 9.25 -4.7578 8.7266 Q-4.0625 8.2031 -4.0625 7.2188 Q-4.0625 6.2188 -4.7812 5.6797 Q-5.5 5.1406 -6.8281 5.1406 Q-7.5625 5.1406 -8.3984 5.2969 Q-9.2344 5.4531 -10.2344 5.7812 L-10.2344 4.2031 Q-9.2188 3.9219 -8.3359 3.7812 Q-7.4531 3.6406 -6.6719 3.6406 Q-4.6562 3.6406 -3.4766 4.5625 Q-2.2969 5.4844 -2.2969 7.0469 Q-2.2969 8.125 -2.9219 8.8828 Q-3.5469 9.6406 -4.7031 9.9219 ZM5.33 5.0469 Q3.955 5.0469 3.2675 6.3984 Q2.58 7.75 2.58 10.4531 Q2.58 13.1562 3.2675 14.5 Q3.955 15.8438 5.33 15.8438 Q6.7206 15.8438 7.4081 14.5 Q8.0956 13.1562 8.0956 10.4531 Q8.0956 7.75 7.4081 6.3984 Q6.7206 5.0469 5.33 5.0469 ZM5.33 3.6406 Q7.5331 3.6406 8.6971 5.3828 Q9.8612 7.125 9.8612 10.4531 Q9.8612 13.7656 8.6971 15.5078 Q7.5331 17.25 5.33 17.25 Q3.1268 17.25 1.9628 15.5078 Q0.7987 13.7656 0.7987 10.4531 Q0.7987 7.125 1.9628 5.3828 Q3.1268 3.6406 5.33 3.6406 Z"></path></g><g transform="translate(427,361.2667)" style="font-size:18.2778px; fill:rgb(38,38,38); text-rendering:geometricPrecision; image-rendering:optimizeQuality; color-rendering:optimizeQuality; font-family:'SansSerif'; stroke:rgb(38,38,38); color-interpolation:linearRGB;"><path style="stroke:none;" d="M-6.0625 9.7344 Q-7.25 9.7344 -7.9531 10.5469 Q-8.6562 11.3594 -8.6562 12.7969 Q-8.6562 14.2031 -7.9531 15.0234 Q-7.25 15.8438 -6.0625 15.8438 Q-4.8594 15.8438 -4.1641 15.0234 Q-3.4688 14.2031 -3.4688 12.7969 Q-3.4688 11.3594 -4.1641 10.5469 Q-4.8594 9.7344 -6.0625 9.7344 ZM-2.5312 4.1719 L-2.5312 5.7812 Q-3.2031 5.4688 -3.8828 5.3047 Q-4.5625 5.1406 -5.2344 5.1406 Q-6.9844 5.1406 -7.9141 6.3203 Q-8.8438 7.5 -8.9688 9.9062 Q-8.4531 9.1406 -7.6719 8.7344 Q-6.8906 8.3281 -5.9531 8.3281 Q-3.9688 8.3281 -2.8281 9.5234 Q-1.6875 10.7188 -1.6875 12.7969 Q-1.6875 14.8125 -2.8828 16.0312 Q-4.0781 17.25 -6.0625 17.25 Q-8.3281 17.25 -9.5391 15.5078 Q-10.75 13.7656 -10.75 10.4531 Q-10.75 7.3438 -9.2734 5.4922 Q-7.7969 3.6406 -5.2969 3.6406 Q-4.6406 3.6406 -3.9531 3.7734 Q-3.2656 3.9062 -2.5312 4.1719 ZM5.33 5.0469 Q3.955 5.0469 3.2675 6.3984 Q2.58 7.75 2.58 10.4531 Q2.58 13.1562 3.2675 14.5 Q3.955 15.8438 5.33 15.8438 Q6.7206 15.8438 7.4081 14.5 Q8.0956 13.1562 8.0956 10.4531 Q8.0956 7.75 7.4081 6.3984 Q6.7206 5.0469 5.33 5.0469 ZM5.33 3.6406 Q7.5331 3.6406 8.6971 5.3828 Q9.8612 7.125 9.8612 10.4531 Q9.8612 13.7656 8.6971 15.5078 Q7.5331 17.25 5.33 17.25 Q3.1268 17.25 1.9628 15.5078 Q0.7987 13.7656 0.7987 10.4531 Q0.7987 7.125 1.9628 5.3828 Q3.1268 3.6406 5.33 3.6406 Z"></path></g><g transform="translate(498,361.2667)" style="font-size:18.2778px; fill:rgb(38,38,38); text-rendering:geometricPrecision; image-rendering:optimizeQuality; color-rendering:optimizeQuality; font-family:'SansSerif'; stroke:rgb(38,38,38); color-interpolation:linearRGB;"><path style="stroke:none;" d="M-10.0156 16.7344 L-10.0156 15.1094 Q-9.3594 15.4219 -8.6719 15.5938 Q-7.9844 15.7656 -7.3281 15.7656 Q-5.5625 15.7656 -4.6406 14.5781 Q-3.7188 13.3906 -3.5781 10.9844 Q-4.0938 11.75 -4.875 12.1484 Q-5.6562 12.5469 -6.6094 12.5469 Q-8.5781 12.5469 -9.7188 11.3594 Q-10.8594 10.1719 -10.8594 8.1094 Q-10.8594 6.0781 -9.6641 4.8594 Q-8.4688 3.6406 -6.4844 3.6406 Q-4.2188 3.6406 -3.0156 5.3828 Q-1.8125 7.125 -1.8125 10.4531 Q-1.8125 13.5469 -3.2812 15.3984 Q-4.75 17.25 -7.25 17.25 Q-7.9062 17.25 -8.5938 17.1172 Q-9.2812 16.9844 -10.0156 16.7344 ZM-6.4844 11.1562 Q-5.2969 11.1562 -4.5938 10.3438 Q-3.8906 9.5312 -3.8906 8.1094 Q-3.8906 6.6875 -4.5938 5.8672 Q-5.2969 5.0469 -6.4844 5.0469 Q-7.6875 5.0469 -8.3828 5.8672 Q-9.0781 6.6875 -9.0781 8.1094 Q-9.0781 9.5312 -8.3828 10.3438 Q-7.6875 11.1562 -6.4844 11.1562 ZM5.33 5.0469 Q3.955 5.0469 3.2675 6.3984 Q2.58 7.75 2.58 10.4531 Q2.58 13.1562 3.2675 14.5 Q3.955 15.8438 5.33 15.8438 Q6.7206 15.8438 7.4081 14.5 Q8.0956 13.1562 8.0956 10.4531 Q8.0956 7.75 7.4081 6.3984 Q6.7206 5.0469 5.33 5.0469 ZM5.33 3.6406 Q7.5331 3.6406 8.6971 5.3828 Q9.8612 7.125 9.8612 10.4531 Q9.8612 13.7656 8.6971 15.5078 Q7.5331 17.25 5.33 17.25 Q3.1268 17.25 1.9628 15.5078 Q0.7987 13.7656 0.7987 10.4531 Q0.7987 7.125 1.9628 5.3828 Q3.1268 3.6406 5.33 3.6406 Z"></path></g><g transform="translate(285.0002,384)" style="font-size:20.1056px; fill:rgb(38,38,38); text-rendering:geometricPrecision; image-rendering:optimizeQuality; color-rendering:optimizeQuality; font-family:'SansSerif'; stroke:rgb(38,38,38); color-interpolation:linearRGB;"><path style="stroke:none;" d="M-95.6562 6.3594 L-98.3438 13.625 L-92.9844 13.625 L-95.6562 6.3594 ZM-96.7812 4.4219 L-94.5469 4.4219 L-88.9844 19 L-91.0312 19 L-92.3594 15.2656 L-98.9375 15.2656 L-100.2656 19 L-102.3438 19 L-96.7812 4.4219 ZM-87.6449 8.0625 L-79.1136 8.0625 L-79.1136 9.7031 L-85.8792 17.5625 L-79.1136 17.5625 L-79.1136 19 L-87.8949 19 L-87.8949 17.3594 L-81.1292 9.5 L-87.6449 9.5 L-87.6449 8.0625 ZM-76.3163 8.0625 L-74.5195 8.0625 L-74.5195 19 L-76.3163 19 L-76.3163 8.0625 ZM-76.3163 3.7969 L-74.5195 3.7969 L-74.5195 6.0781 L-76.3163 6.0781 L-76.3163 3.7969 ZM-62.218 10.1562 Q-61.5462 8.9531 -60.6087 8.375 Q-59.6712 7.7969 -58.4055 7.7969 Q-56.7024 7.7969 -55.7727 8.9922 Q-54.843 10.1875 -54.843 12.3906 L-54.843 19 L-56.6399 19 L-56.6399 12.4531 Q-56.6399 10.8906 -57.2024 10.125 Q-57.7649 9.3594 -58.9055 9.3594 Q-60.2962 9.3594 -61.1087 10.2891 Q-61.9212 11.2188 -61.9212 12.8125 L-61.9212 19 L-63.7337 19 L-63.7337 12.4531 Q-63.7337 10.875 -64.2883 10.1172 Q-64.843 9.3594 -65.9993 9.3594 Q-67.3743 9.3594 -68.1868 10.2891 Q-68.9993 11.2188 -68.9993 12.8125 L-68.9993 19 L-70.8118 19 L-70.8118 8.0625 L-68.9993 8.0625 L-68.9993 9.7656 Q-68.3899 8.75 -67.5305 8.2734 Q-66.6712 7.7969 -65.4837 7.7969 Q-64.2962 7.7969 -63.4602 8.4062 Q-62.6243 9.0156 -62.218 10.1562 ZM-51.3474 14.6875 L-51.3474 8.0625 L-49.5505 8.0625 L-49.5505 14.6094 Q-49.5505 16.1719 -48.949 16.9453 Q-48.3474 17.7188 -47.1287 17.7188 Q-45.6755 17.7188 -44.8318 16.7891 Q-43.988 15.8594 -43.988 14.2656 L-43.988 8.0625 L-42.1912 8.0625 L-42.1912 19 L-43.988 19 L-43.988 17.3125 Q-44.6443 18.3125 -45.5037 18.7969 Q-46.363 19.2812 -47.5193 19.2812 Q-49.3943 19.2812 -50.3708 18.1094 Q-51.3474 16.9375 -51.3474 14.6875 ZM-36.6591 4.9531 L-36.6591 8.0625 L-32.956 8.0625 L-32.956 9.4531 L-36.6591 9.4531 L-36.6591 15.3906 Q-36.6591 16.7344 -36.2919 17.1172 Q-35.9247 17.5 -34.7997 17.5 L-32.956 17.5 L-32.956 19 L-34.7997 19 Q-36.8778 19 -37.6669 18.2266 Q-38.456 17.4531 -38.456 15.3906 L-38.456 9.4531 L-39.7841 9.4531 L-39.7841 8.0625 L-38.456 8.0625 L-38.456 4.9531 L-36.6591 4.9531 ZM-21.4524 12.3906 L-21.4524 19 L-23.2493 19 L-23.2493 12.4531 Q-23.2493 10.9062 -23.8587 10.1328 Q-24.468 9.3594 -25.6712 9.3594 Q-27.1399 9.3594 -27.9758 10.2891 Q-28.8118 11.2188 -28.8118 12.8125 L-28.8118 19 L-30.6243 19 L-30.6243 3.7969 L-28.8118 3.7969 L-28.8118 9.7656 Q-28.1712 8.7812 -27.2962 8.2891 Q-26.4212 7.7969 -25.2805 7.7969 Q-23.3899 7.7969 -22.4212 8.9609 Q-21.4524 10.125 -21.4524 12.3906 ZM-6.455 13.5 Q-8.6425 13.5 -9.4784 14 Q-10.3144 14.5 -10.3144 15.7031 Q-10.3144 16.6562 -9.6815 17.2188 Q-9.0487 17.7812 -7.9706 17.7812 Q-6.4706 17.7812 -5.5722 16.7188 Q-4.6737 15.6562 -4.6737 13.9062 L-4.6737 13.5 L-6.455 13.5 ZM-2.8769 12.7656 L-2.8769 19 L-4.6737 19 L-4.6737 17.3438 Q-5.2831 18.3281 -6.205 18.8047 Q-7.1269 19.2812 -8.455 19.2812 Q-10.1269 19.2812 -11.119 18.3359 Q-12.1112 17.3906 -12.1112 15.8125 Q-12.1112 13.9688 -10.8769 13.0312 Q-9.6425 12.0938 -7.1894 12.0938 L-4.6737 12.0938 L-4.6737 11.9219 Q-4.6737 10.6719 -5.4862 10 Q-6.2987 9.3281 -7.7831 9.3281 Q-8.7206 9.3281 -9.6034 9.5469 Q-10.4862 9.7656 -11.3144 10.2188 L-11.3144 8.5625 Q-10.33 8.1719 -9.4003 7.9844 Q-8.4706 7.7969 -7.5956 7.7969 Q-5.2206 7.7969 -4.0487 9.0312 Q-2.8769 10.2656 -2.8769 12.7656 ZM9.9833 12.3906 L9.9833 19 L8.1864 19 L8.1864 12.4531 Q8.1864 10.9062 7.5771 10.1328 Q6.9677 9.3594 5.7646 9.3594 Q4.2958 9.3594 3.4599 10.2891 Q2.6239 11.2188 2.6239 12.8125 L2.6239 19 L0.8114 19 L0.8114 8.0625 L2.6239 8.0625 L2.6239 9.7656 Q3.2646 8.7812 4.1396 8.2891 Q5.0146 7.7969 6.1552 7.7969 Q8.0458 7.7969 9.0146 8.9609 Q9.9833 10.125 9.9833 12.3906 ZM20.8123 13.4062 Q20.8123 11.4531 20.0076 10.375 Q19.2029 9.2969 17.7498 9.2969 Q16.3123 9.2969 15.4998 10.375 Q14.6873 11.4531 14.6873 13.4062 Q14.6873 15.3438 15.4998 16.4219 Q16.3123 17.5 17.7498 17.5 Q19.2029 17.5 20.0076 16.4219 Q20.8123 15.3438 20.8123 13.4062 ZM22.6091 17.6406 Q22.6091 20.4375 21.3748 21.7969 Q20.1404 23.1562 17.5779 23.1562 Q16.6248 23.1562 15.7888 23.0156 Q14.9529 22.875 14.156 22.5781 L14.156 20.8438 Q14.9529 21.2656 15.7185 21.4688 Q16.4841 21.6719 17.2966 21.6719 Q19.0623 21.6719 19.9373 20.75 Q20.8123 19.8281 20.8123 17.9688 L20.8123 17.0781 Q20.2654 18.0469 19.3904 18.5234 Q18.5154 19 17.3123 19 Q15.2966 19 14.0701 17.4688 Q12.8435 15.9375 12.8435 13.4062 Q12.8435 10.8594 14.0701 9.3281 Q15.2966 7.7969 17.3123 7.7969 Q18.5154 7.7969 19.3904 8.2734 Q20.2654 8.75 20.8123 9.7188 L20.8123 8.0625 L22.6091 8.0625 L22.6091 17.6406 ZM26.3796 3.7969 L28.1765 3.7969 L28.1765 19 L26.3796 19 L26.3796 3.7969 ZM41.306 13.0781 L41.306 13.9531 L33.056 13.9531 Q33.1654 15.8125 34.1654 16.7891 Q35.1654 17.7656 36.9623 17.7656 Q37.9935 17.7656 38.9623 17.5078 Q39.931 17.25 40.8998 16.75 L40.8998 18.4375 Q39.931 18.8594 38.9154 19.0703 Q37.8998 19.2812 36.8529 19.2812 Q34.2279 19.2812 32.7045 17.7578 Q31.181 16.2344 31.181 13.6406 Q31.181 10.9531 32.6263 9.375 Q34.0717 7.7969 36.5404 7.7969 Q38.7435 7.7969 40.0248 9.2188 Q41.306 10.6406 41.306 13.0781 ZM39.5092 12.5469 Q39.4935 11.0781 38.6888 10.2031 Q37.8842 9.3281 36.556 9.3281 Q35.056 9.3281 34.1498 10.1719 Q33.2435 11.0156 33.1029 12.5625 L39.5092 12.5469 ZM50.54 3.7969 L54.6806 3.7969 L54.6806 5.2031 L52.3369 5.2031 L52.3369 20.2344 L54.6806 20.2344 L54.6806 21.6406 L50.54 21.6406 L50.54 3.7969 ZM65.7387 9.7188 L65.7387 3.7969 L67.5356 3.7969 L67.5356 19 L65.7387 19 L65.7387 17.3594 Q65.1762 18.3281 64.309 18.8047 Q63.4418 19.2812 62.2387 19.2812 Q60.2543 19.2812 59.0121 17.7031 Q57.7699 16.125 57.7699 13.5469 Q57.7699 10.9688 59.0121 9.3828 Q60.2543 7.7969 62.2387 7.7969 Q63.4418 7.7969 64.309 8.2734 Q65.1762 8.75 65.7387 9.7188 ZM59.6137 13.5469 Q59.6137 15.5156 60.434 16.6484 Q61.2543 17.7812 62.6762 17.7812 Q64.0981 17.7812 64.9184 16.6484 Q65.7387 15.5156 65.7387 13.5469 Q65.7387 11.5625 64.9184 10.4297 Q64.0981 9.2969 62.6762 9.2969 Q61.2543 9.2969 60.434 10.4297 Q59.6137 11.5625 59.6137 13.5469 ZM80.6497 13.0781 L80.6497 13.9531 L72.3997 13.9531 Q72.5091 15.8125 73.5091 16.7891 Q74.5091 17.7656 76.306 17.7656 Q77.3372 17.7656 78.306 17.5078 Q79.2747 17.25 80.2435 16.75 L80.2435 18.4375 Q79.2747 18.8594 78.2591 19.0703 Q77.2435 19.2812 76.1966 19.2812 Q73.5716 19.2812 72.0482 17.7578 Q70.5247 16.2344 70.5247 13.6406 Q70.5247 10.9531 71.9701 9.375 Q73.4154 7.7969 75.8841 7.7969 Q78.0872 7.7969 79.3685 9.2188 Q80.6497 10.6406 80.6497 13.0781 ZM78.8529 12.5469 Q78.8372 11.0781 78.0326 10.2031 Q77.2279 9.3281 75.8997 9.3281 Q74.3997 9.3281 73.4935 10.1719 Q72.5872 11.0156 72.4466 12.5625 L78.8529 12.5469 ZM90.8559 13.4062 Q90.8559 11.4531 90.0512 10.375 Q89.2465 9.2969 87.7934 9.2969 Q86.3559 9.2969 85.5434 10.375 Q84.7309 11.4531 84.7309 13.4062 Q84.7309 15.3438 85.5434 16.4219 Q86.3559 17.5 87.7934 17.5 Q89.2465 17.5 90.0512 16.4219 Q90.8559 15.3438 90.8559 13.4062 ZM92.6527 17.6406 Q92.6527 20.4375 91.4184 21.7969 Q90.184 23.1562 87.6215 23.1562 Q86.6684 23.1562 85.8324 23.0156 Q84.9965 22.875 84.1996 22.5781 L84.1996 20.8438 Q84.9965 21.2656 85.7621 21.4688 Q86.5277 21.6719 87.3402 21.6719 Q89.1059 21.6719 89.9809 20.75 Q90.8559 19.8281 90.8559 17.9688 L90.8559 17.0781 Q90.309 18.0469 89.434 18.5234 Q88.559 19 87.3559 19 Q85.3402 19 84.1137 17.4688 Q82.8871 15.9375 82.8871 13.4062 Q82.8871 10.8594 84.1137 9.3281 Q85.3402 7.7969 87.3559 7.7969 Q88.559 7.7969 89.434 8.2734 Q90.309 8.75 90.8559 9.7188 L90.8559 8.0625 L92.6527 8.0625 L92.6527 17.6406 ZM100.6107 3.7969 L100.6107 21.6406 L96.4701 21.6406 L96.4701 20.2344 L98.8138 20.2344 L98.8138 5.2031 L96.4701 5.2031 L96.4701 3.7969 L100.6107 3.7969 Z"></path></g><g style="fill:rgb(38,38,38); text-rendering:geometricPrecision; image-rendering:optimizeQuality; color-rendering:optimizeQuality; stroke-linejoin:round; stroke:rgb(38,38,38); color-interpolation:linearRGB; stroke-width:0.6528;"><line y2="31" style="fill:none;" x1="72" x2="72" y1="355"></line><line y2="31" style="fill:none;" x1="498" x2="498" y1="355"></line><line y2="355" style="fill:none;" x1="72" x2="76.26" y1="355"></line><line y2="308.7143" style="fill:none;" x1="72" x2="76.26" y1="308.7143"></line><line y2="262.4286" style="fill:none;" x1="72" x2="76.26" y1="262.4286"></line><line y2="216.1429" style="fill:none;" x1="72" x2="76.26" y1="216.1429"></line><line y2="169.8571" style="fill:none;" x1="72" x2="76.26" y1="169.8571"></line><line y2="123.5714" style="fill:none;" x1="72" x2="76.26" y1="123.5714"></line><line y2="77.2857" style="fill:none;" x1="72" x2="76.26" y1="77.2857"></line><line y2="31" style="fill:none;" x1="72" x2="76.26" y1="31"></line><line y2="355" style="fill:none;" x1="498" x2="493.74" y1="355"></line><line y2="308.7143" style="fill:none;" x1="498" x2="493.74" y1="308.7143"></line><line y2="262.4286" style="fill:none;" x1="498" x2="493.74" y1="262.4286"></line><line y2="216.1429" style="fill:none;" x1="498" x2="493.74" y1="216.1429"></line><line y2="169.8571" style="fill:none;" x1="498" x2="493.74" y1="169.8571"></line><line y2="123.5714" style="fill:none;" x1="498" x2="493.74" y1="123.5714"></line><line y2="77.2857" style="fill:none;" x1="498" x2="493.74" y1="77.2857"></line><line y2="31" style="fill:none;" x1="498" x2="493.74" y1="31"></line></g><g transform="translate(65.7333,355)" style="font-size:18.2778px; fill:rgb(38,38,38); text-rendering:geometricPrecision; image-rendering:optimizeQuality; color-rendering:optimizeQuality; font-family:'SansSerif'; stroke:rgb(38,38,38); color-interpolation:linearRGB;"><path style="stroke:none;" d="M-35.125 0.3438 L-30.3906 0.3438 L-30.3906 1.7969 L-35.125 1.7969 L-35.125 0.3438 ZM-23.6959 -5.9531 Q-25.0709 -5.9531 -25.7584 -4.6016 Q-26.4459 -3.25 -26.4459 -0.5469 Q-26.4459 2.1562 -25.7584 3.5 Q-25.0709 4.8438 -23.6959 4.8438 Q-22.3053 4.8438 -21.6178 3.5 Q-20.9303 2.1562 -20.9303 -0.5469 Q-20.9303 -3.25 -21.6178 -4.6016 Q-22.3053 -5.9531 -23.6959 -5.9531 ZM-23.6959 -7.3594 Q-21.4928 -7.3594 -20.3287 -5.6172 Q-19.1647 -3.875 -19.1647 -0.5469 Q-19.1647 2.7656 -20.3287 4.5078 Q-21.4928 6.25 -23.6959 6.25 Q-25.899 6.25 -27.0631 4.5078 Q-28.2272 2.7656 -28.2272 -0.5469 Q-28.2272 -3.875 -27.0631 -5.6172 Q-25.899 -7.3594 -23.6959 -7.3594 ZM-15.8816 3.7656 L-14.0222 3.7656 L-14.0222 6 L-15.8816 6 L-15.8816 3.7656 ZM-6.2836 -0.2344 Q-7.5492 -0.2344 -8.2758 0.4453 Q-9.0023 1.125 -9.0023 2.3125 Q-9.0023 3.5 -8.2758 4.1719 Q-7.5492 4.8438 -6.2836 4.8438 Q-5.0179 4.8438 -4.2836 4.1641 Q-3.5492 3.4844 -3.5492 2.3125 Q-3.5492 1.125 -4.2758 0.4453 Q-5.0023 -0.2344 -6.2836 -0.2344 ZM-8.0492 -0.9844 Q-9.2054 -1.2656 -9.8383 -2.0469 Q-10.4711 -2.8281 -10.4711 -3.9531 Q-10.4711 -5.5312 -9.3539 -6.4453 Q-8.2367 -7.3594 -6.2836 -7.3594 Q-4.3148 -7.3594 -3.1976 -6.4453 Q-2.0804 -5.5312 -2.0804 -3.9531 Q-2.0804 -2.8281 -2.7211 -2.0469 Q-3.3617 -1.2656 -4.5023 -0.9844 Q-3.2054 -0.6875 -2.4945 0.1797 Q-1.7836 1.0469 -1.7836 2.3125 Q-1.7836 4.2188 -2.9476 5.2344 Q-4.1117 6.25 -6.2836 6.25 Q-8.4554 6.25 -9.6195 5.2344 Q-10.7836 4.2188 -10.7836 2.3125 Q-10.7836 1.0469 -10.0648 0.1797 Q-9.3461 -0.6875 -8.0492 -0.9844 ZM-8.7054 -3.7969 Q-8.7054 -2.7656 -8.0648 -2.1953 Q-7.4242 -1.625 -6.2836 -1.625 Q-5.1429 -1.625 -4.4945 -2.1953 Q-3.8461 -2.7656 -3.8461 -3.7969 Q-3.8461 -4.8125 -4.4945 -5.3828 Q-5.1429 -5.9531 -6.2836 -5.9531 Q-7.4242 -5.9531 -8.0648 -5.3828 Q-8.7054 -4.8125 -8.7054 -3.7969 Z"></path></g><g transform="translate(65.7333,308.7143)" style="font-size:18.2778px; fill:rgb(38,38,38); text-rendering:geometricPrecision; image-rendering:optimizeQuality; color-rendering:optimizeQuality; font-family:'SansSerif'; stroke:rgb(38,38,38); color-interpolation:linearRGB;"><path style="stroke:none;" d="M-35.125 0.3438 L-30.3906 0.3438 L-30.3906 1.7969 L-35.125 1.7969 L-35.125 0.3438 ZM-23.6959 -5.9531 Q-25.0709 -5.9531 -25.7584 -4.6016 Q-26.4459 -3.25 -26.4459 -0.5469 Q-26.4459 2.1562 -25.7584 3.5 Q-25.0709 4.8438 -23.6959 4.8438 Q-22.3053 4.8438 -21.6178 3.5 Q-20.9303 2.1562 -20.9303 -0.5469 Q-20.9303 -3.25 -21.6178 -4.6016 Q-22.3053 -5.9531 -23.6959 -5.9531 ZM-23.6959 -7.3594 Q-21.4928 -7.3594 -20.3287 -5.6172 Q-19.1647 -3.875 -19.1647 -0.5469 Q-19.1647 2.7656 -20.3287 4.5078 Q-21.4928 6.25 -23.6959 6.25 Q-25.899 6.25 -27.0631 4.5078 Q-28.2272 2.7656 -28.2272 -0.5469 Q-28.2272 -3.875 -27.0631 -5.6172 Q-25.899 -7.3594 -23.6959 -7.3594 ZM-15.8816 3.7656 L-14.0222 3.7656 L-14.0222 6 L-15.8816 6 L-15.8816 3.7656 ZM-6.0648 -1.2656 Q-7.2523 -1.2656 -7.9554 -0.4531 Q-8.6586 0.3594 -8.6586 1.7969 Q-8.6586 3.2031 -7.9554 4.0234 Q-7.2523 4.8438 -6.0648 4.8438 Q-4.8617 4.8438 -4.1664 4.0234 Q-3.4711 3.2031 -3.4711 1.7969 Q-3.4711 0.3594 -4.1664 -0.4531 Q-4.8617 -1.2656 -6.0648 -1.2656 ZM-2.5336 -6.8281 L-2.5336 -5.2188 Q-3.2054 -5.5312 -3.8851 -5.6953 Q-4.5648 -5.8594 -5.2367 -5.8594 Q-6.9867 -5.8594 -7.9164 -4.6797 Q-8.8461 -3.5 -8.9711 -1.0938 Q-8.4554 -1.8594 -7.6742 -2.2656 Q-6.8929 -2.6719 -5.9554 -2.6719 Q-3.9711 -2.6719 -2.8304 -1.4766 Q-1.6898 -0.2812 -1.6898 1.7969 Q-1.6898 3.8125 -2.8851 5.0312 Q-4.0804 6.25 -6.0648 6.25 Q-8.3304 6.25 -9.5414 4.5078 Q-10.7523 2.7656 -10.7523 -0.5469 Q-10.7523 -3.6562 -9.2758 -5.5078 Q-7.7992 -7.3594 -5.2992 -7.3594 Q-4.6429 -7.3594 -3.9554 -7.2266 Q-3.2679 -7.0938 -2.5336 -6.8281 Z"></path></g><g transform="translate(65.7333,262.4286)" style="font-size:18.2778px; fill:rgb(38,38,38); text-rendering:geometricPrecision; image-rendering:optimizeQuality; color-rendering:optimizeQuality; font-family:'SansSerif'; stroke:rgb(38,38,38); color-interpolation:linearRGB;"><path style="stroke:none;" d="M-35.125 0.3438 L-30.3906 0.3438 L-30.3906 1.7969 L-35.125 1.7969 L-35.125 0.3438 ZM-23.6959 -5.9531 Q-25.0709 -5.9531 -25.7584 -4.6016 Q-26.4459 -3.25 -26.4459 -0.5469 Q-26.4459 2.1562 -25.7584 3.5 Q-25.0709 4.8438 -23.6959 4.8438 Q-22.3053 4.8438 -21.6178 3.5 Q-20.9303 2.1562 -20.9303 -0.5469 Q-20.9303 -3.25 -21.6178 -4.6016 Q-22.3053 -5.9531 -23.6959 -5.9531 ZM-23.6959 -7.3594 Q-21.4928 -7.3594 -20.3287 -5.6172 Q-19.1647 -3.875 -19.1647 -0.5469 Q-19.1647 2.7656 -20.3287 4.5078 Q-21.4928 6.25 -23.6959 6.25 Q-25.899 6.25 -27.0631 4.5078 Q-28.2272 2.7656 -28.2272 -0.5469 Q-28.2272 -3.875 -27.0631 -5.6172 Q-25.899 -7.3594 -23.6959 -7.3594 ZM-15.8816 3.7656 L-14.0222 3.7656 L-14.0222 6 L-15.8816 6 L-15.8816 3.7656 ZM-5.2054 -5.5781 L-9.6742 1.4219 L-5.2054 1.4219 L-5.2054 -5.5781 ZM-5.6586 -7.125 L-3.4398 -7.125 L-3.4398 1.4219 L-1.5648 1.4219 L-1.5648 2.9062 L-3.4398 2.9062 L-3.4398 6 L-5.2054 6 L-5.2054 2.9062 L-11.1273 2.9062 L-11.1273 1.1875 L-5.6586 -7.125 Z"></path></g><g transform="translate(65.7333,216.1429)" style="font-size:18.2778px; fill:rgb(38,38,38); text-rendering:geometricPrecision; image-rendering:optimizeQuality; color-rendering:optimizeQuality; font-family:'SansSerif'; stroke:rgb(38,38,38); color-interpolation:linearRGB;"><path style="stroke:none;" d="M-35.125 0.3438 L-30.3906 0.3438 L-30.3906 1.7969 L-35.125 1.7969 L-35.125 0.3438 ZM-23.6959 -5.9531 Q-25.0709 -5.9531 -25.7584 -4.6016 Q-26.4459 -3.25 -26.4459 -0.5469 Q-26.4459 2.1562 -25.7584 3.5 Q-25.0709 4.8438 -23.6959 4.8438 Q-22.3053 4.8438 -21.6178 3.5 Q-20.9303 2.1562 -20.9303 -0.5469 Q-20.9303 -3.25 -21.6178 -4.6016 Q-22.3053 -5.9531 -23.6959 -5.9531 ZM-23.6959 -7.3594 Q-21.4928 -7.3594 -20.3287 -5.6172 Q-19.1647 -3.875 -19.1647 -0.5469 Q-19.1647 2.7656 -20.3287 4.5078 Q-21.4928 6.25 -23.6959 6.25 Q-25.899 6.25 -27.0631 4.5078 Q-28.2272 2.7656 -28.2272 -0.5469 Q-28.2272 -3.875 -27.0631 -5.6172 Q-25.899 -7.3594 -23.6959 -7.3594 ZM-15.8816 3.7656 L-14.0222 3.7656 L-14.0222 6 L-15.8816 6 L-15.8816 3.7656 ZM-8.5492 4.5 L-2.3461 4.5 L-2.3461 6 L-10.6898 6 L-10.6898 4.5 Q-9.6742 3.4531 -7.932 1.6953 Q-6.1898 -0.0625 -5.7367 -0.5781 Q-4.8773 -1.5312 -4.5414 -2.1953 Q-4.2054 -2.8594 -4.2054 -3.5 Q-4.2054 -4.5469 -4.9398 -5.2031 Q-5.6742 -5.8594 -6.8461 -5.8594 Q-7.6898 -5.8594 -8.6117 -5.5703 Q-9.5336 -5.2812 -10.5961 -4.7031 L-10.5961 -6.4844 Q-9.5179 -6.9219 -8.5883 -7.1406 Q-7.6586 -7.3594 -6.8929 -7.3594 Q-4.8461 -7.3594 -3.6351 -6.3438 Q-2.4242 -5.3281 -2.4242 -3.6094 Q-2.4242 -2.8125 -2.7289 -2.0859 Q-3.0336 -1.3594 -3.8304 -0.375 Q-4.0492 -0.125 -5.2289 1.0938 Q-6.4086 2.3125 -8.5492 4.5 Z"></path></g><g transform="translate(65.7333,169.8571)" style="font-size:18.2778px; fill:rgb(38,38,38); text-rendering:geometricPrecision; image-rendering:optimizeQuality; color-rendering:optimizeQuality; font-family:'SansSerif'; stroke:rgb(38,38,38); color-interpolation:linearRGB;"><path style="stroke:none;" d="M-6.2812 -5.9531 Q-7.6562 -5.9531 -8.3438 -4.6016 Q-9.0312 -3.25 -9.0312 -0.5469 Q-9.0312 2.1562 -8.3438 3.5 Q-7.6562 4.8438 -6.2812 4.8438 Q-4.8906 4.8438 -4.2031 3.5 Q-3.5156 2.1562 -3.5156 -0.5469 Q-3.5156 -3.25 -4.2031 -4.6016 Q-4.8906 -5.9531 -6.2812 -5.9531 ZM-6.2812 -7.3594 Q-4.0781 -7.3594 -2.9141 -5.6172 Q-1.75 -3.875 -1.75 -0.5469 Q-1.75 2.7656 -2.9141 4.5078 Q-4.0781 6.25 -6.2812 6.25 Q-8.4844 6.25 -9.6484 4.5078 Q-10.8125 2.7656 -10.8125 -0.5469 Q-10.8125 -3.875 -9.6484 -5.6172 Q-8.4844 -7.3594 -6.2812 -7.3594 Z"></path></g><g transform="translate(65.7333,123.5714)" style="font-size:18.2778px; fill:rgb(38,38,38); text-rendering:geometricPrecision; image-rendering:optimizeQuality; color-rendering:optimizeQuality; font-family:'SansSerif'; stroke:rgb(38,38,38); color-interpolation:linearRGB;"><path style="stroke:none;" d="M-24.2812 -5.9531 Q-25.6562 -5.9531 -26.3438 -4.6016 Q-27.0312 -3.25 -27.0312 -0.5469 Q-27.0312 2.1562 -26.3438 3.5 Q-25.6562 4.8438 -24.2812 4.8438 Q-22.8906 4.8438 -22.2031 3.5 Q-21.5156 2.1562 -21.5156 -0.5469 Q-21.5156 -3.25 -22.2031 -4.6016 Q-22.8906 -5.9531 -24.2812 -5.9531 ZM-24.2812 -7.3594 Q-22.0781 -7.3594 -20.9141 -5.6172 Q-19.75 -3.875 -19.75 -0.5469 Q-19.75 2.7656 -20.9141 4.5078 Q-22.0781 6.25 -24.2812 6.25 Q-26.4844 6.25 -27.6484 4.5078 Q-28.8125 2.7656 -28.8125 -0.5469 Q-28.8125 -3.875 -27.6484 -5.6172 Q-26.4844 -7.3594 -24.2812 -7.3594 ZM-16.4669 3.7656 L-14.6075 3.7656 L-14.6075 6 L-16.4669 6 L-16.4669 3.7656 ZM-9.1345 4.5 L-2.9314 4.5 L-2.9314 6 L-11.2751 6 L-11.2751 4.5 Q-10.2595 3.4531 -8.5173 1.6953 Q-6.7751 -0.0625 -6.322 -0.5781 Q-5.4626 -1.5312 -5.1267 -2.1953 Q-4.7908 -2.8594 -4.7908 -3.5 Q-4.7908 -4.5469 -5.5251 -5.2031 Q-6.2595 -5.8594 -7.4314 -5.8594 Q-8.2751 -5.8594 -9.197 -5.5703 Q-10.1189 -5.2812 -11.1814 -4.7031 L-11.1814 -6.4844 Q-10.1033 -6.9219 -9.1736 -7.1406 Q-8.2439 -7.3594 -7.4783 -7.3594 Q-5.4314 -7.3594 -4.2205 -6.3438 Q-3.0095 -5.3281 -3.0095 -3.6094 Q-3.0095 -2.8125 -3.3142 -2.0859 Q-3.6189 -1.3594 -4.4158 -0.375 Q-4.6345 -0.125 -5.8142 1.0938 Q-6.9939 2.3125 -9.1345 4.5 Z"></path></g><g transform="translate(65.7333,77.2857)" style="font-size:18.2778px; fill:rgb(38,38,38); text-rendering:geometricPrecision; image-rendering:optimizeQuality; color-rendering:optimizeQuality; font-family:'SansSerif'; stroke:rgb(38,38,38); color-interpolation:linearRGB;"><path style="stroke:none;" d="M-24.2812 -5.9531 Q-25.6562 -5.9531 -26.3438 -4.6016 Q-27.0312 -3.25 -27.0312 -0.5469 Q-27.0312 2.1562 -26.3438 3.5 Q-25.6562 4.8438 -24.2812 4.8438 Q-22.8906 4.8438 -22.2031 3.5 Q-21.5156 2.1562 -21.5156 -0.5469 Q-21.5156 -3.25 -22.2031 -4.6016 Q-22.8906 -5.9531 -24.2812 -5.9531 ZM-24.2812 -7.3594 Q-22.0781 -7.3594 -20.9141 -5.6172 Q-19.75 -3.875 -19.75 -0.5469 Q-19.75 2.7656 -20.9141 4.5078 Q-22.0781 6.25 -24.2812 6.25 Q-26.4844 6.25 -27.6484 4.5078 Q-28.8125 2.7656 -28.8125 -0.5469 Q-28.8125 -3.875 -27.6484 -5.6172 Q-26.4844 -7.3594 -24.2812 -7.3594 ZM-16.4669 3.7656 L-14.6075 3.7656 L-14.6075 6 L-16.4669 6 L-16.4669 3.7656 ZM-5.7908 -5.5781 L-10.2595 1.4219 L-5.7908 1.4219 L-5.7908 -5.5781 ZM-6.2439 -7.125 L-4.0251 -7.125 L-4.0251 1.4219 L-2.1501 1.4219 L-2.1501 2.9062 L-4.0251 2.9062 L-4.0251 6 L-5.7908 6 L-5.7908 2.9062 L-11.7126 2.9062 L-11.7126 1.1875 L-6.2439 -7.125 Z"></path></g><g transform="translate(65.7333,31)" style="font-size:18.2778px; fill:rgb(38,38,38); text-rendering:geometricPrecision; image-rendering:optimizeQuality; color-rendering:optimizeQuality; font-family:'SansSerif'; stroke:rgb(38,38,38); color-interpolation:linearRGB;"><path style="stroke:none;" d="M-24.2812 -5.9531 Q-25.6562 -5.9531 -26.3438 -4.6016 Q-27.0312 -3.25 -27.0312 -0.5469 Q-27.0312 2.1562 -26.3438 3.5 Q-25.6562 4.8438 -24.2812 4.8438 Q-22.8906 4.8438 -22.2031 3.5 Q-21.5156 2.1562 -21.5156 -0.5469 Q-21.5156 -3.25 -22.2031 -4.6016 Q-22.8906 -5.9531 -24.2812 -5.9531 ZM-24.2812 -7.3594 Q-22.0781 -7.3594 -20.9141 -5.6172 Q-19.75 -3.875 -19.75 -0.5469 Q-19.75 2.7656 -20.9141 4.5078 Q-22.0781 6.25 -24.2812 6.25 Q-26.4844 6.25 -27.6484 4.5078 Q-28.8125 2.7656 -28.8125 -0.5469 Q-28.8125 -3.875 -27.6484 -5.6172 Q-26.4844 -7.3594 -24.2812 -7.3594 ZM-16.4669 3.7656 L-14.6075 3.7656 L-14.6075 6 L-16.4669 6 L-16.4669 3.7656 ZM-6.6501 -1.2656 Q-7.8376 -1.2656 -8.5408 -0.4531 Q-9.2439 0.3594 -9.2439 1.7969 Q-9.2439 3.2031 -8.5408 4.0234 Q-7.8376 4.8438 -6.6501 4.8438 Q-5.447 4.8438 -4.7517 4.0234 Q-4.0564 3.2031 -4.0564 1.7969 Q-4.0564 0.3594 -4.7517 -0.4531 Q-5.447 -1.2656 -6.6501 -1.2656 ZM-3.1189 -6.8281 L-3.1189 -5.2188 Q-3.7908 -5.5312 -4.4705 -5.6953 Q-5.1501 -5.8594 -5.822 -5.8594 Q-7.572 -5.8594 -8.5017 -4.6797 Q-9.4314 -3.5 -9.5564 -1.0938 Q-9.0408 -1.8594 -8.2595 -2.2656 Q-7.4783 -2.6719 -6.5408 -2.6719 Q-4.5564 -2.6719 -3.4158 -1.4766 Q-2.2751 -0.2812 -2.2751 1.7969 Q-2.2751 3.8125 -3.4705 5.0312 Q-4.6658 6.25 -6.6501 6.25 Q-8.9158 6.25 -10.1267 4.5078 Q-11.3376 2.7656 -11.3376 -0.5469 Q-11.3376 -3.6562 -9.8611 -5.5078 Q-8.3845 -7.3594 -5.8845 -7.3594 Q-5.2283 -7.3594 -4.5408 -7.2266 Q-3.8533 -7.0938 -3.1189 -6.8281 Z"></path></g><g transform="translate(25.8167,192.9998) rotate(-90)" style="font-size:20.1056px; fill:rgb(38,38,38); text-rendering:geometricPrecision; image-rendering:optimizeQuality; color-rendering:optimizeQuality; font-family:'SansSerif'; stroke:rgb(38,38,38); color-interpolation:linearRGB;"><path style="stroke:none;" d="M-75.0625 -17.9531 L-75.0625 -6.625 L-72.6875 -6.625 Q-69.6562 -6.625 -68.2578 -7.9922 Q-66.8594 -9.3594 -66.8594 -12.3125 Q-66.8594 -15.2344 -68.2578 -16.5938 Q-69.6562 -17.9531 -72.6875 -17.9531 L-75.0625 -17.9531 ZM-77.0312 -19.5781 L-72.9844 -19.5781 Q-68.75 -19.5781 -66.7656 -17.8203 Q-64.7812 -16.0625 -64.7812 -12.3125 Q-64.7812 -8.5312 -66.7734 -6.7656 Q-68.7656 -5 -72.9844 -5 L-77.0312 -5 L-77.0312 -19.5781 ZM-61.6368 -15.9375 L-59.8399 -15.9375 L-59.8399 -5 L-61.6368 -5 L-61.6368 -15.9375 ZM-61.6368 -20.2031 L-59.8399 -20.2031 L-59.8399 -17.9219 L-61.6368 -17.9219 L-61.6368 -20.2031 ZM-49.726 -14.2656 Q-50.0229 -14.4375 -50.3822 -14.5156 Q-50.7416 -14.5938 -51.1635 -14.5938 Q-52.6947 -14.5938 -53.5072 -13.6094 Q-54.3197 -12.625 -54.3197 -10.7656 L-54.3197 -5 L-56.1322 -5 L-56.1322 -15.9375 L-54.3197 -15.9375 L-54.3197 -14.2344 Q-53.7572 -15.2344 -52.851 -15.7188 Q-51.9447 -16.2031 -50.6322 -16.2031 Q-50.4604 -16.2031 -50.2338 -16.1797 Q-50.0072 -16.1562 -49.726 -16.1094 L-49.726 -14.2656 ZM-38.4492 -10.9219 L-38.4492 -10.0469 L-46.6992 -10.0469 Q-46.5898 -8.1875 -45.5898 -7.2109 Q-44.5898 -6.2344 -42.7929 -6.2344 Q-41.7617 -6.2344 -40.7929 -6.4922 Q-39.8242 -6.75 -38.8554 -7.25 L-38.8554 -5.5625 Q-39.8242 -5.1406 -40.8398 -4.9297 Q-41.8554 -4.7188 -42.9023 -4.7188 Q-45.5273 -4.7188 -47.0507 -6.2422 Q-48.5742 -7.7656 -48.5742 -10.3594 Q-48.5742 -13.0469 -47.1288 -14.625 Q-45.6835 -16.2031 -43.2148 -16.2031 Q-41.0117 -16.2031 -39.7304 -14.7812 Q-38.4492 -13.3594 -38.4492 -10.9219 ZM-40.246 -11.4531 Q-40.2617 -12.9219 -41.0663 -13.7969 Q-41.871 -14.6719 -43.1992 -14.6719 Q-44.6992 -14.6719 -45.6054 -13.8281 Q-46.5117 -12.9844 -46.6523 -11.4375 L-40.246 -11.4531 ZM-27.5712 -15.5156 L-27.5712 -13.8438 Q-28.3212 -14.2656 -29.0868 -14.4688 Q-29.8524 -14.6719 -30.6337 -14.6719 Q-32.3837 -14.6719 -33.3524 -13.5703 Q-34.3212 -12.4688 -34.3212 -10.4531 Q-34.3212 -8.4531 -33.3524 -7.3438 Q-32.3837 -6.2344 -30.6337 -6.2344 Q-29.8524 -6.2344 -29.0868 -6.4453 Q-28.3212 -6.6562 -27.5712 -7.0781 L-27.5712 -5.4219 Q-28.3212 -5.0625 -29.1259 -4.8906 Q-29.9305 -4.7188 -30.8368 -4.7188 Q-33.3055 -4.7188 -34.7587 -6.2734 Q-36.2118 -7.8281 -36.2118 -10.4531 Q-36.2118 -13.1406 -34.743 -14.6719 Q-33.2743 -16.2031 -30.7118 -16.2031 Q-29.8837 -16.2031 -29.0946 -16.0312 Q-28.3055 -15.8594 -27.5712 -15.5156 ZM-22.6173 -19.0469 L-22.6173 -15.9375 L-18.9142 -15.9375 L-18.9142 -14.5469 L-22.6173 -14.5469 L-22.6173 -8.6094 Q-22.6173 -7.2656 -22.2501 -6.8828 Q-21.8829 -6.5 -20.7579 -6.5 L-18.9142 -6.5 L-18.9142 -5 L-20.7579 -5 Q-22.836 -5 -23.6251 -5.7734 Q-24.4142 -6.5469 -24.4142 -8.6094 L-24.4142 -14.5469 L-25.7423 -14.5469 L-25.7423 -15.9375 L-24.4142 -15.9375 L-24.4142 -19.0469 L-22.6173 -19.0469 ZM-16.5043 -15.9375 L-14.7075 -15.9375 L-14.7075 -5 L-16.5043 -5 L-16.5043 -15.9375 ZM-16.5043 -20.2031 L-14.7075 -20.2031 L-14.7075 -17.9219 L-16.5043 -17.9219 L-16.5043 -20.2031 ZM-12.2185 -15.9375 L-10.3123 -15.9375 L-6.8904 -6.7656 L-3.4685 -15.9375 L-1.5779 -15.9375 L-5.6717 -5 L-8.1092 -5 L-12.2185 -15.9375 ZM0.9698 -15.9375 L2.7666 -15.9375 L2.7666 -5 L0.9698 -5 L0.9698 -15.9375 ZM0.9698 -20.2031 L2.7666 -20.2031 L2.7666 -17.9219 L0.9698 -17.9219 L0.9698 -20.2031 ZM8.3181 -19.0469 L8.3181 -15.9375 L12.0212 -15.9375 L12.0212 -14.5469 L8.3181 -14.5469 L8.3181 -8.6094 Q8.3181 -7.2656 8.6853 -6.8828 Q9.0524 -6.5 10.1774 -6.5 L12.0212 -6.5 L12.0212 -5 L10.1774 -5 Q8.0993 -5 7.3103 -5.7734 Q6.5212 -6.5469 6.5212 -8.6094 L6.5212 -14.5469 L5.1931 -14.5469 L5.1931 -15.9375 L6.5212 -15.9375 L6.5212 -19.0469 L8.3181 -19.0469 ZM18.9779 -3.9844 Q18.2122 -2.0312 17.4935 -1.4375 Q16.7747 -0.8438 15.556 -0.8438 L14.1185 -0.8438 L14.1185 -2.3438 L15.181 -2.3438 Q15.9154 -2.3438 16.3294 -2.6953 Q16.7435 -3.0469 17.2435 -4.3594 L17.556 -5.1719 L13.1341 -15.9375 L15.0404 -15.9375 L18.4622 -7.3906 L21.8841 -15.9375 L23.7747 -15.9375 L18.9779 -3.9844 ZM32.5378 -20.2031 L36.6784 -20.2031 L36.6784 -18.7969 L34.3346 -18.7969 L34.3346 -3.7656 L36.6784 -3.7656 L36.6784 -2.3594 L32.5378 -2.3594 L32.5378 -20.2031 ZM47.7365 -14.2812 L47.7365 -20.2031 L49.5333 -20.2031 L49.5333 -5 L47.7365 -5 L47.7365 -6.6406 Q47.174 -5.6719 46.3068 -5.1953 Q45.4396 -4.7188 44.2365 -4.7188 Q42.2521 -4.7188 41.0099 -6.2969 Q39.7677 -7.875 39.7677 -10.4531 Q39.7677 -13.0312 41.0099 -14.6172 Q42.2521 -16.2031 44.2365 -16.2031 Q45.4396 -16.2031 46.3068 -15.7266 Q47.174 -15.25 47.7365 -14.2812 ZM41.6115 -10.4531 Q41.6115 -8.4844 42.4318 -7.3516 Q43.2521 -6.2188 44.674 -6.2188 Q46.0958 -6.2188 46.9161 -7.3516 Q47.7365 -8.4844 47.7365 -10.4531 Q47.7365 -12.4375 46.9161 -13.5703 Q46.0958 -14.7031 44.674 -14.7031 Q43.2521 -14.7031 42.4318 -13.5703 Q41.6115 -12.4375 41.6115 -10.4531 ZM55.3506 -11.9688 L55.3506 -6.625 L58.5069 -6.625 Q60.1006 -6.625 60.8663 -7.2812 Q61.6319 -7.9375 61.6319 -9.2969 Q61.6319 -10.6719 60.8663 -11.3203 Q60.1006 -11.9688 58.5069 -11.9688 L55.3506 -11.9688 ZM55.3506 -17.9531 L55.3506 -13.5625 L58.2725 -13.5625 Q59.71 -13.5625 60.421 -14.1094 Q61.1319 -14.6562 61.1319 -15.7656 Q61.1319 -16.8594 60.421 -17.4062 Q59.71 -17.9531 58.2725 -17.9531 L55.3506 -17.9531 ZM53.3819 -19.5781 L58.4131 -19.5781 Q60.6788 -19.5781 61.8975 -18.6406 Q63.1163 -17.7031 63.1163 -15.9844 Q63.1163 -14.6406 62.4913 -13.8516 Q61.8663 -13.0625 60.6475 -12.8594 Q62.1006 -12.5469 62.9131 -11.5547 Q63.7256 -10.5625 63.7256 -9.0781 Q63.7256 -7.125 62.3975 -6.0625 Q61.0694 -5 58.6163 -5 L53.3819 -5 L53.3819 -19.5781 ZM67.0888 -15.9375 L68.8857 -15.9375 L68.8857 -5 L67.0888 -5 L67.0888 -15.9375 ZM67.0888 -20.2031 L68.8857 -20.2031 L68.8857 -17.9219 L67.0888 -17.9219 L67.0888 -20.2031 ZM76.859 -20.2031 L76.859 -2.3594 L72.7184 -2.3594 L72.7184 -3.7656 L75.0621 -3.7656 L75.0621 -18.7969 L72.7184 -18.7969 L72.7184 -20.2031 L76.859 -20.2031 Z"></path></g><g style="stroke-linecap:butt; fill:rgb(0,114,189); text-rendering:geometricPrecision; image-rendering:optimizeQuality; color-rendering:optimizeQuality; stroke-linejoin:round; stroke:rgb(0,114,189); color-interpolation:linearRGB; stroke-width:3.2639;"><path d="M72 202.4819 L72.8537 202.4781 L73.7074 202.4666 L74.5611 202.4474 L75.4148 202.4205 L76.2685 202.3859 L77.1222 202.3437 L77.9759 202.2938 L78.8297 202.2362 L79.6834 202.171 L80.5371 202.0982 L81.3908 202.0177 L82.2445 201.9297 L83.0982 201.834 L83.9519 201.7308 L84.8056 201.62 L85.6593 201.5017 L86.513 201.3758 L87.3667 201.2424 L88.2204 201.1016 L89.0742 200.9533 L89.9279 200.7975 L90.7816 200.6344 L91.6353 200.4638 L92.489 200.2859 L93.3427 200.1007 L94.1964 199.9082 L95.0501 199.7084 L95.9038 199.5014 L96.7575 199.2872 L97.6112 199.0658 L98.4649 198.8374 L99.3186 198.6018 L100.1723 198.3591 L101.026 198.1095 L101.8798 197.8529 L102.7335 197.5893 L103.5872 197.3189 L104.4409 197.0416 L105.2946 196.7576 L106.1483 196.4668 L107.002 196.1693 L107.8557 195.8651 L108.7094 195.5543 L109.5631 195.237 L110.4168 194.9132 L111.2705 194.5829 L112.1243 194.2462 L112.978 193.9032 L113.8317 193.5539 L114.6854 193.1984 L115.5391 192.8367 L116.3928 192.4689 L117.2465 192.0951 L118.1002 191.7152 L118.9539 191.3295 L119.8076 190.9378 L120.6613 190.5404 L121.515 190.1372 L122.3687 189.7284 L123.2225 189.3139 L124.0761 188.894 L124.9299 188.4685 L125.7836 188.0377 L126.6373 187.6015 L127.491 187.16 L128.3447 186.7134 L129.1984 186.2617 L130.0521 185.8049 L130.9058 185.3431 L131.7595 184.8765 L132.6132 184.405 L133.4669 183.9288 L134.3206 183.4479 L135.1743 182.9624 L136.0281 182.4725 L136.8818 181.9781 L137.7355 181.4793 L138.5892 180.9763 L139.4429 180.4691 L140.2966 179.9577 L141.1503 179.4424 L142.004 178.9231 L142.8577 178.4 L143.7114 177.8731 L144.5651 177.3425 L145.4188 176.8083 L146.2726 176.2706 L147.1263 175.7294 L147.98 175.1849 L148.8337 174.6372 L149.6874 174.0863 L150.5411 173.5323 L151.3948 172.9753 L152.2485 172.4154 L153.1022 171.8527 L153.9559 171.2873 L154.8096 170.7193 L155.6633 170.1487 L156.517 169.5757 L157.3707 169.0003 L158.2244 168.4227 L159.0782 167.8429 L159.9319 167.261 L160.7856 166.6771 L161.6393 166.0913 L162.493 165.5038 L163.3467 164.9145 L164.2004 164.3236 L165.0541 163.7313 L165.9078 163.1375 L166.7615 162.5423 L167.6152 161.9459 L168.4689 161.3484 L169.3226 160.7499 L170.1764 160.1504 L171.0301 159.5501 L171.8838 158.949 L172.7375 158.3472 L173.5912 157.7449 L174.4449 157.1421 L175.2986 156.539 L176.1523 155.9355 L177.006 155.3319 L177.8597 154.7282 L178.7134 154.1245 L179.5671 153.5209 L180.4208 152.9176 L181.2746 152.3145 L182.1283 151.7118 L182.982 151.1096 L183.8357 150.508 L184.6894 149.907 L185.5431 149.3069 L186.3968 148.7076 L187.2505 148.1093 L188.1042 147.512 L188.9579 146.9159 L189.8116 146.321 L190.6653 145.7275 L191.519 145.1354 L192.3727 144.5448 L193.2265 143.9558 L194.0802 143.3686 L194.9339 142.7832 L195.7876 142.1996 L196.6413 141.6181 L197.495 141.0386 L198.3487 140.4613 L199.2024 139.8863 L200.0561 139.3136 L200.9098 138.7434 L201.7635 138.1757 L202.6172 137.6106 L203.4709 137.0482 L204.3246 136.4886 L205.1784 135.9319 L206.0321 135.3782 L206.8858 134.8275 L207.7395 134.28 L208.5932 133.7357 L209.4469 133.1947 L210.3006 132.6572 L211.1543 132.1231 L212.008 131.5926 L212.8617 131.0657 L213.7154 130.5425 L214.5691 130.0232 L215.4229 129.5078 L216.2766 128.9963 L217.1303 128.4889 L217.984 127.9857 L218.8377 127.4866 L219.6914 126.9919 L220.5451 126.5015 L221.3988 126.0155 L222.2525 125.5341 L223.1062 125.0572 L223.9599 124.5851 L224.8136 124.1176 L225.6673 123.655 L226.521 123.1973 L227.3748 122.7445 L228.2285 122.2968 L229.0822 121.8541 L229.9359 121.4166 L230.7896 120.9844 L231.6433 120.5574 L232.497 120.1358 L233.3507 119.7197 L234.2044 119.309 L235.0581 118.9039 L235.9118 118.5045 L236.7655 118.1107 L237.6192 117.7226 L238.4729 117.3404 L239.3267 116.964 L240.1804 116.5935 L241.0341 116.2291 L241.8878 115.8706 L242.7415 115.5183 L243.5952 115.1721 L244.4489 114.8321 L245.3026 114.4983 L246.1563 114.1709 L247.01 113.8498 L247.8637 113.5351 L248.7174 113.2268 L249.5711 112.9251 L250.4249 112.6299 L251.2786 112.3413 L252.1323 112.0593 L252.986 111.784 L253.8397 111.5154 L254.6934 111.2536 L255.5471 110.9986 L256.4008 110.7505 L257.2545 110.5092 L258.1082 110.2748 L258.9619 110.0474 L259.8156 109.827 L260.6693 109.6135 L261.523 109.4072 L262.3767 109.2079 L263.2305 109.0158 L264.0842 108.8308 L264.9379 108.653 L265.7916 108.4824 L266.6453 108.319 L267.499 108.1628 L268.3527 108.014 L269.2064 107.8724 L270.0601 107.7382 L270.9138 107.6113 L271.7675 107.4918 L272.6212 107.3796 L273.4749 107.2749 L274.3286 107.1776 L275.1824 107.0877 L276.0361 107.0052 L276.8898 106.9302 L277.7435 106.8627 L278.5972 106.8026 L279.4509 106.75 L280.3046 106.7049 L281.1583 106.6674 L282.012 106.6373 L282.8657 106.6148 L283.7195 106.5997 L284.5732 106.5922 L285.4268 106.5922 L286.2805 106.5997 L287.1343 106.6148 L287.988 106.6373 L288.8417 106.6674 L289.6954 106.7049 L290.5491 106.75 L291.4028 106.8026 L292.2565 106.8627 L293.1102 106.9302 L293.9639 107.0052 L294.8176 107.0877 L295.6714 107.1776 L296.5251 107.2749 L297.3788 107.3796 L298.2325 107.4918 L299.0862 107.6113 L299.9399 107.7382 L300.7936 107.8724 L301.6473 108.014 L302.501 108.1628 L303.3547 108.319 L304.2084 108.4824 L305.0621 108.653 L305.9158 108.8308 L306.7695 109.0158 L307.6233 109.2079 L308.477 109.4072 L309.3307 109.6135 L310.1844 109.827 L311.0381 110.0474 L311.8918 110.2748 L312.7455 110.5092 L313.5992 110.7505 L314.4529 110.9986 L315.3066 111.2536 L316.1603 111.5154 L317.014 111.784 L317.8677 112.0593 L318.7214 112.3413 L319.5752 112.6299 L320.4289 112.9251 L321.2826 113.2268 L322.1363 113.5351 L322.99 113.8498 L323.8437 114.1709 L324.6974 114.4983 L325.5511 114.8321 L326.4048 115.1721 L327.2585 115.5183 L328.1122 115.8706 L328.9659 116.2291 L329.8196 116.5935 L330.6733 116.964 L331.5271 117.3404 L332.3808 117.7226 L333.2345 118.1107 L334.0882 118.5045 L334.9419 118.9039 L335.7956 119.309 L336.6493 119.7197 L337.503 120.1358 L338.3567 120.5574 L339.2104 120.9844 L340.0641 121.4166 L340.9178 121.8541 L341.7715 122.2968 L342.6252 122.7445 L343.479 123.1973 L344.3327 123.655 L345.1864 124.1176 L346.0401 124.5851 L346.8938 125.0572 L347.7475 125.5341 L348.6012 126.0155 L349.4549 126.5015 L350.3086 126.9919 L351.1623 127.4866 L352.016 127.9857 L352.8698 128.4889 L353.7234 128.9963 L354.5771 129.5078 L355.4309 130.0232 L356.2846 130.5425 L357.1383 131.0657 L357.992 131.5926 L358.8457 132.1231 L359.6994 132.6572 L360.5531 133.1947 L361.4068 133.7357 L362.2605 134.28 L363.1142 134.8275 L363.9679 135.3782 L364.8217 135.9319 L365.6754 136.4886 L366.5291 137.0482 L367.3828 137.6106 L368.2365 138.1757 L369.0902 138.7434 L369.9439 139.3136 L370.7976 139.8863 L371.6513 140.4613 L372.505 141.0386 L373.3587 141.6181 L374.2124 142.1996 L375.0661 142.7832 L375.9198 143.3686 L376.7735 143.9558 L377.6273 144.5448 L378.481 145.1354 L379.3347 145.7275 L380.1884 146.321 L381.0421 146.9159 L381.8958 147.512 L382.7495 148.1093 L383.6032 148.7076 L384.4569 149.3069 L385.3106 149.907 L386.1643 150.508 L387.018 151.1096 L387.8717 151.7118 L388.7255 152.3145 L389.5792 152.9176 L390.4329 153.5209 L391.2866 154.1245 L392.1403 154.7282 L392.994 155.3319 L393.8477 155.9355 L394.7014 156.539 L395.5551 157.1421 L396.4088 157.7449 L397.2625 158.3472 L398.1162 158.949 L398.9699 159.5501 L399.8236 160.1504 L400.6773 160.7499 L401.5311 161.3484 L402.3848 161.9459 L403.2385 162.5423 L404.0922 163.1375 L404.9459 163.7313 L405.7996 164.3236 L406.6533 164.9145 L407.507 165.5038 L408.3607 166.0913 L409.2144 166.6771 L410.0681 167.261 L410.9218 167.8429 L411.7755 168.4227 L412.6293 169.0003 L413.483 169.5757 L414.3367 170.1487 L415.1904 170.7193 L416.0441 171.2873 L416.8978 171.8527 L417.7515 172.4154 L418.6052 172.9753 L419.4589 173.5323 L420.3126 174.0863 L421.1663 174.6372 L422.0201 175.1849 L422.8737 175.7294 L423.7274 176.2706 L424.5811 176.8083 L425.4349 177.3425 L426.2886 177.8731 L427.1423 178.4 L427.996 178.9231 L428.8497 179.4424 L429.7034 179.9577 L430.5571 180.4691 L431.4108 180.9763 L432.2645 181.4793 L433.1182 181.9781 L433.972 182.4725 L434.8257 182.9624 L435.6794 183.4479 L436.5331 183.9288 L437.3868 184.405 L438.2405 184.8765 L439.0942 185.3431 L439.9479 185.8049 L440.8016 186.2617 L441.6553 186.7134 L442.509 187.16 L443.3627 187.6015 L444.2164 188.0377 L445.0701 188.4685 L445.9239 188.894 L446.7776 189.3139 L447.6313 189.7284 L448.485 190.1372 L449.3387 190.5404 L450.1924 190.9378 L451.0461 191.3295 L451.8998 191.7152 L452.7535 192.0951 L453.6072 192.4689 L454.4609 192.8367 L455.3146 193.1984 L456.1683 193.5539 L457.022 193.9032 L457.8757 194.2462 L458.7295 194.5829 L459.5832 194.9132 L460.4369 195.237 L461.2906 195.5543 L462.1443 195.8651 L462.998 196.1693 L463.8517 196.4668 L464.7054 196.7576 L465.5591 197.0416 L466.4128 197.3189 L467.2665 197.5893 L468.1202 197.8529 L468.974 198.1095 L469.8277 198.3591 L470.6814 198.6018 L471.5351 198.8374 L472.3888 199.0658 L473.2425 199.2872 L474.0962 199.5014 L474.9499 199.7084 L475.8036 199.9082 L476.6573 200.1007 L477.511 200.2859 L478.3647 200.4638 L479.2184 200.6344 L480.0721 200.7975 L480.9258 200.9533 L481.7796 201.1016 L482.6333 201.2424 L483.487 201.3758 L484.3407 201.5017 L485.1944 201.62 L486.0481 201.7308 L486.9018 201.834 L487.7555 201.9297 L488.6092 202.0177 L489.4629 202.0982 L490.3167 202.171 L491.1703 202.2362 L492.024 202.2938 L492.8777 202.3437 L493.7315 202.3859 L494.5852 202.4205 L495.4389 202.4474 L496.2926 202.4666 L497.1463 202.4781 L498 202.4819" style="fill:none; fill-rule:evenodd;"></path></g><g style="stroke-linecap:butt; fill:rgb(217,83,25); text-rendering:geometricPrecision; image-rendering:optimizeQuality; color-rendering:optimizeQuality; stroke-linejoin:bevel; stroke-dasharray:12,3,6,3; stroke:rgb(217,83,25); color-interpolation:linearRGB; stroke-width:3.2639; stroke-miterlimit:1;"><path d="M72 346.503 L72.8537 346.4961 L73.7074 346.4755 L74.5611 346.4413 L75.4148 346.3933 L76.2685 346.3316 L77.1222 346.2563 L77.9759 346.1672 L78.8297 346.0645 L79.6834 345.9481 L80.5371 345.8181 L81.3908 345.6744 L82.2445 345.5172 L83.0982 345.3463 L83.9519 345.1619 L84.8056 344.9639 L85.6593 344.7524 L86.513 344.5274 L87.3667 344.2889 L88.2204 344.037 L89.0742 343.7716 L89.9279 343.4929 L90.7816 343.2008 L91.6353 342.8954 L92.489 342.5767 L93.3427 342.2448 L94.1964 341.8996 L95.0501 341.5413 L95.9038 341.1699 L96.7575 340.7854 L97.6112 340.3878 L98.4649 339.9773 L99.3186 339.5539 L100.1723 339.1175 L101.026 338.6683 L101.8798 338.2064 L102.7335 337.7317 L103.5872 337.2443 L104.4409 336.7443 L105.2946 336.2318 L106.1483 335.7067 L107.002 335.1692 L107.8557 334.6194 L108.7094 334.0572 L109.5631 333.4828 L110.4168 332.8962 L111.2705 332.2975 L112.1243 331.6868 L112.978 331.0641 L113.8317 330.4295 L114.6854 329.7831 L115.5391 329.125 L116.3928 328.4551 L117.2465 327.7737 L118.1002 327.0808 L118.9539 326.3764 L119.8076 325.6607 L120.6613 324.9338 L121.515 324.1956 L122.3687 323.4464 L123.2225 322.6861 L124.0761 321.9149 L124.9299 321.1329 L125.7836 320.3401 L126.6373 319.5367 L127.491 318.7227 L128.3447 317.8982 L129.1984 317.0634 L130.0521 316.2182 L130.9058 315.3629 L131.7595 314.4975 L132.6132 313.6221 L133.4669 312.7368 L134.3206 311.8418 L135.1743 310.937 L136.0281 310.0226 L136.8818 309.0988 L137.7355 308.1656 L138.5892 307.2231 L139.4429 306.2714 L140.2966 305.3107 L141.1503 304.341 L142.004 303.3625 L142.8577 302.3752 L143.7114 301.3793 L144.5651 300.3749 L145.4188 299.3621 L146.2726 298.341 L147.1263 297.3117 L147.98 296.2743 L148.8337 295.229 L149.6874 294.1758 L150.5411 293.1149 L151.3948 292.0464 L152.2485 290.9705 L153.1022 289.8871 L153.9559 288.7965 L154.8096 287.6987 L155.6633 286.594 L156.517 285.4823 L157.3707 284.3639 L158.2244 283.2388 L159.0782 282.1071 L159.9319 280.9691 L160.7856 279.8248 L161.6393 278.6743 L162.493 277.5177 L163.3467 276.3552 L164.2004 275.187 L165.0541 274.013 L165.9078 272.8335 L166.7615 271.6486 L167.6152 270.4583 L168.4689 269.2629 L169.3226 268.0624 L170.1764 266.857 L171.0301 265.6469 L171.8838 264.432 L172.7375 263.2126 L173.5912 261.9887 L174.4449 260.7606 L175.2986 259.5282 L176.1523 258.2919 L177.006 257.0516 L177.8597 255.8076 L178.7134 254.5598 L179.5671 253.3086 L180.4208 252.0539 L181.2746 250.7959 L182.1283 249.5348 L182.982 248.2707 L183.8357 247.0037 L184.6894 245.7338 L185.5431 244.4614 L186.3968 243.1864 L187.2505 241.909 L188.1042 240.6293 L188.9579 239.3475 L189.8116 238.0637 L190.6653 236.778 L191.519 235.4906 L192.3727 234.2014 L193.2265 232.9108 L194.0802 231.6188 L194.9339 230.3255 L195.7876 229.0311 L196.6413 227.7356 L197.495 226.4393 L198.3487 225.1422 L199.2024 223.8444 L200.0561 222.5461 L200.9098 221.2474 L201.7635 219.9484 L202.6172 218.6492 L203.4709 217.35 L204.3246 216.0509 L205.1784 214.752 L206.0321 213.4534 L206.8858 212.1553 L207.7395 210.8577 L208.5932 209.5607 L209.4469 208.2646 L210.3006 206.9693 L211.1543 205.6751 L212.008 204.3821 L212.8617 203.0903 L213.7154 201.7998 L214.5691 200.5108 L215.4229 199.2235 L216.2766 197.9378 L217.1303 196.654 L217.984 195.3721 L218.8377 194.0922 L219.6914 192.8145 L220.5451 191.539 L221.3988 190.2659 L222.2525 188.9953 L223.1062 187.7273 L223.9599 186.4619 L224.8136 185.1994 L225.6673 183.9398 L226.521 182.6831 L227.3748 181.4296 L228.2285 180.1793 L229.0822 178.9322 L229.9359 177.6886 L230.7896 176.4485 L231.6433 175.2121 L232.497 173.9793 L233.3507 172.7503 L234.2044 171.5252 L235.0581 170.3041 L235.9118 169.0871 L236.7655 167.8743 L237.6192 166.6658 L238.4729 165.4616 L239.3267 164.2619 L240.1804 163.0667 L241.0341 161.8762 L241.8878 160.6904 L242.7415 159.5094 L243.5952 158.3332 L244.4489 157.1621 L245.3026 155.996 L246.1563 154.8351 L247.01 153.6794 L247.8637 152.529 L248.7174 151.384 L249.5711 150.2445 L250.4249 149.1105 L251.2786 147.9821 L252.1323 146.8595 L252.986 145.7426 L253.8397 144.6315 L254.6934 143.5264 L255.5471 142.4272 L256.4008 141.3341 L257.2545 140.2471 L258.1082 139.1663 L258.9619 138.0918 L259.8156 137.0236 L260.6693 135.9618 L261.523 134.9064 L262.3767 133.8576 L263.2305 132.8153 L264.0842 131.7796 L264.9379 130.7507 L265.7916 129.7285 L266.6453 128.7131 L267.499 127.7046 L268.3527 126.703 L269.2064 125.7083 L270.0601 124.7207 L270.9138 123.7402 L271.7675 122.7667 L272.6212 121.8005 L273.4749 120.8414 L274.3286 119.8896 L275.1824 118.9452 L276.0361 118.0081 L276.8898 117.0783 L277.7435 116.156 L278.5972 115.2412 L279.4509 114.3339 L280.3046 113.4342 L281.1583 112.542 L282.012 111.6575 L282.8657 110.7806 L283.7195 109.9114 L284.5732 109.0499 L285.4268 108.1962 L286.2805 107.3502 L287.1343 106.5121 L287.988 105.6818 L288.8417 104.8594 L289.6954 104.0448 L290.5491 103.2382 L291.4028 102.4395 L292.2565 101.6487 L293.1102 100.866 L293.9639 100.0912 L294.8176 99.3244 L295.6714 98.5656 L296.5251 97.8149 L297.3788 97.0723 L298.2325 96.3377 L299.0862 95.6112 L299.9399 94.8928 L300.7936 94.1824 L301.6473 93.4802 L302.501 92.7861 L303.3547 92.1001 L304.2084 91.4223 L305.0621 90.7526 L305.9158 90.091 L306.7695 89.4375 L307.6233 88.7922 L308.477 88.155 L309.3307 87.5259 L310.1844 86.905 L311.0381 86.2922 L311.8918 85.6874 L312.7455 85.0908 L313.5992 84.5023 L314.4529 83.922 L315.3066 83.3496 L316.1603 82.7854 L317.014 82.2292 L317.8677 81.6811 L318.7214 81.141 L319.5752 80.6089 L320.4289 80.0848 L321.2826 79.5687 L322.1363 79.0606 L322.99 78.5604 L323.8437 78.0681 L324.6974 77.5838 L325.5511 77.1073 L326.4048 76.6387 L327.2585 76.1779 L328.1122 75.725 L328.9659 75.2798 L329.8196 74.8424 L330.6733 74.4127 L331.5271 73.9907 L332.3808 73.5764 L333.2345 73.1697 L334.0882 72.7706 L334.9419 72.3791 L335.7956 71.9951 L336.6493 71.6186 L337.503 71.2496 L338.3567 70.888 L339.2104 70.5338 L340.0641 70.187 L340.9178 69.8475 L341.7715 69.5153 L342.6252 69.1902 L343.479 68.8724 L344.3327 68.5618 L345.1864 68.2582 L346.0401 67.9617 L346.8938 67.6722 L347.7475 67.3897 L348.6012 67.1141 L349.4549 66.8454 L350.3086 66.5835 L351.1623 66.3284 L352.016 66.08 L352.8698 65.8384 L353.7234 65.6033 L354.5771 65.3748 L355.4309 65.1528 L356.2846 64.9373 L357.1383 64.7282 L357.992 64.5255 L358.8457 64.3291 L359.6994 64.139 L360.5531 63.955 L361.4068 63.7772 L362.2605 63.6054 L363.1142 63.4397 L363.9679 63.2799 L364.8217 63.1261 L365.6754 62.978 L366.5291 62.8358 L367.3828 62.6993 L368.2365 62.5684 L369.0902 62.4432 L369.9439 62.3235 L370.7976 62.2092 L371.6513 62.1004 L372.505 61.9969 L373.3587 61.8987 L374.2124 61.8057 L375.0661 61.7178 L375.9198 61.6351 L376.7735 61.5574 L377.6273 61.4846 L378.481 61.4167 L379.3347 61.3536 L380.1884 61.2952 L381.0421 61.2416 L381.8958 61.1926 L382.7495 61.1481 L383.6032 61.1081 L384.4569 61.0725 L385.3106 61.0412 L386.1643 61.0142 L387.018 60.9914 L387.8717 60.9728 L388.7255 60.9582 L389.5792 60.9476 L390.4329 60.9409 L391.2866 60.938 L392.1403 60.9389 L392.994 60.9436 L393.8477 60.9519 L394.7014 60.9637 L395.5551 60.979 L396.4088 60.9978 L397.2625 61.0199 L398.1162 61.0453 L398.9699 61.0739 L399.8236 61.1056 L400.6773 61.1404 L401.5311 61.1782 L402.3848 61.2188 L403.2385 61.2624 L404.0922 61.3087 L404.9459 61.3577 L405.7996 61.4094 L406.6533 61.4636 L407.507 61.5203 L408.3607 61.5795 L409.2144 61.6409 L410.0681 61.7047 L410.9218 61.7706 L411.7755 61.8387 L412.6293 61.9089 L413.483 61.981 L414.3367 62.0551 L415.1904 62.131 L416.0441 62.2087 L416.8978 62.2882 L417.7515 62.3692 L418.6052 62.4519 L419.4589 62.536 L420.3126 62.6216 L421.1663 62.7086 L422.0201 62.7968 L422.8737 62.8863 L423.7274 62.977 L424.5811 63.0688 L425.4349 63.1616 L426.2886 63.2553 L427.1423 63.35 L427.996 63.4455 L428.8497 63.5418 L429.7034 63.6387 L430.5571 63.7364 L431.4108 63.8346 L432.2645 63.9333 L433.1182 64.0325 L433.972 64.132 L434.8257 64.2319 L435.6794 64.3321 L436.5331 64.4325 L437.3868 64.533 L438.2405 64.6336 L439.0942 64.7342 L439.9479 64.8348 L440.8016 64.9354 L441.6553 65.0357 L442.509 65.1359 L443.3627 65.2358 L444.2164 65.3354 L445.0701 65.4346 L445.9239 65.5334 L446.7776 65.6318 L447.6313 65.7296 L448.485 65.8268 L449.3387 65.9234 L450.1924 66.0193 L451.0461 66.1144 L451.8998 66.2088 L452.7535 66.3024 L453.6072 66.395 L454.4609 66.4867 L455.3146 66.5775 L456.1683 66.6672 L457.022 66.7559 L457.8757 66.8435 L458.7295 66.9299 L459.5832 67.0151 L460.4369 67.0991 L461.2906 67.1817 L462.1443 67.2631 L462.998 67.3431 L463.8517 67.4217 L464.7054 67.4989 L465.5591 67.5746 L466.4128 67.6488 L467.2665 67.7214 L468.1202 67.7925 L468.974 67.8619 L469.8277 67.9297 L470.6814 67.9958 L471.5351 68.0603 L472.3888 68.1229 L473.2425 68.1838 L474.0962 68.2429 L474.9499 68.3002 L475.8036 68.3557 L476.6573 68.4092 L477.511 68.4609 L478.3647 68.5106 L479.2184 68.5584 L480.0721 68.6042 L480.9258 68.648 L481.7796 68.6898 L482.6333 68.7296 L483.487 68.7673 L484.3407 68.803 L485.1944 68.8366 L486.0481 68.8681 L486.9018 68.8975 L487.7555 68.9247 L488.6092 68.9499 L489.4629 68.9728 L490.3167 68.9937 L491.1703 69.0123 L492.024 69.0288 L492.8777 69.0431 L493.7315 69.0552 L494.5852 69.0651 L495.4389 69.0728 L496.2926 69.0783 L497.1463 69.0816 L498 69.0827" style="fill:none; fill-rule:evenodd;"></path></g><g transform="translate(285.4268,106.5922)" style="fill:rgb(0,114,189); text-rendering:geometricPrecision; color-rendering:optimizeQuality; image-rendering:optimizeQuality; color-interpolation:linearRGB; stroke:rgb(0,114,189);"><path style="stroke:none;" d="M0 -9.9213 L-8.5918 4.9606 L8.5918 4.9606 Z"></path><path d="M0 9.9213 L-8.5918 -4.9606 L8.5918 -4.9606 Z" style="fill:rgb(217,83,25); stroke:none;" transform="translate(0,1.604)"></path></g><g style="fill:white; text-rendering:optimizeSpeed; color-rendering:optimizeSpeed; image-rendering:optimizeSpeed; shape-rendering:crispEdges; stroke:white; color-interpolation:sRGB;"><path style="stroke:none;" d="M488 344 L488 294 L279 294 L279 344 Z"></path></g><g transform="translate(325.3515,306.1212)" style="font-size:16.45px; text-rendering:geometricPrecision; color-rendering:optimizeQuality; image-rendering:optimizeQuality; font-family:'SansSerif'; color-interpolation:linearRGB;"><path style="stroke:none;" d="M1.9844 4.6719 L4.5625 4.6719 L4.5625 -4.2344 L1.7656 -3.6719 L1.7656 -5.1094 L4.5469 -5.6719 L6.125 -5.6719 L6.125 4.6719 L8.7031 4.6719 L8.7031 6 L1.9844 6 L1.9844 4.6719 ZM17.1362 -6.1562 L18.5893 -6.1562 L18.5893 1.0156 L22.8705 -2.75 L24.7143 -2.75 L20.0737 1.3438 L24.9018 6 L23.0268 6 L18.5893 1.7188 L18.5893 6 L17.1362 6 L17.1362 -6.1562 ZM26.7802 -5.6719 L28.3583 -5.6719 L28.3583 -0.8906 L34.0927 -0.8906 L34.0927 -5.6719 L35.6708 -5.6719 L35.6708 6 L34.0927 6 L34.0927 0.4375 L28.3583 0.4375 L28.3583 6 L26.7802 6 L26.7802 -5.6719 ZM38.4529 -2.75 L45.281 -2.75 L45.281 -1.4375 L39.8748 4.8438 L45.281 4.8438 L45.281 6 L38.2498 6 L38.2498 4.6875 L43.656 -1.6094 L38.4529 -1.6094 L38.4529 -2.75 ZM48.0653 4.0156 L49.7216 4.0156 L49.7216 5.3594 L48.4403 7.8594 L47.4247 7.8594 L48.0653 5.3594 L48.0653 4.0156 ZM65.4216 0.7188 L65.4216 6 L63.9841 6 L63.9841 0.7656 Q63.9841 -0.4844 63.4997 -1.1016 Q63.0154 -1.7188 62.0466 -1.7188 Q60.8904 -1.7188 60.2185 -0.9766 Q59.5466 -0.2344 59.5466 1.0469 L59.5466 6 L58.0935 6 L58.0935 -2.75 L59.5466 -2.75 L59.5466 -1.3906 Q60.0622 -2.1875 60.7575 -2.5781 Q61.4529 -2.9688 62.3747 -2.9688 Q63.8747 -2.9688 64.6482 -2.0312 Q65.4216 -1.0938 65.4216 0.7188 ZM71.9645 -1.75 Q70.8083 -1.75 70.1364 -0.8438 Q69.4645 0.0625 69.4645 1.625 Q69.4645 3.2031 70.1286 4.1016 Q70.7926 5 71.9645 5 Q73.1051 5 73.777 4.0938 Q74.4489 3.1875 74.4489 1.625 Q74.4489 0.0781 73.777 -0.8359 Q73.1051 -1.75 71.9645 -1.75 ZM71.9645 -2.9688 Q73.8395 -2.9688 74.9098 -1.75 Q75.9801 -0.5312 75.9801 1.625 Q75.9801 3.7812 74.9098 5.0078 Q73.8395 6.2344 71.9645 6.2344 Q70.0739 6.2344 69.0114 5.0078 Q67.9489 3.7812 67.9489 1.625 Q67.9489 -0.5312 69.0114 -1.75 Q70.0739 -2.9688 71.9645 -2.9688 ZM89.4337 -2.5 L89.4337 -1.1406 Q88.8244 -1.4531 88.1681 -1.6094 Q87.5119 -1.7656 86.8087 -1.7656 Q85.7306 -1.7656 85.1994 -1.4375 Q84.6681 -1.1094 84.6681 -0.4531 Q84.6681 0.0469 85.0509 0.3359 Q85.4337 0.625 86.59 0.875 L87.0744 0.9844 Q88.6056 1.3125 89.2541 1.9141 Q89.9025 2.5156 89.9025 3.5781 Q89.9025 4.7969 88.9337 5.5156 Q87.965 6.2344 86.2775 6.2344 Q85.5744 6.2344 84.8166 6.0938 Q84.0587 5.9531 83.215 5.6719 L83.215 4.1875 Q84.0119 4.6094 84.7853 4.8125 Q85.5587 5.0156 86.3087 5.0156 Q87.3244 5.0156 87.8712 4.6719 Q88.4181 4.3281 88.4181 3.6875 Q88.4181 3.1094 88.0275 2.7969 Q87.6369 2.4844 86.2931 2.1875 L85.7931 2.0781 Q84.465 1.7969 83.8712 1.2109 Q83.2775 0.625 83.2775 -0.3906 Q83.2775 -1.625 84.1525 -2.2969 Q85.0275 -2.9688 86.6369 -2.9688 Q87.4337 -2.9688 88.1369 -2.8516 Q88.84 -2.7344 89.4337 -2.5 ZM93.8414 -5.2344 L93.8414 -2.75 L96.7945 -2.75 L96.7945 -1.6406 L93.8414 -1.6406 L93.8414 3.1094 Q93.8414 4.1875 94.1304 4.4922 Q94.4195 4.7969 95.3257 4.7969 L96.7945 4.7969 L96.7945 6 L95.3257 6 Q93.6539 6 93.0211 5.375 Q92.3882 4.75 92.3882 3.1094 L92.3882 -1.6406 L91.3414 -1.6406 L91.3414 -2.75 L92.3882 -2.75 L92.3882 -5.2344 L93.8414 -5.2344 ZM106.3488 1.2656 L106.3488 1.9688 L99.7395 1.9688 Q99.8332 3.4531 100.6301 4.2266 Q101.427 5 102.8645 5 Q103.6926 5 104.466 4.7969 Q105.2395 4.5938 106.0051 4.1875 L106.0051 5.5469 Q105.2395 5.875 104.427 6.0547 Q103.6145 6.2344 102.7707 6.2344 Q100.677 6.2344 99.4582 5.0078 Q98.2395 3.7812 98.2395 1.7031 Q98.2395 -0.4375 99.3957 -1.7031 Q100.552 -2.9688 102.5207 -2.9688 Q104.2863 -2.9688 105.3176 -1.8281 Q106.3488 -0.6875 106.3488 1.2656 ZM104.9113 0.8438 Q104.8957 -0.3438 104.2473 -1.0469 Q103.5988 -1.75 102.5363 -1.75 Q101.3332 -1.75 100.6145 -1.0703 Q99.8957 -0.3906 99.7863 0.8438 L104.9113 0.8438 ZM116.4618 1.2656 L116.4618 1.9688 L109.8524 1.9688 Q109.9461 3.4531 110.743 4.2266 Q111.5399 5 112.9774 5 Q113.8055 5 114.5789 4.7969 Q115.3524 4.5938 116.118 4.1875 L116.118 5.5469 Q115.3524 5.875 114.5399 6.0547 Q113.7274 6.2344 112.8836 6.2344 Q110.7899 6.2344 109.5711 5.0078 Q108.3524 3.7812 108.3524 1.7031 Q108.3524 -0.4375 109.5086 -1.7031 Q110.6649 -2.9688 112.6336 -2.9688 Q114.3993 -2.9688 115.4305 -1.8281 Q116.4618 -0.6875 116.4618 1.2656 ZM115.0243 0.8438 Q115.0086 -0.3438 114.3602 -1.0469 Q113.7118 -1.75 112.6493 -1.75 Q111.4461 -1.75 110.7274 -1.0703 Q110.0086 -0.3906 109.8993 0.8438 L115.0243 0.8438 ZM124.1528 -1.4062 Q123.9184 -1.5469 123.6294 -1.6172 Q123.3403 -1.6875 122.9966 -1.6875 Q121.7778 -1.6875 121.1294 -0.8906 Q120.4809 -0.0938 120.4809 1.3906 L120.4809 6 L119.0278 6 L119.0278 -2.75 L120.4809 -2.75 L120.4809 -1.3906 Q120.9341 -2.1875 121.6606 -2.5781 Q122.3872 -2.9688 123.4184 -2.9688 Q123.5747 -2.9688 123.7544 -2.9453 Q123.9341 -2.9219 124.1528 -2.8906 L124.1528 -1.4062 ZM125.8483 -2.75 L127.2858 -2.75 L127.2858 6 L125.8483 6 L125.8483 -2.75 ZM125.8483 -6.1562 L127.2858 -6.1562 L127.2858 -4.3438 L125.8483 -4.3438 L125.8483 -6.1562 ZM137.6808 0.7188 L137.6808 6 L136.2433 6 L136.2433 0.7656 Q136.2433 -0.4844 135.7589 -1.1016 Q135.2745 -1.7188 134.3058 -1.7188 Q133.1495 -1.7188 132.4777 -0.9766 Q131.8058 -0.2344 131.8058 1.0469 L131.8058 6 L130.3527 6 L130.3527 -2.75 L131.8058 -2.75 L131.8058 -1.3906 Q132.3214 -2.1875 133.0167 -2.5781 Q133.712 -2.9688 134.6339 -2.9688 Q136.1339 -2.9688 136.9073 -2.0312 Q137.6808 -1.0938 137.6808 0.7188 ZM146.5831 1.5156 Q146.5831 -0.0469 145.9424 -0.9062 Q145.3018 -1.7656 144.1299 -1.7656 Q142.9737 -1.7656 142.3331 -0.9062 Q141.6924 -0.0469 141.6924 1.5156 Q141.6924 3.0781 142.3331 3.9375 Q142.9737 4.7969 144.1299 4.7969 Q145.3018 4.7969 145.9424 3.9375 Q146.5831 3.0781 146.5831 1.5156 ZM148.0206 4.9062 Q148.0206 7.1562 147.0284 8.2422 Q146.0362 9.3281 143.9893 9.3281 Q143.2393 9.3281 142.5674 9.2188 Q141.8956 9.1094 141.2549 8.875 L141.2549 7.4688 Q141.8956 7.8125 142.5128 7.9766 Q143.1299 8.1406 143.7706 8.1406 Q145.1768 8.1406 145.8799 7.4062 Q146.5831 6.6719 146.5831 5.1719 L146.5831 4.4531 Q146.1456 5.2344 145.4503 5.6172 Q144.7549 6 143.7862 6 Q142.1768 6 141.1924 4.7734 Q140.2081 3.5469 140.2081 1.5156 Q140.2081 -0.5156 141.1924 -1.7422 Q142.1768 -2.9688 143.7862 -2.9688 Q144.7549 -2.9688 145.4503 -2.5859 Q146.1456 -2.2031 146.5831 -1.4219 L146.5831 -2.75 L148.0206 -2.75 L148.0206 4.9062 Z"></path></g><g style="stroke-linecap:butt; fill:rgb(0,114,189); text-rendering:geometricPrecision; image-rendering:optimizeQuality; color-rendering:optimizeQuality; stroke-linejoin:round; stroke:rgb(0,114,189); color-interpolation:linearRGB; stroke-width:3.2639;"><line y2="306.1212" style="fill:none;" x1="283.016" x2="322.3395" y1="306.1212"></line></g><g transform="translate(325,338)" style="font-size:16.45px; text-rendering:geometricPrecision; color-rendering:optimizeQuality; image-rendering:optimizeQuality; font-family:'SansSerif'; color-interpolation:linearRGB;"><path style="stroke:none;" d="M1.9844 -1.3281 L4.5625 -1.3281 L4.5625 -10.2344 L1.7656 -9.6719 L1.7656 -11.1094 L4.5469 -11.6719 L6.125 -11.6719 L6.125 -1.3281 L8.7031 -1.3281 L8.7031 0 L1.9844 0 L1.9844 -1.3281 ZM17.1362 -12.1562 L18.5893 -12.1562 L18.5893 -4.9844 L22.8705 -8.75 L24.7143 -8.75 L20.0737 -4.6562 L24.9018 0 L23.0268 0 L18.5893 -4.2812 L18.5893 0 L17.1362 0 L17.1362 -12.1562 ZM26.7802 -11.6719 L28.3583 -11.6719 L28.3583 -6.8906 L34.0927 -6.8906 L34.0927 -11.6719 L35.6708 -11.6719 L35.6708 0 L34.0927 0 L34.0927 -5.5625 L28.3583 -5.5625 L28.3583 0 L26.7802 0 L26.7802 -11.6719 ZM38.4529 -8.75 L45.281 -8.75 L45.281 -7.4375 L39.8748 -1.1562 L45.281 -1.1562 L45.281 0 L38.2498 0 L38.2498 -1.3125 L43.656 -7.6094 L38.4529 -7.6094 L38.4529 -8.75 ZM48.0653 -1.9844 L49.7216 -1.9844 L49.7216 -0.6406 L48.4403 1.8594 L47.4247 1.8594 L48.0653 -0.6406 L48.0653 -1.9844 ZM62.6872 -10.2969 L58.7029 -4.0625 L62.6872 -4.0625 L62.6872 -10.2969 ZM62.281 -11.6719 L64.2654 -11.6719 L64.2654 -4.0625 L65.9216 -4.0625 L65.9216 -2.75 L64.2654 -2.75 L64.2654 0 L62.6872 0 L62.6872 -2.75 L57.4216 -2.75 L57.4216 -4.2812 L62.281 -11.6719 ZM68.8328 -11.6719 L75.0203 -11.6719 L75.0203 -10.3438 L70.2703 -10.3438 L70.2703 -7.4844 Q70.614 -7.5938 70.9578 -7.6562 Q71.3015 -7.7188 71.6453 -7.7188 Q73.5984 -7.7188 74.739 -6.6484 Q75.8796 -5.5781 75.8796 -3.75 Q75.8796 -1.8594 74.7078 -0.8125 Q73.5359 0.2344 71.4109 0.2344 Q70.6765 0.2344 69.9109 0.1016 Q69.1453 -0.0312 68.3328 -0.2812 L68.3328 -1.8594 Q69.0359 -1.4844 69.7859 -1.2969 Q70.5359 -1.1094 71.3796 -1.1094 Q72.7234 -1.1094 73.5125 -1.8203 Q74.3015 -2.5312 74.3015 -3.75 Q74.3015 -4.9688 73.5125 -5.6797 Q72.7234 -6.3906 71.3796 -6.3906 Q70.739 -6.3906 70.114 -6.25 Q69.489 -6.1094 68.8328 -5.8125 L68.8328 -11.6719 Z"></path></g><g transform="translate(403,330)" style="font-size:13.16px; text-rendering:geometricPrecision; color-rendering:optimizeQuality; image-rendering:optimizeQuality; font-family:serif; color-interpolation:linearRGB;"><path style="stroke:none;" d="M3.25 -8.7656 Q2.7656 -8.7656 2.4375 -8.4375 Q2.1094 -8.1094 2.1094 -7.625 Q2.1094 -7.1406 2.4375 -6.8125 Q2.7656 -6.4844 3.25 -6.4844 Q3.7344 -6.4844 4.0625 -6.8125 Q4.3906 -7.1406 4.3906 -7.625 Q4.3906 -8.0938 4.0547 -8.4297 Q3.7188 -8.7656 3.25 -8.7656 ZM3.25 -9.6562 Q3.6562 -9.6562 4.0312 -9.5 Q4.4062 -9.3438 4.6719 -9.0469 Q4.9688 -8.7656 5.1172 -8.3984 Q5.2656 -8.0312 5.2656 -7.625 Q5.2656 -6.7812 4.6797 -6.2031 Q4.0938 -5.625 3.2344 -5.625 Q2.375 -5.625 1.8047 -6.1953 Q1.2344 -6.7656 1.2344 -7.625 Q1.2344 -8.4688 1.8203 -9.0625 Q2.4062 -9.6562 3.25 -9.6562 Z"></path></g><g transform="translate(410,338)" style="font-size:16.45px; text-rendering:geometricPrecision; color-rendering:optimizeQuality; image-rendering:optimizeQuality; font-family:'SansSerif'; color-interpolation:linearRGB;"><path style="stroke:none;" d="M12.3188 -8.5 L12.3188 -7.1406 Q11.7094 -7.4531 11.0531 -7.6094 Q10.3969 -7.7656 9.6938 -7.7656 Q8.6156 -7.7656 8.0844 -7.4375 Q7.5531 -7.1094 7.5531 -6.4531 Q7.5531 -5.9531 7.9359 -5.6641 Q8.3188 -5.375 9.475 -5.125 L9.9594 -5.0156 Q11.4906 -4.6875 12.1391 -4.0859 Q12.7875 -3.4844 12.7875 -2.4219 Q12.7875 -1.2031 11.8188 -0.4844 Q10.85 0.2344 9.1625 0.2344 Q8.4594 0.2344 7.7016 0.0938 Q6.9438 -0.0469 6.1 -0.3281 L6.1 -1.8125 Q6.8969 -1.3906 7.6703 -1.1875 Q8.4438 -0.9844 9.1938 -0.9844 Q10.2094 -0.9844 10.7563 -1.3281 Q11.3031 -1.6719 11.3031 -2.3125 Q11.3031 -2.8906 10.9125 -3.2031 Q10.5219 -3.5156 9.1781 -3.8125 L8.6781 -3.9219 Q7.35 -4.2031 6.7563 -4.7891 Q6.1625 -5.375 6.1625 -6.3906 Q6.1625 -7.625 7.0375 -8.2969 Q7.9125 -8.9688 9.5219 -8.9688 Q10.3188 -8.9688 11.0219 -8.8516 Q11.725 -8.7344 12.3188 -8.5 ZM16.7264 -11.2344 L16.7264 -8.75 L19.6795 -8.75 L19.6795 -7.6406 L16.7264 -7.6406 L16.7264 -2.8906 Q16.7264 -1.8125 17.0154 -1.5078 Q17.3045 -1.2031 18.2108 -1.2031 L19.6795 -1.2031 L19.6795 0 L18.2108 0 Q16.5389 0 15.9061 -0.625 Q15.2733 -1.25 15.2733 -2.8906 L15.2733 -7.6406 L14.2264 -7.6406 L14.2264 -8.75 L15.2733 -8.75 L15.2733 -11.2344 L16.7264 -11.2344 ZM29.2339 -4.7344 L29.2339 -4.0312 L22.6245 -4.0312 Q22.7182 -2.5469 23.5151 -1.7734 Q24.312 -1 25.7495 -1 Q26.5776 -1 27.351 -1.2031 Q28.1245 -1.4062 28.8901 -1.8125 L28.8901 -0.4531 Q28.1245 -0.125 27.312 0.0547 Q26.4995 0.2344 25.6557 0.2344 Q23.562 0.2344 22.3432 -0.9922 Q21.1245 -2.2188 21.1245 -4.2969 Q21.1245 -6.4375 22.2807 -7.7031 Q23.437 -8.9688 25.4057 -8.9688 Q27.1714 -8.9688 28.2026 -7.8281 Q29.2339 -6.6875 29.2339 -4.7344 ZM27.7964 -5.1562 Q27.7807 -6.3438 27.1323 -7.0469 Q26.4839 -7.75 25.4214 -7.75 Q24.2182 -7.75 23.4995 -7.0703 Q22.7807 -6.3906 22.6714 -5.1562 L27.7964 -5.1562 ZM39.3468 -4.7344 L39.3468 -4.0312 L32.7374 -4.0312 Q32.8311 -2.5469 33.628 -1.7734 Q34.4249 -1 35.8624 -1 Q36.6905 -1 37.464 -1.2031 Q38.2374 -1.4062 39.003 -1.8125 L39.003 -0.4531 Q38.2374 -0.125 37.4249 0.0547 Q36.6124 0.2344 35.7686 0.2344 Q33.6749 0.2344 32.4561 -0.9922 Q31.2374 -2.2188 31.2374 -4.2969 Q31.2374 -6.4375 32.3936 -7.7031 Q33.5499 -8.9688 35.5186 -8.9688 Q37.2843 -8.9688 38.3155 -7.8281 Q39.3468 -6.6875 39.3468 -4.7344 ZM37.9093 -5.1562 Q37.8936 -6.3438 37.2452 -7.0469 Q36.5968 -7.75 35.5343 -7.75 Q34.3311 -7.75 33.6124 -7.0703 Q32.8936 -6.3906 32.7843 -5.1562 L37.9093 -5.1562 ZM47.0378 -7.4062 Q46.8034 -7.5469 46.5144 -7.6172 Q46.2253 -7.6875 45.8816 -7.6875 Q44.6628 -7.6875 44.0144 -6.8906 Q43.3659 -6.0938 43.3659 -4.6094 L43.3659 0 L41.9128 0 L41.9128 -8.75 L43.3659 -8.75 L43.3659 -7.3906 Q43.8191 -8.1875 44.5456 -8.5781 Q45.2722 -8.9688 46.3034 -8.9688 Q46.4597 -8.9688 46.6394 -8.9453 Q46.8191 -8.9219 47.0378 -8.8906 L47.0378 -7.4062 ZM48.7333 -8.75 L50.1708 -8.75 L50.1708 0 L48.7333 0 L48.7333 -8.75 ZM48.7333 -12.1562 L50.1708 -12.1562 L50.1708 -10.3438 L48.7333 -10.3438 L48.7333 -12.1562 ZM60.5658 -5.2812 L60.5658 0 L59.1283 0 L59.1283 -5.2344 Q59.1283 -6.4844 58.6439 -7.1016 Q58.1595 -7.7188 57.1908 -7.7188 Q56.0345 -7.7188 55.3627 -6.9766 Q54.6908 -6.2344 54.6908 -4.9531 L54.6908 0 L53.2377 0 L53.2377 -8.75 L54.6908 -8.75 L54.6908 -7.3906 Q55.2064 -8.1875 55.9017 -8.5781 Q56.597 -8.9688 57.5189 -8.9688 Q59.0189 -8.9688 59.7924 -8.0312 Q60.5658 -7.0938 60.5658 -5.2812 ZM69.4681 -4.4844 Q69.4681 -6.0469 68.8275 -6.9062 Q68.1868 -7.7656 67.015 -7.7656 Q65.8587 -7.7656 65.2181 -6.9062 Q64.5775 -6.0469 64.5775 -4.4844 Q64.5775 -2.9219 65.2181 -2.0625 Q65.8587 -1.2031 67.015 -1.2031 Q68.1868 -1.2031 68.8275 -2.0625 Q69.4681 -2.9219 69.4681 -4.4844 ZM70.9056 -1.0938 Q70.9056 1.1562 69.9134 2.2422 Q68.9212 3.3281 66.8743 3.3281 Q66.1243 3.3281 65.4525 3.2188 Q64.7806 3.1094 64.14 2.875 L64.14 1.4688 Q64.7806 1.8125 65.3978 1.9766 Q66.015 2.1406 66.6556 2.1406 Q68.0618 2.1406 68.765 1.4062 Q69.4681 0.6719 69.4681 -0.8281 L69.4681 -1.5469 Q69.0306 -0.7656 68.3353 -0.3828 Q67.64 0 66.6712 0 Q65.0618 0 64.0775 -1.2266 Q63.0931 -2.4531 63.0931 -4.4844 Q63.0931 -6.5156 64.0775 -7.7422 Q65.0618 -8.9688 66.6712 -8.9688 Q67.64 -8.9688 68.3353 -8.5859 Q69.0306 -8.2031 69.4681 -7.4219 L69.4681 -8.75 L70.9056 -8.75 L70.9056 -1.0938 Z"></path></g><g style="stroke-linecap:butt; fill:rgb(217,83,25); text-rendering:geometricPrecision; image-rendering:optimizeQuality; color-rendering:optimizeQuality; stroke-linejoin:bevel; stroke-dasharray:12,3,6,3; stroke:rgb(217,83,25); color-interpolation:linearRGB; stroke-width:3.2639; stroke-miterlimit:1;"><line y2="329.3535" style="fill:none;" x1="283.016" x2="322.3395" y1="329.3535"></line></g><g style="stroke-linecap:butt; fill:rgb(38,38,38); text-rendering:geometricPrecision; color-rendering:optimizeQuality; image-rendering:optimizeQuality; stroke:rgb(38,38,38); color-interpolation:linearRGB; stroke-width:0.6528;"><path d="M279 344 L279 294 L488 294 L488 344 Z" style="fill:none; fill-rule:evenodd;"></path></g></g></svg> 