<?xml version="1.0"?>
 <svg xmlns:xlink="http://www.w3.org/1999/xlink" style="fill-opacity:1; color-rendering:auto; color-interpolation:auto; text-rendering:auto; stroke:black; stroke-linecap:square; stroke-miterlimit:10; shape-rendering:auto; stroke-opacity:1; fill:black; stroke-dasharray:none; font-weight:normal; stroke-width:1; font-family:'Dialog'; font-style:normal; stroke-linejoin:miter; font-size:12px; stroke-dashoffset:0; image-rendering:auto;" width="550" height="408" xmlns="http://www.w3.org/2000/svg" viewBox="0 0 550 408"><defs id="genericDefs"></defs><g><defs id="defs1"><clipPath clipPathUnits="userSpaceOnUse" id="clipPath1"><path d="M0 0 L550 0 L550 408 L0 408 L0 0 Z"></path></clipPath></defs><g style="fill:white; stroke:white;"><rect x="0" y="0" width="550" style="clip-path:url(#clipPath1); stroke:none;" height="408"></rect></g><g style="fill:white; text-rendering:optimizeSpeed; color-rendering:optimizeSpeed; image-rendering:optimizeSpeed; shape-rendering:crispEdges; stroke:white; color-interpolation:sRGB;"><rect x="0" width="550" height="408" y="0" style="stroke:none;"></rect><path style="stroke:none;" d="M72 355 L498 355 L498 31 L72 31 Z"></path></g><g style="stroke-linecap:butt; fill-opacity:0.149; fill:rgb(38,38,38); text-rendering:geometricPrecision; image-rendering:optimizeQuality; color-rendering:optimizeQuality; stroke-linejoin:round; stroke:rgb(38,38,38); color-interpolation:linearRGB; stroke-width:0.6528; stroke-opacity:0.149;"><line y2="31" style="fill:none;" x1="72" x2="72" y1="355"></line><line y2="31" style="fill:none;" x1="143" x2="143" y1="355"></line><line y2="31" style="fill:none;" x1="214" x2="214" y1="355"></line><line y2="31" style="fill:none;" x1="285" x2="285" y1="355"></line><line y2="31" style="fill:none;" x1="356" x2="356" y1="355"></line><line y2="31" style="fill:none;" x1="427" x2="427" y1="355"></line><line y2="31" style="fill:none;" x1="498" x2="498" y1="355"></line><line y2="355" style="fill:none;" x1="498" x2="72" y1="355"></line><line y2="308.7143" style="fill:none;" x1="498" x2="72" y1="308.7143"></line><line y2="262.4286" style="fill:none;" x1="498" x2="72" y1="262.4286"></line><line y2="216.1429" style="fill:none;" x1="498" x2="72" y1="216.1429"></line><line y2="169.8571" style="fill:none;" x1="498" x2="72" y1="169.8571"></line><line y2="123.5714" style="fill:none;" x1="498" x2="72" y1="123.5714"></line><line y2="77.2857" style="fill:none;" x1="498" x2="72" y1="77.2857"></line><line y2="31" style="fill:none;" x1="498" x2="72" y1="31"></line><line x1="72" x2="498" y1="355" style="stroke-linecap:square; fill-opacity:1; fill:none; stroke-opacity:1;" y2="355"></line><line x1="72" x2="498" y1="31" style="stroke-linecap:square; fill-opacity:1; fill:none; stroke-opacity:1;" y2="31"></line><line x1="72" x2="72" y1="355" style="stroke-linecap:square; fill-opacity:1; fill:none; stroke-opacity:1;" y2="350.74"></line><line x1="143" x2="143" y1="355" style="stroke-linecap:square; fill-opacity:1; fill:none; stroke-opacity:1;" y2="350.74"></line><line x1="214" x2="214" y1="355" style="stroke-linecap:square; fill-opacity:1; fill:none; stroke-opacity:1;" y2="350.74"></line><line x1="285" x2="285" y1="355" style="stroke-linecap:square; fill-opacity:1; fill:none; stroke-opacity:1;" y2="350.74"></line><line x1="356" x2="356" y1="355" style="stroke-linecap:square; fill-opacity:1; fill:none; stroke-opacity:1;" y2="350.74"></line><line x1="427" x2="427" y1="355" style="stroke-linecap:square; fill-opacity:1; fill:none; stroke-opacity:1;" y2="350.74"></line><line x1="498" x2="498" y1="355" style="stroke-linecap:square; fill-opacity:1; fill:none; stroke-opacity:1;" y2="350.74"></line><line x1="72" x2="72" y1="31" style="stroke-linecap:square; fill-opacity:1; fill:none; stroke-opacity:1;" y2="35.26"></line><line x1="143" x2="143" y1="31" style="stroke-linecap:square; fill-opacity:1; fill:none; stroke-opacity:1;" y2="35.26"></line><line x1="214" x2="214" y1="31" style="stroke-linecap:square; fill-opacity:1; fill:none; stroke-opacity:1;" y2="35.26"></line><line x1="285" x2="285" y1="31" style="stroke-linecap:square; fill-opacity:1; fill:none; stroke-opacity:1;" y2="35.26"></line><line x1="356" x2="356" y1="31" style="stroke-linecap:square; fill-opacity:1; fill:none; stroke-opacity:1;" y2="35.26"></line><line x1="427" x2="427" y1="31" style="stroke-linecap:square; fill-opacity:1; fill:none; stroke-opacity:1;" y2="35.26"></line><line x1="498" x2="498" y1="31" style="stroke-linecap:square; fill-opacity:1; fill:none; stroke-opacity:1;" y2="35.26"></line></g><g transform="translate(72,361.2667)" style="font-size:18.2778px; fill:rgb(38,38,38); text-rendering:geometricPrecision; image-rendering:optimizeQuality; color-rendering:optimizeQuality; font-family:'SansSerif'; stroke:rgb(38,38,38); color-interpolation:linearRGB;"><path style="stroke:none;" d="M-14.125 11.3438 L-9.3906 11.3438 L-9.3906 12.7969 L-14.125 12.7969 L-14.125 11.3438 ZM-6.4303 16.7344 L-6.4303 15.1094 Q-5.774 15.4219 -5.0865 15.5938 Q-4.399 15.7656 -3.7428 15.7656 Q-1.9772 15.7656 -1.0553 14.5781 Q-0.1334 13.3906 0.0072 10.9844 Q-0.5084 11.75 -1.2897 12.1484 Q-2.0709 12.5469 -3.024 12.5469 Q-4.9928 12.5469 -6.1334 11.3594 Q-7.274 10.1719 -7.274 8.1094 Q-7.274 6.0781 -6.0787 4.8594 Q-4.8834 3.6406 -2.899 3.6406 Q-0.6334 3.6406 0.5697 5.3828 Q1.7728 7.125 1.7728 10.4531 Q1.7728 13.5469 0.3041 15.3984 Q-1.1647 17.25 -3.6647 17.25 Q-4.3209 17.25 -5.0084 17.1172 Q-5.6959 16.9844 -6.4303 16.7344 ZM-2.899 11.1562 Q-1.7115 11.1562 -1.0084 10.3438 Q-0.3053 9.5312 -0.3053 8.1094 Q-0.3053 6.6875 -1.0084 5.8672 Q-1.7115 5.0469 -2.899 5.0469 Q-4.1022 5.0469 -4.7975 5.8672 Q-5.4928 6.6875 -5.4928 8.1094 Q-5.4928 9.5312 -4.7975 10.3438 Q-4.1022 11.1562 -2.899 11.1562 ZM8.9153 5.0469 Q7.5403 5.0469 6.8528 6.3984 Q6.1653 7.75 6.1653 10.4531 Q6.1653 13.1562 6.8528 14.5 Q7.5403 15.8438 8.9153 15.8438 Q10.3059 15.8438 10.9934 14.5 Q11.6809 13.1562 11.6809 10.4531 Q11.6809 7.75 10.9934 6.3984 Q10.3059 5.0469 8.9153 5.0469 ZM8.9153 3.6406 Q11.1184 3.6406 12.2825 5.3828 Q13.4465 7.125 13.4465 10.4531 Q13.4465 13.7656 12.2825 15.5078 Q11.1184 17.25 8.9153 17.25 Q6.7122 17.25 5.5481 15.5078 Q4.384 13.7656 4.384 10.4531 Q4.384 7.125 5.5481 5.3828 Q6.7122 3.6406 8.9153 3.6406 Z"></path></g><g transform="translate(143,361.2667)" style="font-size:18.2778px; fill:rgb(38,38,38); text-rendering:geometricPrecision; image-rendering:optimizeQuality; color-rendering:optimizeQuality; font-family:'SansSerif'; stroke:rgb(38,38,38); color-interpolation:linearRGB;"><path style="stroke:none;" d="M-14.125 11.3438 L-9.3906 11.3438 L-9.3906 12.7969 L-14.125 12.7969 L-14.125 11.3438 ZM-2.4772 9.7344 Q-3.6647 9.7344 -4.3678 10.5469 Q-5.0709 11.3594 -5.0709 12.7969 Q-5.0709 14.2031 -4.3678 15.0234 Q-3.6647 15.8438 -2.4772 15.8438 Q-1.274 15.8438 -0.5787 15.0234 Q0.1166 14.2031 0.1166 12.7969 Q0.1166 11.3594 -0.5787 10.5469 Q-1.274 9.7344 -2.4772 9.7344 ZM1.0541 4.1719 L1.0541 5.7812 Q0.3822 5.4688 -0.2975 5.3047 Q-0.9772 5.1406 -1.649 5.1406 Q-3.399 5.1406 -4.3287 6.3203 Q-5.2584 7.5 -5.3834 9.9062 Q-4.8678 9.1406 -4.0865 8.7344 Q-3.3053 8.3281 -2.3678 8.3281 Q-0.3834 8.3281 0.7572 9.5234 Q1.8978 10.7188 1.8978 12.7969 Q1.8978 14.8125 0.7025 16.0312 Q-0.4928 17.25 -2.4772 17.25 Q-4.7428 17.25 -5.9537 15.5078 Q-7.1647 13.7656 -7.1647 10.4531 Q-7.1647 7.3438 -5.6881 5.4922 Q-4.2115 3.6406 -1.7115 3.6406 Q-1.0553 3.6406 -0.3678 3.7734 Q0.3197 3.9062 1.0541 4.1719 ZM8.9153 5.0469 Q7.5403 5.0469 6.8528 6.3984 Q6.1653 7.75 6.1653 10.4531 Q6.1653 13.1562 6.8528 14.5 Q7.5403 15.8438 8.9153 15.8438 Q10.3059 15.8438 10.9934 14.5 Q11.6809 13.1562 11.6809 10.4531 Q11.6809 7.75 10.9934 6.3984 Q10.3059 5.0469 8.9153 5.0469 ZM8.9153 3.6406 Q11.1184 3.6406 12.2825 5.3828 Q13.4465 7.125 13.4465 10.4531 Q13.4465 13.7656 12.2825 15.5078 Q11.1184 17.25 8.9153 17.25 Q6.7122 17.25 5.5481 15.5078 Q4.384 13.7656 4.384 10.4531 Q4.384 7.125 5.5481 5.3828 Q6.7122 3.6406 8.9153 3.6406 Z"></path></g><g transform="translate(214,361.2667)" style="font-size:18.2778px; fill:rgb(38,38,38); text-rendering:geometricPrecision; image-rendering:optimizeQuality; color-rendering:optimizeQuality; font-family:'SansSerif'; stroke:rgb(38,38,38); color-interpolation:linearRGB;"><path style="stroke:none;" d="M-14.125 11.3438 L-9.3906 11.3438 L-9.3906 12.7969 L-14.125 12.7969 L-14.125 11.3438 ZM-1.1178 9.9219 Q0.1635 10.2031 0.8822 11.0625 Q1.601 11.9219 1.601 13.1875 Q1.601 15.125 0.265 16.1875 Q-1.0709 17.25 -3.5397 17.25 Q-4.3678 17.25 -5.2428 17.0859 Q-6.1178 16.9219 -7.0397 16.6094 L-7.0397 14.8906 Q-6.3053 15.3281 -5.4225 15.5469 Q-4.5397 15.7656 -3.5865 15.7656 Q-1.9147 15.7656 -1.0397 15.1016 Q-0.1647 14.4375 -0.1647 13.1875 Q-0.1647 12.0312 -0.9772 11.375 Q-1.7897 10.7188 -3.2428 10.7188 L-4.774 10.7188 L-4.774 9.25 L-3.1803 9.25 Q-1.8678 9.25 -1.1725 8.7266 Q-0.4772 8.2031 -0.4772 7.2188 Q-0.4772 6.2188 -1.1959 5.6797 Q-1.9147 5.1406 -3.2428 5.1406 Q-3.9772 5.1406 -4.8131 5.2969 Q-5.649 5.4531 -6.649 5.7812 L-6.649 4.2031 Q-5.6334 3.9219 -4.7506 3.7812 Q-3.8678 3.6406 -3.0865 3.6406 Q-1.0709 3.6406 0.1088 4.5625 Q1.2885 5.4844 1.2885 7.0469 Q1.2885 8.125 0.6635 8.8828 Q0.0385 9.6406 -1.1178 9.9219 ZM8.9153 5.0469 Q7.5403 5.0469 6.8528 6.3984 Q6.1653 7.75 6.1653 10.4531 Q6.1653 13.1562 6.8528 14.5 Q7.5403 15.8438 8.9153 15.8438 Q10.3059 15.8438 10.9934 14.5 Q11.6809 13.1562 11.6809 10.4531 Q11.6809 7.75 10.9934 6.3984 Q10.3059 5.0469 8.9153 5.0469 ZM8.9153 3.6406 Q11.1184 3.6406 12.2825 5.3828 Q13.4465 7.125 13.4465 10.4531 Q13.4465 13.7656 12.2825 15.5078 Q11.1184 17.25 8.9153 17.25 Q6.7122 17.25 5.5481 15.5078 Q4.384 13.7656 4.384 10.4531 Q4.384 7.125 5.5481 5.3828 Q6.7122 3.6406 8.9153 3.6406 Z"></path></g><g transform="translate(285,361.2667)" style="font-size:18.2778px; fill:rgb(38,38,38); text-rendering:geometricPrecision; image-rendering:optimizeQuality; color-rendering:optimizeQuality; font-family:'SansSerif'; stroke:rgb(38,38,38); color-interpolation:linearRGB;"><path style="stroke:none;" d="M-0.2812 5.0469 Q-1.6562 5.0469 -2.3438 6.3984 Q-3.0312 7.75 -3.0312 10.4531 Q-3.0312 13.1562 -2.3438 14.5 Q-1.6562 15.8438 -0.2812 15.8438 Q1.1094 15.8438 1.7969 14.5 Q2.4844 13.1562 2.4844 10.4531 Q2.4844 7.75 1.7969 6.3984 Q1.1094 5.0469 -0.2812 5.0469 ZM-0.2812 3.6406 Q1.9219 3.6406 3.0859 5.3828 Q4.25 7.125 4.25 10.4531 Q4.25 13.7656 3.0859 15.5078 Q1.9219 17.25 -0.2812 17.25 Q-2.4844 17.25 -3.6484 15.5078 Q-4.8125 13.7656 -4.8125 10.4531 Q-4.8125 7.125 -3.6484 5.3828 Q-2.4844 3.6406 -0.2812 3.6406 Z"></path></g><g transform="translate(356,361.2667)" style="font-size:18.2778px; fill:rgb(38,38,38); text-rendering:geometricPrecision; image-rendering:optimizeQuality; color-rendering:optimizeQuality; font-family:'SansSerif'; stroke:rgb(38,38,38); color-interpolation:linearRGB;"><path style="stroke:none;" d="M-4.7031 9.9219 Q-3.4219 10.2031 -2.7031 11.0625 Q-1.9844 11.9219 -1.9844 13.1875 Q-1.9844 15.125 -3.3203 16.1875 Q-4.6562 17.25 -7.125 17.25 Q-7.9531 17.25 -8.8281 17.0859 Q-9.7031 16.9219 -10.625 16.6094 L-10.625 14.8906 Q-9.8906 15.3281 -9.0078 15.5469 Q-8.125 15.7656 -7.1719 15.7656 Q-5.5 15.7656 -4.625 15.1016 Q-3.75 14.4375 -3.75 13.1875 Q-3.75 12.0312 -4.5625 11.375 Q-5.375 10.7188 -6.8281 10.7188 L-8.3594 10.7188 L-8.3594 9.25 L-6.7656 9.25 Q-5.4531 9.25 -4.7578 8.7266 Q-4.0625 8.2031 -4.0625 7.2188 Q-4.0625 6.2188 -4.7812 5.6797 Q-5.5 5.1406 -6.8281 5.1406 Q-7.5625 5.1406 -8.3984 5.2969 Q-9.2344 5.4531 -10.2344 5.7812 L-10.2344 4.2031 Q-9.2188 3.9219 -8.3359 3.7812 Q-7.4531 3.6406 -6.6719 3.6406 Q-4.6562 3.6406 -3.4766 4.5625 Q-2.2969 5.4844 -2.2969 7.0469 Q-2.2969 8.125 -2.9219 8.8828 Q-3.5469 9.6406 -4.7031 9.9219 ZM5.33 5.0469 Q3.955 5.0469 3.2675 6.3984 Q2.58 7.75 2.58 10.4531 Q2.58 13.1562 3.2675 14.5 Q3.955 15.8438 5.33 15.8438 Q6.7206 15.8438 7.4081 14.5 Q8.0956 13.1562 8.0956 10.4531 Q8.0956 7.75 7.4081 6.3984 Q6.7206 5.0469 5.33 5.0469 ZM5.33 3.6406 Q7.5331 3.6406 8.6971 5.3828 Q9.8612 7.125 9.8612 10.4531 Q9.8612 13.7656 8.6971 15.5078 Q7.5331 17.25 5.33 17.25 Q3.1268 17.25 1.9628 15.5078 Q0.7987 13.7656 0.7987 10.4531 Q0.7987 7.125 1.9628 5.3828 Q3.1268 3.6406 5.33 3.6406 Z"></path></g><g transform="translate(427,361.2667)" style="font-size:18.2778px; fill:rgb(38,38,38); text-rendering:geometricPrecision; image-rendering:optimizeQuality; color-rendering:optimizeQuality; font-family:'SansSerif'; stroke:rgb(38,38,38); color-interpolation:linearRGB;"><path style="stroke:none;" d="M-6.0625 9.7344 Q-7.25 9.7344 -7.9531 10.5469 Q-8.6562 11.3594 -8.6562 12.7969 Q-8.6562 14.2031 -7.9531 15.0234 Q-7.25 15.8438 -6.0625 15.8438 Q-4.8594 15.8438 -4.1641 15.0234 Q-3.4688 14.2031 -3.4688 12.7969 Q-3.4688 11.3594 -4.1641 10.5469 Q-4.8594 9.7344 -6.0625 9.7344 ZM-2.5312 4.1719 L-2.5312 5.7812 Q-3.2031 5.4688 -3.8828 5.3047 Q-4.5625 5.1406 -5.2344 5.1406 Q-6.9844 5.1406 -7.9141 6.3203 Q-8.8438 7.5 -8.9688 9.9062 Q-8.4531 9.1406 -7.6719 8.7344 Q-6.8906 8.3281 -5.9531 8.3281 Q-3.9688 8.3281 -2.8281 9.5234 Q-1.6875 10.7188 -1.6875 12.7969 Q-1.6875 14.8125 -2.8828 16.0312 Q-4.0781 17.25 -6.0625 17.25 Q-8.3281 17.25 -9.5391 15.5078 Q-10.75 13.7656 -10.75 10.4531 Q-10.75 7.3438 -9.2734 5.4922 Q-7.7969 3.6406 -5.2969 3.6406 Q-4.6406 3.6406 -3.9531 3.7734 Q-3.2656 3.9062 -2.5312 4.1719 ZM5.33 5.0469 Q3.955 5.0469 3.2675 6.3984 Q2.58 7.75 2.58 10.4531 Q2.58 13.1562 3.2675 14.5 Q3.955 15.8438 5.33 15.8438 Q6.7206 15.8438 7.4081 14.5 Q8.0956 13.1562 8.0956 10.4531 Q8.0956 7.75 7.4081 6.3984 Q6.7206 5.0469 5.33 5.0469 ZM5.33 3.6406 Q7.5331 3.6406 8.6971 5.3828 Q9.8612 7.125 9.8612 10.4531 Q9.8612 13.7656 8.6971 15.5078 Q7.5331 17.25 5.33 17.25 Q3.1268 17.25 1.9628 15.5078 Q0.7987 13.7656 0.7987 10.4531 Q0.7987 7.125 1.9628 5.3828 Q3.1268 3.6406 5.33 3.6406 Z"></path></g><g transform="translate(498,361.2667)" style="font-size:18.2778px; fill:rgb(38,38,38); text-rendering:geometricPrecision; image-rendering:optimizeQuality; color-rendering:optimizeQuality; font-family:'SansSerif'; stroke:rgb(38,38,38); color-interpolation:linearRGB;"><path style="stroke:none;" d="M-10.0156 16.7344 L-10.0156 15.1094 Q-9.3594 15.4219 -8.6719 15.5938 Q-7.9844 15.7656 -7.3281 15.7656 Q-5.5625 15.7656 -4.6406 14.5781 Q-3.7188 13.3906 -3.5781 10.9844 Q-4.0938 11.75 -4.875 12.1484 Q-5.6562 12.5469 -6.6094 12.5469 Q-8.5781 12.5469 -9.7188 11.3594 Q-10.8594 10.1719 -10.8594 8.1094 Q-10.8594 6.0781 -9.6641 4.8594 Q-8.4688 3.6406 -6.4844 3.6406 Q-4.2188 3.6406 -3.0156 5.3828 Q-1.8125 7.125 -1.8125 10.4531 Q-1.8125 13.5469 -3.2812 15.3984 Q-4.75 17.25 -7.25 17.25 Q-7.9062 17.25 -8.5938 17.1172 Q-9.2812 16.9844 -10.0156 16.7344 ZM-6.4844 11.1562 Q-5.2969 11.1562 -4.5938 10.3438 Q-3.8906 9.5312 -3.8906 8.1094 Q-3.8906 6.6875 -4.5938 5.8672 Q-5.2969 5.0469 -6.4844 5.0469 Q-7.6875 5.0469 -8.3828 5.8672 Q-9.0781 6.6875 -9.0781 8.1094 Q-9.0781 9.5312 -8.3828 10.3438 Q-7.6875 11.1562 -6.4844 11.1562 ZM5.33 5.0469 Q3.955 5.0469 3.2675 6.3984 Q2.58 7.75 2.58 10.4531 Q2.58 13.1562 3.2675 14.5 Q3.955 15.8438 5.33 15.8438 Q6.7206 15.8438 7.4081 14.5 Q8.0956 13.1562 8.0956 10.4531 Q8.0956 7.75 7.4081 6.3984 Q6.7206 5.0469 5.33 5.0469 ZM5.33 3.6406 Q7.5331 3.6406 8.6971 5.3828 Q9.8612 7.125 9.8612 10.4531 Q9.8612 13.7656 8.6971 15.5078 Q7.5331 17.25 5.33 17.25 Q3.1268 17.25 1.9628 15.5078 Q0.7987 13.7656 0.7987 10.4531 Q0.7987 7.125 1.9628 5.3828 Q3.1268 3.6406 5.33 3.6406 Z"></path></g><g transform="translate(285.0002,384)" style="font-size:20.1056px; fill:rgb(38,38,38); text-rendering:geometricPrecision; image-rendering:optimizeQuality; color-rendering:optimizeQuality; font-family:'SansSerif'; stroke:rgb(38,38,38); color-interpolation:linearRGB;"><path style="stroke:none;" d="M-95.6562 6.3594 L-98.3438 13.625 L-92.9844 13.625 L-95.6562 6.3594 ZM-96.7812 4.4219 L-94.5469 4.4219 L-88.9844 19 L-91.0312 19 L-92.3594 15.2656 L-98.9375 15.2656 L-100.2656 19 L-102.3438 19 L-96.7812 4.4219 ZM-87.6449 8.0625 L-79.1136 8.0625 L-79.1136 9.7031 L-85.8792 17.5625 L-79.1136 17.5625 L-79.1136 19 L-87.8949 19 L-87.8949 17.3594 L-81.1292 9.5 L-87.6449 9.5 L-87.6449 8.0625 ZM-76.3163 8.0625 L-74.5195 8.0625 L-74.5195 19 L-76.3163 19 L-76.3163 8.0625 ZM-76.3163 3.7969 L-74.5195 3.7969 L-74.5195 6.0781 L-76.3163 6.0781 L-76.3163 3.7969 ZM-62.218 10.1562 Q-61.5462 8.9531 -60.6087 8.375 Q-59.6712 7.7969 -58.4055 7.7969 Q-56.7024 7.7969 -55.7727 8.9922 Q-54.843 10.1875 -54.843 12.3906 L-54.843 19 L-56.6399 19 L-56.6399 12.4531 Q-56.6399 10.8906 -57.2024 10.125 Q-57.7649 9.3594 -58.9055 9.3594 Q-60.2962 9.3594 -61.1087 10.2891 Q-61.9212 11.2188 -61.9212 12.8125 L-61.9212 19 L-63.7337 19 L-63.7337 12.4531 Q-63.7337 10.875 -64.2883 10.1172 Q-64.843 9.3594 -65.9993 9.3594 Q-67.3743 9.3594 -68.1868 10.2891 Q-68.9993 11.2188 -68.9993 12.8125 L-68.9993 19 L-70.8118 19 L-70.8118 8.0625 L-68.9993 8.0625 L-68.9993 9.7656 Q-68.3899 8.75 -67.5305 8.2734 Q-66.6712 7.7969 -65.4837 7.7969 Q-64.2962 7.7969 -63.4602 8.4062 Q-62.6243 9.0156 -62.218 10.1562 ZM-51.3474 14.6875 L-51.3474 8.0625 L-49.5505 8.0625 L-49.5505 14.6094 Q-49.5505 16.1719 -48.949 16.9453 Q-48.3474 17.7188 -47.1287 17.7188 Q-45.6755 17.7188 -44.8318 16.7891 Q-43.988 15.8594 -43.988 14.2656 L-43.988 8.0625 L-42.1912 8.0625 L-42.1912 19 L-43.988 19 L-43.988 17.3125 Q-44.6443 18.3125 -45.5037 18.7969 Q-46.363 19.2812 -47.5193 19.2812 Q-49.3943 19.2812 -50.3708 18.1094 Q-51.3474 16.9375 -51.3474 14.6875 ZM-36.6591 4.9531 L-36.6591 8.0625 L-32.956 8.0625 L-32.956 9.4531 L-36.6591 9.4531 L-36.6591 15.3906 Q-36.6591 16.7344 -36.2919 17.1172 Q-35.9247 17.5 -34.7997 17.5 L-32.956 17.5 L-32.956 19 L-34.7997 19 Q-36.8778 19 -37.6669 18.2266 Q-38.456 17.4531 -38.456 15.3906 L-38.456 9.4531 L-39.7841 9.4531 L-39.7841 8.0625 L-38.456 8.0625 L-38.456 4.9531 L-36.6591 4.9531 ZM-21.4524 12.3906 L-21.4524 19 L-23.2493 19 L-23.2493 12.4531 Q-23.2493 10.9062 -23.8587 10.1328 Q-24.468 9.3594 -25.6712 9.3594 Q-27.1399 9.3594 -27.9758 10.2891 Q-28.8118 11.2188 -28.8118 12.8125 L-28.8118 19 L-30.6243 19 L-30.6243 3.7969 L-28.8118 3.7969 L-28.8118 9.7656 Q-28.1712 8.7812 -27.2962 8.2891 Q-26.4212 7.7969 -25.2805 7.7969 Q-23.3899 7.7969 -22.4212 8.9609 Q-21.4524 10.125 -21.4524 12.3906 ZM-6.455 13.5 Q-8.6425 13.5 -9.4784 14 Q-10.3144 14.5 -10.3144 15.7031 Q-10.3144 16.6562 -9.6815 17.2188 Q-9.0487 17.7812 -7.9706 17.7812 Q-6.4706 17.7812 -5.5722 16.7188 Q-4.6737 15.6562 -4.6737 13.9062 L-4.6737 13.5 L-6.455 13.5 ZM-2.8769 12.7656 L-2.8769 19 L-4.6737 19 L-4.6737 17.3438 Q-5.2831 18.3281 -6.205 18.8047 Q-7.1269 19.2812 -8.455 19.2812 Q-10.1269 19.2812 -11.119 18.3359 Q-12.1112 17.3906 -12.1112 15.8125 Q-12.1112 13.9688 -10.8769 13.0312 Q-9.6425 12.0938 -7.1894 12.0938 L-4.6737 12.0938 L-4.6737 11.9219 Q-4.6737 10.6719 -5.4862 10 Q-6.2987 9.3281 -7.7831 9.3281 Q-8.7206 9.3281 -9.6034 9.5469 Q-10.4862 9.7656 -11.3144 10.2188 L-11.3144 8.5625 Q-10.33 8.1719 -9.4003 7.9844 Q-8.4706 7.7969 -7.5956 7.7969 Q-5.2206 7.7969 -4.0487 9.0312 Q-2.8769 10.2656 -2.8769 12.7656 ZM9.9833 12.3906 L9.9833 19 L8.1864 19 L8.1864 12.4531 Q8.1864 10.9062 7.5771 10.1328 Q6.9677 9.3594 5.7646 9.3594 Q4.2958 9.3594 3.4599 10.2891 Q2.6239 11.2188 2.6239 12.8125 L2.6239 19 L0.8114 19 L0.8114 8.0625 L2.6239 8.0625 L2.6239 9.7656 Q3.2646 8.7812 4.1396 8.2891 Q5.0146 7.7969 6.1552 7.7969 Q8.0458 7.7969 9.0146 8.9609 Q9.9833 10.125 9.9833 12.3906 ZM20.8123 13.4062 Q20.8123 11.4531 20.0076 10.375 Q19.2029 9.2969 17.7498 9.2969 Q16.3123 9.2969 15.4998 10.375 Q14.6873 11.4531 14.6873 13.4062 Q14.6873 15.3438 15.4998 16.4219 Q16.3123 17.5 17.7498 17.5 Q19.2029 17.5 20.0076 16.4219 Q20.8123 15.3438 20.8123 13.4062 ZM22.6091 17.6406 Q22.6091 20.4375 21.3748 21.7969 Q20.1404 23.1562 17.5779 23.1562 Q16.6248 23.1562 15.7888 23.0156 Q14.9529 22.875 14.156 22.5781 L14.156 20.8438 Q14.9529 21.2656 15.7185 21.4688 Q16.4841 21.6719 17.2966 21.6719 Q19.0623 21.6719 19.9373 20.75 Q20.8123 19.8281 20.8123 17.9688 L20.8123 17.0781 Q20.2654 18.0469 19.3904 18.5234 Q18.5154 19 17.3123 19 Q15.2966 19 14.0701 17.4688 Q12.8435 15.9375 12.8435 13.4062 Q12.8435 10.8594 14.0701 9.3281 Q15.2966 7.7969 17.3123 7.7969 Q18.5154 7.7969 19.3904 8.2734 Q20.2654 8.75 20.8123 9.7188 L20.8123 8.0625 L22.6091 8.0625 L22.6091 17.6406 ZM26.3796 3.7969 L28.1765 3.7969 L28.1765 19 L26.3796 19 L26.3796 3.7969 ZM41.306 13.0781 L41.306 13.9531 L33.056 13.9531 Q33.1654 15.8125 34.1654 16.7891 Q35.1654 17.7656 36.9623 17.7656 Q37.9935 17.7656 38.9623 17.5078 Q39.931 17.25 40.8998 16.75 L40.8998 18.4375 Q39.931 18.8594 38.9154 19.0703 Q37.8998 19.2812 36.8529 19.2812 Q34.2279 19.2812 32.7045 17.7578 Q31.181 16.2344 31.181 13.6406 Q31.181 10.9531 32.6263 9.375 Q34.0717 7.7969 36.5404 7.7969 Q38.7435 7.7969 40.0248 9.2188 Q41.306 10.6406 41.306 13.0781 ZM39.5092 12.5469 Q39.4935 11.0781 38.6888 10.2031 Q37.8842 9.3281 36.556 9.3281 Q35.056 9.3281 34.1498 10.1719 Q33.2435 11.0156 33.1029 12.5625 L39.5092 12.5469 ZM50.54 3.7969 L54.6806 3.7969 L54.6806 5.2031 L52.3369 5.2031 L52.3369 20.2344 L54.6806 20.2344 L54.6806 21.6406 L50.54 21.6406 L50.54 3.7969 ZM65.7387 9.7188 L65.7387 3.7969 L67.5356 3.7969 L67.5356 19 L65.7387 19 L65.7387 17.3594 Q65.1762 18.3281 64.309 18.8047 Q63.4418 19.2812 62.2387 19.2812 Q60.2543 19.2812 59.0121 17.7031 Q57.7699 16.125 57.7699 13.5469 Q57.7699 10.9688 59.0121 9.3828 Q60.2543 7.7969 62.2387 7.7969 Q63.4418 7.7969 64.309 8.2734 Q65.1762 8.75 65.7387 9.7188 ZM59.6137 13.5469 Q59.6137 15.5156 60.434 16.6484 Q61.2543 17.7812 62.6762 17.7812 Q64.0981 17.7812 64.9184 16.6484 Q65.7387 15.5156 65.7387 13.5469 Q65.7387 11.5625 64.9184 10.4297 Q64.0981 9.2969 62.6762 9.2969 Q61.2543 9.2969 60.434 10.4297 Q59.6137 11.5625 59.6137 13.5469 ZM80.6497 13.0781 L80.6497 13.9531 L72.3997 13.9531 Q72.5091 15.8125 73.5091 16.7891 Q74.5091 17.7656 76.306 17.7656 Q77.3372 17.7656 78.306 17.5078 Q79.2747 17.25 80.2435 16.75 L80.2435 18.4375 Q79.2747 18.8594 78.2591 19.0703 Q77.2435 19.2812 76.1966 19.2812 Q73.5716 19.2812 72.0482 17.7578 Q70.5247 16.2344 70.5247 13.6406 Q70.5247 10.9531 71.9701 9.375 Q73.4154 7.7969 75.8841 7.7969 Q78.0872 7.7969 79.3685 9.2188 Q80.6497 10.6406 80.6497 13.0781 ZM78.8529 12.5469 Q78.8372 11.0781 78.0326 10.2031 Q77.2279 9.3281 75.8997 9.3281 Q74.3997 9.3281 73.4935 10.1719 Q72.5872 11.0156 72.4466 12.5625 L78.8529 12.5469 ZM90.8559 13.4062 Q90.8559 11.4531 90.0512 10.375 Q89.2465 9.2969 87.7934 9.2969 Q86.3559 9.2969 85.5434 10.375 Q84.7309 11.4531 84.7309 13.4062 Q84.7309 15.3438 85.5434 16.4219 Q86.3559 17.5 87.7934 17.5 Q89.2465 17.5 90.0512 16.4219 Q90.8559 15.3438 90.8559 13.4062 ZM92.6527 17.6406 Q92.6527 20.4375 91.4184 21.7969 Q90.184 23.1562 87.6215 23.1562 Q86.6684 23.1562 85.8324 23.0156 Q84.9965 22.875 84.1996 22.5781 L84.1996 20.8438 Q84.9965 21.2656 85.7621 21.4688 Q86.5277 21.6719 87.3402 21.6719 Q89.1059 21.6719 89.9809 20.75 Q90.8559 19.8281 90.8559 17.9688 L90.8559 17.0781 Q90.309 18.0469 89.434 18.5234 Q88.559 19 87.3559 19 Q85.3402 19 84.1137 17.4688 Q82.8871 15.9375 82.8871 13.4062 Q82.8871 10.8594 84.1137 9.3281 Q85.3402 7.7969 87.3559 7.7969 Q88.559 7.7969 89.434 8.2734 Q90.309 8.75 90.8559 9.7188 L90.8559 8.0625 L92.6527 8.0625 L92.6527 17.6406 ZM100.6107 3.7969 L100.6107 21.6406 L96.4701 21.6406 L96.4701 20.2344 L98.8138 20.2344 L98.8138 5.2031 L96.4701 5.2031 L96.4701 3.7969 L100.6107 3.7969 Z"></path></g><g style="fill:rgb(38,38,38); text-rendering:geometricPrecision; image-rendering:optimizeQuality; color-rendering:optimizeQuality; stroke-linejoin:round; stroke:rgb(38,38,38); color-interpolation:linearRGB; stroke-width:0.6528;"><line y2="31" style="fill:none;" x1="72" x2="72" y1="355"></line><line y2="31" style="fill:none;" x1="498" x2="498" y1="355"></line><line y2="355" style="fill:none;" x1="72" x2="76.26" y1="355"></line><line y2="308.7143" style="fill:none;" x1="72" x2="76.26" y1="308.7143"></line><line y2="262.4286" style="fill:none;" x1="72" x2="76.26" y1="262.4286"></line><line y2="216.1429" style="fill:none;" x1="72" x2="76.26" y1="216.1429"></line><line y2="169.8571" style="fill:none;" x1="72" x2="76.26" y1="169.8571"></line><line y2="123.5714" style="fill:none;" x1="72" x2="76.26" y1="123.5714"></line><line y2="77.2857" style="fill:none;" x1="72" x2="76.26" y1="77.2857"></line><line y2="31" style="fill:none;" x1="72" x2="76.26" y1="31"></line><line y2="355" style="fill:none;" x1="498" x2="493.74" y1="355"></line><line y2="308.7143" style="fill:none;" x1="498" x2="493.74" y1="308.7143"></line><line y2="262.4286" style="fill:none;" x1="498" x2="493.74" y1="262.4286"></line><line y2="216.1429" style="fill:none;" x1="498" x2="493.74" y1="216.1429"></line><line y2="169.8571" style="fill:none;" x1="498" x2="493.74" y1="169.8571"></line><line y2="123.5714" style="fill:none;" x1="498" x2="493.74" y1="123.5714"></line><line y2="77.2857" style="fill:none;" x1="498" x2="493.74" y1="77.2857"></line><line y2="31" style="fill:none;" x1="498" x2="493.74" y1="31"></line></g><g transform="translate(65.7333,355)" style="font-size:18.2778px; fill:rgb(38,38,38); text-rendering:geometricPrecision; image-rendering:optimizeQuality; color-rendering:optimizeQuality; font-family:'SansSerif'; stroke:rgb(38,38,38); color-interpolation:linearRGB;"><path style="stroke:none;" d="M-29.125 0.3438 L-24.3906 0.3438 L-24.3906 1.7969 L-29.125 1.7969 L-29.125 0.3438 ZM-21.4772 -7.125 L-14.5084 -7.125 L-14.5084 -5.625 L-19.8522 -5.625 L-19.8522 -2.4062 Q-19.4615 -2.5469 -19.0709 -2.6094 Q-18.6803 -2.6719 -18.3053 -2.6719 Q-16.1022 -2.6719 -14.8209 -1.4688 Q-13.5397 -0.2656 -13.5397 1.7969 Q-13.5397 3.9062 -14.8522 5.0781 Q-16.1647 6.25 -18.5709 6.25 Q-19.399 6.25 -20.2584 6.1094 Q-21.1178 5.9688 -22.024 5.6875 L-22.024 3.9062 Q-21.2272 4.3438 -20.3834 4.5547 Q-19.5397 4.7656 -18.6022 4.7656 Q-17.0865 4.7656 -16.1959 3.9609 Q-15.3053 3.1562 -15.3053 1.7969 Q-15.3053 0.4219 -16.1959 -0.3828 Q-17.0865 -1.1875 -18.6022 -1.1875 Q-19.3209 -1.1875 -20.024 -1.0234 Q-20.7272 -0.8594 -21.4772 -0.5312 L-21.4772 -7.125 ZM-6.0847 -5.9531 Q-7.4597 -5.9531 -8.1472 -4.6016 Q-8.8347 -3.25 -8.8347 -0.5469 Q-8.8347 2.1562 -8.1472 3.5 Q-7.4597 4.8438 -6.0847 4.8438 Q-4.6941 4.8438 -4.0066 3.5 Q-3.3191 2.1562 -3.3191 -0.5469 Q-3.3191 -3.25 -4.0066 -4.6016 Q-4.6941 -5.9531 -6.0847 -5.9531 ZM-6.0847 -7.3594 Q-3.8816 -7.3594 -2.7175 -5.6172 Q-1.5535 -3.875 -1.5535 -0.5469 Q-1.5535 2.7656 -2.7175 4.5078 Q-3.8816 6.25 -6.0847 6.25 Q-8.2878 6.25 -9.4519 4.5078 Q-10.616 2.7656 -10.616 -0.5469 Q-10.616 -3.875 -9.4519 -5.6172 Q-8.2878 -7.3594 -6.0847 -7.3594 Z"></path></g><g transform="translate(65.7333,308.7143)" style="font-size:18.2778px; fill:rgb(38,38,38); text-rendering:geometricPrecision; image-rendering:optimizeQuality; color-rendering:optimizeQuality; font-family:'SansSerif'; stroke:rgb(38,38,38); color-interpolation:linearRGB;"><path style="stroke:none;" d="M-29.125 0.3438 L-24.3906 0.3438 L-24.3906 1.7969 L-29.125 1.7969 L-29.125 0.3438 ZM-16.6178 -5.5781 L-21.0865 1.4219 L-16.6178 1.4219 L-16.6178 -5.5781 ZM-17.0709 -7.125 L-14.8522 -7.125 L-14.8522 1.4219 L-12.9772 1.4219 L-12.9772 2.9062 L-14.8522 2.9062 L-14.8522 6 L-16.6178 6 L-16.6178 2.9062 L-22.5397 2.9062 L-22.5397 1.1875 L-17.0709 -7.125 ZM-6.0847 -5.9531 Q-7.4597 -5.9531 -8.1472 -4.6016 Q-8.8347 -3.25 -8.8347 -0.5469 Q-8.8347 2.1562 -8.1472 3.5 Q-7.4597 4.8438 -6.0847 4.8438 Q-4.6941 4.8438 -4.0066 3.5 Q-3.3191 2.1562 -3.3191 -0.5469 Q-3.3191 -3.25 -4.0066 -4.6016 Q-4.6941 -5.9531 -6.0847 -5.9531 ZM-6.0847 -7.3594 Q-3.8816 -7.3594 -2.7175 -5.6172 Q-1.5535 -3.875 -1.5535 -0.5469 Q-1.5535 2.7656 -2.7175 4.5078 Q-3.8816 6.25 -6.0847 6.25 Q-8.2878 6.25 -9.4519 4.5078 Q-10.616 2.7656 -10.616 -0.5469 Q-10.616 -3.875 -9.4519 -5.6172 Q-8.2878 -7.3594 -6.0847 -7.3594 Z"></path></g><g transform="translate(65.7333,262.4286)" style="font-size:18.2778px; fill:rgb(38,38,38); text-rendering:geometricPrecision; image-rendering:optimizeQuality; color-rendering:optimizeQuality; font-family:'SansSerif'; stroke:rgb(38,38,38); color-interpolation:linearRGB;"><path style="stroke:none;" d="M-29.125 0.3438 L-24.3906 0.3438 L-24.3906 1.7969 L-29.125 1.7969 L-29.125 0.3438 ZM-16.1178 -1.0781 Q-14.8365 -0.7969 -14.1178 0.0625 Q-13.399 0.9219 -13.399 2.1875 Q-13.399 4.125 -14.735 5.1875 Q-16.0709 6.25 -18.5397 6.25 Q-19.3678 6.25 -20.2428 6.0859 Q-21.1178 5.9219 -22.0397 5.6094 L-22.0397 3.8906 Q-21.3053 4.3281 -20.4225 4.5469 Q-19.5397 4.7656 -18.5865 4.7656 Q-16.9147 4.7656 -16.0397 4.1016 Q-15.1647 3.4375 -15.1647 2.1875 Q-15.1647 1.0312 -15.9772 0.375 Q-16.7897 -0.2812 -18.2428 -0.2812 L-19.774 -0.2812 L-19.774 -1.75 L-18.1803 -1.75 Q-16.8678 -1.75 -16.1725 -2.2734 Q-15.4772 -2.7969 -15.4772 -3.7812 Q-15.4772 -4.7812 -16.1959 -5.3203 Q-16.9147 -5.8594 -18.2428 -5.8594 Q-18.9772 -5.8594 -19.8131 -5.7031 Q-20.649 -5.5469 -21.649 -5.2188 L-21.649 -6.7969 Q-20.6334 -7.0781 -19.7506 -7.2188 Q-18.8678 -7.3594 -18.0865 -7.3594 Q-16.0709 -7.3594 -14.8912 -6.4375 Q-13.7115 -5.5156 -13.7115 -3.9531 Q-13.7115 -2.875 -14.3365 -2.1172 Q-14.9615 -1.3594 -16.1178 -1.0781 ZM-6.0847 -5.9531 Q-7.4597 -5.9531 -8.1472 -4.6016 Q-8.8347 -3.25 -8.8347 -0.5469 Q-8.8347 2.1562 -8.1472 3.5 Q-7.4597 4.8438 -6.0847 4.8438 Q-4.6941 4.8438 -4.0066 3.5 Q-3.3191 2.1562 -3.3191 -0.5469 Q-3.3191 -3.25 -4.0066 -4.6016 Q-4.6941 -5.9531 -6.0847 -5.9531 ZM-6.0847 -7.3594 Q-3.8816 -7.3594 -2.7175 -5.6172 Q-1.5535 -3.875 -1.5535 -0.5469 Q-1.5535 2.7656 -2.7175 4.5078 Q-3.8816 6.25 -6.0847 6.25 Q-8.2878 6.25 -9.4519 4.5078 Q-10.616 2.7656 -10.616 -0.5469 Q-10.616 -3.875 -9.4519 -5.6172 Q-8.2878 -7.3594 -6.0847 -7.3594 Z"></path></g><g transform="translate(65.7333,216.1429)" style="font-size:18.2778px; fill:rgb(38,38,38); text-rendering:geometricPrecision; image-rendering:optimizeQuality; color-rendering:optimizeQuality; font-family:'SansSerif'; stroke:rgb(38,38,38); color-interpolation:linearRGB;"><path style="stroke:none;" d="M-29.125 0.3438 L-24.3906 0.3438 L-24.3906 1.7969 L-29.125 1.7969 L-29.125 0.3438 ZM-19.9615 4.5 L-13.7584 4.5 L-13.7584 6 L-22.1022 6 L-22.1022 4.5 Q-21.0865 3.4531 -19.3444 1.6953 Q-17.6022 -0.0625 -17.149 -0.5781 Q-16.2897 -1.5312 -15.9537 -2.1953 Q-15.6178 -2.8594 -15.6178 -3.5 Q-15.6178 -4.5469 -16.3522 -5.2031 Q-17.0865 -5.8594 -18.2584 -5.8594 Q-19.1022 -5.8594 -20.024 -5.5703 Q-20.9459 -5.2812 -22.0084 -4.7031 L-22.0084 -6.4844 Q-20.9303 -6.9219 -20.0006 -7.1406 Q-19.0709 -7.3594 -18.3053 -7.3594 Q-16.2584 -7.3594 -15.0475 -6.3438 Q-13.8365 -5.3281 -13.8365 -3.6094 Q-13.8365 -2.8125 -14.1412 -2.0859 Q-14.4459 -1.3594 -15.2428 -0.375 Q-15.4615 -0.125 -16.6412 1.0938 Q-17.8209 2.3125 -19.9615 4.5 ZM-6.0847 -5.9531 Q-7.4597 -5.9531 -8.1472 -4.6016 Q-8.8347 -3.25 -8.8347 -0.5469 Q-8.8347 2.1562 -8.1472 3.5 Q-7.4597 4.8438 -6.0847 4.8438 Q-4.6941 4.8438 -4.0066 3.5 Q-3.3191 2.1562 -3.3191 -0.5469 Q-3.3191 -3.25 -4.0066 -4.6016 Q-4.6941 -5.9531 -6.0847 -5.9531 ZM-6.0847 -7.3594 Q-3.8816 -7.3594 -2.7175 -5.6172 Q-1.5535 -3.875 -1.5535 -0.5469 Q-1.5535 2.7656 -2.7175 4.5078 Q-3.8816 6.25 -6.0847 6.25 Q-8.2878 6.25 -9.4519 4.5078 Q-10.616 2.7656 -10.616 -0.5469 Q-10.616 -3.875 -9.4519 -5.6172 Q-8.2878 -7.3594 -6.0847 -7.3594 Z"></path></g><g transform="translate(65.7333,169.8571)" style="font-size:18.2778px; fill:rgb(38,38,38); text-rendering:geometricPrecision; image-rendering:optimizeQuality; color-rendering:optimizeQuality; font-family:'SansSerif'; stroke:rgb(38,38,38); color-interpolation:linearRGB;"><path style="stroke:none;" d="M-29.125 0.3438 L-24.3906 0.3438 L-24.3906 1.7969 L-29.125 1.7969 L-29.125 0.3438 ZM-21.1803 4.5 L-18.274 4.5 L-18.274 -5.5 L-21.4303 -4.875 L-21.4303 -6.4844 L-18.3053 -7.125 L-16.524 -7.125 L-16.524 4.5 L-13.6178 4.5 L-13.6178 6 L-21.1803 6 L-21.1803 4.5 ZM-6.0847 -5.9531 Q-7.4597 -5.9531 -8.1472 -4.6016 Q-8.8347 -3.25 -8.8347 -0.5469 Q-8.8347 2.1562 -8.1472 3.5 Q-7.4597 4.8438 -6.0847 4.8438 Q-4.6941 4.8438 -4.0066 3.5 Q-3.3191 2.1562 -3.3191 -0.5469 Q-3.3191 -3.25 -4.0066 -4.6016 Q-4.6941 -5.9531 -6.0847 -5.9531 ZM-6.0847 -7.3594 Q-3.8816 -7.3594 -2.7175 -5.6172 Q-1.5535 -3.875 -1.5535 -0.5469 Q-1.5535 2.7656 -2.7175 4.5078 Q-3.8816 6.25 -6.0847 6.25 Q-8.2878 6.25 -9.4519 4.5078 Q-10.616 2.7656 -10.616 -0.5469 Q-10.616 -3.875 -9.4519 -5.6172 Q-8.2878 -7.3594 -6.0847 -7.3594 Z"></path></g><g transform="translate(65.7333,123.5714)" style="font-size:18.2778px; fill:rgb(38,38,38); text-rendering:geometricPrecision; image-rendering:optimizeQuality; color-rendering:optimizeQuality; font-family:'SansSerif'; stroke:rgb(38,38,38); color-interpolation:linearRGB;"><path style="stroke:none;" d="M-6.2812 -5.9531 Q-7.6562 -5.9531 -8.3438 -4.6016 Q-9.0312 -3.25 -9.0312 -0.5469 Q-9.0312 2.1562 -8.3438 3.5 Q-7.6562 4.8438 -6.2812 4.8438 Q-4.8906 4.8438 -4.2031 3.5 Q-3.5156 2.1562 -3.5156 -0.5469 Q-3.5156 -3.25 -4.2031 -4.6016 Q-4.8906 -5.9531 -6.2812 -5.9531 ZM-6.2812 -7.3594 Q-4.0781 -7.3594 -2.9141 -5.6172 Q-1.75 -3.875 -1.75 -0.5469 Q-1.75 2.7656 -2.9141 4.5078 Q-4.0781 6.25 -6.2812 6.25 Q-8.4844 6.25 -9.6484 4.5078 Q-10.8125 2.7656 -10.8125 -0.5469 Q-10.8125 -3.875 -9.6484 -5.6172 Q-8.4844 -7.3594 -6.2812 -7.3594 Z"></path></g><g transform="translate(65.7333,77.2857)" style="font-size:18.2778px; fill:rgb(38,38,38); text-rendering:geometricPrecision; image-rendering:optimizeQuality; color-rendering:optimizeQuality; font-family:'SansSerif'; stroke:rgb(38,38,38); color-interpolation:linearRGB;"><path style="stroke:none;" d="M-21.7656 4.5 L-18.8594 4.5 L-18.8594 -5.5 L-22.0156 -4.875 L-22.0156 -6.4844 L-18.8906 -7.125 L-17.1094 -7.125 L-17.1094 4.5 L-14.2031 4.5 L-14.2031 6 L-21.7656 6 L-21.7656 4.5 ZM-6.67 -5.9531 Q-8.045 -5.9531 -8.7325 -4.6016 Q-9.42 -3.25 -9.42 -0.5469 Q-9.42 2.1562 -8.7325 3.5 Q-8.045 4.8438 -6.67 4.8438 Q-5.2794 4.8438 -4.5919 3.5 Q-3.9044 2.1562 -3.9044 -0.5469 Q-3.9044 -3.25 -4.5919 -4.6016 Q-5.2794 -5.9531 -6.67 -5.9531 ZM-6.67 -7.3594 Q-4.4669 -7.3594 -3.3029 -5.6172 Q-2.1388 -3.875 -2.1388 -0.5469 Q-2.1388 2.7656 -3.3029 4.5078 Q-4.4669 6.25 -6.67 6.25 Q-8.8732 6.25 -10.0372 4.5078 Q-11.2013 2.7656 -11.2013 -0.5469 Q-11.2013 -3.875 -10.0372 -5.6172 Q-8.8732 -7.3594 -6.67 -7.3594 Z"></path></g><g transform="translate(65.7333,31)" style="font-size:18.2778px; fill:rgb(38,38,38); text-rendering:geometricPrecision; image-rendering:optimizeQuality; color-rendering:optimizeQuality; font-family:'SansSerif'; stroke:rgb(38,38,38); color-interpolation:linearRGB;"><path style="stroke:none;" d="M-20.5469 4.5 L-14.3438 4.5 L-14.3438 6 L-22.6875 6 L-22.6875 4.5 Q-21.6719 3.4531 -19.9297 1.6953 Q-18.1875 -0.0625 -17.7344 -0.5781 Q-16.875 -1.5312 -16.5391 -2.1953 Q-16.2031 -2.8594 -16.2031 -3.5 Q-16.2031 -4.5469 -16.9375 -5.2031 Q-17.6719 -5.8594 -18.8438 -5.8594 Q-19.6875 -5.8594 -20.6094 -5.5703 Q-21.5312 -5.2812 -22.5938 -4.7031 L-22.5938 -6.4844 Q-21.5156 -6.9219 -20.5859 -7.1406 Q-19.6562 -7.3594 -18.8906 -7.3594 Q-16.8438 -7.3594 -15.6328 -6.3438 Q-14.4219 -5.3281 -14.4219 -3.6094 Q-14.4219 -2.8125 -14.7266 -2.0859 Q-15.0312 -1.3594 -15.8281 -0.375 Q-16.0469 -0.125 -17.2266 1.0938 Q-18.4062 2.3125 -20.5469 4.5 ZM-6.67 -5.9531 Q-8.045 -5.9531 -8.7325 -4.6016 Q-9.42 -3.25 -9.42 -0.5469 Q-9.42 2.1562 -8.7325 3.5 Q-8.045 4.8438 -6.67 4.8438 Q-5.2794 4.8438 -4.5919 3.5 Q-3.9044 2.1562 -3.9044 -0.5469 Q-3.9044 -3.25 -4.5919 -4.6016 Q-5.2794 -5.9531 -6.67 -5.9531 ZM-6.67 -7.3594 Q-4.4669 -7.3594 -3.3029 -5.6172 Q-2.1388 -3.875 -2.1388 -0.5469 Q-2.1388 2.7656 -3.3029 4.5078 Q-4.4669 6.25 -6.67 6.25 Q-8.8732 6.25 -10.0372 4.5078 Q-11.2013 2.7656 -11.2013 -0.5469 Q-11.2013 -3.875 -10.0372 -5.6172 Q-8.8732 -7.3594 -6.67 -7.3594 Z"></path></g><g transform="translate(31.8167,192.9998) rotate(-90)" style="font-size:20.1056px; fill:rgb(38,38,38); text-rendering:geometricPrecision; image-rendering:optimizeQuality; color-rendering:optimizeQuality; font-family:'SansSerif'; stroke:rgb(38,38,38); color-interpolation:linearRGB;"><path style="stroke:none;" d="M-75.0625 -17.9531 L-75.0625 -6.625 L-72.6875 -6.625 Q-69.6562 -6.625 -68.2578 -7.9922 Q-66.8594 -9.3594 -66.8594 -12.3125 Q-66.8594 -15.2344 -68.2578 -16.5938 Q-69.6562 -17.9531 -72.6875 -17.9531 L-75.0625 -17.9531 ZM-77.0312 -19.5781 L-72.9844 -19.5781 Q-68.75 -19.5781 -66.7656 -17.8203 Q-64.7812 -16.0625 -64.7812 -12.3125 Q-64.7812 -8.5312 -66.7734 -6.7656 Q-68.7656 -5 -72.9844 -5 L-77.0312 -5 L-77.0312 -19.5781 ZM-61.6368 -15.9375 L-59.8399 -15.9375 L-59.8399 -5 L-61.6368 -5 L-61.6368 -15.9375 ZM-61.6368 -20.2031 L-59.8399 -20.2031 L-59.8399 -17.9219 L-61.6368 -17.9219 L-61.6368 -20.2031 ZM-49.726 -14.2656 Q-50.0229 -14.4375 -50.3822 -14.5156 Q-50.7416 -14.5938 -51.1635 -14.5938 Q-52.6947 -14.5938 -53.5072 -13.6094 Q-54.3197 -12.625 -54.3197 -10.7656 L-54.3197 -5 L-56.1322 -5 L-56.1322 -15.9375 L-54.3197 -15.9375 L-54.3197 -14.2344 Q-53.7572 -15.2344 -52.851 -15.7188 Q-51.9447 -16.2031 -50.6322 -16.2031 Q-50.4604 -16.2031 -50.2338 -16.1797 Q-50.0072 -16.1562 -49.726 -16.1094 L-49.726 -14.2656 ZM-38.4492 -10.9219 L-38.4492 -10.0469 L-46.6992 -10.0469 Q-46.5898 -8.1875 -45.5898 -7.2109 Q-44.5898 -6.2344 -42.7929 -6.2344 Q-41.7617 -6.2344 -40.7929 -6.4922 Q-39.8242 -6.75 -38.8554 -7.25 L-38.8554 -5.5625 Q-39.8242 -5.1406 -40.8398 -4.9297 Q-41.8554 -4.7188 -42.9023 -4.7188 Q-45.5273 -4.7188 -47.0507 -6.2422 Q-48.5742 -7.7656 -48.5742 -10.3594 Q-48.5742 -13.0469 -47.1288 -14.625 Q-45.6835 -16.2031 -43.2148 -16.2031 Q-41.0117 -16.2031 -39.7304 -14.7812 Q-38.4492 -13.3594 -38.4492 -10.9219 ZM-40.246 -11.4531 Q-40.2617 -12.9219 -41.0663 -13.7969 Q-41.871 -14.6719 -43.1992 -14.6719 Q-44.6992 -14.6719 -45.6054 -13.8281 Q-46.5117 -12.9844 -46.6523 -11.4375 L-40.246 -11.4531 ZM-27.5712 -15.5156 L-27.5712 -13.8438 Q-28.3212 -14.2656 -29.0868 -14.4688 Q-29.8524 -14.6719 -30.6337 -14.6719 Q-32.3837 -14.6719 -33.3524 -13.5703 Q-34.3212 -12.4688 -34.3212 -10.4531 Q-34.3212 -8.4531 -33.3524 -7.3438 Q-32.3837 -6.2344 -30.6337 -6.2344 Q-29.8524 -6.2344 -29.0868 -6.4453 Q-28.3212 -6.6562 -27.5712 -7.0781 L-27.5712 -5.4219 Q-28.3212 -5.0625 -29.1259 -4.8906 Q-29.9305 -4.7188 -30.8368 -4.7188 Q-33.3055 -4.7188 -34.7587 -6.2734 Q-36.2118 -7.8281 -36.2118 -10.4531 Q-36.2118 -13.1406 -34.743 -14.6719 Q-33.2743 -16.2031 -30.7118 -16.2031 Q-29.8837 -16.2031 -29.0946 -16.0312 Q-28.3055 -15.8594 -27.5712 -15.5156 ZM-22.6173 -19.0469 L-22.6173 -15.9375 L-18.9142 -15.9375 L-18.9142 -14.5469 L-22.6173 -14.5469 L-22.6173 -8.6094 Q-22.6173 -7.2656 -22.2501 -6.8828 Q-21.8829 -6.5 -20.7579 -6.5 L-18.9142 -6.5 L-18.9142 -5 L-20.7579 -5 Q-22.836 -5 -23.6251 -5.7734 Q-24.4142 -6.5469 -24.4142 -8.6094 L-24.4142 -14.5469 L-25.7423 -14.5469 L-25.7423 -15.9375 L-24.4142 -15.9375 L-24.4142 -19.0469 L-22.6173 -19.0469 ZM-16.5043 -15.9375 L-14.7075 -15.9375 L-14.7075 -5 L-16.5043 -5 L-16.5043 -15.9375 ZM-16.5043 -20.2031 L-14.7075 -20.2031 L-14.7075 -17.9219 L-16.5043 -17.9219 L-16.5043 -20.2031 ZM-12.2185 -15.9375 L-10.3123 -15.9375 L-6.8904 -6.7656 L-3.4685 -15.9375 L-1.5779 -15.9375 L-5.6717 -5 L-8.1092 -5 L-12.2185 -15.9375 ZM0.9698 -15.9375 L2.7666 -15.9375 L2.7666 -5 L0.9698 -5 L0.9698 -15.9375 ZM0.9698 -20.2031 L2.7666 -20.2031 L2.7666 -17.9219 L0.9698 -17.9219 L0.9698 -20.2031 ZM8.3181 -19.0469 L8.3181 -15.9375 L12.0212 -15.9375 L12.0212 -14.5469 L8.3181 -14.5469 L8.3181 -8.6094 Q8.3181 -7.2656 8.6853 -6.8828 Q9.0524 -6.5 10.1774 -6.5 L12.0212 -6.5 L12.0212 -5 L10.1774 -5 Q8.0993 -5 7.3103 -5.7734 Q6.5212 -6.5469 6.5212 -8.6094 L6.5212 -14.5469 L5.1931 -14.5469 L5.1931 -15.9375 L6.5212 -15.9375 L6.5212 -19.0469 L8.3181 -19.0469 ZM18.9779 -3.9844 Q18.2122 -2.0312 17.4935 -1.4375 Q16.7747 -0.8438 15.556 -0.8438 L14.1185 -0.8438 L14.1185 -2.3438 L15.181 -2.3438 Q15.9154 -2.3438 16.3294 -2.6953 Q16.7435 -3.0469 17.2435 -4.3594 L17.556 -5.1719 L13.1341 -15.9375 L15.0404 -15.9375 L18.4622 -7.3906 L21.8841 -15.9375 L23.7747 -15.9375 L18.9779 -3.9844 ZM32.5378 -20.2031 L36.6784 -20.2031 L36.6784 -18.7969 L34.3346 -18.7969 L34.3346 -3.7656 L36.6784 -3.7656 L36.6784 -2.3594 L32.5378 -2.3594 L32.5378 -20.2031 ZM47.7365 -14.2812 L47.7365 -20.2031 L49.5333 -20.2031 L49.5333 -5 L47.7365 -5 L47.7365 -6.6406 Q47.174 -5.6719 46.3068 -5.1953 Q45.4396 -4.7188 44.2365 -4.7188 Q42.2521 -4.7188 41.0099 -6.2969 Q39.7677 -7.875 39.7677 -10.4531 Q39.7677 -13.0312 41.0099 -14.6172 Q42.2521 -16.2031 44.2365 -16.2031 Q45.4396 -16.2031 46.3068 -15.7266 Q47.174 -15.25 47.7365 -14.2812 ZM41.6115 -10.4531 Q41.6115 -8.4844 42.4318 -7.3516 Q43.2521 -6.2188 44.674 -6.2188 Q46.0958 -6.2188 46.9161 -7.3516 Q47.7365 -8.4844 47.7365 -10.4531 Q47.7365 -12.4375 46.9161 -13.5703 Q46.0958 -14.7031 44.674 -14.7031 Q43.2521 -14.7031 42.4318 -13.5703 Q41.6115 -12.4375 41.6115 -10.4531 ZM55.3506 -11.9688 L55.3506 -6.625 L58.5069 -6.625 Q60.1006 -6.625 60.8663 -7.2812 Q61.6319 -7.9375 61.6319 -9.2969 Q61.6319 -10.6719 60.8663 -11.3203 Q60.1006 -11.9688 58.5069 -11.9688 L55.3506 -11.9688 ZM55.3506 -17.9531 L55.3506 -13.5625 L58.2725 -13.5625 Q59.71 -13.5625 60.421 -14.1094 Q61.1319 -14.6562 61.1319 -15.7656 Q61.1319 -16.8594 60.421 -17.4062 Q59.71 -17.9531 58.2725 -17.9531 L55.3506 -17.9531 ZM53.3819 -19.5781 L58.4131 -19.5781 Q60.6788 -19.5781 61.8975 -18.6406 Q63.1163 -17.7031 63.1163 -15.9844 Q63.1163 -14.6406 62.4913 -13.8516 Q61.8663 -13.0625 60.6475 -12.8594 Q62.1006 -12.5469 62.9131 -11.5547 Q63.7256 -10.5625 63.7256 -9.0781 Q63.7256 -7.125 62.3975 -6.0625 Q61.0694 -5 58.6163 -5 L53.3819 -5 L53.3819 -19.5781 ZM67.0888 -15.9375 L68.8857 -15.9375 L68.8857 -5 L67.0888 -5 L67.0888 -15.9375 ZM67.0888 -20.2031 L68.8857 -20.2031 L68.8857 -17.9219 L67.0888 -17.9219 L67.0888 -20.2031 ZM76.859 -20.2031 L76.859 -2.3594 L72.7184 -2.3594 L72.7184 -3.7656 L75.0621 -3.7656 L75.0621 -18.7969 L72.7184 -18.7969 L72.7184 -20.2031 L76.859 -20.2031 Z"></path></g><g style="stroke-linecap:butt; fill:rgb(0,114,189); text-rendering:geometricPrecision; image-rendering:optimizeQuality; color-rendering:optimizeQuality; stroke-linejoin:round; stroke:rgb(0,114,189); color-interpolation:linearRGB; stroke-width:3.2639;"><path d="M72 136.5009 L72.8537 136.4963 L73.7074 136.4826 L74.5611 136.4597 L75.4148 136.4278 L76.2685 136.3867 L77.1222 136.3367 L77.9759 136.2777 L78.8297 136.2099 L79.6834 136.1332 L80.5371 136.0479 L81.3908 135.9539 L82.2445 135.8515 L83.0982 135.7407 L83.9519 135.6217 L84.8056 135.4946 L85.6593 135.3596 L86.513 135.2169 L87.3667 135.0665 L88.2204 134.9087 L89.0742 134.7437 L89.9279 134.5716 L90.7816 134.3927 L91.6353 134.2071 L92.489 134.0152 L93.3427 133.817 L94.1964 133.6128 L95.0501 133.4029 L95.9038 133.1874 L96.7575 132.9667 L97.6112 132.7409 L98.4649 132.5104 L99.3186 132.2752 L100.1723 132.0358 L101.026 131.7924 L101.8798 131.5451 L102.7335 131.2944 L103.5872 131.0404 L104.4409 130.7833 L105.2946 130.5236 L106.1483 130.2614 L107.002 129.997 L107.8557 129.7306 L108.7094 129.4626 L109.5631 129.1933 L110.4168 128.9228 L111.2705 128.6514 L112.1243 128.3795 L112.978 128.1073 L113.8317 127.8351 L114.6854 127.5631 L115.5391 127.2916 L116.3928 127.0209 L117.2465 126.7513 L118.1002 126.4829 L118.9539 126.2162 L119.8076 125.9514 L120.6613 125.6887 L121.515 125.4284 L122.3687 125.1707 L123.2225 124.9161 L124.0761 124.6647 L124.9299 124.4167 L125.7836 124.1726 L126.6373 123.9324 L127.491 123.6966 L128.3447 123.4654 L129.1984 123.2391 L130.0521 123.0179 L130.9058 122.8022 L131.7595 122.5921 L132.6132 122.3881 L133.4669 122.1903 L134.3206 121.9991 L135.1743 121.8147 L136.0281 121.6375 L136.8818 121.4678 L137.7355 121.3058 L138.5892 121.1518 L139.4429 121.0062 L140.2966 120.8693 L141.1503 120.7415 L142.004 120.6229 L142.8577 120.514 L143.7114 120.4152 L144.5651 120.3267 L145.4188 120.2489 L146.2726 120.1822 L147.1263 120.127 L147.98 120.0836 L148.8337 120.0525 L149.6874 120.0341 L150.5411 120.0287 L151.3948 120.0369 L152.2485 120.0591 L153.1022 120.0958 L153.9559 120.1474 L154.8096 120.2145 L155.6633 120.2976 L156.517 120.3973 L157.3707 120.5141 L158.2244 120.6487 L159.0782 120.8016 L159.9319 120.9737 L160.7856 121.1655 L161.6393 121.3778 L162.493 121.6114 L163.3467 121.8672 L164.2004 122.1459 L165.0541 122.4486 L165.9078 122.7763 L166.7615 123.1299 L167.6152 123.5106 L168.4689 123.9196 L169.3226 124.3583 L170.1764 124.8279 L171.0301 125.33 L171.8838 125.8662 L172.7375 126.4382 L173.5912 127.0479 L174.4449 127.6974 L175.2986 128.3888 L176.1523 129.1247 L177.006 129.9076 L177.8597 130.7405 L178.7134 131.6268 L179.5671 132.5698 L180.4208 133.5737 L181.2746 134.643 L182.1283 135.7825 L182.982 136.998 L183.8357 138.2958 L184.6894 139.6833 L185.5431 141.1687 L186.3968 142.7617 L187.2505 144.4735 L188.1042 146.3173 L188.9579 148.3085 L189.8116 150.4658 L190.6653 152.8116 L191.519 155.3734 L192.3727 158.1855 L193.2265 161.2909 L194.0802 164.7456 L194.9339 168.6232 L195.7876 173.0243 L196.6413 178.0903 L197.495 184.0303 L198.3487 191.1718 L199.2024 200.0716 L200.0561 211.7974 L200.9098 228.842 L201.7635 259.9264 L202.6172 326.8885 L203.4709 246.389 L204.3246 220.9961 L205.1784 205.3302 L206.0321 193.9193 L206.8858 184.9104 L207.7395 177.4483 L208.5932 171.0672 L209.4469 165.485 L210.3006 160.5181 L211.1543 156.04 L212.008 151.9601 L212.8617 148.2111 L213.7154 144.7417 L214.5691 141.5118 L215.4229 138.4899 L216.2766 135.6501 L217.1303 132.9714 L217.984 130.4364 L218.8377 128.0305 L219.6914 125.7412 L220.5451 123.558 L221.3988 121.4716 L222.2525 119.4744 L223.1062 117.5592 L223.9599 115.7202 L224.8136 113.9518 L225.6673 112.2495 L226.521 110.609 L227.3748 109.0265 L228.2285 107.4987 L229.0822 106.0224 L229.9359 104.595 L230.7896 103.2139 L231.6433 101.8768 L232.497 100.5817 L233.3507 99.3267 L234.2044 98.11 L235.0581 96.9301 L235.9118 95.7854 L236.7655 94.6747 L237.6192 93.5966 L238.4729 92.55 L239.3267 91.5339 L240.1804 90.5471 L241.0341 89.5889 L241.8878 88.6584 L242.7415 87.7546 L243.5952 86.8769 L244.4489 86.0246 L245.3026 85.197 L246.1563 84.3935 L247.01 83.6135 L247.8637 82.8565 L248.7174 82.122 L249.5711 81.4094 L250.4249 80.7184 L251.2786 80.0484 L252.1323 79.3992 L252.986 78.7703 L253.8397 78.1614 L254.6934 77.5721 L255.5471 77.0021 L256.4008 76.4511 L257.2545 75.9189 L258.1082 75.4052 L258.9619 74.9097 L259.8156 74.4321 L260.6693 73.9724 L261.523 73.5301 L262.3767 73.1053 L263.2305 72.6975 L264.0842 72.3068 L264.9379 71.9329 L265.7916 71.5756 L266.6453 71.2349 L267.499 70.9105 L268.3527 70.6024 L269.2064 70.3103 L270.0601 70.0343 L270.9138 69.7742 L271.7675 69.5299 L272.6212 69.3012 L273.4749 69.0882 L274.3286 68.8907 L275.1824 68.7087 L276.0361 68.5421 L276.8898 68.3908 L277.7435 68.2548 L278.5972 68.134 L279.4509 68.0285 L280.3046 67.938 L281.1583 67.8627 L282.012 67.8025 L282.8657 67.7574 L283.7195 67.7273 L284.5732 67.7122 L285.4268 67.7122 L286.2805 67.7273 L287.1343 67.7574 L287.988 67.8025 L288.8417 67.8627 L289.6954 67.938 L290.5491 68.0285 L291.4028 68.134 L292.2565 68.2548 L293.1102 68.3908 L293.9639 68.5421 L294.8176 68.7087 L295.6714 68.8907 L296.5251 69.0882 L297.3788 69.3012 L298.2325 69.5299 L299.0862 69.7742 L299.9399 70.0343 L300.7936 70.3103 L301.6473 70.6024 L302.501 70.9105 L303.3547 71.2349 L304.2084 71.5756 L305.0621 71.9329 L305.9158 72.3068 L306.7695 72.6975 L307.6233 73.1053 L308.477 73.5301 L309.3307 73.9724 L310.1844 74.4321 L311.0381 74.9097 L311.8918 75.4052 L312.7455 75.9189 L313.5992 76.4511 L314.4529 77.0021 L315.3066 77.5721 L316.1603 78.1614 L317.014 78.7703 L317.8677 79.3992 L318.7214 80.0484 L319.5752 80.7184 L320.4289 81.4094 L321.2826 82.122 L322.1363 82.8565 L322.99 83.6135 L323.8437 84.3935 L324.6974 85.197 L325.5511 86.0246 L326.4048 86.8769 L327.2585 87.7546 L328.1122 88.6584 L328.9659 89.5889 L329.8196 90.5471 L330.6733 91.5339 L331.5271 92.55 L332.3808 93.5966 L333.2345 94.6747 L334.0882 95.7854 L334.9419 96.9301 L335.7956 98.11 L336.6493 99.3267 L337.503 100.5817 L338.3567 101.8768 L339.2104 103.2139 L340.0641 104.595 L340.9178 106.0224 L341.7715 107.4987 L342.6252 109.0265 L343.479 110.609 L344.3327 112.2495 L345.1864 113.9518 L346.0401 115.7202 L346.8938 117.5592 L347.7475 119.4744 L348.6012 121.4716 L349.4549 123.558 L350.3086 125.7412 L351.1623 128.0305 L352.016 130.4364 L352.8698 132.9714 L353.7234 135.6501 L354.5771 138.4899 L355.4309 141.5118 L356.2846 144.7417 L357.1383 148.2111 L357.992 151.9601 L358.8457 156.04 L359.6994 160.5181 L360.5531 165.485 L361.4068 171.0672 L362.2605 177.4483 L363.1142 184.9104 L363.9679 193.9193 L364.8217 205.3302 L365.6754 220.9961 L366.5291 246.389 L367.3828 326.8885 L368.2365 259.9264 L369.0902 228.842 L369.9439 211.7974 L370.7976 200.0716 L371.6513 191.1718 L372.505 184.0303 L373.3587 178.0903 L374.2124 173.0243 L375.0661 168.6232 L375.9198 164.7456 L376.7735 161.2909 L377.6273 158.1855 L378.481 155.3734 L379.3347 152.8116 L380.1884 150.4658 L381.0421 148.3085 L381.8958 146.3173 L382.7495 144.4735 L383.6032 142.7617 L384.4569 141.1687 L385.3106 139.6833 L386.1643 138.2958 L387.018 136.998 L387.8717 135.7825 L388.7255 134.643 L389.5792 133.5737 L390.4329 132.5698 L391.2866 131.6268 L392.1403 130.7405 L392.994 129.9076 L393.8477 129.1247 L394.7014 128.3888 L395.5551 127.6974 L396.4088 127.0479 L397.2625 126.4382 L398.1162 125.8662 L398.9699 125.33 L399.8236 124.8279 L400.6773 124.3583 L401.5311 123.9196 L402.3848 123.5106 L403.2385 123.1299 L404.0922 122.7763 L404.9459 122.4486 L405.7996 122.1459 L406.6533 121.8672 L407.507 121.6114 L408.3607 121.3778 L409.2144 121.1655 L410.0681 120.9737 L410.9218 120.8016 L411.7755 120.6487 L412.6293 120.5141 L413.483 120.3973 L414.3367 120.2976 L415.1904 120.2145 L416.0441 120.1474 L416.8978 120.0958 L417.7515 120.0591 L418.6052 120.0369 L419.4589 120.0287 L420.3126 120.0341 L421.1663 120.0525 L422.0201 120.0836 L422.8737 120.127 L423.7274 120.1822 L424.5811 120.2489 L425.4349 120.3267 L426.2886 120.4152 L427.1423 120.514 L427.996 120.6229 L428.8497 120.7415 L429.7034 120.8693 L430.5571 121.0062 L431.4108 121.1518 L432.2645 121.3058 L433.1182 121.4678 L433.972 121.6375 L434.8257 121.8147 L435.6794 121.9991 L436.5331 122.1903 L437.3868 122.3881 L438.2405 122.5921 L439.0942 122.8022 L439.9479 123.0179 L440.8016 123.2391 L441.6553 123.4654 L442.509 123.6966 L443.3627 123.9324 L444.2164 124.1726 L445.0701 124.4167 L445.9239 124.6647 L446.7776 124.9161 L447.6313 125.1707 L448.485 125.4284 L449.3387 125.6887 L450.1924 125.9514 L451.0461 126.2162 L451.8998 126.4829 L452.7535 126.7513 L453.6072 127.0209 L454.4609 127.2916 L455.3146 127.5631 L456.1683 127.8351 L457.022 128.1073 L457.8757 128.3795 L458.7295 128.6514 L459.5832 128.9228 L460.4369 129.1933 L461.2906 129.4626 L462.1443 129.7306 L462.998 129.997 L463.8517 130.2614 L464.7054 130.5236 L465.5591 130.7833 L466.4128 131.0404 L467.2665 131.2944 L468.1202 131.5451 L468.974 131.7924 L469.8277 132.0358 L470.6814 132.2752 L471.5351 132.5104 L472.3888 132.7409 L473.2425 132.9667 L474.0962 133.1874 L474.9499 133.4029 L475.8036 133.6128 L476.6573 133.817 L477.511 134.0152 L478.3647 134.2071 L479.2184 134.3927 L480.0721 134.5716 L480.9258 134.7437 L481.7796 134.9087 L482.6333 135.0665 L483.487 135.2169 L484.3407 135.3596 L485.1944 135.4946 L486.0481 135.6217 L486.9018 135.7407 L487.7555 135.8515 L488.6092 135.9539 L489.4629 136.0479 L490.3167 136.1332 L491.1703 136.2099 L492.024 136.2777 L492.8777 136.3367 L493.7315 136.3867 L494.5852 136.4278 L495.4389 136.4597 L496.2926 136.4826 L497.1463 136.4963 L498 136.5009" style="fill:none; fill-rule:evenodd;"></path></g><g style="stroke-linecap:butt; fill:rgb(217,83,25); text-rendering:geometricPrecision; image-rendering:optimizeQuality; color-rendering:optimizeQuality; stroke-linejoin:bevel; stroke-dasharray:12,3,6,3; stroke:rgb(217,83,25); color-interpolation:linearRGB; stroke-width:3.2639; stroke-miterlimit:1;"><path d="M72 241.5563 L72.8537 241.4566 L73.7074 241.1591 L74.5611 240.6682 L75.4148 239.9911 L76.2685 239.1374 L77.1222 238.1186 L77.9759 236.9479 L78.8297 235.6393 L79.6834 234.2075 L80.5371 232.667 L81.3908 231.0325 L82.2445 229.3178 L83.0982 227.5362 L83.9519 225.6998 L84.8056 223.82 L85.6593 221.9069 L86.513 219.9697 L87.3667 218.0166 L88.2204 216.0548 L89.0742 214.0905 L89.9279 212.1292 L90.7816 210.1756 L91.6353 208.2336 L92.489 206.3067 L93.3427 204.3978 L94.1964 202.5092 L95.0501 200.6428 L95.9038 198.8004 L96.7575 196.9831 L97.6112 195.1921 L98.4649 193.4281 L99.3186 191.6917 L100.1723 189.9832 L101.026 188.3031 L101.8798 186.6514 L102.7335 185.0282 L103.5872 183.4335 L104.4409 181.867 L105.2946 180.3288 L106.1483 178.8184 L107.002 177.3357 L107.8557 175.8804 L108.7094 174.4522 L109.5631 173.0507 L110.4168 171.6755 L111.2705 170.3263 L112.1243 169.0028 L112.978 167.7045 L113.8317 166.431 L114.6854 165.1821 L115.5391 163.9573 L116.3928 162.7562 L117.2465 161.5785 L118.1002 160.4239 L118.9539 159.2919 L119.8076 158.1823 L120.6613 157.0947 L121.515 156.0288 L122.3687 154.9843 L123.2225 153.9609 L124.0761 152.9582 L124.9299 151.9761 L125.7836 151.0142 L126.6373 150.0723 L127.491 149.1501 L128.3447 148.2475 L129.1984 147.364 L130.0521 146.4997 L130.9058 145.6541 L131.7595 144.8272 L132.6132 144.0188 L133.4669 143.2286 L134.3206 142.4565 L135.1743 141.7023 L136.0281 140.966 L136.8818 140.2473 L137.7355 139.5461 L138.5892 138.8624 L139.4429 138.1959 L140.2966 137.5466 L141.1503 136.9144 L142.004 136.2992 L142.8577 135.7009 L143.7114 135.1196 L144.5651 134.5549 L145.4188 134.0071 L146.2726 133.476 L147.1263 132.9615 L147.98 132.4638 L148.8337 131.9826 L149.6874 131.5181 L150.5411 131.0702 L151.3948 130.639 L152.2485 130.2244 L153.1022 129.8266 L153.9559 129.4454 L154.8096 129.0811 L155.6633 128.7336 L156.517 128.403 L157.3707 128.0893 L158.2244 127.7928 L159.0782 127.5134 L159.9319 127.2512 L160.7856 127.0065 L161.6393 126.7792 L162.493 126.5696 L163.3467 126.3778 L164.2004 126.204 L165.0541 126.0483 L165.9078 125.9109 L166.7615 125.7921 L167.6152 125.692 L168.4689 125.6108 L169.3226 125.5489 L170.1764 125.5065 L171.0301 125.4839 L171.8838 125.4813 L172.7375 125.4991 L173.5912 125.5375 L174.4449 125.5971 L175.2986 125.6781 L176.1523 125.781 L177.006 125.9062 L177.8597 126.0541 L178.7134 126.2252 L179.5671 126.4201 L180.4208 126.6392 L181.2746 126.8832 L182.1283 127.1528 L182.982 127.4485 L183.8357 127.771 L184.6894 128.1212 L185.5431 128.4998 L186.3968 128.9078 L187.2505 129.3459 L188.1042 129.8153 L188.9579 130.317 L189.8116 130.8521 L190.6653 131.4219 L191.519 132.0277 L192.3727 132.671 L193.2265 133.3533 L194.0802 134.0763 L194.9339 134.8419 L195.7876 135.652 L196.6413 136.509 L197.495 137.4152 L198.3487 138.3732 L199.2024 139.3859 L200.0561 140.4567 L200.9098 141.5891 L201.7635 142.787 L202.6172 144.055 L203.4709 145.398 L204.3246 146.8217 L205.1784 148.3326 L206.0321 149.9378 L206.8858 151.6459 L207.7395 153.4665 L208.5932 155.4108 L209.4469 157.4922 L210.3006 159.7262 L211.1543 162.1316 L212.008 164.731 L212.8617 167.5522 L213.7154 170.6297 L214.5691 174.0072 L215.4229 177.7411 L216.2766 181.9061 L217.1303 186.604 L217.984 191.9785 L218.8377 198.2424 L219.6914 205.7298 L220.5451 215.011 L221.3988 227.1868 L222.2525 244.8552 L223.1062 277.3535 L223.9599 333.2739 L224.8136 261.0179 L225.6673 236.5919 L226.521 221.4915 L227.3748 210.5365 L228.2285 201.9406 L229.0822 194.872 L229.9359 188.8753 L230.7896 183.6738 L231.6433 179.0871 L232.497 174.9904 L233.3507 171.2945 L234.2044 167.9328 L235.0581 164.8549 L235.9118 162.0213 L236.7655 159.4004 L237.6192 156.9671 L238.4729 154.7006 L239.3267 152.5837 L240.1804 150.602 L241.0341 148.7433 L241.8878 146.9973 L242.7415 145.3551 L243.5952 143.8091 L244.4489 142.3525 L245.3026 140.9795 L246.1563 139.6851 L247.01 138.4647 L247.8637 137.3144 L248.7174 136.2306 L249.5711 135.2104 L250.4249 134.2508 L251.2786 133.3494 L252.1323 132.5041 L252.986 131.713 L253.8397 130.9742 L254.6934 130.2862 L255.5471 129.6478 L256.4008 129.0576 L257.2545 128.5148 L258.1082 128.0183 L258.9619 127.5675 L259.8156 127.1616 L260.6693 126.8001 L261.523 126.4827 L262.3767 126.2091 L263.2305 125.9789 L264.0842 125.7922 L264.9379 125.6489 L265.7916 125.5491 L266.6453 125.493 L267.499 125.481 L268.3527 125.5135 L269.2064 125.591 L270.0601 125.7141 L270.9138 125.8836 L271.7675 126.1005 L272.6212 126.3658 L273.4749 126.6806 L274.3286 127.0463 L275.1824 127.4646 L276.0361 127.9371 L276.8898 128.4657 L277.7435 129.0528 L278.5972 129.7007 L279.4509 130.4123 L280.3046 131.1907 L281.1583 132.0395 L282.012 132.9627 L282.8657 133.9648 L283.7195 135.051 L284.5732 136.2273 L285.4268 137.5003 L286.2805 138.8779 L287.1343 140.3691 L287.988 141.9845 L288.8417 143.7364 L289.6954 145.6396 L290.5491 147.7115 L291.4028 149.9735 L292.2565 152.4514 L293.1102 155.1775 L293.9639 158.1924 L294.8176 161.5483 L295.6714 165.3139 L296.5251 169.582 L297.3788 174.4826 L298.2325 180.205 L299.0862 187.0416 L299.9399 195.479 L300.7936 206.4193 L301.6473 221.8516 L302.501 247.8716 L303.3547 352.5619 L304.2084 253.5948 L305.0621 223.7236 L305.9158 206.5723 L306.7695 194.4436 L307.6233 185.0294 L308.477 177.3209 L309.3307 170.7859 L310.1844 165.1091 L311.0381 160.0882 L311.8918 155.5854 L312.7455 151.5029 L313.5992 147.7684 L314.4529 144.3274 L315.3066 141.1374 L316.1603 138.1647 L317.014 135.3822 L317.8677 132.7678 L318.7214 130.3032 L319.5752 127.973 L320.4289 125.7642 L321.2826 123.6657 L322.1363 121.6679 L322.99 119.7626 L323.8437 117.9426 L324.6974 116.2015 L325.5511 114.5336 L326.4048 112.9341 L327.2585 111.3984 L328.1122 109.9227 L328.9659 108.5033 L329.8196 107.1369 L330.6733 105.8208 L331.5271 104.5522 L332.3808 103.3286 L333.2345 102.1479 L334.0882 101.0081 L334.9419 99.9072 L335.7956 98.8435 L336.6493 97.8155 L337.503 96.8216 L338.3567 95.8605 L339.2104 94.9308 L340.0641 94.0315 L340.9178 93.1614 L341.7715 92.3194 L342.6252 91.5046 L343.479 90.716 L344.3327 89.9529 L345.1864 89.2142 L346.0401 88.4995 L346.8938 87.8078 L347.7475 87.1385 L348.6012 86.4909 L349.4549 85.8645 L350.3086 85.2587 L351.1623 84.6728 L352.016 84.1064 L352.8698 83.559 L353.7234 83.0301 L354.5771 82.5191 L355.4309 82.0258 L356.2846 81.5496 L357.1383 81.0901 L357.992 80.6471 L358.8457 80.22 L359.6994 79.8085 L360.5531 79.4124 L361.4068 79.0312 L362.2605 78.6646 L363.1142 78.3124 L363.9679 77.9742 L364.8217 77.6498 L365.6754 77.3388 L366.5291 77.0411 L367.3828 76.7562 L368.2365 76.4841 L369.0902 76.2243 L369.9439 75.9768 L370.7976 75.7413 L371.6513 75.5175 L372.505 75.3052 L373.3587 75.1042 L374.2124 74.9143 L375.0661 74.7353 L375.9198 74.567 L376.7735 74.4091 L377.6273 74.2616 L378.481 74.1243 L379.3347 73.9968 L380.1884 73.8791 L381.0421 73.771 L381.8958 73.6723 L382.7495 73.5829 L383.6032 73.5025 L384.4569 73.4311 L385.3106 73.3684 L386.1643 73.3143 L387.018 73.2687 L387.8717 73.2313 L388.7255 73.2021 L389.5792 73.1809 L390.4329 73.1675 L391.2866 73.1618 L392.1403 73.1637 L392.994 73.173 L393.8477 73.1895 L394.7014 73.2132 L395.5551 73.2439 L396.4088 73.2814 L397.2625 73.3257 L398.1162 73.3766 L398.9699 73.4339 L399.8236 73.4976 L400.6773 73.5674 L401.5311 73.6434 L402.3848 73.7253 L403.2385 73.8129 L404.0922 73.9063 L404.9459 74.0052 L405.7996 74.1096 L406.6533 74.2192 L407.507 74.3341 L408.3607 74.454 L409.2144 74.5788 L410.0681 74.7085 L410.9218 74.8428 L411.7755 74.9817 L412.6293 75.125 L413.483 75.2727 L414.3367 75.4245 L415.1904 75.5804 L416.0441 75.7403 L416.8978 75.9039 L417.7515 76.0713 L418.6052 76.2423 L419.4589 76.4168 L420.3126 76.5945 L421.1663 76.7755 L422.0201 76.9596 L422.8737 77.1467 L423.7274 77.3366 L424.5811 77.5293 L425.4349 77.7245 L426.2886 77.9223 L427.1423 78.1224 L427.996 78.3247 L428.8497 78.5292 L429.7034 78.7357 L430.5571 78.944 L431.4108 79.1541 L432.2645 79.3658 L433.1182 79.579 L433.972 79.7936 L434.8257 80.0095 L435.6794 80.2264 L436.5331 80.4445 L437.3868 80.6633 L438.2405 80.883 L439.0942 81.1032 L439.9479 81.324 L440.8016 81.5452 L441.6553 81.7667 L442.509 81.9883 L443.3627 82.2099 L444.2164 82.4314 L445.0701 82.6526 L445.9239 82.8735 L446.7776 83.094 L447.6313 83.3138 L448.485 83.5329 L449.3387 83.7511 L450.1924 83.9684 L451.0461 84.1846 L451.8998 84.3995 L452.7535 84.6132 L453.6072 84.8253 L454.4609 85.0359 L455.3146 85.2448 L456.1683 85.4518 L457.022 85.657 L457.8757 85.86 L458.7295 86.0609 L459.5832 86.2595 L460.4369 86.4557 L461.2906 86.6493 L462.1443 86.8404 L462.998 87.0286 L463.8517 87.214 L464.7054 87.3965 L465.5591 87.5758 L466.4128 87.752 L467.2665 87.9249 L468.1202 88.0944 L468.974 88.2604 L469.8277 88.4228 L470.6814 88.5815 L471.5351 88.7363 L472.3888 88.8873 L473.2425 89.0344 L474.0962 89.1773 L474.9499 89.3161 L475.8036 89.4506 L476.6573 89.5808 L477.511 89.7066 L478.3647 89.8279 L479.2184 89.9446 L480.0721 90.0566 L480.9258 90.164 L481.7796 90.2665 L482.6333 90.3642 L483.487 90.457 L484.3407 90.5448 L485.1944 90.6276 L486.0481 90.7053 L486.9018 90.7779 L487.7555 90.8452 L488.6092 90.9074 L489.4629 90.9643 L490.3167 91.0159 L491.1703 91.0621 L492.024 91.103 L492.8777 91.1384 L493.7315 91.1685 L494.5852 91.1931 L495.4389 91.2123 L496.2926 91.226 L497.1463 91.2342 L498 91.237" style="fill:none; fill-rule:evenodd;"></path></g><g transform="translate(285.4268,67.7122)" style="fill:rgb(0,114,189); text-rendering:geometricPrecision; color-rendering:optimizeQuality; image-rendering:optimizeQuality; color-interpolation:linearRGB; stroke:rgb(0,114,189);"><path style="stroke:none;" d="M0 -9.9213 L-8.5918 4.9606 L8.5918 4.9606 Z"></path><path d="M0 9.9213 L-8.5918 -4.9606 L8.5918 -4.9606 Z" style="fill:rgb(217,83,25); stroke:none;" transform="translate(0,69.788)"></path></g><g style="fill:white; text-rendering:optimizeSpeed; color-rendering:optimizeSpeed; image-rendering:optimizeSpeed; shape-rendering:crispEdges; stroke:white; color-interpolation:sRGB;"><path style="stroke:none;" d="M488 344 L488 294 L268 294 L268 344 Z"></path></g><g transform="translate(314.3422,306.1212)" style="font-size:16.45px; text-rendering:geometricPrecision; color-rendering:optimizeQuality; image-rendering:optimizeQuality; font-family:'SansSerif'; color-interpolation:linearRGB;"><path style="stroke:none;" d="M1.9844 4.6719 L4.5625 4.6719 L4.5625 -4.2344 L1.7656 -3.6719 L1.7656 -5.1094 L4.5469 -5.6719 L6.125 -5.6719 L6.125 4.6719 L8.7031 4.6719 L8.7031 6 L1.9844 6 L1.9844 4.6719 ZM15.5518 -4.625 Q14.333 -4.625 13.7159 -3.4297 Q13.0987 -2.2344 13.0987 0.1719 Q13.0987 2.5781 13.7159 3.7734 Q14.333 4.9688 15.5518 4.9688 Q16.7705 4.9688 17.3877 3.7734 Q18.0049 2.5781 18.0049 0.1719 Q18.0049 -2.2344 17.3877 -3.4297 Q16.7705 -4.625 15.5518 -4.625 ZM15.5518 -5.875 Q17.5049 -5.875 18.544 -4.3281 Q19.583 -2.7812 19.583 0.1719 Q19.583 3.125 18.544 4.6797 Q17.5049 6.2344 15.5518 6.2344 Q13.583 6.2344 12.5518 4.6797 Q11.5205 3.125 11.5205 0.1719 Q11.5205 -2.7812 12.5518 -4.3281 Q13.583 -5.875 15.5518 -5.875 ZM27.5942 -6.1562 L29.0473 -6.1562 L29.0473 1.0156 L33.3286 -2.75 L35.1723 -2.75 L30.5317 1.3438 L35.3598 6 L33.4848 6 L29.0473 1.7188 L29.0473 6 L27.5942 6 L27.5942 -6.1562 ZM37.2382 -5.6719 L38.8163 -5.6719 L38.8163 -0.8906 L44.5507 -0.8906 L44.5507 -5.6719 L46.1288 -5.6719 L46.1288 6 L44.5507 6 L44.5507 0.4375 L38.8163 0.4375 L38.8163 6 L37.2382 6 L37.2382 -5.6719 ZM48.9109 -2.75 L55.739 -2.75 L55.739 -1.4375 L50.3328 4.8438 L55.739 4.8438 L55.739 6 L48.7078 6 L48.7078 4.6875 L54.114 -1.6094 L48.9109 -1.6094 L48.9109 -2.75 ZM58.5234 4.0156 L60.1796 4.0156 L60.1796 5.3594 L58.8984 7.8594 L57.8828 7.8594 L58.5234 5.3594 L58.5234 4.0156 ZM75.8796 0.7188 L75.8796 6 L74.4421 6 L74.4421 0.7656 Q74.4421 -0.4844 73.9578 -1.1016 Q73.4734 -1.7188 72.5046 -1.7188 Q71.3484 -1.7188 70.6765 -0.9766 Q70.0046 -0.2344 70.0046 1.0469 L70.0046 6 L68.5515 6 L68.5515 -2.75 L70.0046 -2.75 L70.0046 -1.3906 Q70.5203 -2.1875 71.2156 -2.5781 Q71.9109 -2.9688 72.8328 -2.9688 Q74.3328 -2.9688 75.1062 -2.0312 Q75.8796 -1.0938 75.8796 0.7188 ZM82.4225 -1.75 Q81.2663 -1.75 80.5944 -0.8438 Q79.9225 0.0625 79.9225 1.625 Q79.9225 3.2031 80.5866 4.1016 Q81.2507 5 82.4225 5 Q83.5632 5 84.235 4.0938 Q84.9069 3.1875 84.9069 1.625 Q84.9069 0.0781 84.235 -0.8359 Q83.5632 -1.75 82.4225 -1.75 ZM82.4225 -2.9688 Q84.2975 -2.9688 85.3679 -1.75 Q86.4382 -0.5312 86.4382 1.625 Q86.4382 3.7812 85.3679 5.0078 Q84.2975 6.2344 82.4225 6.2344 Q80.5319 6.2344 79.4694 5.0078 Q78.4069 3.7812 78.4069 1.625 Q78.4069 -0.5312 79.4694 -1.75 Q80.5319 -2.9688 82.4225 -2.9688 ZM99.8918 -2.5 L99.8918 -1.1406 Q99.2824 -1.4531 98.6262 -1.6094 Q97.9699 -1.7656 97.2668 -1.7656 Q96.1887 -1.7656 95.6574 -1.4375 Q95.1262 -1.1094 95.1262 -0.4531 Q95.1262 0.0469 95.509 0.3359 Q95.8918 0.625 97.048 0.875 L97.5324 0.9844 Q99.0637 1.3125 99.7121 1.9141 Q100.3605 2.5156 100.3605 3.5781 Q100.3605 4.7969 99.3918 5.5156 Q98.423 6.2344 96.7355 6.2344 Q96.0324 6.2344 95.2746 6.0938 Q94.5168 5.9531 93.673 5.6719 L93.673 4.1875 Q94.4699 4.6094 95.2433 4.8125 Q96.0168 5.0156 96.7668 5.0156 Q97.7824 5.0156 98.3293 4.6719 Q98.8762 4.3281 98.8762 3.6875 Q98.8762 3.1094 98.4855 2.7969 Q98.0949 2.4844 96.7512 2.1875 L96.2512 2.0781 Q94.923 1.7969 94.3293 1.2109 Q93.7355 0.625 93.7355 -0.3906 Q93.7355 -1.625 94.6105 -2.2969 Q95.4855 -2.9688 97.0949 -2.9688 Q97.8918 -2.9688 98.5949 -2.8516 Q99.298 -2.7344 99.8918 -2.5 ZM104.2994 -5.2344 L104.2994 -2.75 L107.2525 -2.75 L107.2525 -1.6406 L104.2994 -1.6406 L104.2994 3.1094 Q104.2994 4.1875 104.5885 4.4922 Q104.8775 4.7969 105.7838 4.7969 L107.2525 4.7969 L107.2525 6 L105.7838 6 Q104.1119 6 103.4791 5.375 Q102.8463 4.75 102.8463 3.1094 L102.8463 -1.6406 L101.7994 -1.6406 L101.7994 -2.75 L102.8463 -2.75 L102.8463 -5.2344 L104.2994 -5.2344 ZM116.8069 1.2656 L116.8069 1.9688 L110.1975 1.9688 Q110.2913 3.4531 111.0881 4.2266 Q111.885 5 113.3225 5 Q114.1506 5 114.9241 4.7969 Q115.6975 4.5938 116.4631 4.1875 L116.4631 5.5469 Q115.6975 5.875 114.885 6.0547 Q114.0725 6.2344 113.2288 6.2344 Q111.135 6.2344 109.9163 5.0078 Q108.6975 3.7812 108.6975 1.7031 Q108.6975 -0.4375 109.8538 -1.7031 Q111.01 -2.9688 112.9788 -2.9688 Q114.7444 -2.9688 115.7756 -1.8281 Q116.8069 -0.6875 116.8069 1.2656 ZM115.3694 0.8438 Q115.3538 -0.3438 114.7053 -1.0469 Q114.0569 -1.75 112.9944 -1.75 Q111.7913 -1.75 111.0725 -1.0703 Q110.3538 -0.3906 110.2444 0.8438 L115.3694 0.8438 ZM126.9198 1.2656 L126.9198 1.9688 L120.3104 1.9688 Q120.4042 3.4531 121.201 4.2266 Q121.9979 5 123.4354 5 Q124.2635 5 125.037 4.7969 Q125.8104 4.5938 126.576 4.1875 L126.576 5.5469 Q125.8104 5.875 124.9979 6.0547 Q124.1854 6.2344 123.3417 6.2344 Q121.2479 6.2344 120.0292 5.0078 Q118.8104 3.7812 118.8104 1.7031 Q118.8104 -0.4375 119.9667 -1.7031 Q121.1229 -2.9688 123.0917 -2.9688 Q124.8573 -2.9688 125.8885 -1.8281 Q126.9198 -0.6875 126.9198 1.2656 ZM125.4823 0.8438 Q125.4667 -0.3438 124.8182 -1.0469 Q124.1698 -1.75 123.1073 -1.75 Q121.9042 -1.75 121.1854 -1.0703 Q120.4667 -0.3906 120.3573 0.8438 L125.4823 0.8438 ZM134.6108 -1.4062 Q134.3765 -1.5469 134.0874 -1.6172 Q133.7983 -1.6875 133.4546 -1.6875 Q132.2358 -1.6875 131.5874 -0.8906 Q130.939 -0.0938 130.939 1.3906 L130.939 6 L129.4858 6 L129.4858 -2.75 L130.939 -2.75 L130.939 -1.3906 Q131.3921 -2.1875 132.1187 -2.5781 Q132.8452 -2.9688 133.8765 -2.9688 Q134.0327 -2.9688 134.2124 -2.9453 Q134.3921 -2.9219 134.6108 -2.8906 L134.6108 -1.4062 ZM136.3063 -2.75 L137.7438 -2.75 L137.7438 6 L136.3063 6 L136.3063 -2.75 ZM136.3063 -6.1562 L137.7438 -6.1562 L137.7438 -4.3438 L136.3063 -4.3438 L136.3063 -6.1562 ZM148.1388 0.7188 L148.1388 6 L146.7013 6 L146.7013 0.7656 Q146.7013 -0.4844 146.2169 -1.1016 Q145.7326 -1.7188 144.7638 -1.7188 Q143.6076 -1.7188 142.9357 -0.9766 Q142.2638 -0.2344 142.2638 1.0469 L142.2638 6 L140.8107 6 L140.8107 -2.75 L142.2638 -2.75 L142.2638 -1.3906 Q142.7794 -2.1875 143.4748 -2.5781 Q144.1701 -2.9688 145.0919 -2.9688 Q146.5919 -2.9688 147.3654 -2.0312 Q148.1388 -1.0938 148.1388 0.7188 ZM157.0411 1.5156 Q157.0411 -0.0469 156.4005 -0.9062 Q155.7599 -1.7656 154.588 -1.7656 Q153.4317 -1.7656 152.7911 -0.9062 Q152.1505 -0.0469 152.1505 1.5156 Q152.1505 3.0781 152.7911 3.9375 Q153.4317 4.7969 154.588 4.7969 Q155.7599 4.7969 156.4005 3.9375 Q157.0411 3.0781 157.0411 1.5156 ZM158.4786 4.9062 Q158.4786 7.1562 157.4864 8.2422 Q156.4942 9.3281 154.4474 9.3281 Q153.6974 9.3281 153.0255 9.2188 Q152.3536 9.1094 151.713 8.875 L151.713 7.4688 Q152.3536 7.8125 152.9708 7.9766 Q153.588 8.1406 154.2286 8.1406 Q155.6349 8.1406 156.338 7.4062 Q157.0411 6.6719 157.0411 5.1719 L157.0411 4.4531 Q156.6036 5.2344 155.9083 5.6172 Q155.213 6 154.2442 6 Q152.6349 6 151.6505 4.7734 Q150.6661 3.5469 150.6661 1.5156 Q150.6661 -0.5156 151.6505 -1.7422 Q152.6349 -2.9688 154.2442 -2.9688 Q155.213 -2.9688 155.9083 -2.5859 Q156.6036 -2.2031 157.0411 -1.4219 L157.0411 -2.75 L158.4786 -2.75 L158.4786 4.9062 Z"></path></g><g style="stroke-linecap:butt; fill:rgb(0,114,189); text-rendering:geometricPrecision; image-rendering:optimizeQuality; color-rendering:optimizeQuality; stroke-linejoin:round; stroke:rgb(0,114,189); color-interpolation:linearRGB; stroke-width:3.2639;"><line y2="306.1212" style="fill:none;" x1="272.0152" x2="311.3308" y1="306.1212"></line></g><g transform="translate(314,338)" style="font-size:16.45px; text-rendering:geometricPrecision; color-rendering:optimizeQuality; image-rendering:optimizeQuality; font-family:'SansSerif'; color-interpolation:linearRGB;"><path style="stroke:none;" d="M1.9844 -1.3281 L4.5625 -1.3281 L4.5625 -10.2344 L1.7656 -9.6719 L1.7656 -11.1094 L4.5469 -11.6719 L6.125 -11.6719 L6.125 -1.3281 L8.7031 -1.3281 L8.7031 0 L1.9844 0 L1.9844 -1.3281 ZM15.5518 -10.625 Q14.333 -10.625 13.7159 -9.4297 Q13.0987 -8.2344 13.0987 -5.8281 Q13.0987 -3.4219 13.7159 -2.2266 Q14.333 -1.0312 15.5518 -1.0312 Q16.7705 -1.0312 17.3877 -2.2266 Q18.0049 -3.4219 18.0049 -5.8281 Q18.0049 -8.2344 17.3877 -9.4297 Q16.7705 -10.625 15.5518 -10.625 ZM15.5518 -11.875 Q17.5049 -11.875 18.544 -10.3281 Q19.583 -8.7812 19.583 -5.8281 Q19.583 -2.875 18.544 -1.3203 Q17.5049 0.2344 15.5518 0.2344 Q13.583 0.2344 12.5518 -1.3203 Q11.5205 -2.875 11.5205 -5.8281 Q11.5205 -8.7812 12.5518 -10.3281 Q13.583 -11.875 15.5518 -11.875 ZM27.5942 -12.1562 L29.0473 -12.1562 L29.0473 -4.9844 L33.3286 -8.75 L35.1723 -8.75 L30.5317 -4.6562 L35.3598 0 L33.4848 0 L29.0473 -4.2812 L29.0473 0 L27.5942 0 L27.5942 -12.1562 ZM37.2382 -11.6719 L38.8163 -11.6719 L38.8163 -6.8906 L44.5507 -6.8906 L44.5507 -11.6719 L46.1288 -11.6719 L46.1288 0 L44.5507 0 L44.5507 -5.5625 L38.8163 -5.5625 L38.8163 0 L37.2382 0 L37.2382 -11.6719 ZM48.9109 -8.75 L55.739 -8.75 L55.739 -7.4375 L50.3328 -1.1562 L55.739 -1.1562 L55.739 0 L48.7078 0 L48.7078 -1.3125 L54.114 -7.6094 L48.9109 -7.6094 L48.9109 -8.75 ZM58.5234 -1.9844 L60.1796 -1.9844 L60.1796 -0.6406 L58.8984 1.8594 L57.8828 1.8594 L58.5234 -0.6406 L58.5234 -1.9844 ZM73.1453 -10.2969 L69.1609 -4.0625 L73.1453 -4.0625 L73.1453 -10.2969 ZM72.739 -11.6719 L74.7234 -11.6719 L74.7234 -4.0625 L76.3796 -4.0625 L76.3796 -2.75 L74.7234 -2.75 L74.7234 0 L73.1453 0 L73.1453 -2.75 L67.8796 -2.75 L67.8796 -4.2812 L72.739 -11.6719 ZM79.2908 -11.6719 L85.4783 -11.6719 L85.4783 -10.3438 L80.7283 -10.3438 L80.7283 -7.4844 Q81.0721 -7.5938 81.4158 -7.6562 Q81.7596 -7.7188 82.1033 -7.7188 Q84.0564 -7.7188 85.1971 -6.6484 Q86.3377 -5.5781 86.3377 -3.75 Q86.3377 -1.8594 85.1658 -0.8125 Q83.9939 0.2344 81.8689 0.2344 Q81.1346 0.2344 80.3689 0.1016 Q79.6033 -0.0312 78.7908 -0.2812 L78.7908 -1.8594 Q79.4939 -1.4844 80.2439 -1.2969 Q80.9939 -1.1094 81.8377 -1.1094 Q83.1814 -1.1094 83.9705 -1.8203 Q84.7596 -2.5312 84.7596 -3.75 Q84.7596 -4.9688 83.9705 -5.6797 Q83.1814 -6.3906 81.8377 -6.3906 Q81.1971 -6.3906 80.5721 -6.25 Q79.9471 -6.1094 79.2908 -5.8125 L79.2908 -11.6719 Z"></path></g><g transform="translate(403,330)" style="font-size:13.16px; text-rendering:geometricPrecision; color-rendering:optimizeQuality; image-rendering:optimizeQuality; font-family:serif; color-interpolation:linearRGB;"><path style="stroke:none;" d="M3.25 -8.7656 Q2.7656 -8.7656 2.4375 -8.4375 Q2.1094 -8.1094 2.1094 -7.625 Q2.1094 -7.1406 2.4375 -6.8125 Q2.7656 -6.4844 3.25 -6.4844 Q3.7344 -6.4844 4.0625 -6.8125 Q4.3906 -7.1406 4.3906 -7.625 Q4.3906 -8.0938 4.0547 -8.4297 Q3.7188 -8.7656 3.25 -8.7656 ZM3.25 -9.6562 Q3.6562 -9.6562 4.0312 -9.5 Q4.4062 -9.3438 4.6719 -9.0469 Q4.9688 -8.7656 5.1172 -8.3984 Q5.2656 -8.0312 5.2656 -7.625 Q5.2656 -6.7812 4.6797 -6.2031 Q4.0938 -5.625 3.2344 -5.625 Q2.375 -5.625 1.8047 -6.1953 Q1.2344 -6.7656 1.2344 -7.625 Q1.2344 -8.4688 1.8203 -9.0625 Q2.4062 -9.6562 3.25 -9.6562 Z"></path></g><g transform="translate(410,338)" style="font-size:16.45px; text-rendering:geometricPrecision; color-rendering:optimizeQuality; image-rendering:optimizeQuality; font-family:'SansSerif'; color-interpolation:linearRGB;"><path style="stroke:none;" d="M12.3188 -8.5 L12.3188 -7.1406 Q11.7094 -7.4531 11.0531 -7.6094 Q10.3969 -7.7656 9.6938 -7.7656 Q8.6156 -7.7656 8.0844 -7.4375 Q7.5531 -7.1094 7.5531 -6.4531 Q7.5531 -5.9531 7.9359 -5.6641 Q8.3188 -5.375 9.475 -5.125 L9.9594 -5.0156 Q11.4906 -4.6875 12.1391 -4.0859 Q12.7875 -3.4844 12.7875 -2.4219 Q12.7875 -1.2031 11.8188 -0.4844 Q10.85 0.2344 9.1625 0.2344 Q8.4594 0.2344 7.7016 0.0938 Q6.9438 -0.0469 6.1 -0.3281 L6.1 -1.8125 Q6.8969 -1.3906 7.6703 -1.1875 Q8.4438 -0.9844 9.1938 -0.9844 Q10.2094 -0.9844 10.7563 -1.3281 Q11.3031 -1.6719 11.3031 -2.3125 Q11.3031 -2.8906 10.9125 -3.2031 Q10.5219 -3.5156 9.1781 -3.8125 L8.6781 -3.9219 Q7.35 -4.2031 6.7563 -4.7891 Q6.1625 -5.375 6.1625 -6.3906 Q6.1625 -7.625 7.0375 -8.2969 Q7.9125 -8.9688 9.5219 -8.9688 Q10.3188 -8.9688 11.0219 -8.8516 Q11.725 -8.7344 12.3188 -8.5 ZM16.7264 -11.2344 L16.7264 -8.75 L19.6795 -8.75 L19.6795 -7.6406 L16.7264 -7.6406 L16.7264 -2.8906 Q16.7264 -1.8125 17.0154 -1.5078 Q17.3045 -1.2031 18.2108 -1.2031 L19.6795 -1.2031 L19.6795 0 L18.2108 0 Q16.5389 0 15.9061 -0.625 Q15.2733 -1.25 15.2733 -2.8906 L15.2733 -7.6406 L14.2264 -7.6406 L14.2264 -8.75 L15.2733 -8.75 L15.2733 -11.2344 L16.7264 -11.2344 ZM29.2339 -4.7344 L29.2339 -4.0312 L22.6245 -4.0312 Q22.7182 -2.5469 23.5151 -1.7734 Q24.312 -1 25.7495 -1 Q26.5776 -1 27.351 -1.2031 Q28.1245 -1.4062 28.8901 -1.8125 L28.8901 -0.4531 Q28.1245 -0.125 27.312 0.0547 Q26.4995 0.2344 25.6557 0.2344 Q23.562 0.2344 22.3432 -0.9922 Q21.1245 -2.2188 21.1245 -4.2969 Q21.1245 -6.4375 22.2807 -7.7031 Q23.437 -8.9688 25.4057 -8.9688 Q27.1714 -8.9688 28.2026 -7.8281 Q29.2339 -6.6875 29.2339 -4.7344 ZM27.7964 -5.1562 Q27.7807 -6.3438 27.1323 -7.0469 Q26.4839 -7.75 25.4214 -7.75 Q24.2182 -7.75 23.4995 -7.0703 Q22.7807 -6.3906 22.6714 -5.1562 L27.7964 -5.1562 ZM39.3468 -4.7344 L39.3468 -4.0312 L32.7374 -4.0312 Q32.8311 -2.5469 33.628 -1.7734 Q34.4249 -1 35.8624 -1 Q36.6905 -1 37.464 -1.2031 Q38.2374 -1.4062 39.003 -1.8125 L39.003 -0.4531 Q38.2374 -0.125 37.4249 0.0547 Q36.6124 0.2344 35.7686 0.2344 Q33.6749 0.2344 32.4561 -0.9922 Q31.2374 -2.2188 31.2374 -4.2969 Q31.2374 -6.4375 32.3936 -7.7031 Q33.5499 -8.9688 35.5186 -8.9688 Q37.2843 -8.9688 38.3155 -7.8281 Q39.3468 -6.6875 39.3468 -4.7344 ZM37.9093 -5.1562 Q37.8936 -6.3438 37.2452 -7.0469 Q36.5968 -7.75 35.5343 -7.75 Q34.3311 -7.75 33.6124 -7.0703 Q32.8936 -6.3906 32.7843 -5.1562 L37.9093 -5.1562 ZM47.0378 -7.4062 Q46.8034 -7.5469 46.5144 -7.6172 Q46.2253 -7.6875 45.8816 -7.6875 Q44.6628 -7.6875 44.0144 -6.8906 Q43.3659 -6.0938 43.3659 -4.6094 L43.3659 0 L41.9128 0 L41.9128 -8.75 L43.3659 -8.75 L43.3659 -7.3906 Q43.8191 -8.1875 44.5456 -8.5781 Q45.2722 -8.9688 46.3034 -8.9688 Q46.4597 -8.9688 46.6394 -8.9453 Q46.8191 -8.9219 47.0378 -8.8906 L47.0378 -7.4062 ZM48.7333 -8.75 L50.1708 -8.75 L50.1708 0 L48.7333 0 L48.7333 -8.75 ZM48.7333 -12.1562 L50.1708 -12.1562 L50.1708 -10.3438 L48.7333 -10.3438 L48.7333 -12.1562 ZM60.5658 -5.2812 L60.5658 0 L59.1283 0 L59.1283 -5.2344 Q59.1283 -6.4844 58.6439 -7.1016 Q58.1595 -7.7188 57.1908 -7.7188 Q56.0345 -7.7188 55.3627 -6.9766 Q54.6908 -6.2344 54.6908 -4.9531 L54.6908 0 L53.2377 0 L53.2377 -8.75 L54.6908 -8.75 L54.6908 -7.3906 Q55.2064 -8.1875 55.9017 -8.5781 Q56.597 -8.9688 57.5189 -8.9688 Q59.0189 -8.9688 59.7924 -8.0312 Q60.5658 -7.0938 60.5658 -5.2812 ZM69.4681 -4.4844 Q69.4681 -6.0469 68.8275 -6.9062 Q68.1868 -7.7656 67.015 -7.7656 Q65.8587 -7.7656 65.2181 -6.9062 Q64.5775 -6.0469 64.5775 -4.4844 Q64.5775 -2.9219 65.2181 -2.0625 Q65.8587 -1.2031 67.015 -1.2031 Q68.1868 -1.2031 68.8275 -2.0625 Q69.4681 -2.9219 69.4681 -4.4844 ZM70.9056 -1.0938 Q70.9056 1.1562 69.9134 2.2422 Q68.9212 3.3281 66.8743 3.3281 Q66.1243 3.3281 65.4525 3.2188 Q64.7806 3.1094 64.14 2.875 L64.14 1.4688 Q64.7806 1.8125 65.3978 1.9766 Q66.015 2.1406 66.6556 2.1406 Q68.0618 2.1406 68.765 1.4062 Q69.4681 0.6719 69.4681 -0.8281 L69.4681 -1.5469 Q69.0306 -0.7656 68.3353 -0.3828 Q67.64 0 66.6712 0 Q65.0618 0 64.0775 -1.2266 Q63.0931 -2.4531 63.0931 -4.4844 Q63.0931 -6.5156 64.0775 -7.7422 Q65.0618 -8.9688 66.6712 -8.9688 Q67.64 -8.9688 68.3353 -8.5859 Q69.0306 -8.2031 69.4681 -7.4219 L69.4681 -8.75 L70.9056 -8.75 L70.9056 -1.0938 Z"></path></g><g style="stroke-linecap:butt; fill:rgb(217,83,25); text-rendering:geometricPrecision; image-rendering:optimizeQuality; color-rendering:optimizeQuality; stroke-linejoin:bevel; stroke-dasharray:12,3,6,3; stroke:rgb(217,83,25); color-interpolation:linearRGB; stroke-width:3.2639; stroke-miterlimit:1;"><line y2="329.3535" style="fill:none;" x1="272.0152" x2="311.3308" y1="329.3535"></line></g><g style="stroke-linecap:butt; fill:rgb(38,38,38); text-rendering:geometricPrecision; color-rendering:optimizeQuality; image-rendering:optimizeQuality; stroke:rgb(38,38,38); color-interpolation:linearRGB; stroke-width:0.6528;"><path d="M268 344 L268 294 L488 294 L488 344 Z" style="fill:none; fill-rule:evenodd;"></path></g></g></svg> 